<?xml version="1.0" encoding="UTF-8"?>
<svg xmlns="http://www.w3.org/2000/svg" version="1.1" viewBox="0 0 1920 1080">
  <!-- Generator: Adobe Illustrator 29.8.2, SVG Export Plug-In . SVG Version: 2.1.1 Build 3)  -->
  <defs>
    <style>
      .st0 {
        stroke-width: .96px;
      }

      .st0, .st1 {
        fill: #303030;
        stroke: #424242;
        stroke-miterlimit: 10;
      }

      .st2 {
        fill: #fff;
      }

      .st3 {
        stroke-width: 3px;
      }

      .st3, .st4 {
        fill: none;
        stroke: #fff;
        stroke-linecap: round;
        stroke-linejoin: round;
      }

      .st4 {
        stroke-width: 3.03px;
      }

      .st5 {
        fill: #212121;
      }

      .st6 {
        fill: #e87f0c;
      }
    </style>
  </defs>
  <g id="Layer_2">
    <rect class="st5" x=".18" y="-.1" width="1920" height="1080"/>
  </g>
  <g id="Layer_1">
    <g>
      <path class="st2" d="M99.56,62.05v6.77c-.23.34-.59.72-1.09,1.14s-1.19.78-2.06,1.09-2,.46-3.38.46c-1.13,0-2.16-.2-3.1-.59s-1.76-.97-2.45-1.73-1.22-1.68-1.6-2.77-.56-2.32-.56-3.7v-1.43c0-1.38.16-2.61.49-3.69s.81-2,1.44-2.76,1.41-1.33,2.34-1.73,1.98-.59,3.17-.59c1.41,0,2.6.24,3.55.73s1.7,1.16,2.23,2.01.88,1.83,1.03,2.92h-2.45c-.11-.67-.33-1.28-.65-1.83s-.79-.99-1.39-1.33-1.38-.5-2.32-.5c-.85,0-1.6.16-2.22.47s-1.14.76-1.55,1.35-.71,1.29-.91,2.12-.3,1.76-.3,2.81v1.46c0,1.07.12,2.02.37,2.86s.61,1.55,1.07,2.14,1.02,1.03,1.67,1.34,1.36.46,2.15.46c.87,0,1.58-.07,2.12-.22s.96-.33,1.27-.53.54-.4.7-.59v-4.14h-4.28v-1.98h6.72Z"/>
      <path class="st2" d="M102.63,64.54v-.29c0-.99.14-1.91.43-2.76s.7-1.59,1.24-2.22,1.2-1.12,1.97-1.47,1.63-.53,2.59-.53,1.83.18,2.61.53,1.43.84,1.98,1.47.96,1.37,1.25,2.22.43,1.77.43,2.76v.29c0,.99-.14,1.91-.43,2.75s-.7,1.58-1.25,2.22-1.2,1.12-1.97,1.47-1.63.53-2.6.53-1.83-.18-2.6-.53-1.43-.84-1.97-1.47-.96-1.37-1.25-2.22-.43-1.76-.43-2.75ZM104.98,64.25v.29c0,.69.08,1.33.24,1.94s.4,1.14.73,1.61.73.83,1.23,1.1,1.06.4,1.71.4,1.21-.13,1.69-.4.89-.63,1.21-1.1.56-1,.73-1.61.25-1.25.25-1.94v-.29c0-.68-.08-1.32-.25-1.92s-.41-1.14-.74-1.61-.73-.84-1.22-1.11-1.06-.41-1.71-.41-1.21.14-1.69.41-.89.64-1.22,1.11-.57,1.01-.73,1.61-.24,1.25-.24,1.92Z"/>
      <path class="st2" d="M124.52,51.76h2.36v16.83l-.2,2.67h-2.16v-19.5ZM136.16,64.28v.27c0,1-.12,1.92-.36,2.77s-.58,1.59-1.04,2.22-1.02,1.11-1.68,1.46-1.42.52-2.27.52-1.64-.15-2.29-.45-1.21-.73-1.66-1.3-.81-1.25-1.07-2.06-.45-1.71-.55-2.72v-1.17c.1-1.02.29-1.93.55-2.73s.62-1.49,1.07-2.06,1-1.01,1.65-1.31,1.41-.45,2.27-.45,1.63.17,2.3.5,1.23.81,1.68,1.43.8,1.36,1.03,2.22.36,1.81.36,2.86ZM133.8,64.54v-.27c0-.69-.06-1.33-.19-1.94s-.33-1.14-.61-1.6-.65-.83-1.1-1.09-1.02-.4-1.69-.4c-.59,0-1.11.1-1.54.3s-.81.48-1.11.82-.55.73-.74,1.17-.33.89-.43,1.35v3.06c.14.59.36,1.16.67,1.71s.72.99,1.24,1.34,1.17.52,1.94.52c.63,0,1.18-.13,1.63-.39s.82-.62,1.1-1.07.49-.99.63-1.59.2-1.24.2-1.93Z"/>
      <path class="st2" d="M147.64,62.93l.03,1.65h-2.37c-.67,0-1.27.05-1.79.16s-.96.26-1.32.48-.63.48-.81.79-.28.69-.28,1.11.1.83.29,1.18.49.64.88.84.88.31,1.45.31c.72,0,1.35-.15,1.9-.46s.99-.68,1.31-1.12.5-.87.53-1.28l1,1.13c-.06.36-.22.75-.48,1.18s-.61.84-1.05,1.24-.95.72-1.55.98-1.27.39-2.01.39c-.93,0-1.75-.18-2.44-.55s-1.24-.85-1.62-1.47-.58-1.3-.58-2.06.14-1.39.43-1.95.7-1.03,1.24-1.41,1.19-.66,1.96-.86,1.61-.29,2.55-.29h2.73ZM147.23,68.91v-7.07c0-.54-.11-1.01-.32-1.42s-.54-.71-.97-.93-.96-.33-1.6-.33c-.59,0-1.11.1-1.56.3s-.79.47-1.04.8-.37.69-.37,1.07h-2.35c0-.49.13-.98.38-1.46s.62-.92,1.1-1.31,1.05-.71,1.73-.94,1.42-.35,2.25-.35c1,0,1.88.17,2.65.51s1.37.85,1.8,1.53.65,1.53.65,2.56v6.4c0,.46.04.94.12,1.46s.2.96.36,1.33v.2h-2.45c-.12-.27-.21-.63-.28-1.09s-.1-.87-.1-1.26Z"/>
      <path class="st2" d="M158.77,69.58c.56,0,1.07-.11,1.55-.34s.86-.54,1.17-.95.48-.86.52-1.38h2.23c-.04.81-.32,1.57-.82,2.27s-1.16,1.26-1.97,1.69-1.71.64-2.68.64c-1.03,0-1.93-.18-2.7-.55s-1.4-.86-1.9-1.5-.88-1.36-1.13-2.19-.37-1.7-.37-2.62v-.53c0-.92.12-1.8.37-2.62s.63-1.56,1.13-2.19,1.14-1.13,1.9-1.5,1.67-.55,2.7-.55,2.01.22,2.82.65,1.44,1.03,1.9,1.78.71,1.6.76,2.55h-2.23c-.04-.57-.2-1.08-.48-1.54s-.65-.82-1.12-1.1-1.02-.41-1.64-.41c-.72,0-1.32.14-1.81.43s-.87.66-1.16,1.14-.49,1.01-.61,1.59-.18,1.17-.18,1.77v.53c0,.6.06,1.19.18,1.78s.32,1.11.6,1.59.67.85,1.16,1.14,1.09.43,1.82.43Z"/>
      <path class="st2" d="M169.24,51.76v19.5h-2.36v-19.5h2.36ZM177.64,57.52l-5.99,6.41-3.35,3.48-.19-2.5,2.4-2.87,4.27-4.52h2.87ZM175.49,71.26l-4.9-6.55,1.22-2.09,6.45,8.65h-2.77Z"/>
    </g>
    <path class="st3" d="M53.5,63.31h18M53.73,63.66l7.28-7.28M53.73,63.66l7.28,7.28"/>
    <g>
      <path class="st2" d="M895.78,235.59c0-.69-.1-1.3-.31-1.85-.2-.55-.58-1.05-1.11-1.52-.54-.46-1.3-.93-2.28-1.41-.98-.47-2.27-.96-3.87-1.46-1.82-.59-3.55-1.27-5.19-2.02-1.64-.75-3.1-1.63-4.38-2.63s-2.29-2.17-3.02-3.51-1.1-2.89-1.1-4.68.38-3.28,1.14-4.68c.76-1.39,1.83-2.58,3.2-3.58,1.37-.99,2.99-1.75,4.84-2.28,1.85-.53,3.9-.79,6.12-.79,2.97,0,5.58.52,7.83,1.57,2.25,1.05,4.01,2.51,5.27,4.4,1.26,1.88,1.89,4.07,1.89,6.55h-9.02c0-1.09-.23-2.06-.68-2.91-.46-.84-1.14-1.51-2.06-1.99-.92-.48-2.06-.72-3.44-.72s-2.45.2-3.35.6c-.9.4-1.58.94-2.03,1.63-.45.69-.68,1.44-.68,2.25,0,.65.17,1.24.51,1.77.34.53.84,1.02,1.5,1.48s1.47.89,2.44,1.29c.96.41,2.07.8,3.31,1.17,2.17.69,4.1,1.45,5.77,2.28s3.09,1.78,4.24,2.84c1.15,1.06,2.02,2.25,2.6,3.59.58,1.34.88,2.85.88,4.54,0,1.8-.35,3.4-1.04,4.79-.7,1.39-1.7,2.57-3.01,3.55-1.31.97-2.87,1.71-4.69,2.21-1.82.5-3.85.75-6.1.75-2.04,0-4.05-.26-6.04-.79-1.99-.53-3.78-1.34-5.39-2.44-1.6-1.09-2.89-2.49-3.84-4.19-.96-1.7-1.43-3.72-1.43-6.05h9.07c0,1.22.18,2.26.53,3.1.35.84.86,1.53,1.52,2.05.66.52,1.46.89,2.41,1.11s2,.33,3.17.33c1.35,0,2.45-.19,3.3-.57.84-.38,1.47-.9,1.88-1.57.41-.67.61-1.41.61-2.23Z"/>
      <path class="st2" d="M909.61,208.37c0-1.26.45-2.3,1.34-3.1.89-.81,2.06-1.21,3.51-1.21s2.62.4,3.52,1.21c.9.81,1.35,1.84,1.35,3.1s-.45,2.27-1.35,3.08c-.9.81-2.07,1.21-3.52,1.21s-2.62-.4-3.51-1.21c-.89-.81-1.34-1.83-1.34-3.08ZM918.85,216.16v30.11h-8.71v-30.11h8.71Z"/>
      <path class="st2" d="M923.94,231.58v-.58c0-2.28.28-4.36.83-6.25.56-1.88,1.37-3.51,2.44-4.87,1.07-1.36,2.36-2.42,3.87-3.16,1.51-.74,3.21-1.11,5.11-1.11,2.04,0,3.73.39,5.07,1.16s2.42,1.85,3.26,3.23,1.49,3.01,1.98,4.87c.48,1.87.87,3.88,1.17,6.05v1c-.3,2.08-.72,4.02-1.28,5.82-.56,1.8-1.28,3.38-2.17,4.75-.89,1.36-2,2.43-3.33,3.2-1.33.77-2.91,1.16-4.75,1.16s-3.56-.38-5.07-1.14-2.79-1.83-3.85-3.2c-1.07-1.37-1.88-2.99-2.44-4.84-.56-1.85-.83-3.88-.83-6.07ZM944.07,216.16h7.9v29.03c0,2.76-.63,5.11-1.88,7.04-1.25,1.93-2.99,3.4-5.22,4.4s-4.83,1.5-7.82,1.5c-1.3,0-2.65-.17-4.06-.51-1.41-.34-2.74-.85-3.98-1.53-1.24-.68-2.28-1.54-3.12-2.57l3.7-5.12c.85.96,1.87,1.75,3.06,2.35,1.19.6,2.54.9,4.06.9,1.39,0,2.57-.25,3.53-.75.96-.5,1.7-1.23,2.21-2.2.51-.96.77-2.13.77-3.51v-21.99l.83-7.04ZM932.63,231v.58c0,1.19.12,2.29.35,3.31.23,1.02.58,1.92,1.06,2.7.47.78,1.07,1.39,1.78,1.82.71.44,1.55.65,2.52.65,1.41,0,2.56-.3,3.44-.9.88-.6,1.53-1.44,1.95-2.52.42-1.08.64-2.33.65-3.76v-2.92c0-1.19-.12-2.25-.36-3.2-.24-.95-.6-1.74-1.07-2.39-.47-.65-1.09-1.15-1.84-1.49-.75-.34-1.66-.52-2.71-.52-.95,0-1.78.22-2.5.65-.72.44-1.33,1.04-1.81,1.82-.48.78-.84,1.69-1.09,2.74-.24,1.05-.36,2.19-.36,3.41Z"/>
      <path class="st2" d="M966.28,222.59v23.69h-8.71v-30.11h8.18l.53,6.43ZM965.13,230.16l-2.17.06c0-2.26.28-4.3.83-6.1.56-1.8,1.35-3.33,2.38-4.61,1.03-1.27,2.26-2.24,3.7-2.91,1.44-.67,3.03-1,4.77-1,1.41,0,2.7.2,3.87.61,1.17.41,2.17,1.06,3.02,1.96.84.9,1.49,2.09,1.93,3.56.45,1.48.67,3.29.67,5.44v19.09h-8.74v-19.12c0-1.26-.18-2.24-.53-2.92-.35-.69-.87-1.17-1.54-1.45-.68-.28-1.5-.42-2.46-.42-1.02,0-1.89.2-2.62.6-.72.4-1.32.95-1.78,1.66-.46.71-.8,1.53-1.02,2.48s-.32,1.97-.32,3.06Z"/>
      <path class="st2" d="M1003.93,208.37c0-1.26.45-2.3,1.34-3.1.89-.81,2.06-1.21,3.51-1.21s2.62.4,3.52,1.21c.9.81,1.35,1.84,1.35,3.1s-.45,2.27-1.35,3.08c-.9.81-2.07,1.21-3.52,1.21s-2.62-.4-3.51-1.21c-.89-.81-1.34-1.83-1.34-3.08ZM1013.17,216.16v30.11h-8.71v-30.11h8.71Z"/>
      <path class="st2" d="M1027.92,222.59v23.69h-8.71v-30.11h8.18l.53,6.43ZM1026.78,230.16l-2.17.06c0-2.26.28-4.3.83-6.1.56-1.8,1.35-3.33,2.38-4.61,1.03-1.27,2.26-2.24,3.7-2.91,1.44-.67,3.03-1,4.77-1,1.41,0,2.7.2,3.87.61,1.17.41,2.17,1.06,3.02,1.96.84.9,1.49,2.09,1.93,3.56.45,1.48.67,3.29.67,5.44v19.09h-8.74v-19.12c0-1.26-.18-2.24-.53-2.92-.35-.69-.87-1.17-1.54-1.45-.68-.28-1.5-.42-2.46-.42-1.02,0-1.89.2-2.62.6-.72.4-1.32.95-1.78,1.66-.46.71-.8,1.53-1.02,2.48s-.32,1.97-.32,3.06Z"/>
    </g>
    <g>
      <rect class="st6" x="715.29" y="752.47" width="489.43" height="70.74" rx="35.37" ry="35.37"/>
      <g>
        <path class="st2" d="M934.48,790.29c0-.29-.04-.56-.13-.79-.09-.24-.25-.45-.48-.65s-.56-.4-.98-.59c-.42-.19-.96-.4-1.63-.61-.74-.24-1.44-.51-2.11-.81-.66-.3-1.25-.65-1.75-1.05-.51-.4-.9-.87-1.19-1.4s-.43-1.15-.43-1.85.15-1.3.45-1.86.72-1.04,1.26-1.44,1.18-.71,1.92-.93c.74-.22,1.55-.33,2.43-.33,1.21,0,2.26.22,3.16.65s1.6,1.03,2.09,1.79c.5.76.75,1.62.75,2.59h-3.35c0-.48-.1-.9-.3-1.26s-.5-.65-.9-.86c-.4-.21-.9-.31-1.51-.31s-1.07.09-1.46.26-.68.41-.88.71-.29.63-.29.99c0,.28.07.53.21.75s.35.43.62.63c.28.19.62.38,1.02.55s.87.34,1.4.5c.89.27,1.67.57,2.35.91s1.25.71,1.7,1.13c.46.42.8.89,1.03,1.43.23.53.35,1.13.35,1.81,0,.71-.14,1.35-.42,1.91-.28.56-.68,1.04-1.2,1.43s-1.15.68-1.88.89c-.73.2-1.54.3-2.44.3-.81,0-1.61-.11-2.39-.32-.79-.21-1.5-.54-2.14-.97-.64-.43-1.15-.99-1.53-1.66s-.57-1.47-.57-2.39h3.38c0,.51.08.94.24,1.29.16.35.38.64.67.85.29.22.63.38,1.03.47.4.1.84.15,1.32.15.58,0,1.07-.08,1.44-.25s.66-.39.84-.69c.18-.29.28-.62.28-.99Z"/>
        <path class="st2" d="M939.9,779.25c0-.47.16-.86.49-1.17.33-.31.77-.46,1.32-.46s.99.15,1.32.46.5.7.5,1.17-.17.86-.5,1.17-.77.46-1.32.46-1-.15-1.32-.46c-.33-.31-.49-.7-.49-1.17ZM943.34,782.41v12.15h-3.25v-12.15h3.25Z"/>
        <path class="st2" d="M945.54,788.63v-.24c0-.93.11-1.77.34-2.53s.55-1.41.98-1.96c.42-.55.94-.97,1.54-1.27s1.29-.45,2.05-.45c.81,0,1.49.15,2.03.45s1,.72,1.35,1.27c.35.55.63,1.2.83,1.94s.35,1.56.47,2.44v.52c-.11.85-.28,1.63-.5,2.36s-.52,1.36-.89,1.9c-.37.54-.82.96-1.36,1.26s-1.19.45-1.94.45-1.42-.15-2.03-.46c-.6-.31-1.12-.74-1.54-1.29-.43-.55-.75-1.21-.98-1.95s-.34-1.56-.34-2.45ZM953.71,782.41h2.93v11.75c0,1.11-.25,2.05-.74,2.82-.49.78-1.17,1.36-2.05,1.76s-1.89.6-3.05.6c-.51,0-1.05-.07-1.61-.2s-1.1-.34-1.62-.63-.94-.64-1.29-1.08l1.43-1.91c.38.43.81.77,1.3,1.02s1.04.37,1.64.37,1.08-.11,1.48-.32c.4-.21.71-.52.93-.93s.33-.9.33-1.48v-8.96l.31-2.81ZM948.77,788.4v.24c0,.5.05.97.15,1.4.1.43.25.82.46,1.15s.46.59.77.78.68.28,1.11.28c.59,0,1.07-.13,1.45-.38.38-.25.66-.6.84-1.04.19-.44.3-.95.33-1.53v-1.47c-.01-.47-.08-.9-.19-1.27s-.27-.7-.47-.97-.46-.48-.79-.63-.7-.22-1.15-.22-.8.1-1.11.29c-.31.19-.57.45-.77.78-.21.33-.36.72-.47,1.16-.1.45-.16.93-.16,1.44Z"/>
        <path class="st2" d="M962.32,785.01v9.56h-3.23v-12.15h3.03l.2,2.59ZM961.85,788.06h-.88c0-.9.12-1.71.35-2.43.23-.72.56-1.34.98-1.85s.92-.91,1.5-1.18,1.23-.41,1.95-.41c.57,0,1.09.08,1.56.25s.88.43,1.22.79.6.83.79,1.43c.18.59.28,1.31.28,2.17v7.75h-3.26v-7.76c0-.54-.07-.96-.22-1.26-.15-.3-.37-.51-.66-.63-.29-.12-.64-.19-1.06-.19s-.81.09-1.13.26c-.32.17-.58.41-.79.71-.21.3-.36.66-.47,1.06s-.16.84-.16,1.3Z"/>
        <path class="st2" d="M977.73,779.25c0-.47.16-.86.49-1.17.33-.31.77-.46,1.32-.46s.99.15,1.32.46.5.7.5,1.17-.17.86-.5,1.17-.77.46-1.32.46-1-.15-1.32-.46c-.33-.31-.49-.7-.49-1.17ZM981.18,782.41v12.15h-3.25v-12.15h3.25Z"/>
        <path class="st2" d="M987.02,785.01v9.56h-3.23v-12.15h3.03l.2,2.59ZM986.55,788.06h-.88c0-.9.12-1.71.35-2.43.23-.72.56-1.34.98-1.85s.92-.91,1.5-1.18,1.23-.41,1.95-.41c.57,0,1.09.08,1.56.25s.88.43,1.22.79.6.83.79,1.43c.18.59.28,1.31.28,2.17v7.75h-3.26v-7.76c0-.54-.07-.96-.22-1.26-.15-.3-.37-.51-.66-.63-.29-.12-.64-.19-1.06-.19s-.81.09-1.13.26c-.32.17-.58.41-.79.71-.21.3-.36.66-.47,1.06s-.16.84-.16,1.3Z"/>
      </g>
    </g>
    <g>
      <rect class="st0" x="715.29" y="415.56" width="489.43" height="70.74" rx="35.37" ry="35.37"/>
      <g>
        <path class="st2" d="M759.16,457.27c-.72,0-1.39-.13-1.99-.4-.6-.27-1.13-.64-1.58-1.13s-.79-1.06-1.04-1.73c-.24-.67-.36-1.4-.36-2.19v-.44c0-.85.13-1.63.38-2.32s.6-1.28,1.05-1.77.95-.87,1.52-1.13c.57-.26,1.17-.39,1.8-.39.7,0,1.33.12,1.88.37.55.25,1.01.6,1.38,1.06s.65.99.85,1.61c.19.62.29,1.3.29,2.05v.75h-8.4v-1.05h7.18v-.14c-.01-.62-.14-1.2-.37-1.75-.24-.54-.59-.99-1.05-1.33s-1.05-.51-1.74-.51c-.52,0-1,.11-1.43.33-.43.22-.81.53-1.12.94-.31.41-.55.89-.72,1.45s-.25,1.17-.25,1.85v.44c0,.62.09,1.19.27,1.72.18.53.44,1,.78,1.4.34.4.74.72,1.21.94s.98.34,1.54.34c.66,0,1.24-.12,1.74-.36.51-.24.96-.63,1.36-1.15l.77.59c-.24.36-.54.68-.9.98-.36.3-.79.54-1.29.72s-1.08.27-1.74.27Z"/>
        <path class="st2" d="M766.89,448.26v8.8h-1.23v-11.09h1.18l.05,2.3ZM766.67,450.83l-.59-.31c.04-.66.17-1.27.37-1.85s.5-1.08.88-1.52.83-.78,1.35-1.03,1.12-.37,1.79-.37c.54,0,1.03.07,1.47.22.44.15.82.38,1.13.69.31.31.55.72.72,1.22s.26,1.1.26,1.79v7.38h-1.22v-7.34c0-.74-.11-1.32-.34-1.73-.23-.42-.55-.71-.95-.89s-.88-.27-1.41-.27c-.63,0-1.16.13-1.59.38-.43.26-.79.59-1.06.99-.27.41-.47.84-.6,1.3-.13.46-.2.9-.21,1.32ZM774.04,449.86l-.82.02c.03-.54.16-1.06.37-1.55.21-.49.51-.93.89-1.32.38-.39.83-.69,1.35-.92.52-.23,1.11-.34,1.77-.34.57,0,1.09.08,1.54.23.45.15.83.4,1.14.73.31.33.55.75.71,1.27s.25,1.13.25,1.85v7.23h-1.23v-7.24c0-.79-.11-1.4-.34-1.83-.23-.43-.55-.74-.95-.91s-.88-.26-1.42-.26c-.53,0-1,.1-1.4.29-.4.19-.74.43-1.01.74-.27.3-.48.63-.62.98-.14.35-.22.69-.23,1.03Z"/>
        <path class="st2" d="M791.39,450.6l.02.94h-2.41c-.63,0-1.19.06-1.69.17-.5.11-.91.28-1.26.49-.34.22-.6.47-.78.77s-.27.64-.27,1.03.1.76.3,1.09c.2.33.49.59.86.78.37.2.81.29,1.33.29.68,0,1.29-.13,1.81-.38.52-.25.96-.58,1.3-.99s.57-.86.69-1.34l.53.71c-.09.34-.25.69-.49,1.05-.24.36-.54.69-.92,1s-.82.56-1.33.76c-.51.19-1.08.29-1.73.29-.72,0-1.36-.14-1.89-.41-.54-.27-.95-.65-1.25-1.12-.3-.47-.45-1.01-.45-1.61,0-.55.12-1.04.35-1.47s.57-.8,1.01-1.11c.44-.3.97-.54,1.6-.7.63-.16,1.33-.24,2.11-.24h2.55ZM791.1,455.07v-5.72c0-.53-.11-.98-.33-1.36s-.54-.68-.96-.88-.95-.31-1.57-.31c-.57,0-1.09.1-1.53.3-.45.2-.8.47-1.06.81-.26.34-.38.71-.38,1.12h-1.23c0-.43.1-.83.31-1.22s.5-.74.87-1.05.83-.55,1.35-.73c.52-.18,1.1-.27,1.73-.27.79,0,1.49.13,2.1.4.6.27,1.08.67,1.42,1.2s.51,1.2.51,2.01v5.36c0,.38.03.78.09,1.19s.14.75.25,1.02v.12h-1.3c-.08-.25-.15-.56-.19-.93-.04-.37-.07-.73-.07-1.06Z"/>
        <path class="st2" d="M795.53,442.76c0-.23.07-.43.22-.59.15-.16.35-.24.61-.24s.47.08.62.24c.15.16.23.36.23.59s-.08.42-.23.58c-.15.16-.36.24-.62.24s-.46-.08-.61-.24c-.15-.16-.22-.35-.22-.58ZM796.97,445.97v11.09h-1.22v-11.09h1.22Z"/>
        <path class="st2" d="M801.68,441.31v15.75h-1.22v-15.75h1.22Z"/>
      </g>
      <path class="st4" d="M1166.02,459.78l-9.53-8.6M1148.3,451.18l-9.53,8.6M1138.05,444.01l11.71,8.2c.95.66,1.42,1,1.94,1.12.46.11.93.11,1.39,0,.52-.13.99-.46,1.94-1.12l11.71-8.2M1144.7,462.4h14.91c2.41,0,3.61,0,4.53-.47.81-.41,1.47-1.07,1.88-1.88.47-.92.47-2.12.47-4.53v-9.18c0-2.41,0-3.61-.47-4.53-.41-.81-1.07-1.47-1.88-1.88-.92-.47-2.12-.47-4.53-.47h-14.91c-2.41,0-3.61,0-4.53.47-.81.41-1.47,1.07-1.88,1.88-.47.92-.47,2.12-.47,4.53v9.18c0,2.41,0,3.61.47,4.53.41.81,1.07,1.47,1.88,1.88.92.47,2.12.47,4.53.47Z"/>
    </g>
    <g>
      <rect class="st0" x="715.29" y="515.11" width="489.43" height="70.74" rx="35.37" ry="35.37"/>
      <g>
        <path class="st2" d="M758.62,547.66v13.23h-1.23v-15.36h1.15l.08,2.13ZM766.33,550.97v.22c0,.83-.1,1.59-.29,2.28s-.47,1.29-.83,1.79c-.36.5-.8.89-1.33,1.16s-1.12.41-1.79.41-1.25-.1-1.77-.31-.97-.5-1.34-.88c-.37-.38-.67-.82-.89-1.33-.22-.51-.38-1.07-.47-1.68v-2.84c.1-.67.27-1.28.5-1.83s.53-1.02.9-1.42.8-.7,1.31-.91c.51-.21,1.08-.32,1.73-.32s1.28.13,1.81.39c.53.26.98.64,1.34,1.14.37.5.64,1.09.83,1.78.19.69.28,1.47.28,2.33ZM765.1,551.18v-.22c0-.65-.07-1.25-.2-1.8-.13-.55-.34-1.04-.61-1.45-.27-.41-.61-.74-1.03-.97-.41-.23-.9-.35-1.47-.35s-1.09.1-1.5.29c-.41.19-.76.45-1.03.77-.27.32-.49.67-.65,1.04s-.27.75-.35,1.11v3.27c.13.52.34,1,.63,1.44.29.44.67.79,1.15,1.06.48.26,1.07.39,1.77.39.56,0,1.05-.12,1.46-.35s.75-.56,1.02-.97.47-.9.61-1.46c.13-.55.2-1.16.2-1.8Z"/>
        <path class="st2" d="M776.08,550.16l.02.94h-2.41c-.63,0-1.19.06-1.69.17-.5.11-.91.28-1.26.49-.34.22-.6.47-.78.77s-.27.64-.27,1.03.1.76.3,1.09c.2.33.49.59.86.78.37.2.81.29,1.33.29.68,0,1.29-.13,1.81-.38.52-.25.96-.58,1.3-.99s.57-.86.69-1.34l.53.71c-.09.34-.25.69-.49,1.05-.24.36-.54.69-.92,1-.38.31-.82.56-1.33.76-.51.19-1.08.29-1.73.29-.72,0-1.36-.14-1.89-.41-.54-.27-.95-.65-1.25-1.12-.3-.47-.45-1.01-.45-1.62,0-.55.12-1.04.35-1.47.23-.43.57-.8,1.01-1.11.44-.3.97-.54,1.6-.7.63-.16,1.33-.24,2.11-.24h2.55ZM775.79,554.63v-5.72c0-.53-.11-.98-.33-1.36s-.54-.68-.96-.88-.95-.31-1.57-.31c-.57,0-1.09.1-1.53.3-.45.2-.8.47-1.06.81-.26.34-.38.71-.38,1.12h-1.23c0-.43.1-.83.31-1.22s.5-.74.87-1.05.83-.55,1.35-.73c.52-.18,1.1-.27,1.73-.27.79,0,1.49.13,2.1.4.6.27,1.08.67,1.42,1.2s.51,1.2.51,2.01v5.36c0,.38.03.78.09,1.19s.14.75.25,1.02v.12h-1.3c-.08-.25-.15-.56-.19-.93-.04-.37-.07-.73-.07-1.06Z"/>
        <path class="st2" d="M786.94,553.79c0-.3-.08-.6-.23-.89-.15-.29-.44-.56-.87-.81s-1.05-.45-1.88-.63c-.62-.14-1.16-.29-1.65-.46-.48-.17-.89-.38-1.21-.62s-.58-.53-.75-.86-.26-.73-.26-1.19c0-.41.09-.8.27-1.16.18-.37.44-.69.78-.96.34-.28.75-.49,1.23-.65.48-.16,1.02-.24,1.63-.24.85,0,1.59.15,2.2.44.61.29,1.08.69,1.4,1.18s.49,1.06.49,1.69h-1.22c0-.38-.11-.74-.33-1.09s-.55-.62-.97-.84c-.43-.22-.95-.33-1.56-.33s-1.15.1-1.55.29c-.4.19-.69.43-.87.73-.18.29-.27.6-.27.91,0,.25.04.47.12.67.08.2.22.39.43.56.21.17.51.33.9.48s.9.3,1.52.44c.9.2,1.63.44,2.2.72.57.28.99.63,1.27,1.05.27.41.41.91.41,1.5,0,.46-.1.88-.29,1.26-.19.38-.47.71-.83.98-.36.27-.79.49-1.29.64-.5.15-1.06.23-1.69.23-.94,0-1.73-.16-2.37-.47-.65-.31-1.14-.72-1.47-1.23-.33-.51-.5-1.05-.5-1.62h1.22c.04.57.22,1.03.54,1.36.32.33.72.57,1.18.7.47.14.93.21,1.39.21.63,0,1.16-.09,1.58-.28s.75-.43.96-.73.33-.63.33-.97Z"/>
        <path class="st2" d="M797.58,553.79c0-.3-.08-.6-.23-.89-.15-.29-.44-.56-.87-.81s-1.05-.45-1.88-.63c-.62-.14-1.16-.29-1.65-.46-.48-.17-.89-.38-1.21-.62s-.58-.53-.75-.86-.26-.73-.26-1.19c0-.41.09-.8.27-1.16.18-.37.44-.69.78-.96.34-.28.75-.49,1.23-.65.48-.16,1.02-.24,1.63-.24.85,0,1.59.15,2.2.44.61.29,1.08.69,1.4,1.18s.49,1.06.49,1.69h-1.22c0-.38-.11-.74-.33-1.09s-.55-.62-.97-.84c-.43-.22-.95-.33-1.56-.33s-1.15.1-1.55.29c-.4.19-.69.43-.87.73-.18.29-.27.6-.27.91,0,.25.04.47.12.67.08.2.22.39.43.56.21.17.51.33.9.48s.9.3,1.52.44c.9.2,1.63.44,2.2.72.57.28.99.63,1.27,1.05.27.41.41.91.41,1.5,0,.46-.1.88-.29,1.26-.19.38-.47.71-.83.98-.36.27-.79.49-1.29.64-.5.15-1.06.23-1.69.23-.94,0-1.73-.16-2.37-.47-.65-.31-1.14-.72-1.47-1.23-.33-.51-.5-1.05-.5-1.62h1.22c.04.57.22,1.03.54,1.36.32.33.72.57,1.18.7.47.14.93.21,1.39.21.63,0,1.16-.09,1.58-.28s.75-.43.96-.73.33-.63.33-.97Z"/>
        <path class="st2" d="M801.88,545.52l2.35,8.55.5,2.54h-.89l-3.22-11.09h1.26ZM804.66,554.03l2.68-8.5h.86l-.51,2.29-2.8,8.81h-.86l.64-2.59ZM808.37,545.52l2.64,8.43.67,2.67h-.86l-2.86-8.82-.48-2.28h.9ZM811.53,554.04l2.29-8.52h1.26l-3.22,11.09h-.88l.55-2.57Z"/>
        <path class="st2" d="M816.75,551.25v-.34c0-.81.12-1.55.35-2.24.23-.68.57-1.27,1-1.77.43-.5.96-.89,1.56-1.16.61-.28,1.28-.42,2.03-.42s1.43.14,2.04.42c.61.28,1.13.67,1.57,1.16s.77,1.09,1.01,1.77c.23.68.35,1.43.35,2.24v.34c0,.81-.12,1.55-.35,2.23-.23.68-.57,1.27-1,1.77-.43.5-.96.89-1.56,1.16-.61.28-1.29.42-2.03.42s-1.43-.14-2.04-.42c-.61-.28-1.13-.67-1.57-1.16-.44-.5-.77-1.09-1.01-1.77-.23-.68-.35-1.42-.35-2.23ZM817.97,550.91v.34c0,.61.08,1.18.25,1.73.16.54.4,1.03.72,1.45.31.42.7.75,1.17.99s1,.36,1.61.36,1.13-.12,1.59-.36c.46-.24.85-.57,1.16-.99.31-.42.55-.9.71-1.45.16-.54.24-1.12.24-1.73v-.34c0-.6-.08-1.17-.24-1.71-.16-.54-.4-1.02-.72-1.45-.32-.42-.71-.76-1.17-1.01s-1-.37-1.6-.37-1.13.12-1.59.37c-.46.25-.85.58-1.17,1.01-.32.42-.56.91-.72,1.45-.16.54-.24,1.11-.24,1.71Z"/>
        <path class="st2" d="M830.4,547.36v9.26h-1.22v-11.09h1.19l.03,1.83ZM834.33,545.44l-.03,1.13c-.14-.02-.27-.04-.4-.05s-.27-.02-.42-.02c-.53,0-1,.1-1.4.29-.4.19-.74.46-1.01.81-.27.35-.48.75-.62,1.21-.14.46-.23.96-.25,1.48l-.45.17c0-.72.08-1.4.23-2.02s.38-1.17.69-1.64c.31-.47.7-.83,1.18-1.1.48-.26,1.03-.39,1.68-.39.16,0,.31.01.47.04.15.02.27.05.34.09Z"/>
        <path class="st2" d="M835.56,551.18v-.22c0-.86.1-1.64.3-2.33.2-.69.48-1.29.86-1.78.37-.5.82-.88,1.35-1.14.53-.26,1.12-.39,1.79-.39s1.22.11,1.72.32c.5.21.93.52,1.29.91.36.4.65.87.87,1.42.22.55.38,1.16.49,1.83v2.74c-.08.63-.23,1.21-.45,1.73-.22.52-.51.98-.87,1.36-.36.39-.8.68-1.31.89-.51.21-1.1.31-1.76.31s-1.25-.14-1.77-.41-.97-.66-1.34-1.16c-.37-.5-.65-1.1-.85-1.79s-.3-1.45-.3-2.28ZM836.79,550.97v.22c0,.65.07,1.25.2,1.8s.33,1.04.59,1.45.6.73,1.01.96c.41.23.9.35,1.46.35.7,0,1.29-.14,1.77-.41.48-.27.86-.63,1.15-1.08.29-.45.5-.94.62-1.47v-3.19c-.08-.36-.2-.73-.36-1.11s-.37-.72-.64-1.04c-.27-.32-.61-.57-1.03-.77-.41-.2-.92-.29-1.5-.29s-1.06.12-1.47.35c-.41.23-.75.56-1.02.97-.27.41-.47.9-.6,1.45-.13.55-.2,1.16-.2,1.8ZM843.26,554.47v-13.6h1.23v15.75h-1.15l-.08-2.15Z"/>
      </g>
      <path class="st2" d="M1159.89,546.48h-.34v-2.33h0c0-3.44-2.79-6.24-6.24-6.24s-6.24,2.79-6.24,6.24v2.33h-.34c-2.38,0-4.32,1.93-4.32,4.32v7.94c0,2.38,1.93,4.32,4.32,4.32h13.15c2.38,0,4.32-1.93,4.32-4.32v-7.94c0-2.38-1.93-4.32-4.32-4.32ZM1149.32,546.48v-2.33h0c0-2.2,1.79-3.99,3.99-3.99s3.99,1.79,3.99,3.99h0v2.33h-7.98Z"/>
    </g>
    <g>
      <rect class="st0" x="715.29" y="614.67" width="489.43" height="70.74" rx="35.37" ry="35.37"/>
      <g>
        <path class="st2" d="M761.5,655.33c.52,0,1.01-.1,1.46-.29.45-.19.83-.49,1.13-.87.3-.39.47-.86.51-1.42h1.17c-.03.71-.25,1.33-.64,1.88-.39.55-.91.98-1.54,1.29-.63.31-1.33.47-2.09.47s-1.45-.14-2.05-.42c-.59-.28-1.08-.67-1.48-1.17-.4-.5-.7-1.09-.9-1.76-.2-.67-.3-1.4-.3-2.18v-.43c0-.78.1-1.51.3-2.18.2-.67.5-1.26.9-1.76.4-.5.89-.89,1.48-1.17s1.27-.42,2.04-.42,1.51.16,2.14.48c.63.32,1.14.78,1.52,1.36.38.59.59,1.29.62,2.09h-1.17c-.03-.59-.19-1.11-.47-1.54s-.65-.76-1.11-.99-.97-.35-1.53-.35c-.63,0-1.17.12-1.61.36-.44.24-.8.57-1.08,1-.28.42-.48.9-.61,1.44-.13.54-.19,1.1-.19,1.69v.43c0,.59.06,1.16.19,1.7.13.54.33,1.01.61,1.43.28.42.64.75,1.09.99.45.24.99.36,1.62.36Z"/>
        <path class="st2" d="M767.55,650.8v-.34c0-.81.12-1.55.35-2.24.23-.68.57-1.27,1-1.77s.96-.89,1.56-1.16c.61-.28,1.29-.42,2.03-.42s1.43.14,2.04.42c.61.28,1.13.67,1.57,1.16s.77,1.09,1,1.77c.23.68.35,1.43.35,2.24v.34c0,.81-.12,1.55-.35,2.23-.23.68-.57,1.27-1,1.77-.43.5-.96.89-1.56,1.16-.61.28-1.29.42-2.03.42s-1.43-.14-2.04-.42c-.61-.28-1.13-.67-1.57-1.16s-.77-1.09-1-1.77c-.23-.68-.35-1.42-.35-2.23ZM768.77,650.47v.34c0,.61.08,1.18.25,1.73.16.54.4,1.03.72,1.45.31.42.7.75,1.17.99s1,.36,1.61.36,1.13-.12,1.59-.36c.46-.24.85-.57,1.16-.99.31-.42.55-.9.71-1.45.16-.54.24-1.12.24-1.73v-.34c0-.6-.08-1.17-.24-1.71-.16-.54-.4-1.02-.72-1.45-.32-.42-.71-.76-1.17-1.01s-1-.37-1.6-.37-1.13.12-1.59.37c-.46.25-.85.58-1.17,1.01-.32.42-.56.91-.72,1.45-.16.54-.24,1.11-.24,1.71Z"/>
        <path class="st2" d="M781.21,647.45v8.73h-1.22v-11.09h1.17l.05,2.37ZM780.93,649.94l-.54-.31c.04-.66.17-1.27.4-1.85s.53-1.08.92-1.52.84-.78,1.36-1.03c.52-.25,1.1-.37,1.74-.37.55,0,1.05.08,1.49.23s.81.39,1.12.72.54.75.7,1.26c.16.51.24,1.14.24,1.88v7.22h-1.23v-7.23c0-.77-.11-1.37-.32-1.8-.21-.43-.51-.74-.9-.93-.39-.18-.85-.28-1.38-.28-.59,0-1.1.13-1.54.38-.44.26-.81.59-1.11.99-.3.41-.52.84-.68,1.3-.16.46-.24.9-.26,1.32Z"/>
        <path class="st2" d="M796.28,645.08v1h-5.7v-1h5.7ZM793.63,656.18h-1.22v-12.47c0-.76.13-1.4.4-1.92.26-.52.64-.91,1.13-1.18.49-.27,1.07-.4,1.75-.4.21,0,.43.01.66.04.23.02.44.07.66.14l-.09,1.04c-.17-.05-.34-.08-.52-.1-.17-.02-.38-.03-.61-.03-.44,0-.83.09-1.15.28-.32.19-.57.46-.74.82s-.26.79-.26,1.31v12.47Z"/>
        <path class="st2" d="M798.41,641.87c0-.23.07-.43.22-.59.15-.16.35-.24.61-.24s.47.08.62.24c.15.16.23.36.23.59s-.08.42-.23.58c-.15.16-.36.24-.62.24s-.46-.08-.61-.24c-.15-.16-.22-.35-.22-.58ZM799.85,645.08v11.09h-1.22v-11.09h1.22Z"/>
        <path class="st2" d="M804.42,646.92v9.26h-1.22v-11.09h1.19l.03,1.83ZM808.35,645l-.03,1.13c-.14-.02-.27-.04-.4-.05s-.27-.02-.42-.02c-.53,0-1,.1-1.4.29-.4.19-.74.46-1.01.81-.27.35-.48.75-.63,1.21-.14.46-.23.96-.25,1.48l-.45.17c0-.72.08-1.4.23-2.02s.38-1.17.69-1.64c.31-.47.7-.83,1.18-1.1.48-.26,1.03-.39,1.68-.39.16,0,.31.01.47.04.15.02.27.05.34.09Z"/>
        <path class="st2" d="M811.42,647.38v8.8h-1.23v-11.09h1.18l.05,2.3ZM811.2,649.94l-.59-.31c.04-.66.17-1.27.37-1.85s.5-1.08.88-1.52.83-.78,1.35-1.03,1.12-.37,1.79-.37c.54,0,1.03.07,1.47.22.44.15.82.38,1.13.69s.55.72.72,1.21c.17.5.26,1.1.26,1.79v7.38h-1.22v-7.34c0-.74-.11-1.32-.34-1.73-.23-.42-.55-.71-.95-.89-.41-.18-.88-.27-1.41-.27-.63,0-1.16.13-1.59.38-.43.26-.79.59-1.06.99-.27.41-.47.84-.6,1.3-.13.46-.2.9-.21,1.32ZM818.57,648.98l-.82.02c.03-.54.16-1.06.37-1.55.21-.49.51-.93.89-1.32.38-.39.83-.69,1.35-.92.52-.23,1.11-.34,1.77-.34.57,0,1.09.08,1.54.23.45.15.83.4,1.14.73.31.33.55.75.71,1.27.16.51.25,1.13.25,1.85v7.23h-1.23v-7.24c0-.79-.11-1.4-.34-1.83-.23-.43-.55-.74-.95-.91-.4-.17-.88-.26-1.42-.26-.53,0-1,.1-1.4.29-.4.19-.74.43-1.01.74-.27.3-.48.63-.62.98-.14.35-.22.69-.23,1.03Z"/>
        <path class="st2" d="M835.21,647.22v13.23h-1.23v-15.36h1.15l.08,2.13ZM842.92,650.53v.22c0,.83-.1,1.59-.29,2.28-.19.69-.47,1.29-.83,1.79-.36.5-.8.89-1.33,1.16s-1.12.41-1.79.41-1.25-.1-1.77-.31-.96-.5-1.34-.88c-.37-.38-.67-.82-.89-1.33-.22-.51-.38-1.07-.47-1.68v-2.84c.1-.67.27-1.28.5-1.83.23-.55.53-1.02.9-1.42.37-.4.8-.7,1.31-.91.51-.21,1.08-.32,1.73-.32s1.28.13,1.81.39c.53.26.98.64,1.34,1.14.37.5.64,1.09.83,1.78.19.69.28,1.47.28,2.33ZM841.69,650.74v-.22c0-.65-.07-1.25-.2-1.8-.13-.55-.33-1.04-.61-1.45-.27-.41-.61-.74-1.03-.97-.41-.23-.9-.35-1.47-.35s-1.09.1-1.5.29c-.41.19-.76.45-1.03.77-.27.32-.49.67-.65,1.04-.16.38-.27.75-.35,1.11v3.27c.13.52.34,1,.63,1.44.29.44.67.79,1.15,1.06.48.26,1.07.39,1.77.39.56,0,1.04-.12,1.46-.35s.75-.56,1.02-.97c.27-.42.47-.9.61-1.46.13-.55.2-1.16.2-1.8Z"/>
        <path class="st2" d="M852.68,649.72l.02.94h-2.41c-.63,0-1.19.06-1.69.17-.5.11-.92.28-1.26.49-.34.22-.6.47-.79.77-.18.3-.27.64-.27,1.03s.1.76.3,1.09c.2.33.49.59.86.78.37.2.81.29,1.33.29.68,0,1.29-.13,1.81-.38.52-.25.96-.58,1.3-.99s.57-.86.69-1.34l.53.71c-.09.34-.25.69-.49,1.05-.24.36-.54.69-.92,1-.38.31-.82.56-1.33.76-.51.19-1.08.29-1.73.29-.72,0-1.36-.14-1.89-.41-.54-.27-.95-.65-1.25-1.12-.3-.47-.45-1.01-.45-1.62,0-.55.12-1.04.35-1.47.23-.43.57-.8,1.01-1.11.44-.3.97-.54,1.6-.7.63-.16,1.33-.24,2.11-.24h2.55ZM852.39,654.19v-5.72c0-.53-.11-.98-.33-1.36-.22-.38-.54-.68-.96-.88s-.95-.31-1.57-.31c-.57,0-1.08.1-1.53.3-.45.2-.8.47-1.06.81-.26.34-.38.71-.38,1.12h-1.23c0-.43.1-.83.31-1.22s.5-.74.87-1.05.83-.55,1.35-.73c.52-.18,1.1-.27,1.73-.27.79,0,1.49.13,2.1.4.6.27,1.08.67,1.42,1.2s.51,1.2.51,2.01v5.36c0,.38.03.78.09,1.19.06.41.14.75.25,1.02v.12h-1.3c-.08-.25-.15-.56-.19-.93-.04-.37-.07-.73-.07-1.06Z"/>
        <path class="st2" d="M863.53,653.35c0-.3-.08-.6-.22-.89-.15-.29-.44-.56-.87-.81-.43-.25-1.05-.45-1.88-.63-.62-.14-1.16-.29-1.65-.46-.48-.17-.89-.38-1.21-.62s-.58-.53-.75-.86c-.17-.33-.26-.73-.26-1.19,0-.41.09-.8.27-1.16.18-.37.44-.69.78-.96.34-.28.75-.49,1.23-.65.48-.16,1.02-.24,1.63-.24.85,0,1.59.15,2.2.44.61.29,1.08.69,1.4,1.18.33.5.49,1.06.49,1.69h-1.22c0-.38-.11-.74-.33-1.09-.22-.34-.55-.62-.97-.84-.43-.22-.95-.33-1.56-.33s-1.15.1-1.55.29c-.4.19-.69.43-.87.73-.18.29-.27.6-.27.91,0,.25.04.47.12.67.08.2.22.39.43.56.21.17.51.33.9.48s.9.3,1.52.44c.9.2,1.63.44,2.2.72.57.28.99.63,1.27,1.05.27.41.41.91.41,1.5,0,.46-.1.88-.29,1.26-.19.38-.47.71-.83.98-.36.27-.79.49-1.29.64-.5.15-1.07.23-1.69.23-.94,0-1.73-.16-2.37-.47-.65-.31-1.13-.72-1.47-1.23-.33-.51-.5-1.05-.5-1.62h1.22c.04.57.22,1.03.54,1.36.32.33.72.57,1.18.7.47.14.93.21,1.39.21.63,0,1.16-.09,1.58-.28.42-.18.74-.43.96-.73s.33-.63.33-.97Z"/>
        <path class="st2" d="M874.18,653.35c0-.3-.08-.6-.22-.89-.15-.29-.44-.56-.87-.81-.43-.25-1.05-.45-1.88-.63-.62-.14-1.16-.29-1.65-.46-.48-.17-.89-.38-1.21-.62s-.58-.53-.75-.86c-.17-.33-.26-.73-.26-1.19,0-.41.09-.8.27-1.16.18-.37.44-.69.78-.96.34-.28.75-.49,1.23-.65.48-.16,1.02-.24,1.63-.24.85,0,1.59.15,2.2.44.61.29,1.08.69,1.4,1.18.33.5.49,1.06.49,1.69h-1.22c0-.38-.11-.74-.33-1.09-.22-.34-.55-.62-.97-.84-.43-.22-.95-.33-1.56-.33s-1.15.1-1.55.29c-.4.19-.69.43-.87.73-.18.29-.27.6-.27.91,0,.25.04.47.12.67.08.2.22.39.43.56.21.17.51.33.9.48s.9.3,1.52.44c.9.2,1.63.44,2.2.72.57.28.99.63,1.27,1.05.27.41.41.91.41,1.5,0,.46-.1.88-.29,1.26-.19.38-.47.71-.83.98-.36.27-.79.49-1.29.64-.5.15-1.07.23-1.69.23-.94,0-1.73-.16-2.37-.47-.65-.31-1.13-.72-1.47-1.23-.33-.51-.5-1.05-.5-1.62h1.22c.04.57.22,1.03.54,1.36.32.33.72.57,1.18.7.47.14.93.21,1.39.21.63,0,1.16-.09,1.58-.28.42-.18.74-.43.96-.73s.33-.63.33-.97Z"/>
        <path class="st2" d="M878.47,645.08l2.35,8.55.5,2.54h-.89l-3.22-11.09h1.26ZM881.25,653.58l2.68-8.5h.86l-.51,2.29-2.8,8.81h-.86l.63-2.59ZM884.97,645.08l2.63,8.43.67,2.67h-.86l-2.86-8.82-.48-2.28h.9ZM888.12,653.6l2.29-8.52h1.26l-3.22,11.09h-.88l.55-2.57Z"/>
        <path class="st2" d="M893.34,650.8v-.34c0-.81.12-1.55.35-2.24.23-.68.57-1.27,1-1.77.43-.5.96-.89,1.56-1.16.61-.28,1.28-.42,2.03-.42s1.43.14,2.04.42c.61.28,1.13.67,1.57,1.16s.77,1.09,1.01,1.77c.23.68.35,1.43.35,2.24v.34c0,.81-.12,1.55-.35,2.23-.23.68-.57,1.27-1,1.77-.43.5-.96.89-1.56,1.16-.61.28-1.29.42-2.03.42s-1.43-.14-2.04-.42c-.61-.28-1.13-.67-1.57-1.16-.44-.5-.77-1.09-1.01-1.77-.23-.68-.35-1.42-.35-2.23ZM894.56,650.47v.34c0,.61.08,1.18.25,1.73.16.54.4,1.03.72,1.45.31.42.7.75,1.17.99s1,.36,1.61.36,1.13-.12,1.59-.36c.46-.24.85-.57,1.16-.99.31-.42.55-.9.71-1.45.16-.54.24-1.12.24-1.73v-.34c0-.6-.08-1.17-.24-1.71-.16-.54-.4-1.02-.72-1.45-.32-.42-.71-.76-1.17-1.01s-1-.37-1.6-.37-1.13.12-1.59.37c-.46.25-.85.58-1.17,1.01-.32.42-.56.91-.72,1.45-.16.54-.24,1.11-.24,1.71Z"/>
        <path class="st2" d="M907,646.92v9.26h-1.22v-11.09h1.19l.03,1.83ZM910.93,645l-.03,1.13c-.14-.02-.27-.04-.4-.05s-.27-.02-.42-.02c-.53,0-1,.1-1.4.29-.4.19-.74.46-1.01.81-.27.35-.48.75-.62,1.21-.14.46-.23.96-.25,1.48l-.45.17c0-.72.08-1.4.23-2.02s.38-1.17.69-1.64c.31-.47.7-.83,1.18-1.1.48-.26,1.03-.39,1.68-.39.16,0,.31.01.47.04.15.02.27.05.34.09Z"/>
        <path class="st2" d="M912.16,650.74v-.22c0-.86.1-1.64.3-2.33.2-.69.48-1.29.86-1.78.37-.5.82-.88,1.35-1.14.53-.26,1.12-.39,1.79-.39s1.22.11,1.72.32c.5.21.93.52,1.29.91.36.4.65.87.87,1.42.22.55.38,1.16.49,1.83v2.74c-.08.63-.23,1.21-.45,1.73-.22.52-.51.98-.87,1.36-.36.39-.8.68-1.31.89-.51.21-1.1.31-1.76.31s-1.25-.14-1.77-.41-.97-.66-1.34-1.16c-.37-.5-.65-1.1-.85-1.79s-.3-1.45-.3-2.28ZM913.39,650.53v.22c0,.65.07,1.25.2,1.8s.33,1.04.59,1.45.6.73,1.01.96c.41.23.9.35,1.46.35.7,0,1.29-.14,1.77-.41.48-.27.86-.63,1.15-1.08.29-.45.5-.94.62-1.47v-3.19c-.08-.36-.2-.73-.36-1.11s-.37-.72-.64-1.04c-.27-.32-.61-.57-1.03-.77-.41-.2-.92-.29-1.5-.29s-1.06.12-1.47.35c-.41.23-.75.56-1.02.97-.27.41-.47.9-.6,1.45-.13.55-.2,1.16-.2,1.8ZM919.86,654.02v-13.6h1.23v15.75h-1.15l-.08-2.15Z"/>
      </g>
      <path class="st2" d="M1159.89,646.04h-.34v-2.33h0c0-3.44-2.79-6.24-6.24-6.24s-6.24,2.79-6.24,6.24v2.33h-.34c-2.38,0-4.32,1.93-4.32,4.32v7.94c0,2.38,1.93,4.32,4.32,4.32h13.15c2.38,0,4.32-1.93,4.32-4.32v-7.94c0-2.38-1.93-4.32-4.32-4.32ZM1149.32,646.04v-2.33h0c0-2.2,1.79-3.99,3.99-3.99s3.99,1.79,3.99,3.99h0v2.33h-7.98Z"/>
    </g>
    <g>
      <path class="st2" d="M819.35,853.48l-4.94,13.61h-2.02l5.69-14.93h1.3l-.03,1.32ZM823.23,861.56v1.62h-8.39v-1.62h8.39ZM823.49,867.09l-4.95-13.61-.03-1.32h1.3l5.71,14.93h-2.03Z"/>
      <path class="st2" d="M829.29,851.34v15.75h-1.91v-15.75h1.91Z"/>
      <path class="st2" d="M834.24,857.74v9.35h-1.9v-11.09h1.85l.05,1.74ZM837.7,855.93v1.76c-.17-.03-.32-.06-.46-.07-.14-.01-.3-.02-.48-.02-.44,0-.82.07-1.16.21s-.62.33-.85.57-.42.54-.55.88c-.13.34-.22.71-.26,1.11l-.53.31c0-.67.07-1.3.2-1.89.13-.59.34-1.11.62-1.56.28-.46.64-.81,1.07-1.07.43-.26.95-.38,1.55-.38.14,0,.29.02.47.05.18.03.3.06.37.1Z"/>
      <path class="st2" d="M843.86,867.3c-.77,0-1.47-.13-2.1-.39-.63-.26-1.16-.63-1.61-1.11-.45-.48-.79-1.04-1.03-1.7s-.36-1.38-.36-2.15v-.43c0-.9.13-1.71.4-2.42.27-.71.63-1.31,1.09-1.8s.98-.86,1.56-1.12,1.18-.38,1.8-.38c.79,0,1.48.14,2.06.41.58.27,1.05.65,1.42,1.14.37.49.64,1.06.82,1.72.18.66.27,1.38.27,2.16v.85h-8.29v-1.55h6.39v-.14c-.03-.49-.13-.97-.3-1.44-.17-.46-.45-.85-.83-1.15s-.89-.45-1.54-.45c-.43,0-.83.09-1.19.27-.36.18-.67.45-.93.81s-.46.79-.61,1.3-.21,1.1-.21,1.77v.43c0,.53.07,1.02.22,1.48.15.46.36.87.65,1.21.28.35.63.62,1.04.82.41.2.87.3,1.39.3.67,0,1.24-.14,1.7-.41.46-.27.87-.64,1.22-1.1l1.15.91c-.24.36-.54.71-.91,1.04s-.82.59-1.36.8c-.54.21-1.17.31-1.9.31Z"/>
      <path class="st2" d="M857.27,860.36l.02,1.33h-1.92c-.54,0-1.02.04-1.45.13-.42.09-.78.21-1.07.38s-.51.38-.66.64c-.15.26-.23.56-.23.9s.08.67.24.95.39.51.71.68c.32.17.71.25,1.17.25.58,0,1.09-.12,1.54-.37s.8-.55,1.06-.9c.26-.36.41-.7.43-1.04l.81.91c-.05.29-.18.6-.39.95-.21.35-.49.68-.85,1-.35.32-.77.58-1.25.79-.48.21-1.02.31-1.62.31-.75,0-1.41-.15-1.97-.44-.56-.29-1-.69-1.31-1.18-.31-.5-.47-1.05-.47-1.67s.12-1.12.35-1.57c.23-.46.57-.83,1-1.14.44-.3.96-.53,1.58-.69s1.3-.24,2.06-.24h2.21ZM856.94,865.19v-5.71c0-.44-.09-.82-.26-1.14-.17-.32-.44-.58-.78-.75-.35-.18-.78-.27-1.29-.27-.48,0-.9.08-1.26.25-.36.16-.64.38-.84.65-.2.27-.3.55-.3.86h-1.9c0-.4.1-.79.31-1.18.21-.39.5-.74.89-1.06.39-.32.85-.57,1.39-.76.54-.19,1.15-.28,1.82-.28.81,0,1.52.14,2.14.41.62.27,1.1.69,1.46,1.24.35.55.53,1.24.53,2.07v5.17c0,.37.03.76.1,1.18.06.42.16.78.29,1.08v.16h-1.98c-.1-.22-.17-.51-.23-.88-.05-.37-.08-.71-.08-1.02Z"/>
      <path class="st2" d="M861.35,861.67v-.22c0-.85.1-1.62.31-2.31.21-.69.51-1.29.89-1.79.39-.5.85-.88,1.38-1.15.54-.27,1.14-.41,1.8-.41.7,0,1.31.12,1.83.36.52.24.97.59,1.33,1.06.37.46.65,1.02.87,1.67s.36,1.38.44,2.2v.94c-.08.81-.22,1.54-.44,2.19-.21.65-.51,1.2-.87,1.66-.37.46-.81.81-1.34,1.05-.53.24-1.14.36-1.85.36-.65,0-1.24-.14-1.78-.42-.54-.28-1-.67-1.38-1.18-.39-.51-.68-1.1-.89-1.79-.21-.69-.31-1.43-.31-2.24ZM863.25,861.45v.22c0,.55.06,1.07.17,1.56.11.49.29.91.53,1.28s.54.66.91.87c.37.21.81.31,1.32.31.63,0,1.15-.13,1.55-.4.41-.27.73-.62.98-1.06.25-.44.44-.91.57-1.42v-2.47c-.08-.38-.2-.74-.35-1.09-.15-.35-.35-.67-.59-.94-.24-.28-.54-.5-.89-.66-.35-.16-.77-.25-1.25-.25-.52,0-.97.11-1.34.32-.37.21-.68.51-.92.88-.24.37-.42.8-.53,1.29-.11.49-.17,1.01-.17,1.56ZM868.81,864.94v-13.6h1.91v15.75h-1.74l-.16-2.15Z"/>
      <path class="st2" d="M874.51,856l2.88,8.61.49,2-1.36.7-4.08-11.31h2.07ZM876.78,865.94l3.09-9.95h2.03l-4.45,12.81c-.1.27-.24.57-.41.89-.17.32-.38.62-.64.91s-.57.52-.94.7c-.37.18-.8.27-1.31.27-.15,0-.34-.02-.57-.06s-.4-.08-.49-.1v-1.54s.13.01.25.03c.12,0,.2.02.25.02.43,0,.8-.06,1.1-.17.3-.11.56-.3.76-.56.21-.26.39-.62.54-1.08l.79-2.15Z"/>
      <path class="st2" d="M890.7,851.34v15.75h-1.9v-15.75h1.9ZM890.25,861.12l-.79-.03c0-.76.12-1.46.34-2.11.22-.65.53-1.21.92-1.69.4-.48.87-.85,1.42-1.11.55-.26,1.16-.39,1.83-.39.55,0,1.04.07,1.48.22.44.15.81.38,1.12.7.31.32.55.74.71,1.25.16.51.25,1.13.25,1.86v7.27h-1.91v-7.29c0-.58-.08-1.05-.26-1.4-.17-.35-.42-.61-.75-.77-.33-.16-.73-.24-1.21-.24s-.9.1-1.29.3c-.39.2-.72.47-.99.82-.28.35-.49.75-.65,1.19-.15.45-.23.92-.23,1.42Z"/>
      <path class="st2" d="M907.24,860.36l.02,1.33h-1.92c-.54,0-1.02.04-1.45.13-.42.09-.78.21-1.07.38s-.51.38-.66.64c-.15.26-.23.56-.23.9s.08.67.24.95.39.51.71.68c.32.17.71.25,1.17.25.58,0,1.09-.12,1.54-.37s.8-.55,1.06-.9c.26-.36.41-.7.43-1.04l.81.91c-.05.29-.18.6-.39.95-.21.35-.49.68-.85,1-.35.32-.77.58-1.25.79-.48.21-1.02.31-1.62.31-.75,0-1.41-.15-1.97-.44-.56-.29-1-.69-1.31-1.18-.31-.5-.47-1.05-.47-1.67s.12-1.12.35-1.57c.23-.46.57-.83,1-1.14.44-.3.96-.53,1.58-.69s1.3-.24,2.06-.24h2.21ZM906.92,865.19v-5.71c0-.44-.09-.82-.26-1.14-.17-.32-.44-.58-.78-.75-.35-.18-.78-.27-1.29-.27-.48,0-.9.08-1.26.25-.36.16-.64.38-.84.65-.2.27-.3.55-.3.86h-1.9c0-.4.1-.79.31-1.18.21-.39.5-.74.89-1.06.39-.32.85-.57,1.39-.76.54-.19,1.15-.28,1.82-.28.81,0,1.52.14,2.14.41.62.27,1.1.69,1.46,1.24.35.55.53,1.24.53,2.07v5.17c0,.37.03.76.1,1.18.06.42.16.78.29,1.08v.16h-1.98c-.1-.22-.17-.51-.23-.88-.05-.37-.08-.71-.08-1.02Z"/>
      <path class="st2" d="M912.48,856l3.13,9.43.21,1.66h-1.27l-4.02-11.09h1.95ZM915.02,865.38l3.04-9.38h1.94l-3.99,11.09h-1.27l.29-1.71Z"/>
      <path class="st2" d="M926.29,867.3c-.77,0-1.47-.13-2.1-.39-.63-.26-1.16-.63-1.61-1.11-.45-.48-.79-1.04-1.03-1.7s-.36-1.38-.36-2.15v-.43c0-.9.13-1.71.4-2.42.27-.71.63-1.31,1.09-1.8s.98-.86,1.56-1.12,1.18-.38,1.8-.38c.79,0,1.48.14,2.06.41.58.27,1.05.65,1.42,1.14.37.49.64,1.06.82,1.72.18.66.27,1.38.27,2.16v.85h-8.29v-1.55h6.39v-.14c-.03-.49-.13-.97-.3-1.44-.17-.46-.45-.85-.83-1.15s-.89-.45-1.54-.45c-.43,0-.83.09-1.19.27-.36.18-.67.45-.93.81s-.46.79-.61,1.3-.21,1.1-.21,1.77v.43c0,.53.07,1.02.22,1.48.15.46.36.87.65,1.21.28.35.63.62,1.04.82.41.2.87.3,1.39.3.67,0,1.24-.14,1.7-.41.46-.27.87-.64,1.22-1.1l1.15.91c-.24.36-.54.71-.91,1.04s-.82.59-1.36.8c-.54.21-1.17.31-1.9.31Z"/>
      <path class="st2" d="M944.9,860.36l.02,1.33h-1.92c-.54,0-1.02.04-1.45.13-.42.09-.78.21-1.07.38s-.51.38-.66.64c-.15.26-.23.56-.23.9s.08.67.24.95.39.51.71.68c.32.17.71.25,1.17.25.58,0,1.09-.12,1.54-.37s.8-.55,1.06-.9c.26-.36.41-.7.43-1.04l.81.91c-.05.29-.18.6-.39.95-.21.35-.49.68-.85,1-.35.32-.77.58-1.25.79-.48.21-1.02.31-1.62.31-.75,0-1.41-.15-1.97-.44-.56-.29-1-.69-1.31-1.18-.31-.5-.47-1.05-.47-1.67s.12-1.12.35-1.57c.23-.46.57-.83,1-1.14.44-.3.96-.53,1.58-.69s1.3-.24,2.06-.24h2.21ZM944.57,865.19v-5.71c0-.44-.09-.82-.26-1.14-.17-.32-.44-.58-.78-.75-.35-.18-.78-.27-1.29-.27-.48,0-.9.08-1.26.25-.36.16-.64.38-.84.65-.2.27-.3.55-.3.86h-1.9c0-.4.1-.79.31-1.18.21-.39.5-.74.89-1.06.39-.32.85-.57,1.39-.76.54-.19,1.15-.28,1.82-.28.81,0,1.52.14,2.14.41.62.27,1.1.69,1.46,1.24.35.55.53,1.24.53,2.07v5.17c0,.37.03.76.1,1.18.06.42.16.78.29,1.08v.16h-1.98c-.1-.22-.17-.51-.23-.88-.05-.37-.08-.71-.08-1.02Z"/>
      <path class="st2" d="M951.35,858.36v8.73h-1.9v-11.09h1.79l.1,2.37ZM950.89,861.12l-.79-.03c0-.76.12-1.46.34-2.11.22-.65.53-1.21.92-1.69.4-.48.87-.85,1.42-1.11.55-.26,1.16-.39,1.83-.39.55,0,1.04.07,1.48.22.44.15.81.38,1.12.7.31.32.55.74.71,1.25.16.51.25,1.13.25,1.86v7.27h-1.91v-7.29c0-.58-.08-1.05-.26-1.4-.17-.35-.42-.61-.75-.77-.33-.16-.73-.24-1.21-.24s-.9.1-1.29.3c-.39.2-.72.47-.99.82-.28.35-.49.75-.65,1.19-.15.45-.23.92-.23,1.42Z"/>
      <path class="st2" d="M973.12,860.36l.02,1.33h-1.92c-.54,0-1.02.04-1.45.13-.42.09-.78.21-1.07.38s-.51.38-.66.64c-.15.26-.23.56-.23.9s.08.67.24.95.39.51.71.68c.32.17.71.25,1.17.25.58,0,1.09-.12,1.54-.37s.8-.55,1.06-.9c.26-.36.4-.7.42-1.04l.81.91c-.05.29-.18.6-.39.95-.21.35-.49.68-.85,1-.35.32-.77.58-1.25.79-.48.21-1.02.31-1.63.31-.75,0-1.41-.15-1.97-.44-.56-.29-1-.69-1.31-1.18-.31-.5-.47-1.05-.47-1.67s.12-1.12.35-1.57c.23-.46.57-.83,1-1.14.44-.3.96-.53,1.58-.69s1.3-.24,2.06-.24h2.2ZM972.8,865.19v-5.71c0-.44-.09-.82-.26-1.14-.17-.32-.44-.58-.79-.75-.35-.18-.78-.27-1.29-.27-.48,0-.9.08-1.26.25-.36.16-.64.38-.84.65-.2.27-.3.55-.3.86h-1.9c0-.4.1-.79.31-1.18.21-.39.5-.74.89-1.06.39-.32.85-.57,1.39-.76.54-.19,1.15-.28,1.82-.28.81,0,1.52.14,2.14.41.62.27,1.1.69,1.46,1.24.35.55.53,1.24.53,2.07v5.17c0,.37.03.76.1,1.18.06.42.16.78.29,1.08v.16h-1.98c-.1-.22-.17-.51-.23-.88-.05-.37-.08-.71-.08-1.02Z"/>
      <path class="st2" d="M982.12,865.74c.45,0,.87-.09,1.25-.28.38-.18.7-.44.94-.76.25-.32.39-.7.42-1.11h1.8c-.03.66-.25,1.27-.66,1.83-.41.56-.94,1.02-1.59,1.36-.66.34-1.38.52-2.16.52-.83,0-1.56-.15-2.18-.44-.62-.29-1.13-.7-1.54-1.21-.41-.51-.71-1.1-.91-1.77-.2-.67-.3-1.37-.3-2.12v-.43c0-.75.1-1.45.3-2.12.2-.67.51-1.26.91-1.77.41-.51.92-.92,1.54-1.21.62-.29,1.34-.44,2.18-.44s1.63.18,2.28.53c.65.35,1.16.83,1.53,1.44.37.6.58,1.29.61,2.06h-1.8c-.03-.46-.16-.87-.38-1.24-.22-.37-.52-.66-.9-.89-.38-.22-.82-.33-1.33-.33-.58,0-1.07.11-1.46.34-.39.23-.71.54-.93.92-.23.39-.39.81-.49,1.28-.1.47-.15.95-.15,1.43v.43c0,.49.05.96.14,1.44s.26.9.49,1.28c.23.38.54.69.93.92.39.23.88.34,1.47.34Z"/>
      <path class="st2" d="M993.11,865.74c.45,0,.87-.09,1.25-.28.38-.18.7-.44.94-.76.25-.32.39-.7.42-1.11h1.8c-.03.66-.25,1.27-.66,1.83-.41.56-.94,1.02-1.59,1.36-.66.34-1.38.52-2.16.52-.83,0-1.56-.15-2.18-.44-.62-.29-1.13-.7-1.54-1.21-.41-.51-.71-1.1-.91-1.77-.2-.67-.3-1.37-.3-2.12v-.43c0-.75.1-1.45.3-2.12.2-.67.51-1.26.91-1.77.41-.51.92-.92,1.54-1.21.62-.29,1.34-.44,2.18-.44s1.63.18,2.28.53c.65.35,1.16.83,1.53,1.44.37.6.58,1.29.61,2.06h-1.8c-.03-.46-.16-.87-.38-1.24-.22-.37-.52-.66-.9-.89-.38-.22-.82-.33-1.33-.33-.58,0-1.07.11-1.46.34-.39.23-.71.54-.93.92-.23.39-.39.81-.49,1.28-.1.47-.15.95-.15,1.43v.43c0,.49.05.96.14,1.44s.26.9.49,1.28c.23.38.54.69.93.92.39.23.88.34,1.47.34Z"/>
      <path class="st2" d="M999.16,861.67v-.24c0-.8.12-1.54.35-2.23.23-.69.57-1.29,1-1.79.44-.51.97-.91,1.59-1.19.62-.28,1.32-.43,2.09-.43s1.48.14,2.11.43c.63.28,1.16.68,1.6,1.19.44.51.78,1.11,1.01,1.79.23.69.35,1.43.35,2.23v.24c0,.8-.12,1.54-.35,2.22s-.57,1.28-1.01,1.79c-.44.51-.97.91-1.59,1.19-.62.28-1.32.43-2.1.43s-1.48-.14-2.1-.43c-.62-.28-1.15-.68-1.59-1.19-.44-.51-.78-1.11-1.01-1.79s-.35-1.43-.35-2.22ZM1001.06,861.43v.24c0,.55.07,1.07.2,1.56.13.49.33.92.59,1.3.26.38.59.67.99.89.4.22.86.32,1.38.32s.98-.11,1.37-.32c.39-.21.72-.51.98-.89s.46-.81.59-1.3c.13-.49.2-1.01.2-1.56v-.24c0-.55-.07-1.06-.2-1.55-.13-.49-.33-.92-.59-1.3-.26-.38-.59-.68-.98-.9-.39-.22-.85-.33-1.38-.33s-.98.11-1.37.33c-.39.22-.72.52-.98.9-.26.38-.46.81-.59,1.3-.13.49-.2,1.01-.2,1.55Z"/>
      <path class="st2" d="M1018.79,862.19l.79-.02c0,.74-.08,1.42-.23,2.05-.15.62-.4,1.17-.74,1.62s-.79.82-1.34,1.07c-.55.26-1.23.38-2.02.38-.54,0-1.03-.08-1.48-.24-.45-.16-.83-.4-1.15-.73s-.57-.75-.74-1.28c-.17-.53-.26-1.16-.26-1.9v-7.16h1.9v7.18c0,.5.06.91.17,1.24.11.33.27.58.46.77.19.19.41.32.66.39.24.08.49.11.75.11.81,0,1.45-.16,1.92-.47.47-.31.81-.73,1.02-1.26.21-.53.31-1.12.31-1.77ZM1018.43,864.53v-8.53h1.91v11.09h-1.81l-.09-2.56Z"/>
      <path class="st2" d="M1025.11,858.36v8.73h-1.9v-11.09h1.79l.1,2.37ZM1024.66,861.12l-.79-.03c0-.76.12-1.46.34-2.11.22-.65.53-1.21.92-1.69.4-.48.87-.85,1.42-1.11.55-.26,1.16-.39,1.83-.39.55,0,1.04.07,1.48.22.44.15.81.38,1.12.7.31.32.55.74.71,1.25.16.51.25,1.13.25,1.86v7.27h-1.91v-7.29c0-.58-.08-1.05-.26-1.4-.17-.35-.42-.61-.75-.77-.33-.16-.73-.24-1.21-.24s-.9.1-1.29.3c-.39.2-.72.47-.99.82-.28.35-.49.75-.65,1.19-.15.45-.23.92-.23,1.42Z"/>
      <path class="st2" d="M1039.46,856v1.46h-6v-1.46h6ZM1035.49,853.3h1.9v11.04c0,.38.06.66.17.85s.27.32.45.38.38.09.59.09c.16,0,.32-.01.5-.05.17-.03.31-.06.39-.08v1.55c-.14.05-.34.09-.58.14-.24.04-.54.07-.88.07-.46,0-.89-.09-1.28-.28-.39-.18-.7-.49-.93-.93-.23-.43-.34-1.02-.34-1.76v-11.03Z"/>
      <path class="st2" d="M1045.8,862.89h-1.91c0-.66.07-1.19.18-1.62.11-.42.3-.8.56-1.15s.61-.75,1.04-1.19c.31-.32.6-.62.87-.91.26-.28.48-.59.64-.92.16-.33.25-.73.25-1.2s-.08-.88-.25-1.22c-.17-.34-.41-.6-.74-.79-.33-.18-.73-.28-1.21-.28-.4,0-.77.07-1.13.22-.36.14-.64.36-.86.66-.22.3-.33.69-.34,1.16h-1.9c.01-.77.21-1.44.58-1.99.37-.55.88-.98,1.51-1.27s1.35-.44,2.13-.44c.87,0,1.61.16,2.22.47.61.31,1.08.76,1.4,1.35.32.58.48,1.28.48,2.08,0,.62-.12,1.18-.37,1.7-.25.52-.57,1-.96,1.45s-.8.88-1.24,1.29c-.38.35-.63.74-.76,1.18s-.2.91-.2,1.42ZM1043.82,866.14c0-.31.1-.57.29-.78s.47-.32.83-.32.65.11.84.32.29.47.29.78-.1.55-.29.76c-.19.21-.47.32-.84.32s-.64-.11-.83-.32c-.19-.21-.29-.46-.29-.76Z"/>
      <path class="st6" d="M1059.78,852.16v14.93h-3.08v-14.93h3.08ZM1066.3,864.69v2.4h-7.52v-2.4h7.52Z"/>
      <path class="st6" d="M1067.41,861.66v-.22c0-.81.12-1.56.35-2.25.23-.69.57-1.28,1.01-1.79s.99-.9,1.64-1.18c.65-.28,1.39-.43,2.24-.43s1.59.14,2.25.43c.66.28,1.21.68,1.66,1.18.45.51.79,1.1,1.02,1.79.23.69.35,1.44.35,2.25v.22c0,.81-.12,1.55-.35,2.24-.23.69-.57,1.29-1.02,1.79-.45.51-1,.9-1.65,1.18-.65.28-1.39.42-2.24.42s-1.59-.14-2.24-.42c-.65-.28-1.2-.68-1.65-1.18-.45-.51-.79-1.11-1.02-1.79-.23-.69-.35-1.43-.35-2.24ZM1070.36,861.44v.22c0,.46.04.9.12,1.3.08.4.21.76.39,1.06.18.3.42.54.71.71s.65.26,1.08.26.76-.09,1.06-.26.53-.41.71-.71c.18-.3.31-.66.4-1.06.08-.4.13-.84.13-1.3v-.22c0-.45-.04-.88-.13-1.28-.09-.4-.22-.75-.4-1.07-.18-.31-.42-.55-.71-.73-.29-.18-.65-.27-1.07-.27s-.77.09-1.06.27c-.29.18-.53.42-.71.73-.18.31-.31.67-.39,1.07-.08.4-.12.83-.12,1.28Z"/>
      <path class="st6" d="M1079.29,861.68v-.21c0-.85.1-1.62.31-2.31.21-.69.5-1.29.89-1.79.39-.5.86-.89,1.41-1.16s1.18-.41,1.88-.41c.74,0,1.36.14,1.86.41s.91.66,1.23,1.16c.32.5.57,1.09.75,1.77.18.68.32,1.42.42,2.23v.47c-.1.77-.26,1.49-.46,2.15s-.48,1.24-.81,1.74c-.33.5-.75.88-1.25,1.15-.5.27-1.09.41-1.77.41s-1.3-.14-1.85-.42c-.55-.28-1.02-.67-1.41-1.18s-.69-1.1-.9-1.78c-.21-.68-.31-1.43-.31-2.24ZM1086.76,856h2.68v10.73c0,1.01-.22,1.87-.67,2.58-.45.71-1.07,1.24-1.87,1.61-.8.37-1.73.55-2.79.55-.46,0-.96-.06-1.47-.18-.52-.12-1.01-.31-1.48-.57-.47-.26-.86-.59-1.17-.98l1.3-1.74c.34.4.74.71,1.19.93.45.22.95.33,1.5.33s.98-.1,1.35-.29c.37-.19.65-.48.85-.85.2-.37.3-.82.3-1.35v-8.18l.29-2.56ZM1082.25,861.46v.21c0,.46.04.89.13,1.28.09.4.23.75.42,1.05.19.3.42.54.71.71.28.17.62.25,1.01.25.54,0,.98-.11,1.32-.34.34-.23.6-.54.77-.95s.27-.87.3-1.39v-1.34c-.01-.43-.07-.82-.17-1.16-.1-.34-.25-.64-.43-.89s-.42-.44-.72-.57-.64-.21-1.05-.21-.73.09-1.01.26c-.28.17-.52.41-.71.71-.19.3-.33.65-.43,1.06-.1.41-.14.85-.14,1.32Z"/>
      <path class="st6" d="M1091.7,853.1c0-.43.15-.79.45-1.07s.7-.42,1.21-.42.9.14,1.21.42c.3.28.46.64.46,1.07s-.15.79-.46,1.07c-.3.28-.71.42-1.21.42s-.91-.14-1.21-.42-.45-.64-.45-1.07ZM1094.85,856v11.09h-2.96v-11.09h2.96Z"/>
      <path class="st6" d="M1100.18,858.36v8.73h-2.95v-11.09h2.77l.18,2.37ZM1099.75,861.15h-.8c0-.82.11-1.56.32-2.22.21-.66.51-1.22.89-1.69.38-.47.84-.83,1.37-1.08.53-.25,1.12-.37,1.78-.37.52,0,1,.08,1.43.23s.8.39,1.11.72c.31.33.55.76.72,1.3.17.54.25,1.2.25,1.98v7.08h-2.97v-7.09c0-.49-.07-.87-.21-1.15-.14-.27-.34-.47-.6-.58-.26-.11-.59-.17-.97-.17s-.74.08-1.03.24c-.29.16-.53.37-.72.65-.19.28-.33.6-.43.97s-.14.77-.14,1.19Z"/>
    </g>
    <rect class="st1" x="715.29" y="316" width="489.43" height="70.74" rx="35.37" ry="35.37"/>
    <g>
      <path class="st2" d="M759.62,346.41v1h-5.7v-1h5.7ZM756.98,357.5h-1.22v-12.47c0-.76.13-1.4.4-1.92.26-.52.64-.91,1.13-1.18.49-.27,1.07-.4,1.75-.4.21,0,.43.01.66.04.23.02.44.07.66.14l-.09,1.04c-.17-.05-.34-.08-.52-.1-.17-.02-.38-.03-.61-.03-.44,0-.83.09-1.15.28-.32.19-.57.46-.74.82s-.26.79-.26,1.31v12.47Z"/>
      <path class="st2" d="M769.16,352.89l.64-.02c0,.7-.08,1.34-.25,1.93s-.42,1.1-.77,1.54-.8.78-1.35,1.02-1.22.36-2,.36c-.54,0-1.03-.08-1.48-.23-.45-.15-.83-.4-1.15-.73s-.57-.77-.74-1.3c-.17-.53-.26-1.18-.26-1.94v-7.1h1.22v7.12c0,.59.07,1.09.2,1.49.13.4.32.71.55.95.24.24.51.41.81.51s.64.15.99.15c.9,0,1.62-.17,2.14-.52.52-.35.9-.81,1.12-1.38.22-.57.33-1.18.33-1.84ZM768.93,354.94v-8.53h1.23v11.09h-1.18l-.05-2.56Z"/>
      <path class="st2" d="M774.73,341.75v15.75h-1.22v-15.75h1.22Z"/>
      <path class="st2" d="M779.44,341.75v15.75h-1.22v-15.75h1.22Z"/>
      <path class="st2" d="M789.13,348.78v8.73h-1.22v-11.09h1.17l.05,2.37ZM788.86,351.27l-.54-.31c.04-.66.17-1.27.4-1.85s.53-1.08.92-1.52.84-.78,1.36-1.03c.52-.25,1.1-.37,1.74-.37.55,0,1.05.08,1.49.23s.81.39,1.12.72.54.75.7,1.26c.16.51.24,1.14.24,1.88v7.22h-1.23v-7.23c0-.77-.11-1.37-.32-1.8s-.51-.74-.9-.93-.85-.28-1.38-.28c-.59,0-1.1.13-1.54.38-.44.26-.81.59-1.11.99-.3.41-.52.84-.68,1.3-.16.46-.24.9-.26,1.32Z"/>
      <path class="st2" d="M806.49,351.04l.02.94h-2.41c-.63,0-1.19.06-1.69.17-.5.11-.91.28-1.26.49-.34.22-.6.47-.78.77s-.27.64-.27,1.03.1.76.3,1.09c.2.33.49.59.86.78.37.2.81.29,1.33.29.68,0,1.29-.13,1.81-.38.52-.25.96-.58,1.3-.99s.57-.86.69-1.34l.53.71c-.09.34-.25.69-.49,1.05-.24.36-.54.69-.92,1s-.82.56-1.33.76c-.51.19-1.08.29-1.73.29-.72,0-1.36-.14-1.89-.41-.54-.27-.95-.65-1.25-1.12-.3-.47-.45-1.01-.45-1.61,0-.55.12-1.04.35-1.47s.57-.8,1.01-1.11c.44-.3.97-.54,1.6-.7.63-.16,1.33-.24,2.11-.24h2.55ZM806.21,355.51v-5.72c0-.53-.11-.98-.33-1.36s-.54-.68-.96-.88-.95-.31-1.57-.31c-.57,0-1.09.1-1.53.3-.45.2-.8.47-1.06.81-.26.34-.38.71-.38,1.12h-1.23c0-.43.1-.83.31-1.22s.5-.74.87-1.05.83-.55,1.35-.73c.52-.18,1.1-.27,1.73-.27.79,0,1.49.13,2.1.4.6.27,1.08.67,1.42,1.2s.51,1.2.51,2.01v5.36c0,.38.03.78.09,1.19s.14.75.25,1.02v.12h-1.3c-.08-.25-.15-.56-.19-.93-.04-.37-.07-.73-.07-1.06Z"/>
      <path class="st2" d="M811.87,348.71v8.8h-1.23v-11.09h1.18l.05,2.3ZM811.64,351.27l-.59-.31c.04-.66.17-1.27.37-1.85s.5-1.08.88-1.52.83-.78,1.35-1.03c.53-.25,1.12-.37,1.79-.37.54,0,1.03.07,1.47.22s.82.38,1.13.69c.31.31.55.72.72,1.22.17.5.26,1.1.26,1.79v7.38h-1.22v-7.34c0-.74-.12-1.32-.34-1.73s-.55-.71-.95-.89-.88-.27-1.41-.27c-.63,0-1.16.13-1.59.38-.44.26-.79.59-1.06.99-.27.41-.47.84-.6,1.3-.13.46-.2.9-.21,1.32ZM819.01,350.31l-.82.02c.03-.54.16-1.06.37-1.55s.51-.93.89-1.32c.38-.39.83-.69,1.35-.92.52-.23,1.11-.34,1.77-.34.57,0,1.09.08,1.54.23.45.15.83.4,1.14.73s.55.75.71,1.27.25,1.13.25,1.85v7.23h-1.23v-7.24c0-.79-.12-1.4-.34-1.83s-.54-.74-.95-.91c-.4-.17-.88-.26-1.42-.26-.53,0-1,.1-1.4.29-.4.19-.74.43-1.01.74-.27.3-.48.63-.62.98-.14.35-.22.69-.23,1.03Z"/>
      <path class="st2" d="M833.61,357.71c-.73,0-1.39-.13-2-.4-.6-.27-1.13-.64-1.58-1.13-.45-.49-.79-1.06-1.04-1.73-.24-.67-.36-1.4-.36-2.19v-.44c0-.85.13-1.63.38-2.32.25-.69.6-1.28,1.04-1.77s.95-.87,1.52-1.13c.57-.26,1.17-.39,1.8-.39.7,0,1.33.12,1.88.37.55.25,1.01.6,1.38,1.06.37.45.65.99.85,1.61.19.62.29,1.3.29,2.05v.75h-8.4v-1.05h7.18v-.14c-.01-.62-.14-1.2-.37-1.75-.24-.54-.59-.99-1.05-1.33-.47-.34-1.05-.51-1.74-.51-.52,0-1,.11-1.43.33-.43.22-.81.53-1.12.94-.31.41-.55.89-.72,1.45-.17.56-.25,1.17-.25,1.85v.44c0,.62.09,1.19.27,1.72.18.53.44,1,.78,1.4.34.4.74.72,1.21.94s.98.34,1.54.34c.66,0,1.24-.12,1.74-.36.51-.24.96-.63,1.36-1.15l.77.59c-.24.36-.54.68-.9.98-.36.3-.79.54-1.29.72s-1.08.27-1.74.27Z"/>
    </g>
    <circle class="st2" cx="1152.21" cy="344.94" r="7"/>
    <path class="st2" d="M1140.71,363.94v-4.23c0-3.74,3.89-6.77,8.68-6.77h5.63c4.8,0,8.68,3.03,8.68,6.77v4.23"/>
  </g>
</svg>