<?xml version="1.0" encoding="UTF-8"?>
<svg xmlns="http://www.w3.org/2000/svg" version="1.1" viewBox="0 0 1920 1080">
  <!-- Generator: Adobe Illustrator 29.8.2, SVG Export Plug-In . SVG Version: 2.1.1 Build 3)  -->
  <defs>
    <style>
      .st0 {
        fill: #fff;
      }

      .st1 {
        fill: #424242;
      }

      .st2 {
        stroke: #fff;
        stroke-linecap: round;
        stroke-linejoin: round;
        stroke-width: 3px;
      }

      .st2, .st3, .st4 {
        fill: none;
      }

      .st5 {
        fill: #212121;
      }

      .st3, .st4 {
        stroke: #969696;
        stroke-miterlimit: 10;
      }

      .st6 {
        fill: #969696;
      }

      .st4 {
        stroke-width: 1.08px;
      }
    </style>
  </defs>
  <g id="Layer_1">
    <rect class="st5" width="1920" height="1080"/>
    <g>
      <path class="st0" d="M98.88,61.66v6.77c-.23.34-.59.72-1.09,1.14s-1.19.78-2.06,1.09-2,.46-3.38.46c-1.13,0-2.16-.2-3.1-.59s-1.76-.97-2.45-1.73-1.22-1.68-1.6-2.77-.56-2.32-.56-3.7v-1.43c0-1.38.16-2.61.49-3.69s.81-2,1.44-2.76,1.41-1.33,2.34-1.73,1.98-.59,3.17-.59c1.41,0,2.6.24,3.55.73s1.7,1.16,2.23,2.01.88,1.83,1.03,2.92h-2.45c-.11-.67-.33-1.28-.65-1.83s-.79-.99-1.39-1.33-1.38-.5-2.32-.5c-.85,0-1.6.16-2.22.47s-1.14.76-1.55,1.35-.71,1.29-.91,2.12-.3,1.76-.3,2.81v1.46c0,1.07.12,2.02.37,2.86s.61,1.55,1.07,2.14,1.02,1.03,1.67,1.34,1.36.46,2.15.46c.87,0,1.58-.07,2.12-.22s.96-.33,1.27-.53.54-.4.7-.59v-4.14h-4.28v-1.98h6.72Z"/>
      <path class="st0" d="M101.95,64.15v-.29c0-.99.14-1.91.43-2.76s.7-1.59,1.24-2.22,1.2-1.12,1.97-1.47,1.63-.53,2.59-.53,1.83.18,2.61.53,1.43.84,1.98,1.47.96,1.37,1.25,2.22.43,1.77.43,2.76v.29c0,.99-.14,1.91-.43,2.75s-.7,1.58-1.25,2.22-1.2,1.12-1.97,1.47-1.63.53-2.6.53-1.83-.18-2.6-.53-1.43-.84-1.97-1.47-.96-1.37-1.25-2.22-.43-1.76-.43-2.75ZM104.3,63.85v.29c0,.69.08,1.33.24,1.94s.4,1.14.73,1.61.73.83,1.23,1.1,1.06.4,1.71.4,1.21-.13,1.69-.4.89-.63,1.21-1.1.56-1,.73-1.61.25-1.25.25-1.94v-.29c0-.68-.08-1.32-.25-1.92s-.41-1.14-.74-1.61-.73-.84-1.22-1.11-1.06-.41-1.71-.41-1.21.14-1.69.41-.89.64-1.22,1.11-.57,1.01-.73,1.61-.24,1.25-.24,1.92Z"/>
      <path class="st0" d="M123.84,51.36h2.36v16.83l-.2,2.67h-2.16v-19.5ZM135.48,63.88v.27c0,1-.12,1.92-.36,2.77s-.58,1.59-1.04,2.22-1.02,1.11-1.68,1.46-1.42.52-2.27.52-1.64-.15-2.29-.45-1.21-.73-1.66-1.3-.81-1.25-1.07-2.06-.45-1.71-.55-2.72v-1.17c.1-1.02.29-1.93.55-2.73s.62-1.49,1.07-2.06,1-1.01,1.65-1.31,1.41-.45,2.27-.45,1.63.17,2.3.5,1.23.81,1.68,1.43.8,1.36,1.03,2.22.36,1.81.36,2.86ZM133.12,64.15v-.27c0-.69-.06-1.33-.19-1.94s-.33-1.14-.61-1.6-.65-.83-1.1-1.09-1.02-.4-1.69-.4c-.59,0-1.11.1-1.54.3s-.81.48-1.11.82-.55.73-.74,1.17-.33.89-.43,1.35v3.06c.14.59.36,1.16.67,1.71s.72.99,1.24,1.34,1.17.52,1.94.52c.63,0,1.18-.13,1.63-.39s.82-.62,1.1-1.07.49-.99.63-1.59.2-1.24.2-1.93Z"/>
      <path class="st0" d="M146.96,62.53l.03,1.65h-2.37c-.67,0-1.27.05-1.79.16s-.96.26-1.32.48-.63.48-.81.79-.28.69-.28,1.11.1.83.29,1.18.49.64.88.84.88.31,1.45.31c.72,0,1.35-.15,1.9-.46s.99-.68,1.31-1.12.5-.87.53-1.28l1,1.13c-.06.36-.22.75-.48,1.18s-.61.84-1.05,1.24-.95.72-1.55.98-1.27.39-2.01.39c-.93,0-1.75-.18-2.44-.55s-1.24-.85-1.62-1.47-.58-1.3-.58-2.06.14-1.39.43-1.95.7-1.03,1.24-1.41,1.19-.66,1.96-.86,1.61-.29,2.55-.29h2.73ZM146.55,68.51v-7.07c0-.54-.11-1.01-.32-1.42s-.54-.71-.97-.93-.96-.33-1.6-.33c-.59,0-1.11.1-1.56.3s-.79.47-1.04.8-.37.69-.37,1.07h-2.35c0-.49.13-.98.38-1.46s.62-.92,1.1-1.31,1.05-.71,1.73-.94,1.42-.35,2.25-.35c1,0,1.88.17,2.65.51s1.37.85,1.8,1.53.65,1.53.65,2.56v6.4c0,.46.04.94.12,1.46s.2.96.36,1.33v.2h-2.45c-.12-.27-.21-.63-.28-1.09s-.1-.87-.1-1.26Z"/>
      <path class="st0" d="M158.09,69.19c.56,0,1.07-.11,1.55-.34s.86-.54,1.17-.95.48-.86.52-1.38h2.23c-.04.81-.32,1.57-.82,2.27s-1.16,1.26-1.97,1.69-1.71.64-2.68.64c-1.03,0-1.93-.18-2.7-.55s-1.4-.86-1.9-1.5-.88-1.36-1.13-2.19-.37-1.7-.37-2.62v-.53c0-.92.12-1.8.37-2.62s.63-1.56,1.13-2.19,1.14-1.13,1.9-1.5,1.67-.55,2.7-.55,2.01.22,2.82.65,1.44,1.03,1.9,1.78.71,1.6.76,2.55h-2.23c-.04-.57-.2-1.08-.48-1.54s-.65-.82-1.12-1.1-1.02-.41-1.64-.41c-.72,0-1.32.14-1.81.43s-.87.66-1.16,1.14-.49,1.01-.61,1.59-.18,1.17-.18,1.77v.53c0,.6.06,1.19.18,1.78s.32,1.11.6,1.59.67.85,1.16,1.14,1.09.43,1.82.43Z"/>
      <path class="st0" d="M168.56,51.36v19.5h-2.36v-19.5h2.36ZM176.95,57.13l-5.99,6.41-3.35,3.48-.19-2.5,2.4-2.87,4.27-4.52h2.87ZM174.81,70.86l-4.9-6.55,1.22-2.09,6.45,8.65h-2.77Z"/>
    </g>
    <path class="st2" d="M53.5,63.31h17M53.05,63.26l7.28-7.28M53.05,63.26l7.28,7.28"/>
  </g>
  <g id="Layer_2">
    <g>
      <path class="st0" d="M396.93,122.59v7.04h-33.45v-7.04h33.45ZM384.6,122.59v40.52h-9.05v-40.52h9.05Z"/>
      <path class="st0" d="M407.78,140.02v23.1h-8.68v-30.11h8.16l.53,7.01ZM416.77,132.78l-.14,8.1c-.37-.06-.85-.11-1.45-.15-.59-.05-1.1-.07-1.53-.07-1.11,0-2.07.13-2.88.4-.81.27-1.47.66-2,1.18-.53.52-.92,1.16-1.18,1.93s-.39,1.66-.39,2.66l-1.64-.81c0-1.99.2-3.8.58-5.46.39-1.65.96-3.08,1.7-4.3.74-1.22,1.65-2.16,2.73-2.83s2.3-1,3.67-1c.45,0,.9.03,1.36.08s.85.14,1.17.25Z"/>
      <path class="st0" d="M436.45,144.75l.06,4.79h-4.31c-.97,0-1.8.12-2.49.36-.7.24-1.26.57-1.68.99-.43.42-.74.9-.93,1.45-.2.55-.29,1.15-.29,1.8,0,.61.15,1.16.45,1.66.3.49.71.88,1.22,1.16s1.12.42,1.81.42c1.13,0,2.1-.22,2.91-.67.81-.45,1.43-.99,1.88-1.63.45-.64.67-1.24.67-1.79l2.09,3.62c-.33.74-.74,1.51-1.22,2.3-.48.79-1.09,1.52-1.84,2.2-.74.68-1.64,1.23-2.69,1.66s-2.31.64-3.77.64c-1.89,0-3.61-.39-5.15-1.16-1.54-.77-2.77-1.83-3.69-3.19-.92-1.35-1.38-2.91-1.38-4.68,0-1.58.29-2.98.86-4.2.57-1.22,1.44-2.26,2.6-3.12,1.16-.85,2.62-1.5,4.38-1.93s3.82-.65,6.18-.65h4.34ZM435.37,155.94v-12.91c0-.91-.14-1.69-.42-2.34-.28-.65-.71-1.16-1.31-1.53-.59-.37-1.36-.56-2.31-.56-.8,0-1.49.14-2.07.42-.58.28-1.03.68-1.34,1.2-.31.52-.46,1.16-.46,1.92h-8.68c0-1.35.31-2.62.92-3.79s1.49-2.2,2.63-3.09c1.14-.89,2.51-1.58,4.11-2.07,1.6-.49,3.39-.74,5.37-.74,2.36,0,4.46.39,6.3,1.18,1.85.79,3.31,1.97,4.38,3.54s1.62,3.54,1.62,5.91v12.61c0,1.82.11,3.24.32,4.27.21,1.03.52,1.93.93,2.69v.47h-8.77c-.41-.87-.71-1.95-.92-3.24s-.31-2.6-.31-3.94Z"/>
      <path class="st0" d="M458.33,139.43v23.69h-8.71v-30.11h8.18l.53,6.43ZM457.19,147l-2.17.06c0-2.26.28-4.3.83-6.1.56-1.8,1.35-3.33,2.38-4.61,1.03-1.27,2.26-2.24,3.7-2.91,1.44-.67,3.03-1,4.77-1,1.41,0,2.7.2,3.87.61,1.17.41,2.17,1.06,3.02,1.96.84.9,1.49,2.09,1.93,3.56.45,1.48.67,3.29.67,5.44v19.09h-8.74v-19.12c0-1.26-.18-2.24-.53-2.92-.35-.69-.87-1.17-1.54-1.45-.68-.28-1.5-.42-2.46-.42-1.02,0-1.89.2-2.62.6-.72.4-1.32.95-1.78,1.66-.46.71-.8,1.53-1.02,2.48s-.32,1.97-.32,3.06Z"/>
      <path class="st0" d="M497.9,154.74c0-.56-.17-1.05-.51-1.48-.34-.43-.96-.82-1.84-1.17-.88-.35-2.12-.71-3.72-1.06-1.5-.32-2.9-.73-4.2-1.24-1.3-.51-2.43-1.13-3.4-1.87-.96-.73-1.72-1.6-2.25-2.62-.54-1.01-.81-2.17-.81-3.46s.27-2.46.82-3.59c.55-1.13,1.35-2.13,2.39-3.01,1.05-.87,2.33-1.56,3.84-2.06s3.23-.75,5.16-.75c2.65,0,4.94.41,6.87,1.24,1.93.83,3.41,1.98,4.45,3.45,1.04,1.48,1.56,3.16,1.56,5.05h-8.68c0-.78-.15-1.46-.45-2.03-.3-.57-.75-1.02-1.36-1.35-.61-.32-1.42-.49-2.42-.49-.78,0-1.46.13-2.04.4-.58.27-1.04.64-1.36,1.1-.32.46-.49,1-.49,1.61,0,.43.1.81.29,1.15.19.34.5.66.92.95.42.29.96.54,1.64.77.68.22,1.51.44,2.49.64,2.1.39,4.01.94,5.75,1.64,1.73.71,3.13,1.68,4.17,2.92,1.05,1.24,1.57,2.89,1.57,4.93,0,1.34-.3,2.56-.9,3.67-.6,1.11-1.47,2.09-2.6,2.92s-2.49,1.48-4.06,1.95-3.36.7-5.34.7c-2.84,0-5.24-.51-7.21-1.53-1.97-1.02-3.45-2.31-4.44-3.85-.99-1.55-1.49-3.14-1.49-4.77h8.16c.04,1,.29,1.82.76,2.45.47.63,1.09,1.09,1.85,1.38.76.29,1.62.43,2.56.43s1.74-.13,2.37-.39c.63-.26,1.11-.62,1.45-1.07s.5-.98.5-1.57Z"/>
      <path class="st0" d="M528.16,144.75l.06,4.79h-4.31c-.97,0-1.8.12-2.49.36-.7.24-1.26.57-1.68.99-.43.42-.74.9-.93,1.45-.2.55-.29,1.15-.29,1.8,0,.61.15,1.16.45,1.66.3.49.71.88,1.22,1.16s1.12.42,1.81.42c1.13,0,2.1-.22,2.91-.67.81-.45,1.43-.99,1.88-1.63.45-.64.67-1.24.67-1.79l2.09,3.62c-.33.74-.74,1.51-1.22,2.3-.48.79-1.09,1.52-1.84,2.2-.74.68-1.64,1.23-2.69,1.66s-2.31.64-3.77.64c-1.89,0-3.61-.39-5.15-1.16-1.54-.77-2.77-1.83-3.69-3.19-.92-1.35-1.38-2.91-1.38-4.68,0-1.58.29-2.98.86-4.2.57-1.22,1.44-2.26,2.6-3.12,1.16-.85,2.62-1.5,4.38-1.93s3.82-.65,6.18-.65h4.34ZM527.07,155.94v-12.91c0-.91-.14-1.69-.42-2.34-.28-.65-.71-1.16-1.31-1.53-.59-.37-1.36-.56-2.31-.56-.8,0-1.49.14-2.07.42-.58.28-1.03.68-1.34,1.2-.31.52-.46,1.16-.46,1.92h-8.68c0-1.35.31-2.62.92-3.79s1.49-2.2,2.63-3.09c1.14-.89,2.51-1.58,4.11-2.07,1.6-.49,3.39-.74,5.37-.74,2.36,0,4.46.39,6.3,1.18,1.85.79,3.31,1.97,4.38,3.54s1.62,3.54,1.62,5.91v12.61c0,1.82.11,3.24.32,4.27.21,1.03.52,1.93.93,2.69v.47h-8.77c-.41-.87-.71-1.95-.92-3.24s-.31-2.6-.31-3.94Z"/>
      <path class="st0" d="M554.1,156.91c.93,0,1.73-.18,2.42-.53.69-.35,1.22-.85,1.6-1.49.38-.64.57-1.41.57-2.32h8.18c0,2.19-.56,4.12-1.68,5.79s-2.63,2.97-4.52,3.91c-1.89.94-4.03,1.41-6.4,1.41s-4.38-.39-6.12-1.16c-1.74-.77-3.2-1.85-4.37-3.24-1.17-1.39-2.04-3.01-2.63-4.86-.58-1.85-.88-3.85-.88-6v-.72c0-2.13.29-4.13.88-5.98.58-1.85,1.46-3.48,2.63-4.87,1.17-1.39,2.62-2.47,4.36-3.24,1.73-.77,3.77-1.16,6.11-1.16,2.47,0,4.65.47,6.55,1.42s3.39,2.31,4.47,4.08,1.62,3.9,1.62,6.39h-8.18c0-.96-.17-1.83-.51-2.6s-.86-1.38-1.56-1.84c-.7-.45-1.55-.68-2.57-.68s-1.92.23-2.6.68-1.19,1.08-1.54,1.88c-.35.8-.59,1.7-.72,2.71-.13,1.01-.2,2.08-.2,3.21v.72c0,1.15.06,2.24.2,3.27.13,1.03.38,1.93.74,2.71.36.78.88,1.39,1.54,1.84s1.55.67,2.64.67Z"/>
      <path class="st0" d="M586.49,133v6.1h-17.87v-6.1h17.87ZM572.72,125.54h8.71v28.14c0,.83.1,1.48.31,1.92.2.45.54.76,1,.93.46.18,1.06.26,1.78.26.52,0,.96-.02,1.34-.06.37-.04.71-.08,1.03-.14v6.29c-.74.24-1.53.43-2.37.57-.84.14-1.75.21-2.73.21-1.87,0-3.49-.31-4.86-.92-1.36-.61-2.41-1.58-3.13-2.91-.72-1.33-1.08-3.06-1.08-5.19v-29.11Z"/>
      <path class="st0" d="M590.56,125.21c0-1.26.45-2.3,1.34-3.1.89-.81,2.06-1.21,3.51-1.21s2.62.4,3.52,1.21c.9.81,1.35,1.84,1.35,3.1s-.45,2.27-1.35,3.08c-.9.81-2.07,1.21-3.52,1.21s-2.62-.4-3.51-1.21c-.89-.81-1.34-1.83-1.34-3.08ZM599.8,133v30.11h-8.71v-30.11h8.71Z"/>
      <path class="st0" d="M604.78,148.37v-.58c0-2.21.31-4.24.95-6.11.63-1.87,1.56-3.48,2.78-4.86,1.22-1.37,2.73-2.44,4.51-3.21s3.82-1.16,6.12-1.16,4.4.39,6.19,1.16c1.79.77,3.3,1.84,4.52,3.21,1.22,1.37,2.15,2.99,2.78,4.86.63,1.86.95,3.9.95,6.11v.58c0,2.19-.32,4.22-.95,6.08-.63,1.87-1.56,3.49-2.78,4.87s-2.73,2.45-4.51,3.21-3.83,1.14-6.15,1.14-4.35-.38-6.15-1.14-3.31-1.83-4.54-3.21-2.15-3.01-2.78-4.87c-.63-1.86-.95-3.89-.95-6.08ZM613.49,147.78v.58c0,1.19.1,2.3.29,3.34.2,1.04.51,1.95.96,2.73s1.03,1.39,1.77,1.82,1.63.65,2.69.65,1.95-.22,2.67-.65c.72-.44,1.31-1.04,1.75-1.82s.77-1.69.96-2.73c.2-1.04.29-2.15.29-3.34v-.58c0-1.17-.1-2.27-.29-3.3-.19-1.03-.51-1.94-.96-2.74-.45-.8-1.03-1.42-1.77-1.86s-1.64-.67-2.71-.67-1.92.22-2.64.67-1.31,1.07-1.75,1.86c-.45.8-.76,1.71-.96,2.74-.19,1.03-.29,2.13-.29,3.3Z"/>
      <path class="st0" d="M646.67,139.43v23.69h-8.71v-30.11h8.18l.53,6.43ZM645.52,147l-2.17.06c0-2.26.28-4.3.83-6.1.56-1.8,1.35-3.33,2.38-4.61,1.03-1.27,2.26-2.24,3.7-2.91,1.44-.67,3.03-1,4.77-1,1.41,0,2.7.2,3.87.61,1.17.41,2.17,1.06,3.02,1.96.84.9,1.49,2.09,1.93,3.56.45,1.48.67,3.29.67,5.44v19.09h-8.74v-19.12c0-1.26-.18-2.24-.53-2.92-.35-.69-.87-1.17-1.54-1.45-.68-.28-1.5-.42-2.46-.42-1.02,0-1.89.2-2.62.6-.72.4-1.32.95-1.78,1.66-.46.71-.8,1.53-1.02,2.48s-.32,1.97-.32,3.06Z"/>
      <path class="st0" d="M686.24,154.74c0-.56-.17-1.05-.51-1.48-.34-.43-.96-.82-1.84-1.17-.88-.35-2.12-.71-3.72-1.06-1.5-.32-2.9-.73-4.2-1.24-1.3-.51-2.43-1.13-3.4-1.87-.96-.73-1.72-1.6-2.25-2.62-.54-1.01-.81-2.17-.81-3.46s.27-2.46.82-3.59c.55-1.13,1.35-2.13,2.39-3.01,1.05-.87,2.33-1.56,3.84-2.06s3.23-.75,5.16-.75c2.65,0,4.94.41,6.87,1.24,1.93.83,3.41,1.98,4.45,3.45,1.04,1.48,1.56,3.16,1.56,5.05h-8.68c0-.78-.15-1.46-.45-2.03-.3-.57-.75-1.02-1.36-1.35-.61-.32-1.42-.49-2.42-.49-.78,0-1.46.13-2.04.4-.58.27-1.04.64-1.36,1.1-.32.46-.49,1-.49,1.61,0,.43.1.81.29,1.15.19.34.5.66.92.95.42.29.96.54,1.64.77.68.22,1.51.44,2.49.64,2.1.39,4.01.94,5.75,1.64,1.73.71,3.13,1.68,4.17,2.92,1.05,1.24,1.57,2.89,1.57,4.93,0,1.34-.3,2.56-.9,3.67-.6,1.11-1.47,2.09-2.6,2.92s-2.49,1.48-4.06,1.95-3.36.7-5.34.7c-2.84,0-5.24-.51-7.21-1.53-1.97-1.02-3.45-2.31-4.44-3.85-.99-1.55-1.49-3.14-1.49-4.77h8.16c.04,1,.29,1.82.76,2.45.47.63,1.09,1.09,1.85,1.38.76.29,1.62.43,2.56.43s1.74-.13,2.37-.39c.63-.26,1.11-.62,1.45-1.07s.5-.98.5-1.57Z"/>
    </g>
    <g>
      <path class="st6" d="M364.09,187.55l4.69,13.07.51,1.86h-1.03l-5.55-14.93h1.37ZM368.95,200.63l4.71-13.07h1.37l-5.56,14.93h-1.02l.49-1.86Z"/>
      <path class="st6" d="M376.88,188.18c0-.23.07-.43.22-.59.15-.16.35-.24.61-.24s.47.08.62.24c.15.16.23.36.23.59s-.08.42-.23.58c-.15.16-.36.24-.62.24s-.46-.08-.61-.24c-.15-.16-.22-.35-.22-.58ZM378.31,191.39v11.09h-1.22v-11.09h1.22Z"/>
      <path class="st6" d="M385.95,202.69c-.72,0-1.39-.13-1.99-.4-.6-.27-1.13-.64-1.58-1.13s-.79-1.06-1.04-1.73c-.24-.67-.36-1.4-.36-2.19v-.44c0-.85.13-1.63.38-2.32s.6-1.28,1.05-1.77.95-.87,1.52-1.13c.57-.26,1.17-.39,1.8-.39.7,0,1.33.12,1.88.37.55.25,1.01.6,1.38,1.06s.65.99.85,1.61c.19.62.29,1.3.29,2.05v.75h-8.4v-1.05h7.18v-.14c-.01-.62-.14-1.2-.37-1.75-.24-.54-.59-.99-1.05-1.33s-1.05-.51-1.74-.51c-.52,0-1,.11-1.43.33-.43.22-.81.53-1.12.94-.31.41-.55.89-.72,1.45s-.25,1.17-.25,1.85v.44c0,.62.09,1.19.27,1.72.18.53.44,1,.78,1.4.34.4.74.72,1.21.94s.98.34,1.54.34c.66,0,1.24-.12,1.74-.36.51-.24.96-.63,1.36-1.15l.77.59c-.24.36-.54.68-.9.98-.36.3-.79.54-1.29.72s-1.08.27-1.74.27Z"/>
      <path class="st6" d="M392.82,191.39l2.35,8.55.5,2.54h-.89l-3.22-11.09h1.26ZM395.6,199.89l2.68-8.5h.86l-.51,2.29-2.8,8.81h-.86l.64-2.59ZM399.31,191.39l2.64,8.43.67,2.67h-.86l-2.86-8.82-.48-2.28h.9ZM402.47,199.91l2.29-8.52h1.26l-3.22,11.09h-.88l.55-2.57Z"/>
      <path class="st6" d="M413.55,191.39l3.54,9.53.33,1.28-.89.5-4.31-11.31h1.33ZM416.78,201.38l3.46-9.99h1.32l-4.7,12.88c-.1.25-.22.53-.36.84s-.34.6-.57.89c-.24.28-.53.52-.88.7s-.78.27-1.29.27c-.13,0-.3-.02-.5-.05-.2-.03-.35-.06-.44-.09v-1.04c.06.02.17.04.32.05s.24.02.3.02c.44,0,.82-.08,1.12-.23.3-.15.56-.37.76-.67.21-.3.39-.67.54-1.11l.91-2.48Z"/>
      <path class="st6" d="M422.64,197.11v-.34c0-.81.12-1.55.35-2.24s.57-1.27,1-1.77.96-.89,1.56-1.16c.61-.28,1.28-.42,2.03-.42s1.43.14,2.04.42c.61.28,1.13.67,1.57,1.16s.77,1.09,1.01,1.77c.23.68.35,1.43.35,2.24v.34c0,.81-.12,1.55-.35,2.23-.23.68-.57,1.27-1,1.77-.44.5-.96.89-1.56,1.16-.61.28-1.29.42-2.03.42s-1.43-.14-2.04-.42c-.61-.28-1.13-.67-1.57-1.16-.44-.5-.77-1.09-1.01-1.77s-.35-1.42-.35-2.23ZM423.86,196.77v.34c0,.61.08,1.18.25,1.73.16.54.4,1.03.72,1.45.31.42.7.75,1.17.99s1,.36,1.61.36,1.13-.12,1.59-.36.85-.57,1.16-.99c.31-.42.55-.9.71-1.45.16-.54.24-1.12.24-1.73v-.34c0-.6-.08-1.17-.24-1.71-.16-.54-.4-1.02-.72-1.45s-.71-.76-1.17-1-1-.37-1.6-.37-1.13.12-1.59.37c-.46.25-.85.58-1.17,1s-.56.91-.72,1.45c-.16.54-.24,1.11-.24,1.71Z"/>
      <path class="st6" d="M442.41,197.87l.64-.02c0,.7-.08,1.34-.25,1.93s-.42,1.1-.77,1.54c-.35.44-.8.78-1.35,1.02-.55.24-1.22.36-2,.36-.54,0-1.03-.08-1.48-.23-.45-.15-.83-.4-1.15-.73-.32-.33-.57-.77-.74-1.3-.17-.53-.26-1.18-.26-1.94v-7.1h1.22v7.12c0,.59.07,1.09.2,1.49.13.4.32.71.55.95.24.24.51.41.81.51.31.1.64.15,1,.15.9,0,1.62-.17,2.14-.52.52-.35.9-.81,1.12-1.38.22-.57.33-1.18.33-1.84ZM442.19,199.92v-8.53h1.23v11.09h-1.18l-.05-2.56Z"/>
      <path class="st6" d="M447.84,193.22v9.26h-1.22v-11.09h1.19l.03,1.84ZM451.76,191.31l-.03,1.13c-.14-.02-.27-.04-.4-.05s-.27-.02-.42-.02c-.53,0-1,.1-1.4.29-.4.19-.74.46-1.01.81-.27.35-.48.75-.62,1.21-.14.46-.23.96-.25,1.48l-.45.17c0-.72.08-1.4.23-2.02s.38-1.17.69-1.64c.31-.47.7-.83,1.18-1.1.48-.26,1.03-.39,1.68-.39.16,0,.31.01.47.04.15.02.27.05.34.09Z"/>
      <path class="st6" d="M460.02,193.22v9.26h-1.22v-11.09h1.19l.03,1.84ZM463.95,191.31l-.03,1.13c-.14-.02-.27-.04-.4-.05s-.27-.02-.42-.02c-.53,0-1,.1-1.4.29-.4.19-.74.46-1.01.81-.27.35-.48.75-.62,1.21-.14.46-.23.96-.25,1.48l-.45.17c0-.72.08-1.4.23-2.02s.38-1.17.69-1.64c.31-.47.7-.83,1.18-1.1.48-.26,1.03-.39,1.68-.39.16,0,.31.01.47.04.15.02.27.05.34.09Z"/>
      <path class="st6" d="M469.95,202.69c-.73,0-1.39-.13-2-.4-.6-.27-1.13-.64-1.58-1.13-.45-.49-.79-1.06-1.04-1.73-.24-.67-.36-1.4-.36-2.19v-.44c0-.85.13-1.63.38-2.32.25-.69.6-1.28,1.04-1.77s.95-.87,1.52-1.13c.57-.26,1.17-.39,1.8-.39.7,0,1.33.12,1.88.37.55.25,1.01.6,1.38,1.06.37.45.65.99.85,1.61.19.62.29,1.3.29,2.05v.75h-8.4v-1.05h7.18v-.14c-.01-.62-.14-1.2-.37-1.75-.24-.54-.59-.99-1.05-1.33-.47-.34-1.05-.51-1.74-.51-.52,0-1,.11-1.43.33-.43.22-.81.53-1.12.94-.31.41-.55.89-.72,1.45-.17.56-.25,1.17-.25,1.85v.44c0,.62.09,1.19.27,1.72.18.53.44,1,.78,1.4.34.4.74.72,1.21.94s.98.34,1.54.34c.66,0,1.24-.12,1.74-.36.51-.24.96-.63,1.36-1.15l.77.59c-.24.36-.54.68-.9.98-.36.3-.79.54-1.29.72s-1.08.27-1.74.27Z"/>
      <path class="st6" d="M480.62,201.63c.52,0,1.01-.1,1.46-.29.46-.19.83-.48,1.13-.87.3-.39.47-.86.51-1.42h1.17c-.03.7-.25,1.33-.64,1.88-.39.55-.91.98-1.54,1.29-.63.31-1.33.47-2.09.47s-1.45-.14-2.05-.42c-.59-.28-1.08-.67-1.48-1.17-.4-.5-.7-1.09-.9-1.76-.2-.67-.3-1.4-.3-2.18v-.43c0-.78.1-1.51.3-2.18.2-.67.5-1.26.9-1.76.4-.5.89-.89,1.48-1.17s1.27-.42,2.04-.42,1.5.16,2.14.48c.63.32,1.14.78,1.52,1.36.38.59.59,1.29.62,2.09h-1.17c-.03-.59-.19-1.11-.47-1.54s-.65-.76-1.11-.99-.97-.35-1.53-.35c-.63,0-1.17.12-1.61.36-.44.24-.8.57-1.08,1-.28.42-.48.9-.61,1.44s-.19,1.1-.19,1.69v.43c0,.59.06,1.16.19,1.7.13.54.33,1.01.61,1.43.28.42.64.75,1.09.99.45.24.99.36,1.62.36Z"/>
      <path class="st6" d="M491.63,202.69c-.73,0-1.39-.13-2-.4-.6-.27-1.13-.64-1.58-1.13-.45-.49-.79-1.06-1.04-1.73-.24-.67-.36-1.4-.36-2.19v-.44c0-.85.13-1.63.38-2.32.25-.69.6-1.28,1.04-1.77s.95-.87,1.52-1.13c.57-.26,1.17-.39,1.8-.39.7,0,1.33.12,1.88.37.55.25,1.01.6,1.38,1.06.37.45.65.99.85,1.61.19.62.29,1.3.29,2.05v.75h-8.4v-1.05h7.18v-.14c-.01-.62-.14-1.2-.37-1.75-.24-.54-.59-.99-1.05-1.33-.47-.34-1.05-.51-1.74-.51-.52,0-1,.11-1.43.33-.43.22-.81.53-1.12.94-.31.41-.55.89-.72,1.45-.17.56-.25,1.17-.25,1.85v.44c0,.62.09,1.19.27,1.72.18.53.44,1,.78,1.4.34.4.74.72,1.21.94s.98.34,1.54.34c.66,0,1.24-.12,1.74-.36.51-.24.96-.63,1.36-1.15l.77.59c-.24.36-.54.68-.9.98-.36.3-.79.54-1.29.72s-1.08.27-1.74.27Z"/>
      <path class="st6" d="M499.42,193.76v8.73h-1.22v-11.09h1.17l.05,2.37ZM499.15,196.25l-.54-.31c.04-.66.17-1.27.4-1.85.22-.57.53-1.08.92-1.52.39-.44.84-.78,1.36-1.03.52-.25,1.1-.37,1.74-.37.55,0,1.05.08,1.49.23s.81.39,1.12.72c.31.33.54.75.7,1.26.16.51.24,1.14.24,1.88v7.22h-1.23v-7.23c0-.77-.11-1.37-.32-1.8s-.51-.74-.9-.93-.85-.28-1.38-.28c-.59,0-1.1.13-1.54.38-.44.26-.81.59-1.11.99-.3.41-.52.84-.68,1.3-.16.46-.24.9-.26,1.32Z"/>
      <path class="st6" d="M513.94,191.39v1h-5.56v-1h5.56ZM510.43,188.54h1.22v11.25c0,.51.07.9.21,1.16s.31.43.53.52.45.13.71.13c.18,0,.36-.01.53-.04.17-.02.32-.05.46-.08l.05,1.04c-.15.05-.34.09-.58.12-.24.03-.48.05-.72.05-.47,0-.89-.09-1.25-.26-.36-.17-.65-.47-.85-.9-.21-.43-.31-1.01-.31-1.75v-11.24Z"/>
      <path class="st6" d="M528.66,196.02l.02.94h-2.41c-.63,0-1.19.06-1.69.17-.5.11-.92.28-1.26.49-.34.22-.6.47-.79.77-.18.3-.27.64-.27,1.03s.1.76.3,1.09c.2.33.49.59.86.78.37.2.81.29,1.33.29.68,0,1.29-.13,1.81-.38.52-.25.96-.58,1.3-.99s.57-.86.69-1.34l.53.71c-.09.34-.25.69-.49,1.05-.24.36-.54.69-.92,1s-.82.56-1.33.76c-.51.19-1.08.29-1.73.29-.72,0-1.36-.14-1.89-.41-.54-.27-.95-.65-1.25-1.12-.3-.47-.45-1.01-.45-1.61,0-.55.12-1.04.35-1.47s.57-.8,1.01-1.11c.44-.3.97-.54,1.6-.7.63-.16,1.33-.24,2.11-.24h2.55ZM528.37,200.49v-5.72c0-.53-.11-.98-.33-1.36-.22-.38-.54-.68-.96-.88s-.95-.31-1.57-.31c-.57,0-1.08.1-1.53.3-.45.2-.8.47-1.06.81-.26.34-.38.71-.38,1.12h-1.23c0-.43.1-.83.31-1.22s.5-.74.87-1.05.83-.55,1.35-.73c.52-.18,1.1-.27,1.73-.27.79,0,1.49.13,2.1.4.6.27,1.08.67,1.42,1.2s.51,1.2.51,2.01v5.36c0,.38.03.78.09,1.19.06.41.14.75.25,1.02v.12h-1.3c-.08-.25-.15-.56-.19-.93-.04-.37-.07-.73-.07-1.06Z"/>
      <path class="st6" d="M536.96,201.63c.52,0,1.01-.1,1.46-.29.46-.19.83-.48,1.13-.87.3-.39.47-.86.51-1.42h1.17c-.03.7-.25,1.33-.64,1.88-.39.55-.91.98-1.54,1.29-.63.31-1.33.47-2.09.47s-1.45-.14-2.05-.42c-.59-.28-1.08-.67-1.48-1.17-.4-.5-.7-1.09-.9-1.76-.2-.67-.3-1.4-.3-2.18v-.43c0-.78.1-1.51.3-2.18.2-.67.5-1.26.9-1.76.4-.5.89-.89,1.48-1.17s1.27-.42,2.04-.42,1.5.16,2.14.48c.63.32,1.14.78,1.52,1.36.38.59.59,1.29.62,2.09h-1.17c-.03-.59-.19-1.11-.47-1.54s-.65-.76-1.11-.99-.97-.35-1.53-.35c-.63,0-1.17.12-1.61.36-.44.24-.8.57-1.08,1-.28.42-.48.9-.61,1.44s-.19,1.1-.19,1.69v.43c0,.59.06,1.16.19,1.7.13.54.33,1.01.61,1.43.28.42.64.75,1.09.99.45.24.99.36,1.62.36Z"/>
      <path class="st6" d="M547.88,191.39v1h-5.56v-1h5.56ZM544.37,188.54h1.22v11.25c0,.51.07.9.21,1.16s.31.43.53.52.45.13.71.13c.18,0,.36-.01.53-.04.17-.02.32-.05.46-.08l.05,1.04c-.15.05-.34.09-.58.12-.24.03-.48.05-.72.05-.47,0-.89-.09-1.25-.26-.36-.17-.65-.47-.85-.9-.21-.43-.31-1.01-.31-1.75v-11.24Z"/>
      <path class="st6" d="M550.37,188.18c0-.23.07-.43.22-.59.15-.16.35-.24.61-.24s.47.08.62.24c.15.16.23.36.23.59s-.08.42-.23.58c-.15.16-.36.24-.62.24s-.46-.08-.61-.24c-.15-.16-.22-.35-.22-.58ZM551.81,191.39v11.09h-1.22v-11.09h1.22Z"/>
      <path class="st6" d="M555.21,191.39l3.6,9.95.2,1.15h-.9l-4.16-11.09h1.27ZM558.43,201.3l3.56-9.92h1.26l-4.15,11.09h-.89l.23-1.18Z"/>
      <path class="st6" d="M565.19,188.18c0-.23.07-.43.22-.59.15-.16.35-.24.61-.24s.47.08.62.24c.15.16.23.36.23.59s-.08.42-.23.58c-.15.16-.36.24-.62.24s-.46-.08-.61-.24c-.15-.16-.22-.35-.22-.58ZM566.63,191.39v11.09h-1.22v-11.09h1.22Z"/>
      <path class="st6" d="M574.17,191.39v1h-5.56v-1h5.56ZM570.66,188.54h1.22v11.25c0,.51.07.9.21,1.16s.31.43.53.52.45.13.71.13c.18,0,.36-.01.53-.04.17-.02.32-.05.46-.08l.05,1.04c-.15.05-.34.09-.58.12-.24.03-.48.05-.72.05-.47,0-.89-.09-1.25-.26-.36-.17-.65-.47-.85-.9-.21-.43-.31-1.01-.31-1.75v-11.24Z"/>
      <path class="st6" d="M576.8,191.39l3.54,9.53.33,1.28-.89.5-4.31-11.31h1.33ZM580.03,201.38l3.46-9.99h1.32l-4.7,12.88c-.1.25-.22.53-.36.84-.15.31-.34.6-.57.89-.24.28-.53.52-.88.7-.35.18-.78.27-1.29.27-.13,0-.3-.02-.5-.05-.2-.03-.35-.06-.44-.09v-1.04c.06.02.17.04.32.05.14.01.24.02.3.02.44,0,.82-.08,1.12-.23.3-.15.56-.37.76-.67.21-.3.39-.67.54-1.11l.91-2.48Z"/>
      <path class="st6" d="M585.51,201.73c0-.24.08-.44.23-.61.15-.17.36-.25.63-.25s.49.08.65.25.24.37.24.61-.08.43-.24.59-.37.25-.65.25-.48-.08-.63-.25c-.15-.16-.23-.36-.23-.59Z"/>
    </g>
    <rect class="st4" x="362.72" y="230.51" width="1194.89" height="735.13" rx="32.32" ry="32.32"/>
    <line class="st3" x1="1557.61" y1="280.51" x2="362.72" y2="280.51"/>
    <g>
      <g>
        <path class="st0" d="M445.92,250.46l-3.29,10.02h-2.65l4.49-12.09h1.69l-.24,2.07ZM448.5,255.98v1.95h-6.38v-1.95h6.38ZM448.65,260.48l-3.3-10.02-.27-2.07h1.7l4.52,12.09h-2.66Z"/>
        <path class="st0" d="M454.39,253.36v7.12h-2.4v-8.98h2.25l.15,1.86ZM454.06,255.67h-.66c0-.63.08-1.2.23-1.73.15-.53.38-.99.67-1.38.3-.39.66-.69,1.1-.91s.94-.32,1.52-.32c.4,0,.76.06,1.1.18.33.12.62.3.86.56.24.25.43.58.56.98.13.4.2.88.2,1.44v5.99h-2.39v-5.73c0-.41-.06-.73-.17-.95s-.27-.38-.47-.46c-.2-.09-.44-.13-.73-.13-.31,0-.58.06-.81.19-.23.13-.42.3-.57.53-.15.22-.26.49-.33.78s-.11.62-.11.96ZM459.41,255.4l-.85.11c0-.59.07-1.13.22-1.64.15-.5.37-.95.66-1.33.29-.38.65-.68,1.08-.89.43-.21.93-.32,1.49-.32.43,0,.82.06,1.18.19.35.12.66.32.91.59.25.27.45.62.58,1.05.14.43.2.96.2,1.59v5.74h-2.4v-5.74c0-.42-.05-.73-.16-.95-.11-.22-.26-.37-.46-.46-.2-.09-.44-.13-.72-.13s-.54.06-.76.17c-.22.11-.4.27-.54.47s-.25.43-.32.69c-.07.26-.11.55-.11.86Z"/>
        <path class="st0" d="M466.35,256.08v-.17c0-.66.09-1.27.28-1.82.19-.56.46-1.04.82-1.45s.8-.73,1.33-.96c.53-.23,1.13-.34,1.81-.34s1.29.11,1.82.34c.53.23.98.55,1.34.96.36.41.64.89.83,1.45.19.56.28,1.16.28,1.82v.17c0,.65-.09,1.26-.28,1.81-.19.56-.46,1.04-.83,1.45-.36.41-.81.73-1.33.96s-1.13.34-1.81.34-1.29-.11-1.81-.34c-.53-.23-.97-.55-1.34-.96-.36-.41-.64-.9-.83-1.45-.19-.56-.28-1.16-.28-1.81ZM468.74,255.91v.17c0,.38.03.73.1,1.05s.17.61.32.86c.15.25.34.44.58.58s.53.21.87.21.62-.07.85-.21.43-.33.57-.58c.14-.25.25-.53.32-.86.07-.33.1-.68.1-1.05v-.17c0-.37-.03-.71-.1-1.03-.07-.32-.18-.61-.32-.86-.15-.25-.34-.45-.58-.59s-.53-.22-.86-.22-.62.07-.86.22c-.24.14-.43.34-.57.59-.15.25-.25.54-.32.86-.07.32-.1.67-.1,1.03Z"/>
        <path class="st0" d="M481.9,256.49l.71-.02c0,.6-.07,1.15-.21,1.66-.14.51-.35.95-.62,1.33-.28.37-.63.66-1.05.87-.42.21-.92.31-1.49.31-.44,0-.84-.06-1.21-.19-.37-.12-.68-.32-.95-.59-.26-.27-.47-.61-.61-1.04-.15-.42-.22-.93-.22-1.53v-5.8h2.39v5.82c0,.27.03.49.1.67.06.18.15.33.27.45s.25.2.41.25c.16.05.33.07.53.07.49,0,.88-.1,1.17-.3.28-.2.49-.47.61-.82.12-.35.18-.73.18-1.16ZM481.64,258.33v-6.83h2.39v8.98h-2.25l-.14-2.15Z"/>
        <path class="st0" d="M488.18,253.42v7.06h-2.39v-8.98h2.24l.15,1.92ZM487.84,255.67h-.65c0-.66.09-1.26.26-1.8.17-.53.41-.99.72-1.37.31-.38.68-.67,1.11-.87.43-.2.91-.3,1.44-.3.42,0,.81.06,1.15.18s.65.32.9.58c.25.27.45.62.58,1.05.14.44.2.97.2,1.6v5.73h-2.41v-5.74c0-.4-.06-.71-.17-.93s-.27-.38-.49-.47c-.21-.09-.47-.14-.78-.14s-.6.06-.83.19c-.24.13-.43.3-.58.53-.15.22-.27.49-.34.78s-.12.62-.12.96Z"/>
        <path class="st0" d="M499.77,251.5v1.69h-5.23v-1.69h5.23ZM495.84,249.28h2.39v8.49c0,.26.03.46.1.6.07.14.17.23.31.29.14.05.31.08.52.08.15,0,.28,0,.4-.02.12-.01.22-.03.3-.05v1.76c-.2.07-.42.12-.66.16s-.5.06-.79.06c-.53,0-.98-.09-1.37-.26-.39-.17-.69-.46-.9-.84s-.32-.9-.32-1.53v-8.73Z"/>
      </g>
      <g>
        <path class="st0" d="M926.98,248.39h2.1l.38,8.65v3.44h-2.48v-12.09ZM928.11,248.39h2.11l3.1,8.87,3.1-8.87h2.11l-4.37,12.09h-1.69l-4.37-12.09ZM937.58,248.39h2.11v12.09h-2.49v-3.44l.38-8.65Z"/>
        <path class="st0" d="M945.85,260.65c-.7,0-1.32-.11-1.88-.34-.55-.22-1.02-.54-1.41-.93-.38-.4-.68-.86-.88-1.39-.2-.53-.31-1.09-.31-1.69v-.33c0-.68.1-1.3.29-1.87s.47-1.05.83-1.47c.36-.42.8-.73,1.32-.96.52-.22,1.11-.34,1.76-.34s1.2.1,1.69.32c.49.21.91.51,1.24.9.33.39.59.85.76,1.39.17.54.26,1.14.26,1.8v1h-7.14v-1.59h4.79v-.18c0-.33-.06-.63-.18-.89-.12-.26-.3-.47-.54-.63-.24-.15-.54-.23-.91-.23-.32,0-.59.07-.81.21-.23.14-.41.33-.55.58-.14.25-.25.54-.32.88-.07.33-.1.7-.1,1.1v.33c0,.36.05.69.15,1,.1.3.25.57.44.79.19.22.42.39.7.51.27.12.58.18.93.18.43,0,.83-.08,1.21-.25.37-.17.7-.42.97-.77l1.16,1.26c-.19.27-.44.53-.77.78-.32.25-.71.45-1.17.61-.45.16-.97.24-1.55.24Z"/>
        <path class="st0" d="M955.29,251.5v1.69h-5.23v-1.69h5.23ZM951.36,249.28h2.39v8.49c0,.26.03.46.1.6.07.14.17.23.31.29s.31.08.52.08c.15,0,.28,0,.4-.02.12-.01.22-.03.3-.05v1.76c-.2.07-.42.12-.66.16-.24.04-.5.06-.79.06-.53,0-.98-.09-1.37-.26-.39-.17-.69-.46-.9-.84-.21-.39-.32-.9-.32-1.53v-8.73Z"/>
        <path class="st0" d="M958.98,247.73v12.75h-2.39v-12.75h2.39ZM958.64,255.67h-.66c0-.62.09-1.2.25-1.73s.39-.99.69-1.38c.3-.39.66-.69,1.08-.91.42-.22.88-.32,1.39-.32.44,0,.85.06,1.21.19.36.12.67.32.94.6.26.27.47.63.61,1.08.14.44.22.98.22,1.61v5.68h-2.41v-5.69c0-.4-.06-.71-.17-.94s-.28-.39-.49-.49c-.21-.1-.47-.15-.78-.15-.34,0-.64.06-.88.19-.24.13-.43.3-.58.53-.14.22-.25.49-.32.78s-.1.62-.1.96Z"/>
        <path class="st0" d="M965.78,256.08v-.17c0-.66.09-1.27.28-1.82.19-.56.46-1.04.82-1.45.36-.41.8-.73,1.33-.96.53-.23,1.13-.34,1.81-.34s1.29.11,1.82.34c.53.23.98.55,1.34.96.36.41.64.89.83,1.45.19.56.28,1.16.28,1.82v.17c0,.65-.09,1.26-.28,1.81-.19.56-.46,1.04-.83,1.45-.36.41-.81.73-1.33.96-.53.23-1.13.34-1.81.34s-1.29-.11-1.81-.34c-.53-.23-.97-.55-1.34-.96-.36-.41-.64-.9-.83-1.45-.19-.56-.28-1.16-.28-1.81ZM968.17,255.91v.17c0,.38.03.73.1,1.05.07.33.17.61.32.86.15.25.34.44.58.58.24.14.53.21.87.21s.62-.07.85-.21c.24-.14.43-.33.57-.58.14-.25.25-.53.32-.86.07-.33.1-.68.1-1.05v-.17c0-.37-.03-.71-.1-1.03-.07-.32-.18-.61-.32-.86-.15-.25-.34-.45-.58-.59-.24-.14-.53-.22-.86-.22s-.62.07-.86.22c-.24.14-.43.34-.57.59-.15.25-.25.54-.32.86-.07.32-.1.67-.1,1.03Z"/>
        <path class="st0" d="M975.39,256.1v-.17c0-.69.08-1.31.23-1.87.15-.56.38-1.04.68-1.45.3-.4.67-.72,1.1-.94.44-.22.94-.33,1.49-.33.53,0,.99.11,1.38.33.4.22.73.54,1.01.94.28.41.51.88.68,1.44.17.55.3,1.15.37,1.81v.38c-.08.62-.2,1.21-.37,1.74-.17.54-.4,1.01-.68,1.41-.28.4-.62.71-1.02.93-.4.22-.86.33-1.39.33-.56,0-1.06-.11-1.49-.34-.43-.23-.8-.54-1.1-.95-.3-.41-.52-.89-.68-1.44-.16-.55-.23-1.16-.23-1.81ZM977.78,255.92v.17c0,.37.03.72.09,1.04.06.32.16.6.29.85.14.25.31.44.53.57.22.14.49.2.8.2.41,0,.75-.09,1.01-.28.27-.19.47-.44.61-.77.14-.33.22-.7.25-1.13v-1.09c-.02-.35-.06-.66-.15-.94-.08-.28-.2-.52-.35-.72-.15-.2-.34-.35-.56-.46-.22-.11-.49-.17-.79-.17s-.58.07-.8.21c-.22.14-.4.33-.54.58-.13.24-.23.53-.3.86-.06.33-.09.68-.09,1.07ZM981.07,258.52v-10.79h2.41v12.75h-2.17l-.24-1.96Z"/>
      </g>
      <g>
        <path class="st0" d="M1180.41,257.32c0-.22-.03-.41-.1-.59-.06-.17-.18-.33-.35-.48-.17-.15-.41-.29-.72-.44-.31-.14-.71-.29-1.2-.45-.55-.18-1.07-.38-1.56-.6-.49-.22-.92-.48-1.29-.78-.37-.3-.67-.64-.88-1.03s-.32-.85-.32-1.37.11-.96.33-1.37c.22-.41.53-.77.93-1.06.4-.3.87-.52,1.42-.69s1.14-.24,1.8-.24c.89,0,1.67.16,2.33.48s1.18.76,1.55,1.32.55,1.2.55,1.92h-2.47c0-.35-.07-.67-.22-.93-.15-.27-.37-.48-.66-.64s-.67-.23-1.12-.23-.79.06-1.08.19c-.29.13-.5.3-.65.52-.14.22-.22.46-.22.73,0,.2.05.39.15.56s.26.32.46.46c.2.14.46.28.75.41s.64.25,1.04.37c.66.2,1.24.42,1.74.67.5.25.92.53,1.26.84.34.31.59.66.76,1.05.17.39.26.84.26,1.34,0,.53-.1,1-.31,1.41-.2.42-.5.77-.89,1.05-.39.29-.85.51-1.39.66-.54.15-1.14.22-1.8.22-.6,0-1.19-.08-1.77-.24-.58-.16-1.11-.4-1.58-.72-.47-.32-.85-.73-1.13-1.23s-.42-1.09-.42-1.77h2.5c0,.38.06.69.17.95s.28.47.49.63.47.28.76.35.62.11.98.11c.43,0,.79-.06,1.07-.18s.49-.29.62-.51c.13-.22.2-.46.2-.73Z"/>
        <path class="st0" d="M1188.83,251.5v1.69h-5.23v-1.69h5.23ZM1184.9,249.28h2.39v8.49c0,.26.04.46.1.6.07.14.17.23.31.29.14.05.31.08.52.08.15,0,.28,0,.4-.02.12-.01.22-.03.3-.05v1.76c-.2.07-.42.12-.66.16-.24.04-.5.06-.79.06-.53,0-.98-.09-1.37-.26-.39-.17-.69-.46-.9-.84-.21-.39-.32-.9-.32-1.53v-8.73Z"/>
        <path class="st0" d="M1195.35,255.01l.02,1.35h-1.34c-.32,0-.59.04-.82.11s-.42.17-.57.3c-.15.13-.26.28-.33.45-.07.17-.1.36-.1.56s.05.39.14.55c.09.16.23.29.41.38.18.09.38.14.62.14.36,0,.67-.07.94-.22s.47-.32.62-.53c.15-.21.22-.41.23-.6l.63,1.01c-.09.23-.21.46-.36.71-.15.24-.34.47-.58.68-.23.21-.51.39-.84.52-.33.14-.71.2-1.16.2-.57,0-1.09-.11-1.55-.34-.46-.23-.83-.55-1.1-.95-.27-.41-.4-.87-.4-1.39,0-.47.09-.89.27-1.25.18-.37.44-.67.78-.93.35-.25.78-.44,1.3-.57.52-.13,1.12-.19,1.81-.19h1.39ZM1195.03,258.46v-4c0-.29-.05-.54-.14-.74-.09-.21-.24-.37-.44-.49s-.45-.17-.76-.17c-.27,0-.5.05-.69.14-.19.09-.34.22-.45.39-.11.17-.16.37-.16.59h-2.39c0-.38.09-.74.27-1.09.18-.34.43-.65.77-.91.34-.26.74-.47,1.21-.62.47-.15.99-.22,1.57-.22.7,0,1.32.12,1.86.35.54.23.97.58,1.28,1.05.31.46.47,1.05.47,1.74v3.84c0,.49.03.9.09,1.21.06.31.15.59.27.82v.14h-2.42c-.12-.24-.2-.55-.26-.92-.06-.37-.09-.74-.09-1.11Z"/>
        <path class="st0" d="M1203.68,251.5v1.69h-5.23v-1.69h5.23ZM1199.75,249.28h2.39v8.49c0,.26.03.46.1.6s.17.23.31.29c.14.05.31.08.52.08.15,0,.28,0,.4-.02.12-.01.22-.03.3-.05v1.76c-.2.07-.42.12-.66.16-.24.04-.5.06-.79.06-.53,0-.98-.09-1.37-.26-.39-.17-.69-.46-.9-.84-.21-.39-.32-.9-.32-1.53v-8.73Z"/>
        <path class="st0" d="M1210.61,256.49l.71-.02c0,.6-.07,1.15-.21,1.66-.14.51-.35.95-.62,1.33-.28.37-.63.66-1.05.87-.42.21-.92.31-1.49.31-.44,0-.84-.06-1.21-.19-.37-.12-.68-.32-.95-.59-.26-.27-.47-.61-.61-1.04-.15-.42-.22-.93-.22-1.53v-5.8h2.39v5.82c0,.27.03.49.1.67s.15.33.27.45.25.2.41.25c.16.05.33.07.53.07.49,0,.88-.1,1.17-.3s.49-.47.61-.82c.12-.35.18-.73.18-1.16ZM1210.35,258.33v-6.83h2.39v8.98h-2.25l-.14-2.15Z"/>
        <path class="st0" d="M1219.41,258c0-.17-.05-.33-.15-.46s-.28-.27-.55-.39c-.27-.12-.65-.23-1.16-.33-.45-.1-.88-.23-1.27-.38-.39-.15-.73-.34-1.01-.55s-.51-.47-.67-.77c-.16-.3-.24-.63-.24-1.02s.08-.73.25-1.06.4-.63.71-.88c.31-.26.68-.46,1.13-.61.45-.15.95-.22,1.51-.22.78,0,1.45.12,2.01.37.56.25.99.59,1.29,1.02.3.43.45.93.45,1.48h-2.39c0-.23-.05-.44-.15-.63-.1-.19-.25-.33-.45-.44-.2-.11-.46-.16-.78-.16-.27,0-.5.05-.69.14-.19.09-.34.21-.44.37-.1.15-.15.32-.15.5,0,.14.03.26.09.37.06.11.15.21.29.29s.31.17.52.25c.21.07.48.14.79.2.65.13,1.23.31,1.73.52.51.21.91.5,1.21.86.3.36.45.84.45,1.42,0,.4-.09.76-.27,1.1-.18.33-.43.62-.76.87-.33.25-.73.44-1.19.57-.46.14-.98.2-1.56.2-.84,0-1.54-.15-2.12-.45s-1.02-.68-1.31-1.14c-.3-.46-.44-.94-.44-1.42h2.27c.01.33.1.59.25.79.16.2.36.34.61.43.25.09.51.13.8.13.31,0,.57-.04.77-.13.21-.09.36-.2.47-.35.11-.15.16-.32.16-.51Z"/>
      </g>
      <g>
        <path class="st0" d="M704.22,248.39v1.95h-9.86v-1.95h9.86ZM700.5,248.39v12.09h-2.48v-12.09h2.48Z"/>
        <path class="st0" d="M706.49,251.5l1.95,6.51.34,2.53-1.63.17-3.23-9.21h2.56ZM707.49,259.47l2.38-7.97h2.56l-3.61,10.33c-.08.23-.18.47-.31.73-.13.26-.3.51-.52.74-.22.24-.49.43-.82.58-.33.15-.73.22-1.21.22-.23,0-.41-.01-.56-.04s-.32-.07-.51-.12v-1.75c.06,0,.12,0,.19,0,.07,0,.13,0,.19,0,.32,0,.57-.04.77-.11s.36-.18.48-.33c.12-.15.22-.34.29-.57l.67-1.73Z"/>
        <path class="st0" d="M715.77,253.23v10.71h-2.39v-12.43h2.22l.17,1.73ZM721.46,255.89v.17c0,.65-.08,1.26-.23,1.82-.15.56-.38,1.04-.67,1.46-.29.41-.66.73-1.09.96-.43.23-.93.34-1.5.34s-1.02-.11-1.43-.33-.74-.53-1.02-.93c-.27-.4-.49-.87-.66-1.4s-.29-1.1-.38-1.71v-.46c.09-.65.22-1.25.38-1.8.17-.55.39-1.02.66-1.42.27-.4.61-.71,1.01-.93.4-.22.87-.33,1.42-.33.57,0,1.07.11,1.51.32.43.22.8.53,1.1.93.3.4.52.89.67,1.44.15.56.23,1.18.23,1.86ZM719.06,256.06v-.17c0-.38-.03-.73-.1-1.06-.06-.32-.16-.61-.3-.85-.14-.24-.31-.43-.53-.57-.22-.14-.48-.2-.79-.2-.33,0-.6.05-.83.16-.23.1-.42.26-.56.46s-.25.44-.32.71-.12.59-.13.94v1.15c.03.41.1.78.23,1.1.13.32.32.58.59.77s.61.28,1.05.28c.32,0,.58-.07.8-.21.22-.14.39-.34.53-.59.14-.25.23-.54.29-.86.06-.33.09-.68.09-1.05Z"/>
        <path class="st0" d="M727.08,260.65c-.7,0-1.32-.11-1.88-.34-.55-.22-1.02-.54-1.41-.93-.38-.4-.68-.86-.88-1.39-.2-.53-.31-1.09-.31-1.69v-.33c0-.68.1-1.3.29-1.87s.47-1.05.83-1.47c.36-.42.8-.73,1.32-.96.52-.22,1.11-.34,1.76-.34s1.2.1,1.69.32.91.51,1.24.9c.33.39.59.85.76,1.39.17.54.26,1.14.26,1.8v1h-7.14v-1.59h4.79v-.18c0-.33-.06-.63-.18-.89-.12-.26-.3-.47-.54-.63s-.54-.23-.91-.23c-.32,0-.59.07-.81.21s-.41.33-.55.58c-.14.25-.25.54-.32.88-.07.33-.1.7-.1,1.1v.33c0,.36.05.69.15,1,.1.3.25.57.44.79.19.22.42.39.7.51.27.12.58.18.93.18.43,0,.83-.08,1.21-.25.37-.17.7-.42.97-.77l1.16,1.26c-.19.27-.44.53-.77.78-.32.25-.71.45-1.17.61-.45.16-.97.24-1.55.24Z"/>
      </g>
      <g>
        <path class="st0" d="M1403.65,248.39v12.09h-2.49v-12.09h2.49ZM1404.87,260.48h-2.63l.02-1.94h2.62c.65,0,1.2-.15,1.65-.44.45-.3.79-.73,1.02-1.3.23-.57.35-1.26.35-2.07v-.59c0-.62-.07-1.17-.2-1.64-.13-.47-.32-.87-.58-1.19s-.57-.56-.94-.73c-.37-.16-.8-.24-1.28-.24h-2.71v-1.95h2.71c.81,0,1.55.14,2.22.41.67.27,1.25.67,1.75,1.17.49.51.87,1.12,1.14,1.82.27.71.4,1.49.4,2.35v.57c0,.86-.13,1.64-.4,2.35-.27.71-.65,1.32-1.14,1.82-.49.51-1.07.9-1.75,1.17-.68.27-1.43.41-2.25.41Z"/>
        <path class="st0" d="M1417.22,255.01l.02,1.35h-1.34c-.31,0-.59.04-.82.11s-.42.17-.57.3c-.15.13-.26.28-.33.45s-.1.36-.1.56.05.39.14.55c.09.16.23.29.41.38.18.09.38.14.62.14.36,0,.67-.07.94-.22s.47-.32.62-.53c.15-.21.22-.41.23-.6l.63,1.01c-.09.23-.21.46-.36.71-.15.24-.34.47-.58.68-.23.21-.51.39-.84.52-.33.14-.71.2-1.16.2-.57,0-1.09-.11-1.55-.34-.46-.23-.83-.55-1.1-.95-.27-.41-.4-.87-.4-1.39,0-.47.09-.89.27-1.25s.44-.67.78-.93c.35-.25.78-.44,1.3-.57.52-.13,1.12-.19,1.81-.19h1.39ZM1416.9,258.45v-4c0-.29-.05-.54-.14-.74-.09-.21-.24-.37-.44-.49-.2-.12-.45-.17-.76-.17-.27,0-.49.05-.69.14-.19.09-.34.22-.45.39-.11.17-.16.37-.16.59h-2.39c0-.38.09-.74.27-1.09.18-.34.44-.65.77-.91.34-.26.74-.47,1.21-.62.47-.15.99-.22,1.57-.22.7,0,1.32.12,1.86.35.54.23.97.58,1.28,1.05s.47,1.05.47,1.74v3.84c0,.49.03.9.09,1.21.06.31.15.59.27.82v.14h-2.42c-.12-.24-.2-.55-.26-.92-.06-.37-.09-.74-.09-1.11Z"/>
        <path class="st0" d="M1425.55,251.5v1.69h-5.23v-1.69h5.23ZM1421.62,249.28h2.39v8.49c0,.26.03.46.1.6s.17.23.31.29c.14.05.31.08.52.08.15,0,.28,0,.4-.02.12-.01.22-.03.3-.05v1.76c-.2.07-.42.12-.66.16-.24.04-.5.06-.79.06-.53,0-.98-.09-1.37-.26-.39-.17-.69-.46-.9-.84s-.32-.9-.32-1.53v-8.73Z"/>
        <path class="st0" d="M1431.04,260.65c-.7,0-1.32-.11-1.88-.34-.55-.22-1.02-.54-1.41-.93-.38-.4-.68-.86-.88-1.39-.21-.53-.31-1.09-.31-1.69v-.33c0-.68.1-1.3.29-1.87.19-.56.47-1.05.83-1.47.36-.42.8-.73,1.32-.96.52-.22,1.11-.34,1.76-.34s1.2.1,1.69.32c.49.21.91.51,1.24.9.33.39.59.85.76,1.39.17.54.26,1.14.26,1.8v1h-7.14v-1.59h4.79v-.18c0-.33-.06-.63-.18-.89-.12-.26-.3-.47-.54-.63s-.54-.23-.91-.23c-.32,0-.59.07-.81.21s-.41.33-.55.58c-.14.25-.25.54-.31.88-.07.33-.1.7-.1,1.1v.33c0,.36.05.69.15,1,.1.3.25.57.44.79.19.22.42.39.7.51.27.12.58.18.93.18.43,0,.83-.08,1.21-.25.37-.17.7-.42.97-.77l1.16,1.26c-.19.27-.44.53-.77.78s-.71.45-1.17.61c-.45.16-.97.24-1.55.24Z"/>
        <path class="st0" d="M1441.25,248.39l-4.43,13.12h-1.78l4.43-13.12h1.78Z"/>
        <path class="st0" d="M1451.67,248.39v1.95h-9.86v-1.95h9.86ZM1447.95,248.39v12.09h-2.48v-12.09h2.48Z"/>
        <path class="st0" d="M1452.9,249.16c0-.35.12-.64.37-.86.24-.23.57-.34.98-.34s.73.11.98.34c.25.23.37.51.37.86s-.12.64-.37.86c-.25.23-.57.34-.98.34s-.74-.11-.98-.34c-.24-.23-.37-.51-.37-.86ZM1455.45,251.5v8.98h-2.4v-8.98h2.4Z"/>
        <path class="st0" d="M1459.82,253.36v7.12h-2.4v-8.98h2.25l.15,1.86ZM1459.49,255.67h-.66c0-.63.08-1.2.23-1.73.15-.53.38-.99.67-1.38.3-.39.66-.69,1.1-.91.44-.22.94-.32,1.52-.32.4,0,.76.06,1.1.18.33.12.62.3.86.56.24.25.43.58.56.98.13.4.2.88.2,1.44v5.99h-2.39v-5.73c0-.41-.06-.73-.17-.95-.11-.22-.27-.38-.47-.46s-.44-.13-.73-.13c-.31,0-.58.06-.81.19s-.42.3-.57.53c-.15.22-.26.49-.33.78-.07.3-.11.62-.11.96ZM1464.83,255.4l-.86.11c0-.59.07-1.13.22-1.64s.37-.95.66-1.33c.29-.38.65-.68,1.08-.89.43-.21.93-.32,1.49-.32.43,0,.83.06,1.18.19.35.12.66.32.91.59.25.27.45.62.58,1.05s.2.96.2,1.59v5.74h-2.4v-5.74c0-.42-.05-.73-.16-.95-.11-.22-.26-.37-.46-.46-.2-.09-.44-.13-.72-.13s-.54.06-.76.17c-.21.11-.39.27-.54.47s-.25.43-.32.69c-.07.26-.11.55-.11.86Z"/>
        <path class="st0" d="M1476.29,260.65c-.7,0-1.32-.11-1.88-.34-.55-.22-1.02-.54-1.41-.93s-.68-.86-.88-1.39c-.2-.53-.31-1.09-.31-1.69v-.33c0-.68.1-1.3.29-1.87s.47-1.05.83-1.47c.36-.42.8-.73,1.32-.96.52-.22,1.11-.34,1.76-.34s1.2.1,1.69.32.91.51,1.24.9.59.85.76,1.39c.17.54.26,1.14.26,1.8v1h-7.14v-1.59h4.79v-.18c0-.33-.06-.63-.18-.89-.12-.26-.3-.47-.54-.63-.24-.15-.54-.23-.91-.23-.31,0-.59.07-.81.21-.23.14-.41.33-.55.58-.14.25-.25.54-.32.88-.07.33-.1.7-.1,1.1v.33c0,.36.05.69.15,1,.1.3.25.57.44.79.19.22.42.39.7.51.27.12.58.18.93.18.43,0,.83-.08,1.21-.25.37-.17.7-.42.97-.77l1.16,1.26c-.19.27-.44.53-.77.78-.32.25-.71.45-1.17.61-.45.16-.97.24-1.55.24Z"/>
      </g>
    </g>
    <line class="st3" x1="601.7" y1="965.64" x2="601.7" y2="230.51"/>
    <line class="st3" x1="362.7" y1="330.51" x2="1557.61" y2="330.51"/>
    <line class="st3" x1="362.55" y1="380.51" x2="1557.45" y2="380.51"/>
    <line class="st3" x1="362.71" y1="430.51" x2="1557.62" y2="430.51"/>
    <line class="st3" x1="840.67" y1="965.64" x2="840.67" y2="230.51"/>
    <line class="st3" x1="1079.65" y1="965.64" x2="1079.65" y2="230.51"/>
    <line class="st3" x1="1318.63" y1="965.64" x2="1318.63" y2="230.51"/>
    <line class="st3" x1="362.79" y1="480.51" x2="1557.69" y2="480.51"/>
    <line class="st3" x1="362.63" y1="530.51" x2="1557.54" y2="530.51"/>
    <line class="st3" x1="362.79" y1="580.51" x2="1557.7" y2="580.51"/>
    <line class="st3" x1="362.7" y1="630.51" x2="1557.61" y2="630.51"/>
    <line class="st3" x1="362.55" y1="680.51" x2="1557.45" y2="680.51"/>
    <line class="st3" x1="362.71" y1="730.51" x2="1557.62" y2="730.51"/>
    <line class="st3" x1="362.79" y1="780.51" x2="1557.69" y2="780.51"/>
    <line class="st3" x1="362.63" y1="830.51" x2="1557.54" y2="830.51"/>
    <line class="st3" x1="362.79" y1="880.51" x2="1557.7" y2="880.51"/>
    <line class="st3" x1="362.55" y1="930.51" x2="1557.45" y2="930.51"/>
    <rect class="st1" x="1570.39" y="280.51" width="8.25" height="650" rx="4.13" ry="4.13" transform="translate(3149.04 1211.02) rotate(180)"/>
    <rect class="st6" x="1570.39" y="280.51" width="8.25" height="128.72" rx="4.13" ry="4.13" transform="translate(3149.04 689.74) rotate(-180)"/>
  </g>
</svg>