<?xml version="1.0" encoding="UTF-8"?>
<svg xmlns="http://www.w3.org/2000/svg" version="1.1" viewBox="0 0 1920 1080">
  <!-- Generator: Adobe Illustrator 29.8.2, SVG Export Plug-In . SVG Version: 2.1.1 Build 3)  -->
  <defs>
    <style>
      .st0 {
        fill: #fff;
      }

      .st1 {
        stroke: #424242;
        stroke-miterlimit: 10;
      }

      .st1, .st2 {
        fill: none;
      }

      .st2 {
        stroke: #fff;
        stroke-linecap: round;
        stroke-linejoin: round;
        stroke-width: 3px;
      }

      .st3 {
        fill: #212121;
      }

      .st4 {
        fill: #e87f0c;
      }
    </style>
  </defs>
  <g id="Layer_1">
    <rect class="st3" x=".18" y="-.1" width="1920" height="1080"/>
  </g>
  <g id="Layer_2">
    <g>
      <path class="st0" d="M98.88,61.66v6.77c-.23.34-.59.72-1.09,1.14s-1.19.78-2.06,1.09-2,.46-3.38.46c-1.13,0-2.16-.2-3.1-.59s-1.76-.97-2.45-1.73-1.22-1.68-1.6-2.77-.56-2.32-.56-3.7v-1.43c0-1.38.16-2.61.49-3.69s.81-2,1.44-2.76,1.41-1.33,2.34-1.73,1.98-.59,3.17-.59c1.41,0,2.6.24,3.55.73s1.7,1.16,2.23,2.01.88,1.83,1.03,2.92h-2.45c-.11-.67-.33-1.28-.65-1.83s-.79-.99-1.39-1.33-1.38-.5-2.32-.5c-.85,0-1.6.16-2.22.47s-1.14.76-1.55,1.35-.71,1.29-.91,2.12-.3,1.76-.3,2.81v1.46c0,1.07.12,2.02.37,2.86s.61,1.55,1.07,2.14,1.02,1.03,1.67,1.34,1.36.46,2.15.46c.87,0,1.58-.07,2.12-.22s.96-.33,1.27-.53.54-.4.7-.59v-4.14h-4.28v-1.98h6.72Z"/>
      <path class="st0" d="M101.95,64.15v-.29c0-.99.14-1.91.43-2.76s.7-1.59,1.24-2.22,1.2-1.12,1.97-1.47,1.63-.53,2.59-.53,1.83.18,2.61.53,1.43.84,1.98,1.47.96,1.37,1.25,2.22.43,1.77.43,2.76v.29c0,.99-.14,1.91-.43,2.75s-.7,1.58-1.25,2.22-1.2,1.12-1.97,1.47-1.63.53-2.6.53-1.83-.18-2.6-.53-1.43-.84-1.97-1.47-.96-1.37-1.25-2.22-.43-1.76-.43-2.75ZM104.3,63.85v.29c0,.69.08,1.33.24,1.94s.4,1.14.73,1.61.73.83,1.23,1.1,1.06.4,1.71.4,1.21-.13,1.69-.4.89-.63,1.21-1.1.56-1,.73-1.61.25-1.25.25-1.94v-.29c0-.68-.08-1.32-.25-1.92s-.41-1.14-.74-1.61-.73-.84-1.22-1.11-1.06-.41-1.71-.41-1.21.14-1.69.41-.89.64-1.22,1.11-.57,1.01-.73,1.61-.24,1.25-.24,1.92Z"/>
      <path class="st0" d="M123.84,51.36h2.36v16.83l-.2,2.67h-2.16v-19.5ZM135.48,63.88v.27c0,1-.12,1.92-.36,2.77s-.58,1.59-1.04,2.22-1.02,1.11-1.68,1.46-1.42.52-2.27.52-1.64-.15-2.29-.45-1.21-.73-1.66-1.3-.81-1.25-1.07-2.06-.45-1.71-.55-2.72v-1.17c.1-1.02.29-1.93.55-2.73s.62-1.49,1.07-2.06,1-1.01,1.65-1.31,1.41-.45,2.27-.45,1.63.17,2.3.5,1.23.81,1.68,1.43.8,1.36,1.03,2.22.36,1.81.36,2.86ZM133.12,64.15v-.27c0-.69-.06-1.33-.19-1.94s-.33-1.14-.61-1.6-.65-.83-1.1-1.09-1.02-.4-1.69-.4c-.59,0-1.11.1-1.54.3s-.81.48-1.11.82-.55.73-.74,1.17-.33.89-.43,1.35v3.06c.14.59.36,1.16.67,1.71s.72.99,1.24,1.34,1.17.52,1.94.52c.63,0,1.18-.13,1.63-.39s.82-.62,1.1-1.07.49-.99.63-1.59.2-1.24.2-1.93Z"/>
      <path class="st0" d="M146.96,62.53l.03,1.65h-2.37c-.67,0-1.27.05-1.79.16s-.96.26-1.32.48-.63.48-.81.79-.28.69-.28,1.11.1.83.29,1.18.49.64.88.84.88.31,1.45.31c.72,0,1.35-.15,1.9-.46s.99-.68,1.31-1.12.5-.87.53-1.28l1,1.13c-.06.36-.22.75-.48,1.18s-.61.84-1.05,1.24-.95.72-1.55.98-1.27.39-2.01.39c-.93,0-1.75-.18-2.44-.55s-1.24-.85-1.62-1.47-.58-1.3-.58-2.06.14-1.39.43-1.95.7-1.03,1.24-1.41,1.19-.66,1.96-.86,1.61-.29,2.55-.29h2.73ZM146.55,68.51v-7.07c0-.54-.11-1.01-.32-1.42s-.54-.71-.97-.93-.96-.33-1.6-.33c-.59,0-1.11.1-1.56.3s-.79.47-1.04.8-.37.69-.37,1.07h-2.35c0-.49.13-.98.38-1.46s.62-.92,1.1-1.31,1.05-.71,1.73-.94,1.42-.35,2.25-.35c1,0,1.88.17,2.65.51s1.37.85,1.8,1.53.65,1.53.65,2.56v6.4c0,.46.04.94.12,1.46s.2.96.36,1.33v.2h-2.45c-.12-.27-.21-.63-.28-1.09s-.1-.87-.1-1.26Z"/>
      <path class="st0" d="M158.09,69.19c.56,0,1.07-.11,1.55-.34s.86-.54,1.17-.95.48-.86.52-1.38h2.23c-.04.81-.32,1.57-.82,2.27s-1.16,1.26-1.97,1.69-1.71.64-2.68.64c-1.03,0-1.93-.18-2.7-.55s-1.4-.86-1.9-1.5-.88-1.36-1.13-2.19-.37-1.7-.37-2.62v-.53c0-.92.12-1.8.37-2.62s.63-1.56,1.13-2.19,1.14-1.13,1.9-1.5,1.67-.55,2.7-.55,2.01.22,2.82.65,1.44,1.03,1.9,1.78.71,1.6.76,2.55h-2.23c-.04-.57-.2-1.08-.48-1.54s-.65-.82-1.12-1.1-1.02-.41-1.64-.41c-.72,0-1.32.14-1.81.43s-.87.66-1.16,1.14-.49,1.01-.61,1.59-.18,1.17-.18,1.77v.53c0,.6.06,1.19.18,1.78s.32,1.11.6,1.59.67.85,1.16,1.14,1.09.43,1.82.43Z"/>
      <path class="st0" d="M168.56,51.36v19.5h-2.36v-19.5h2.36ZM176.95,57.13l-5.99,6.41-3.35,3.48-.19-2.5,2.4-2.87,4.27-4.52h2.87ZM174.81,70.86l-4.9-6.55,1.22-2.09,6.45,8.65h-2.77Z"/>
    </g>
    <path class="st2" d="M53.5,63.31h17M53.05,63.26l7.28-7.28M53.05,63.26l7.28,7.28"/>
    <g>
      <g>
        <path class="st0" d="M766.16,399.59v6.76h-28v-5.73l13.08-13.86c1.22-1.41,2.2-2.65,2.94-3.73.73-1.08,1.27-2.05,1.6-2.94.33-.88.5-1.69.5-2.44,0-1.21-.19-2.23-.57-3.06-.38-.83-.93-1.48-1.66-1.92s-1.6-.67-2.64-.67c-1.11,0-2.07.29-2.87.86-.8.58-1.41,1.37-1.84,2.38-.43,1.01-.64,2.16-.64,3.44h-8.74c0-2.47.59-4.72,1.78-6.75,1.19-2.03,2.85-3.66,4.98-4.87,2.13-1.21,4.63-1.82,7.49-1.82s5.39.46,7.38,1.39c1.99.93,3.49,2.25,4.51,3.98,1.02,1.73,1.53,3.8,1.53,6.23,0,1.37-.22,2.7-.65,3.98-.44,1.28-1.06,2.55-1.88,3.81-.82,1.26-1.8,2.55-2.95,3.85-1.15,1.31-2.45,2.69-3.9,4.13l-6.12,6.96h16.67Z"/>
        <path class="st0" d="M780.8,365.83v40.52h-9.07v-40.52h9.07ZM798.53,365.83v7.04h-20.26v-7.04h20.26ZM796.75,382.92v7.01h-18.48v-7.01h18.48Z"/>
        <path class="st0" d="M814.56,373.54l-10.46,32.81h-9.69l15-40.52h6.12l-.97,7.71ZM822.8,391.27v7.01h-21.12v-7.01h21.12ZM823.25,406.36l-10.49-32.81-1.09-7.71h6.21l15.06,40.52h-9.69Z"/>
        <path class="st0" d="M873.76,392.78h9.02c-.15,2.78-.9,5.24-2.27,7.36-1.36,2.12-3.25,3.79-5.66,4.98-2.41,1.2-5.28,1.79-8.6,1.79-2.65,0-5.03-.46-7.12-1.36-2.1-.91-3.87-2.21-5.33-3.91-1.46-1.7-2.57-3.75-3.34-6.15-.77-2.4-1.16-5.12-1.16-8.14v-2.48c0-3.02.4-5.74,1.2-8.15.8-2.41,1.94-4.47,3.42-6.18,1.48-1.71,3.27-3.02,5.34-3.92,2.08-.91,4.4-1.36,6.96-1.36,3.45,0,6.36.62,8.74,1.86,2.38,1.24,4.22,2.95,5.52,5.12,1.31,2.17,2.09,4.65,2.35,7.43h-9.05c-.07-1.58-.37-2.91-.89-3.99-.52-1.09-1.32-1.91-2.39-2.46-1.08-.56-2.5-.83-4.29-.83-1.3,0-2.44.24-3.41.72-.97.48-1.78,1.23-2.42,2.25-.64,1.02-1.12,2.31-1.43,3.88-.32,1.57-.47,3.43-.47,5.58v2.53c0,2.13.14,3.98.42,5.54s.73,2.85,1.35,3.87c.62,1.02,1.42,1.78,2.41,2.28.98.5,2.18.75,3.59.75,1.61,0,2.96-.25,4.04-.77,1.08-.51,1.9-1.28,2.48-2.32.57-1.04.91-2.35,1-3.92Z"/>
        <path class="st0" d="M886.12,391.61v-.58c0-2.21.32-4.24.95-6.11.63-1.87,1.56-3.48,2.78-4.86,1.22-1.37,2.73-2.44,4.51-3.21s3.82-1.16,6.12-1.16,4.4.39,6.19,1.16c1.79.77,3.3,1.84,4.52,3.21,1.22,1.37,2.15,2.99,2.78,4.86.63,1.86.95,3.9.95,6.11v.58c0,2.19-.32,4.22-.95,6.08-.63,1.87-1.56,3.49-2.78,4.87s-2.73,2.45-4.51,3.21-3.83,1.14-6.15,1.14-4.35-.38-6.15-1.14c-1.8-.76-3.31-1.83-4.54-3.21s-2.15-3.01-2.78-4.87c-.63-1.86-.95-3.89-.95-6.08ZM894.83,391.02v.58c0,1.19.1,2.3.29,3.34.2,1.04.52,1.95.96,2.73s1.03,1.39,1.77,1.82,1.63.65,2.69.65,1.95-.22,2.67-.65,1.31-1.04,1.75-1.82.77-1.69.96-2.73c.2-1.04.29-2.15.29-3.34v-.58c0-1.17-.1-2.27-.29-3.3-.19-1.03-.51-1.94-.96-2.74-.45-.8-1.03-1.42-1.77-1.86s-1.64-.67-2.71-.67-1.92.22-2.64.67-1.31,1.07-1.75,1.86c-.45.8-.77,1.71-.96,2.74-.19,1.03-.29,2.13-.29,3.3Z"/>
        <path class="st0" d="M928.01,382.67v23.69h-8.71v-30.11h8.18l.53,6.43ZM926.87,390.24l-2.17.06c0-2.26.28-4.3.83-6.1.56-1.8,1.35-3.33,2.38-4.61,1.03-1.27,2.26-2.24,3.7-2.91,1.44-.67,3.03-1,4.77-1,1.41,0,2.7.2,3.87.61,1.17.41,2.18,1.06,3.02,1.96.84.9,1.49,2.09,1.93,3.56.45,1.48.67,3.29.67,5.44v19.09h-8.74v-19.12c0-1.26-.18-2.24-.53-2.92-.35-.69-.87-1.17-1.54-1.45-.68-.28-1.5-.42-2.46-.42-1.02,0-1.89.2-2.62.6-.72.4-1.32.95-1.78,1.66-.46.71-.8,1.53-1.02,2.48s-.32,1.97-.32,3.06Z"/>
        <path class="st0" d="M968.34,376.24v6.1h-19.09v-6.1h19.09ZM962.38,406.36h-8.74v-32.67c0-2.32.46-4.27,1.38-5.84.92-1.58,2.22-2.77,3.91-3.59,1.69-.82,3.68-1.22,5.98-1.22.8,0,1.54.05,2.24.15.7.1,1.38.24,2.05.4v6.48c-.35-.09-.71-.16-1.08-.19-.37-.04-.82-.06-1.34-.06-.93,0-1.72.14-2.38.43-.66.29-1.16.72-1.5,1.31-.34.58-.52,1.29-.52,2.13v32.67Z"/>
        <path class="st0" d="M972.01,368.45c0-1.26.45-2.3,1.34-3.1.89-.81,2.06-1.21,3.51-1.21s2.62.4,3.52,1.21c.9.81,1.35,1.84,1.35,3.1s-.45,2.27-1.35,3.08c-.9.81-2.07,1.21-3.52,1.21s-2.62-.4-3.51-1.21c-.89-.81-1.34-1.83-1.34-3.08ZM981.25,376.24v30.11h-8.71v-30.11h8.71Z"/>
        <path class="st0" d="M996.19,383.26v23.1h-8.68v-30.11h8.16l.53,7.01ZM1005.18,376.02l-.14,8.1c-.37-.06-.85-.11-1.45-.15-.59-.05-1.1-.07-1.53-.07-1.11,0-2.07.13-2.88.4-.81.27-1.47.66-2,1.18-.53.52-.92,1.16-1.18,1.93s-.39,1.66-.39,2.66l-1.64-.81c0-1.99.2-3.8.58-5.46.39-1.65.96-3.08,1.7-4.3.74-1.22,1.65-2.16,2.73-2.83s2.3-1,3.67-1c.45,0,.9.03,1.36.08s.85.14,1.17.25Z"/>
        <path class="st0" d="M1017.43,382.56v23.8h-8.68v-30.11h8.16l.53,6.32ZM1016.32,390.24l-2.2.06c0-2.12.25-4.06.77-5.83.51-1.77,1.26-3.32,2.24-4.63.98-1.32,2.2-2.34,3.66-3.06,1.46-.72,3.14-1.09,5.05-1.09,1.34,0,2.55.2,3.65.6s2.04,1.02,2.83,1.86c.79.84,1.4,1.94,1.82,3.28.43,1.35.64,2.96.64,4.83v20.09h-8.68v-19.04c0-1.34-.16-2.35-.49-3.05-.32-.7-.79-1.17-1.41-1.43-.61-.26-1.35-.39-2.2-.39-.93,0-1.75.2-2.46.6-.71.4-1.31.95-1.79,1.66-.48.71-.84,1.53-1.07,2.48-.23.95-.35,1.97-.35,3.06ZM1033.88,389.8l-2.76.22c0-2.04.24-3.93.72-5.68.48-1.74,1.21-3.26,2.17-4.55s2.17-2.3,3.6-3.02,3.11-1.09,5.02-1.09c1.41,0,2.69.2,3.85.61,1.16.41,2.16,1.07,3.01,1.98.84.91,1.5,2.1,1.96,3.58.46,1.47.7,3.28.7,5.41v19.09h-8.74v-19.09c0-1.32-.16-2.32-.49-3.01-.33-.69-.79-1.16-1.39-1.42-.6-.26-1.32-.39-2.16-.39-.93,0-1.74.19-2.42.57-.69.38-1.26.9-1.73,1.56s-.81,1.43-1.03,2.32-.33,1.86-.33,2.89Z"/>
        <path class="st0" d="M1074.99,387.99l.06,4.79h-4.31c-.97,0-1.8.12-2.49.36-.7.24-1.26.57-1.68.99-.43.42-.74.9-.93,1.45-.2.55-.29,1.15-.29,1.8,0,.61.15,1.16.45,1.66.3.49.71.88,1.22,1.16s1.12.42,1.81.42c1.13,0,2.1-.22,2.91-.67.81-.45,1.43-.99,1.88-1.63.45-.64.67-1.24.67-1.79l2.09,3.62c-.33.74-.74,1.51-1.22,2.3-.48.79-1.09,1.52-1.84,2.2-.74.68-1.64,1.23-2.69,1.66s-2.31.64-3.77.64c-1.89,0-3.61-.39-5.15-1.16-1.54-.77-2.77-1.83-3.69-3.19-.92-1.35-1.38-2.91-1.38-4.68,0-1.58.29-2.98.86-4.2.57-1.22,1.44-2.26,2.6-3.12,1.16-.85,2.62-1.5,4.38-1.93s3.82-.65,6.18-.65h4.34ZM1073.9,399.18v-12.91c0-.91-.14-1.69-.42-2.34-.28-.65-.71-1.16-1.31-1.53-.59-.37-1.36-.56-2.31-.56-.8,0-1.49.14-2.07.42-.58.28-1.03.68-1.34,1.2-.31.52-.46,1.16-.46,1.92h-8.68c0-1.35.31-2.62.92-3.79s1.49-2.2,2.63-3.09c1.14-.89,2.51-1.58,4.11-2.07,1.6-.49,3.39-.74,5.37-.74,2.36,0,4.46.39,6.3,1.18,1.85.79,3.31,1.97,4.38,3.54s1.62,3.54,1.62,5.91v12.61c0,1.82.11,3.24.32,4.27.21,1.03.52,1.93.93,2.69v.47h-8.77c-.41-.87-.71-1.95-.92-3.24s-.31-2.6-.31-3.94Z"/>
        <path class="st0" d="M1103.65,376.24v6.1h-17.87v-6.1h17.87ZM1089.88,368.78h8.71v28.14c0,.83.1,1.48.31,1.92.2.45.54.76,1,.93.46.18,1.06.26,1.78.26.52,0,.96-.02,1.34-.06.37-.04.71-.08,1.03-.14v6.29c-.74.24-1.53.43-2.37.57-.84.14-1.75.21-2.73.21-1.87,0-3.49-.31-4.86-.92-1.36-.61-2.41-1.58-3.13-2.91-.72-1.33-1.08-3.06-1.08-5.19v-29.11Z"/>
        <path class="st0" d="M1107.72,368.45c0-1.26.45-2.3,1.34-3.1.89-.81,2.06-1.21,3.51-1.21s2.62.4,3.52,1.21c.9.81,1.35,1.84,1.35,3.1s-.45,2.27-1.35,3.08c-.9.81-2.07,1.21-3.52,1.21s-2.62-.4-3.51-1.21c-.89-.81-1.34-1.83-1.34-3.08ZM1116.96,376.24v30.11h-8.71v-30.11h8.71Z"/>
        <path class="st0" d="M1121.94,391.61v-.58c0-2.21.31-4.24.95-6.11.63-1.87,1.56-3.48,2.78-4.86,1.22-1.37,2.73-2.44,4.51-3.21s3.82-1.16,6.12-1.16,4.4.39,6.19,1.16c1.79.77,3.3,1.84,4.52,3.21,1.22,1.37,2.15,2.99,2.78,4.86.63,1.86.95,3.9.95,6.11v.58c0,2.19-.32,4.22-.95,6.08-.63,1.87-1.56,3.49-2.78,4.87s-2.73,2.45-4.51,3.21-3.83,1.14-6.15,1.14-4.35-.38-6.15-1.14-3.31-1.83-4.54-3.21-2.15-3.01-2.78-4.87c-.63-1.86-.95-3.89-.95-6.08ZM1130.65,391.02v.58c0,1.19.1,2.3.29,3.34.2,1.04.51,1.95.96,2.73s1.03,1.39,1.77,1.82,1.63.65,2.69.65,1.95-.22,2.67-.65c.72-.44,1.31-1.04,1.75-1.82s.77-1.69.96-2.73c.2-1.04.29-2.15.29-3.34v-.58c0-1.17-.1-2.27-.29-3.3-.19-1.03-.51-1.94-.96-2.74-.45-.8-1.03-1.42-1.77-1.86s-1.64-.67-2.71-.67-1.92.22-2.64.67-1.31,1.07-1.75,1.86c-.45.8-.76,1.71-.96,2.74-.19,1.03-.29,2.13-.29,3.3Z"/>
        <path class="st0" d="M1163.83,382.67v23.69h-8.71v-30.11h8.18l.53,6.43ZM1162.69,390.24l-2.17.06c0-2.26.28-4.3.83-6.1.56-1.8,1.35-3.33,2.38-4.61,1.03-1.27,2.26-2.24,3.7-2.91,1.44-.67,3.03-1,4.77-1,1.41,0,2.7.2,3.87.61,1.17.41,2.17,1.06,3.02,1.96.84.9,1.49,2.09,1.93,3.56.45,1.48.67,3.29.67,5.44v19.09h-8.74v-19.12c0-1.26-.18-2.24-.53-2.92-.35-.69-.87-1.17-1.54-1.45-.68-.28-1.5-.42-2.46-.42-1.02,0-1.89.2-2.62.6-.72.4-1.32.95-1.78,1.66-.46.71-.8,1.53-1.02,2.48s-.32,1.97-.32,3.06Z"/>
      </g>
      <rect class="st4" x="715.29" y="651.67" width="489.43" height="70.74" rx="35.37" ry="35.37"/>
      <g>
        <path class="st0" d="M929.14,688.33h3.36c-.07,1.1-.37,2.08-.9,2.93s-1.28,1.52-2.24,2c-.95.48-2.1.72-3.44.72-1.05,0-1.99-.18-2.82-.54s-1.54-.88-2.13-1.57-1.04-1.5-1.34-2.47c-.31-.97-.46-2.05-.46-3.25v-1.13c0-1.2.16-2.28.48-3.25s.77-1.79,1.37-2.48c.59-.68,1.31-1.21,2.14-1.57.83-.37,1.76-.55,2.79-.55,1.36,0,2.51.25,3.45.74s1.67,1.17,2.19,2.04c.52.87.83,1.86.94,2.96h-3.37c-.04-.66-.17-1.22-.39-1.68-.22-.46-.56-.81-1.02-1.04-.45-.24-1.05-.35-1.8-.35-.56,0-1.05.1-1.47.31-.42.21-.77.53-1.06.95s-.5.96-.63,1.61-.21,1.41-.21,2.27v1.16c0,.85.06,1.59.19,2.23.13.64.32,1.18.59,1.62.27.44.61.77,1.03.99s.93.33,1.53.33c.7,0,1.28-.11,1.74-.34s.81-.56,1.05-1,.39-.99.43-1.65Z"/>
        <path class="st0" d="M934,687.81v-.24c0-.89.13-1.71.38-2.47.25-.75.62-1.41,1.11-1.96.49-.55,1.09-.99,1.8-1.3.71-.31,1.53-.47,2.45-.47s1.74.16,2.46.47,1.32.74,1.81,1.3c.49.55.86,1.21,1.12,1.96.25.75.38,1.57.38,2.47v.24c0,.88-.13,1.7-.38,2.45-.25.75-.63,1.41-1.12,1.96s-1.09.99-1.8,1.3c-.71.31-1.53.46-2.45.46s-1.74-.15-2.45-.46c-.71-.31-1.32-.74-1.81-1.3s-.86-1.21-1.12-1.96c-.25-.75-.38-1.57-.38-2.45ZM937.23,687.57v.24c0,.51.04.98.13,1.43.09.44.23.83.43,1.16s.46.59.78.78.71.28,1.18.28.83-.09,1.16-.28.58-.45.77-.78c.2-.33.34-.72.43-1.16.09-.44.14-.92.14-1.43v-.24c0-.49-.05-.96-.14-1.4-.09-.44-.24-.83-.44-1.17s-.46-.61-.78-.8c-.32-.2-.71-.29-1.17-.29s-.84.1-1.16.29c-.32.19-.58.46-.77.8s-.34.73-.43,1.17c-.09.44-.13.9-.13,1.4Z"/>
        <path class="st0" d="M950.66,684.2v9.56h-3.23v-12.15h3.03l.2,2.59ZM950.19,687.26h-.88c0-.9.12-1.71.35-2.43.23-.72.56-1.34.98-1.85s.92-.91,1.5-1.18,1.23-.41,1.95-.41c.57,0,1.09.08,1.56.25s.88.43,1.22.79.6.83.79,1.43c.18.59.28,1.31.28,2.17v7.75h-3.26v-7.76c0-.54-.07-.96-.22-1.26-.15-.3-.37-.51-.66-.63-.29-.12-.64-.19-1.06-.19s-.81.09-1.13.26c-.32.17-.58.41-.79.71-.21.3-.36.66-.47,1.06s-.16.84-.16,1.3Z"/>
        <path class="st0" d="M966.93,681.61v2.29h-7.49v-2.29h7.49ZM964.51,693.76h-3.26v-13.23c0-.92.18-1.7.54-2.33s.88-1.11,1.54-1.44c.66-.33,1.45-.49,2.36-.49.3,0,.59.02.86.06s.55.09.81.15l-.03,2.44c-.14-.04-.29-.06-.45-.08-.16-.01-.34-.02-.55-.02-.39,0-.72.07-.99.2s-.48.32-.62.58c-.14.25-.21.57-.21.93v13.23Z"/>
        <path class="st0" d="M968.59,678.44c0-.47.16-.86.49-1.17.33-.31.77-.46,1.32-.46s.99.15,1.32.46.5.7.5,1.17-.17.86-.5,1.17-.77.46-1.32.46-1-.15-1.32-.46c-.33-.31-.49-.7-.49-1.17ZM972.03,681.61v12.15h-3.25v-12.15h3.25Z"/>
        <path class="st0" d="M977.94,684.26v9.5h-3.23v-12.15h3.04l.19,2.65ZM981.6,681.53l-.06,3c-.16-.02-.35-.04-.57-.06s-.42-.03-.6-.03c-.46,0-.85.06-1.19.17s-.61.29-.83.51-.39.5-.49.82-.17.69-.18,1.1l-.65-.2c0-.79.08-1.51.24-2.17.16-.66.39-1.24.69-1.74.3-.49.68-.88,1.12-1.15.44-.27.95-.4,1.52-.4.18,0,.36.01.55.04.19.03.34.06.46.11Z"/>
        <path class="st0" d="M986.36,684.12v9.64h-3.25v-12.15h3.04l.2,2.52ZM985.92,687.26h-.9c0-.85.1-1.63.31-2.34s.51-1.34.91-1.86c.4-.53.9-.94,1.49-1.23.59-.29,1.28-.44,2.05-.44.54,0,1.03.08,1.48.24s.84.41,1.16.75c.33.34.58.78.76,1.33s.27,1.19.27,1.95v8.11h-3.23v-7.75c0-.55-.07-.98-.22-1.28-.15-.3-.36-.51-.63-.63s-.6-.18-.98-.18c-.42,0-.78.09-1.09.26-.31.17-.57.41-.77.71-.2.3-.35.66-.45,1.06-.1.4-.15.84-.15,1.3ZM993.15,686.88l-1.16.15c0-.79.1-1.53.3-2.21s.49-1.28.89-1.8c.39-.52.88-.92,1.47-1.21s1.26-.43,2.02-.43c.58,0,1.12.08,1.59.25.48.17.89.43,1.23.8s.6.84.79,1.42.27,1.3.27,2.15v7.76h-3.25v-7.76c0-.56-.07-.99-.22-1.29-.15-.3-.36-.5-.63-.62s-.6-.17-.97-.17-.73.08-1.02.23c-.29.15-.54.37-.73.63s-.34.58-.44.94c-.1.36-.15.74-.15,1.16Z"/>
      </g>
      <rect class="st1" x="715.29" y="473.89" width="489.43" height="70.74" rx="35.37" ry="35.37"/>
      <g>
        <path class="st0" d="M759.16,515.6c-.72,0-1.39-.13-1.99-.4-.6-.27-1.13-.64-1.58-1.13s-.79-1.06-1.04-1.73c-.24-.67-.36-1.4-.36-2.19v-.44c0-.85.13-1.63.38-2.32s.6-1.28,1.05-1.77.95-.87,1.52-1.13c.57-.26,1.17-.39,1.8-.39.7,0,1.33.12,1.88.37.55.25,1.01.6,1.38,1.06s.65.99.85,1.61c.19.62.29,1.3.29,2.05v.75h-8.4v-1.05h7.18v-.14c-.01-.62-.14-1.2-.37-1.75-.24-.54-.59-.99-1.05-1.33s-1.05-.51-1.74-.51c-.52,0-1,.11-1.43.33-.43.22-.81.53-1.12.94-.31.41-.55.89-.72,1.45s-.25,1.17-.25,1.85v.44c0,.62.09,1.19.27,1.72.18.53.44,1,.78,1.4.34.4.74.72,1.21.94s.98.34,1.54.34c.66,0,1.24-.12,1.74-.36.51-.24.96-.63,1.36-1.15l.77.59c-.24.36-.54.68-.9.98-.36.3-.79.54-1.29.72s-1.08.27-1.74.27Z"/>
        <path class="st0" d="M766.95,506.67v8.73h-1.22v-11.09h1.17l.05,2.37ZM766.68,509.16l-.54-.31c.04-.66.17-1.27.4-1.85s.53-1.08.92-1.52.84-.78,1.36-1.03c.52-.25,1.1-.37,1.74-.37.55,0,1.05.08,1.49.23s.81.39,1.12.72.54.75.7,1.26c.16.51.24,1.14.24,1.88v7.22h-1.23v-7.23c0-.77-.11-1.37-.32-1.8s-.51-.74-.9-.93-.85-.28-1.38-.28c-.59,0-1.1.13-1.54.38-.44.26-.81.59-1.11.99-.3.41-.52.84-.68,1.3-.16.46-.24.9-.26,1.32Z"/>
        <path class="st0" d="M781.47,504.3v1h-5.56v-1h5.56ZM777.96,501.45h1.22v11.25c0,.51.07.9.21,1.16s.31.43.53.52.45.13.71.13c.18,0,.36-.01.53-.04.17-.02.32-.05.46-.08l.05,1.04c-.15.05-.35.09-.58.12-.24.03-.48.05-.72.05-.47,0-.89-.09-1.25-.26-.36-.17-.65-.47-.85-.9-.21-.43-.31-1.01-.31-1.75v-11.24Z"/>
        <path class="st0" d="M788.32,515.6c-.72,0-1.39-.13-1.99-.4-.6-.27-1.13-.64-1.58-1.13s-.79-1.06-1.04-1.73c-.24-.67-.36-1.4-.36-2.19v-.44c0-.85.13-1.63.38-2.32s.6-1.28,1.05-1.77.95-.87,1.52-1.13c.57-.26,1.17-.39,1.8-.39.7,0,1.33.12,1.88.37.55.25,1.01.6,1.38,1.06s.65.99.85,1.61c.19.62.29,1.3.29,2.05v.75h-8.4v-1.05h7.18v-.14c-.01-.62-.14-1.2-.37-1.75-.24-.54-.59-.99-1.05-1.33s-1.05-.51-1.74-.51c-.52,0-1,.11-1.43.33-.43.22-.81.53-1.12.94-.31.41-.55.89-.72,1.45s-.25,1.17-.25,1.85v.44c0,.62.09,1.19.27,1.72.18.53.44,1,.78,1.4.34.4.74.72,1.21.94s.98.34,1.54.34c.66,0,1.24-.12,1.74-.36.51-.24.96-.63,1.36-1.15l.77.59c-.24.36-.54.68-.9.98-.36.3-.79.54-1.29.72s-1.08.27-1.74.27Z"/>
        <path class="st0" d="M796.12,506.14v9.26h-1.22v-11.09h1.19l.03,1.84ZM800.04,504.22l-.03,1.13c-.14-.02-.27-.04-.4-.05s-.27-.02-.42-.02c-.53,0-1,.1-1.4.29-.4.19-.74.46-1.01.81-.27.35-.48.75-.63,1.21-.14.46-.23.96-.25,1.48l-.45.17c0-.72.08-1.4.23-2.02s.38-1.17.69-1.64c.31-.47.7-.83,1.18-1.1.48-.26,1.03-.39,1.68-.39.16,0,.31.01.47.04.15.02.27.05.34.09Z"/>
        <path class="st0" d="M811.27,504.3v1h-5.56v-1h5.56ZM807.75,501.45h1.22v11.25c0,.51.07.9.21,1.16s.31.43.53.52.45.13.71.13c.18,0,.36-.01.53-.04.17-.02.32-.05.46-.08l.05,1.04c-.15.05-.35.09-.58.12-.24.03-.48.05-.72.05-.47,0-.89-.09-1.25-.26-.36-.17-.65-.47-.85-.9-.21-.43-.31-1.01-.31-1.75v-11.24Z"/>
        <path class="st0" d="M815.05,499.65v15.75h-1.22v-15.75h1.22ZM814.78,509.16l-.54-.31c.04-.66.17-1.27.4-1.85.22-.57.53-1.08.92-1.52.39-.44.84-.78,1.36-1.03.52-.25,1.1-.37,1.74-.37.55,0,1.05.08,1.49.23s.81.39,1.12.72c.31.33.54.75.7,1.26.16.51.24,1.14.24,1.88v7.22h-1.23v-7.23c0-.77-.11-1.37-.32-1.8s-.51-.74-.9-.93-.85-.28-1.38-.28c-.59,0-1.1.13-1.54.38-.44.26-.81.59-1.11.99-.3.41-.52.84-.68,1.3-.16.46-.24.9-.26,1.32Z"/>
        <path class="st0" d="M829.65,515.6c-.73,0-1.39-.13-2-.4-.6-.27-1.13-.64-1.58-1.13-.45-.49-.79-1.06-1.04-1.73-.24-.67-.36-1.4-.36-2.19v-.44c0-.85.13-1.63.38-2.32.25-.69.6-1.28,1.04-1.77s.95-.87,1.52-1.13c.57-.26,1.17-.39,1.8-.39.7,0,1.33.12,1.88.37.55.25,1.01.6,1.38,1.06.37.45.65.99.85,1.61.19.62.29,1.3.29,2.05v.75h-8.4v-1.05h7.18v-.14c-.01-.62-.14-1.2-.37-1.75-.24-.54-.59-.99-1.05-1.33-.47-.34-1.05-.51-1.74-.51-.52,0-1,.11-1.43.33-.43.22-.81.53-1.12.94-.31.41-.55.89-.72,1.45-.17.56-.25,1.17-.25,1.85v.44c0,.62.09,1.19.27,1.72.18.53.44,1,.78,1.4.34.4.74.72,1.21.94s.98.34,1.54.34c.66,0,1.24-.12,1.74-.36.51-.24.96-.63,1.36-1.15l.77.59c-.24.36-.54.68-.9.98-.36.3-.79.54-1.29.72s-1.08.27-1.74.27Z"/>
        <path class="st0" d="M845.43,514.55c.52,0,1.01-.1,1.46-.29.46-.19.83-.48,1.13-.87.3-.39.47-.86.51-1.42h1.17c-.03.7-.25,1.33-.64,1.88-.39.55-.91.98-1.54,1.29-.63.31-1.33.47-2.09.47s-1.45-.14-2.05-.42c-.59-.28-1.08-.67-1.48-1.17-.4-.5-.7-1.09-.9-1.76-.2-.67-.3-1.4-.3-2.18v-.43c0-.78.1-1.51.3-2.18.2-.67.5-1.26.9-1.76.4-.5.89-.89,1.48-1.17s1.27-.42,2.04-.42,1.5.16,2.14.48c.63.32,1.14.78,1.52,1.36.38.59.59,1.29.62,2.09h-1.17c-.03-.59-.19-1.11-.47-1.54s-.65-.76-1.11-.99-.97-.35-1.53-.35c-.63,0-1.17.12-1.61.36-.44.24-.8.57-1.08,1-.28.42-.48.9-.61,1.44s-.19,1.1-.19,1.69v.43c0,.59.06,1.16.19,1.7.13.54.33,1.01.61,1.43.28.42.64.75,1.09.99.45.24.99.36,1.62.36Z"/>
        <path class="st0" d="M851.48,510.03v-.34c0-.81.12-1.55.35-2.24s.57-1.27,1-1.77c.43-.5.96-.89,1.56-1.16.61-.28,1.28-.42,2.03-.42s1.43.14,2.04.42c.61.28,1.13.67,1.57,1.16s.77,1.09,1.01,1.77c.23.68.35,1.43.35,2.24v.34c0,.81-.12,1.55-.35,2.23-.23.68-.57,1.27-1,1.77-.43.5-.96.89-1.56,1.16-.61.28-1.29.42-2.03.42s-1.43-.14-2.04-.42c-.61-.28-1.13-.67-1.57-1.16-.44-.5-.77-1.09-1.01-1.77s-.35-1.42-.35-2.23ZM852.7,509.69v.34c0,.61.08,1.18.25,1.73.16.54.4,1.03.72,1.45.31.42.7.75,1.17.99s1,.36,1.61.36,1.13-.12,1.59-.36c.46-.24.85-.57,1.16-.99.31-.42.55-.9.71-1.45.16-.54.24-1.12.24-1.73v-.34c0-.6-.08-1.17-.24-1.71-.16-.54-.4-1.02-.72-1.45-.32-.42-.71-.76-1.17-1s-1-.37-1.6-.37-1.13.12-1.59.37c-.46.25-.85.58-1.17,1-.32.42-.56.91-.72,1.45-.16.54-.24,1.11-.24,1.71Z"/>
        <path class="st0" d="M863.42,509.96v-.22c0-.86.1-1.64.3-2.33s.48-1.29.86-1.78c.37-.5.82-.88,1.35-1.14.53-.26,1.12-.39,1.79-.39s1.22.11,1.72.32c.5.21.93.52,1.29.91.36.4.65.87.87,1.42.22.55.38,1.16.49,1.83v2.74c-.08.63-.23,1.2-.45,1.73-.22.52-.51.98-.87,1.36-.36.39-.8.68-1.31.89-.51.21-1.1.31-1.76.31s-1.25-.14-1.77-.41-.97-.66-1.34-1.16c-.37-.5-.65-1.1-.85-1.79s-.3-1.45-.3-2.28ZM864.65,509.75v.22c0,.65.07,1.25.2,1.8s.33,1.04.59,1.45.6.73,1.01.96.9.35,1.46.35c.7,0,1.29-.13,1.77-.4s.86-.63,1.15-1.08c.29-.45.5-.94.62-1.47v-3.19c-.08-.36-.2-.73-.36-1.11s-.37-.72-.64-1.04c-.27-.32-.61-.57-1.03-.77-.41-.2-.92-.29-1.5-.29s-1.06.12-1.47.35-.75.56-1.02.97c-.27.41-.47.9-.6,1.45s-.2,1.16-.2,1.8ZM871.12,513.25v-13.6h1.23v15.75h-1.15l-.08-2.15Z"/>
        <path class="st0" d="M879.87,515.6c-.73,0-1.39-.13-2-.4-.6-.27-1.13-.64-1.58-1.13-.45-.49-.79-1.06-1.04-1.73-.24-.67-.36-1.4-.36-2.19v-.44c0-.85.13-1.63.38-2.32.25-.69.6-1.28,1.04-1.77s.95-.87,1.52-1.13c.57-.26,1.17-.39,1.8-.39.7,0,1.33.12,1.88.37.55.25,1.01.6,1.38,1.06.37.45.65.99.85,1.61.19.62.29,1.3.29,2.05v.75h-8.4v-1.05h7.18v-.14c-.01-.62-.14-1.2-.37-1.75-.24-.54-.59-.99-1.05-1.33-.47-.34-1.05-.51-1.74-.51-.52,0-1,.11-1.43.33-.43.22-.81.53-1.12.94-.31.41-.55.89-.72,1.45-.17.56-.25,1.17-.25,1.85v.44c0,.62.09,1.19.27,1.72.18.53.44,1,.78,1.4.34.4.74.72,1.21.94s.98.34,1.54.34c.66,0,1.24-.12,1.74-.36.51-.24.96-.63,1.36-1.15l.77.59c-.24.36-.54.68-.9.98-.36.3-.79.54-1.29.72s-1.08.27-1.74.27Z"/>
        <path class="st0" d="M898.2,512.57c0-.3-.08-.6-.22-.89-.15-.29-.44-.56-.87-.81-.43-.25-1.05-.45-1.88-.63-.62-.14-1.16-.29-1.65-.46-.48-.17-.89-.38-1.21-.62s-.58-.53-.75-.86c-.17-.33-.26-.73-.26-1.19,0-.41.09-.8.27-1.16.18-.37.44-.69.78-.96.34-.28.75-.49,1.23-.65.48-.16,1.02-.24,1.63-.24.85,0,1.59.15,2.2.44.61.29,1.08.69,1.4,1.18.33.5.49,1.06.49,1.69h-1.22c0-.38-.11-.75-.33-1.09-.22-.34-.55-.62-.97-.84-.43-.22-.95-.33-1.56-.33s-1.15.1-1.55.29-.69.43-.87.73c-.18.29-.27.6-.27.91,0,.25.04.47.12.67.08.2.22.39.43.56.21.17.51.33.9.48s.9.3,1.52.44c.9.2,1.63.44,2.2.72.57.28.99.63,1.27,1.05s.41.91.41,1.5c0,.46-.1.88-.29,1.26-.19.38-.47.71-.83.98-.36.27-.79.49-1.29.64-.5.15-1.07.23-1.69.23-.94,0-1.73-.16-2.37-.47-.65-.31-1.13-.72-1.47-1.23-.33-.51-.5-1.05-.5-1.62h1.22c.04.57.22,1.03.54,1.36.32.33.72.57,1.18.7.47.14.93.21,1.39.21.63,0,1.16-.09,1.58-.28.42-.18.74-.43.96-.73s.33-.63.33-.97Z"/>
        <path class="st0" d="M906.49,515.6c-.73,0-1.39-.13-2-.4-.6-.27-1.13-.64-1.58-1.13-.45-.49-.79-1.06-1.04-1.73-.24-.67-.36-1.4-.36-2.19v-.44c0-.85.13-1.63.38-2.32.25-.69.6-1.28,1.04-1.77s.95-.87,1.52-1.13c.57-.26,1.17-.39,1.8-.39.7,0,1.33.12,1.88.37.55.25,1.01.6,1.38,1.06.37.45.65.99.85,1.61.19.62.29,1.3.29,2.05v.75h-8.4v-1.05h7.18v-.14c-.01-.62-.14-1.2-.37-1.75-.24-.54-.59-.99-1.05-1.33-.47-.34-1.05-.51-1.74-.51-.52,0-1,.11-1.43.33-.43.22-.81.53-1.12.94-.31.41-.55.89-.72,1.45-.17.56-.25,1.17-.25,1.85v.44c0,.62.09,1.19.27,1.72.18.53.44,1,.78,1.4.34.4.74.72,1.21.94s.98.34,1.54.34c.66,0,1.24-.12,1.74-.36.51-.24.96-.63,1.36-1.15l.77.59c-.24.36-.54.68-.9.98-.36.3-.79.54-1.29.72s-1.08.27-1.74.27Z"/>
        <path class="st0" d="M914.28,506.67v8.73h-1.22v-11.09h1.17l.05,2.37ZM914,509.16l-.54-.31c.04-.66.17-1.27.4-1.85.22-.57.53-1.08.92-1.52.39-.44.84-.78,1.36-1.03.52-.25,1.1-.37,1.74-.37.55,0,1.05.08,1.49.23s.81.39,1.12.72c.31.33.54.75.7,1.26.16.51.24,1.14.24,1.88v7.22h-1.23v-7.23c0-.77-.11-1.37-.32-1.8s-.51-.74-.9-.93-.85-.28-1.38-.28c-.59,0-1.1.13-1.54.38-.44.26-.81.59-1.11.99-.3.41-.52.84-.68,1.3-.16.46-.24.9-.26,1.32Z"/>
        <path class="st0" d="M928.8,504.3v1h-5.56v-1h5.56ZM925.28,501.45h1.22v11.25c0,.51.07.9.21,1.16s.31.43.53.52.45.13.71.13c.18,0,.36-.01.53-.04.17-.02.32-.05.46-.08l.05,1.04c-.15.05-.34.09-.58.12-.24.03-.48.05-.72.05-.47,0-.89-.09-1.25-.26-.36-.17-.65-.47-.85-.9-.21-.43-.31-1.01-.31-1.75v-11.24Z"/>
        <path class="st0" d="M940.67,504.3v1h-5.56v-1h5.56ZM937.16,501.45h1.22v11.25c0,.51.07.9.21,1.16s.31.43.53.52.45.13.71.13c.18,0,.36-.01.53-.04.17-.02.32-.05.46-.08l.05,1.04c-.15.05-.34.09-.58.12-.24.03-.48.05-.72.05-.47,0-.89-.09-1.25-.26-.36-.17-.65-.47-.85-.9-.21-.43-.31-1.01-.31-1.75v-11.24Z"/>
        <path class="st0" d="M942.36,510.03v-.34c0-.81.12-1.55.35-2.24s.57-1.27,1-1.77c.43-.5.96-.89,1.56-1.16.61-.28,1.28-.42,2.03-.42s1.43.14,2.04.42c.61.28,1.13.67,1.57,1.16s.77,1.09,1.01,1.77c.23.68.35,1.43.35,2.24v.34c0,.81-.12,1.55-.35,2.23-.23.68-.57,1.27-1,1.77-.43.5-.96.89-1.56,1.16-.61.28-1.29.42-2.03.42s-1.43-.14-2.04-.42c-.61-.28-1.13-.67-1.57-1.16-.44-.5-.77-1.09-1.01-1.77s-.35-1.42-.35-2.23ZM943.58,509.69v.34c0,.61.08,1.18.25,1.73.16.54.4,1.03.72,1.45.31.42.7.75,1.17.99s1,.36,1.61.36,1.13-.12,1.59-.36c.46-.24.85-.57,1.16-.99.31-.42.55-.9.71-1.45.16-.54.24-1.12.24-1.73v-.34c0-.6-.08-1.17-.24-1.71-.16-.54-.4-1.02-.72-1.45-.32-.42-.71-.76-1.17-1s-1-.37-1.6-.37-1.13.12-1.59.37c-.46.25-.85.58-1.17,1-.32.42-.56.91-.72,1.45-.16.54-.24,1.11-.24,1.71Z"/>
        <path class="st0" d="M959.97,504.3l3.54,9.53.33,1.28-.89.5-4.31-11.31h1.33ZM963.2,514.29l3.46-9.99h1.32l-4.7,12.88c-.1.25-.22.53-.36.84-.15.31-.34.6-.57.89-.24.28-.53.52-.88.7-.35.18-.78.27-1.29.27-.13,0-.3-.02-.5-.05-.2-.03-.35-.06-.44-.09v-1.04c.06.02.17.04.32.05.14.01.24.02.3.02.44,0,.82-.08,1.12-.23.3-.15.56-.37.76-.67.21-.3.39-.67.54-1.11l.91-2.48Z"/>
        <path class="st0" d="M969.07,510.03v-.34c0-.81.12-1.55.35-2.24s.57-1.27,1-1.77c.43-.5.96-.89,1.56-1.16.61-.28,1.28-.42,2.03-.42s1.43.14,2.04.42c.61.28,1.13.67,1.57,1.16s.77,1.09,1.01,1.77c.23.68.35,1.43.35,2.24v.34c0,.81-.12,1.55-.35,2.23-.23.68-.57,1.27-1,1.77-.43.5-.96.89-1.56,1.16-.61.28-1.29.42-2.03.42s-1.43-.14-2.04-.42c-.61-.28-1.13-.67-1.57-1.16-.44-.5-.77-1.09-1.01-1.77s-.35-1.42-.35-2.23ZM970.29,509.69v.34c0,.61.08,1.18.25,1.73.16.54.4,1.03.72,1.45.31.42.7.75,1.17.99s1,.36,1.61.36,1.13-.12,1.59-.36c.46-.24.85-.57,1.16-.99.31-.42.55-.9.71-1.45.16-.54.24-1.12.24-1.73v-.34c0-.6-.08-1.17-.24-1.71-.16-.54-.4-1.02-.72-1.45-.32-.42-.71-.76-1.17-1s-1-.37-1.6-.37-1.13.12-1.59.37c-.46.25-.85.58-1.17,1-.32.42-.56.91-.72,1.45-.16.54-.24,1.11-.24,1.71Z"/>
        <path class="st0" d="M988.84,510.78l.64-.02c0,.7-.08,1.34-.25,1.93s-.42,1.1-.77,1.54c-.35.44-.8.78-1.35,1.02-.55.24-1.22.36-2,.36-.54,0-1.03-.08-1.48-.23-.45-.15-.83-.4-1.15-.73-.32-.33-.57-.77-.74-1.3-.17-.53-.26-1.18-.26-1.94v-7.1h1.22v7.12c0,.59.07,1.09.2,1.49.13.4.32.71.55.95.24.24.51.41.81.51.31.1.64.15,1,.15.9,0,1.62-.17,2.14-.52.52-.35.9-.81,1.12-1.38.22-.57.33-1.18.33-1.84ZM988.61,512.84v-8.53h1.23v11.09h-1.18l-.05-2.56Z"/>
        <path class="st0" d="M994.26,506.14v9.26h-1.22v-11.09h1.19l.03,1.84ZM998.19,504.22l-.03,1.13c-.14-.02-.27-.04-.4-.05s-.27-.02-.42-.02c-.53,0-1,.1-1.4.29-.4.19-.74.46-1.01.81-.27.35-.48.75-.62,1.21-.14.46-.23.96-.25,1.48l-.45.17c0-.72.08-1.4.23-2.02s.38-1.17.69-1.64c.31-.47.7-.83,1.18-1.1.48-.26,1.03-.39,1.68-.39.16,0,.31.01.47.04.15.02.27.05.34.09Z"/>
        <path class="st0" d="M1009.51,515.6c-.73,0-1.39-.13-2-.4-.6-.27-1.13-.64-1.58-1.13-.45-.49-.79-1.06-1.04-1.73-.24-.67-.36-1.4-.36-2.19v-.44c0-.85.13-1.63.38-2.32.25-.69.6-1.28,1.04-1.77s.95-.87,1.52-1.13c.57-.26,1.17-.39,1.8-.39.7,0,1.33.12,1.88.37.55.25,1.01.6,1.38,1.06.37.45.65.99.85,1.61.19.62.29,1.3.29,2.05v.75h-8.4v-1.05h7.18v-.14c-.01-.62-.14-1.2-.37-1.75-.24-.54-.59-.99-1.05-1.33-.47-.34-1.05-.51-1.74-.51-.52,0-1,.11-1.43.33-.43.22-.81.53-1.12.94-.31.41-.55.89-.72,1.45-.17.56-.25,1.17-.25,1.85v.44c0,.62.09,1.19.27,1.72.18.53.44,1,.78,1.4.34.4.74.72,1.21.94s.98.34,1.54.34c.66,0,1.24-.12,1.74-.36.51-.24.96-.63,1.36-1.15l.77.59c-.24.36-.54.68-.9.98-.36.3-.79.54-1.29.72s-1.08.27-1.74.27Z"/>
        <path class="st0" d="M1017.24,506.6v8.8h-1.23v-11.09h1.18l.05,2.3ZM1017.02,509.16l-.59-.31c.04-.66.17-1.27.37-1.85.21-.57.5-1.08.88-1.52s.83-.78,1.35-1.03,1.12-.37,1.79-.37c.54,0,1.03.07,1.47.22.44.15.82.38,1.13.69s.55.72.72,1.22c.17.5.26,1.1.26,1.79v7.38h-1.22v-7.34c0-.74-.11-1.32-.34-1.73-.23-.42-.55-.71-.95-.89-.41-.18-.88-.27-1.41-.27-.63,0-1.16.13-1.59.38-.43.26-.79.59-1.06.99-.27.41-.47.84-.6,1.3-.13.46-.2.9-.21,1.32ZM1024.39,508.2l-.82.02c.03-.54.16-1.06.37-1.55.21-.49.51-.93.89-1.32.38-.39.83-.69,1.35-.92.52-.23,1.11-.34,1.77-.34.57,0,1.09.08,1.54.23.45.15.83.4,1.14.73.31.33.55.75.71,1.27s.25,1.13.25,1.85v7.23h-1.23v-7.24c0-.79-.11-1.4-.34-1.83-.23-.43-.55-.74-.95-.91-.4-.17-.88-.26-1.42-.26-.53,0-1,.1-1.4.29-.4.19-.74.43-1.01.74-.27.3-.48.63-.62.98-.14.35-.22.69-.23,1.03Z"/>
        <path class="st0" d="M1041.74,508.94l.02.94h-2.41c-.63,0-1.19.06-1.69.17-.5.11-.92.28-1.26.49-.34.22-.6.47-.79.77-.18.3-.27.64-.27,1.03s.1.76.3,1.09c.2.33.49.59.86.78.37.2.81.29,1.33.29.68,0,1.29-.13,1.81-.38.52-.25.96-.58,1.3-.99s.57-.86.69-1.34l.53.71c-.09.34-.25.69-.49,1.05-.24.36-.54.69-.92,1s-.82.56-1.33.76c-.51.19-1.08.29-1.73.29-.72,0-1.36-.14-1.89-.41-.54-.27-.95-.65-1.25-1.12-.3-.47-.45-1.01-.45-1.61,0-.55.12-1.04.35-1.47s.57-.8,1.01-1.11c.44-.3.97-.54,1.6-.7.63-.16,1.33-.24,2.11-.24h2.55ZM1041.45,513.41v-5.72c0-.53-.11-.98-.33-1.36-.22-.38-.54-.68-.96-.88s-.95-.31-1.57-.31c-.57,0-1.08.1-1.53.3-.45.2-.8.47-1.06.81-.26.34-.38.71-.38,1.12h-1.23c0-.43.1-.83.31-1.22s.5-.74.87-1.05.83-.55,1.35-.73c.52-.18,1.1-.27,1.73-.27.79,0,1.49.13,2.1.4.6.27,1.08.67,1.42,1.2s.51,1.2.51,2.01v5.36c0,.38.03.78.09,1.19.06.41.14.75.25,1.02v.12h-1.3c-.08-.25-.15-.56-.19-.93-.04-.37-.07-.73-.07-1.06Z"/>
        <path class="st0" d="M1045.88,501.09c0-.23.07-.43.22-.59.15-.16.35-.24.61-.24s.47.08.62.24c.15.16.23.36.23.59s-.08.42-.23.58c-.15.16-.36.24-.62.24s-.46-.08-.61-.24c-.15-.16-.22-.35-.22-.58ZM1047.32,504.3v11.09h-1.22v-11.09h1.22Z"/>
        <path class="st0" d="M1052.03,499.65v15.75h-1.22v-15.75h1.22Z"/>
      </g>
      <path class="st0" d="M1159.16,505.07h-.36v-2.44h0c0-3.6-2.92-6.53-6.53-6.53s-6.53,2.92-6.53,6.53v2.44h-.36c-2.49,0-4.52,2.02-4.52,4.52v8.31c0,2.49,2.02,4.52,4.52,4.52h13.76c2.49,0,4.52-2.02,4.52-4.52v-8.31c0-2.49-2.02-4.52-4.52-4.52ZM1148.1,505.07v-2.44h0c0-2.3,1.87-4.17,4.17-4.17s4.17,1.87,4.17,4.17h0v2.44h-8.34Z"/>
      <g>
        <path class="st0" d="M899.1,566.11v16.35h-1.39l-9.4-13.97v13.97h-1.38v-16.35h1.38l9.42,13.97v-13.97h1.37Z"/>
        <path class="st0" d="M907.64,582.69c-.79,0-1.52-.15-2.18-.44-.66-.29-1.24-.7-1.73-1.24-.49-.53-.87-1.16-1.13-1.89-.27-.73-.4-1.53-.4-2.4v-.48c0-.94.14-1.78.42-2.54.28-.76.66-1.4,1.15-1.94s1.04-.95,1.67-1.24c.63-.29,1.28-.43,1.97-.43.77,0,1.46.14,2.06.41s1.1.66,1.51,1.16c.41.5.72,1.09.93,1.76s.31,1.42.31,2.24v.82h-9.2v-1.15h7.86v-.16c-.02-.68-.15-1.32-.41-1.92-.26-.6-.64-1.08-1.15-1.45-.51-.38-1.15-.56-1.91-.56-.57,0-1.09.12-1.57.36-.48.24-.88.58-1.22,1.03-.34.45-.6.97-.79,1.58-.18.61-.28,1.29-.28,2.03v.48c0,.67.1,1.3.3,1.88.2.58.48,1.09.85,1.53.37.44.81.79,1.32,1.03s1.07.37,1.68.37c.72,0,1.35-.13,1.91-.4s1.05-.69,1.49-1.26l.84.65c-.26.39-.59.75-.98,1.08-.39.33-.86.59-1.41.79-.55.2-1.18.29-1.91.29Z"/>
        <path class="st0" d="M919.54,582.69c-.79,0-1.52-.15-2.18-.44-.66-.29-1.24-.7-1.73-1.24-.49-.53-.87-1.16-1.13-1.89-.27-.73-.4-1.53-.4-2.4v-.48c0-.94.14-1.78.42-2.54.28-.76.66-1.4,1.15-1.94s1.04-.95,1.67-1.24c.63-.29,1.28-.43,1.97-.43.77,0,1.46.14,2.06.41s1.1.66,1.51,1.16c.41.5.72,1.09.93,1.76s.31,1.42.31,2.24v.82h-9.2v-1.15h7.86v-.16c-.02-.68-.15-1.32-.41-1.92-.26-.6-.64-1.08-1.15-1.45-.51-.38-1.15-.56-1.91-.56-.57,0-1.09.12-1.57.36-.48.24-.88.58-1.22,1.03-.34.45-.6.97-.79,1.58-.18.61-.28,1.29-.28,2.03v.48c0,.67.1,1.3.3,1.88.2.58.48,1.09.85,1.53.37.44.81.79,1.32,1.03s1.07.37,1.68.37c.72,0,1.35-.13,1.91-.4s1.05-.69,1.49-1.26l.84.65c-.26.39-.59.75-.98,1.08-.39.33-.86.59-1.41.79-.55.2-1.18.29-1.91.29Z"/>
        <path class="st0" d="M926.2,576.51v-.24c0-.94.11-1.79.33-2.56.22-.76.53-1.41.94-1.95.41-.54.9-.96,1.48-1.25s1.23-.43,1.95-.43,1.34.12,1.89.35c.55.23,1.02.57,1.41,1,.39.43.71.95.95,1.55.24.6.42,1.27.53,2v3c-.09.69-.25,1.32-.49,1.89-.24.57-.56,1.07-.95,1.49s-.87.75-1.43.98c-.56.23-1.2.34-1.93.34s-1.37-.15-1.94-.45c-.58-.3-1.07-.72-1.47-1.27-.4-.55-.71-1.2-.93-1.96-.22-.76-.33-1.59-.33-2.49ZM927.54,576.27v.24c0,.71.07,1.37.21,1.98s.36,1.13.65,1.58.66.8,1.11,1.06c.45.25.98.38,1.59.38.77,0,1.42-.15,1.94-.44.52-.29.94-.69,1.26-1.18s.54-1.03.69-1.61v-3.49c-.09-.4-.22-.8-.39-1.21-.17-.41-.41-.79-.7-1.14-.3-.35-.67-.63-1.12-.84-.45-.21-1-.32-1.65-.32s-1.16.13-1.61.38c-.45.25-.82.61-1.12,1.06-.3.45-.52.98-.66,1.59s-.21,1.26-.21,1.98ZM934.63,580.1v-14.89h1.35v17.25h-1.26l-.09-2.36Z"/>
        <path class="st0" d="M952.82,575.39l.02,1.03h-2.64c-.69,0-1.3.06-1.85.19-.54.12-1,.3-1.38.54-.37.24-.66.52-.86.85-.2.33-.3.7-.3,1.12s.11.83.33,1.19c.22.36.54.65.94.86.41.21.89.32,1.45.32.75,0,1.41-.14,1.98-.42.57-.28,1.05-.64,1.42-1.09s.62-.94.75-1.47l.58.78c-.1.37-.27.76-.53,1.15-.26.39-.59.76-1,1.1-.41.34-.9.62-1.45.83-.56.21-1.19.32-1.89.32-.79,0-1.48-.15-2.07-.45-.59-.3-1.04-.71-1.37-1.23-.33-.52-.49-1.11-.49-1.77,0-.6.13-1.14.38-1.61.25-.47.62-.88,1.11-1.21.48-.33,1.07-.59,1.75-.76.68-.18,1.45-.26,2.31-.26h2.8ZM952.51,580.28v-6.27c0-.58-.12-1.07-.36-1.49-.24-.42-.59-.74-1.06-.97s-1.04-.34-1.72-.34c-.63,0-1.19.11-1.68.33-.49.22-.88.52-1.16.89-.28.37-.42.78-.42,1.23h-1.35c0-.47.11-.91.34-1.34s.54-.81.95-1.15.9-.6,1.48-.8c.57-.2,1.2-.3,1.89-.3.87,0,1.63.15,2.3.44.66.29,1.18.73,1.56,1.31s.56,1.32.56,2.2v5.87c0,.42.03.85.1,1.3.06.45.16.82.27,1.11v.13h-1.43c-.09-.27-.16-.61-.21-1.02-.05-.41-.07-.79-.07-1.16Z"/>
        <path class="st0" d="M964.38,572.9v9.56h-1.34v-12.15h1.28l.06,2.59ZM964.08,575.63l-.6-.34c.04-.72.19-1.39.44-2.02s.58-1.18,1-1.66c.42-.48.92-.85,1.49-1.12.57-.27,1.21-.4,1.9-.4.61,0,1.15.08,1.63.25.48.17.89.43,1.22.79s.59.82.77,1.38c.18.56.26,1.25.26,2.05v7.91h-1.35v-7.92c0-.84-.12-1.5-.35-1.97-.23-.47-.56-.81-.99-1.02s-.93-.3-1.52-.3c-.64,0-1.21.14-1.69.42-.48.28-.89.64-1.21,1.09-.33.45-.57.92-.75,1.43-.17.51-.27.99-.28,1.44Z"/>
        <path class="st0" d="M980.38,582.69c-.79,0-1.52-.15-2.18-.44-.66-.29-1.24-.7-1.73-1.24-.49-.53-.87-1.16-1.13-1.89-.27-.73-.4-1.53-.4-2.4v-.48c0-.94.14-1.78.42-2.54.28-.76.66-1.4,1.15-1.94.49-.54,1.04-.95,1.67-1.24.63-.29,1.28-.43,1.97-.43.77,0,1.46.14,2.05.41.6.27,1.1.66,1.51,1.16.41.5.72,1.09.93,1.76.21.68.31,1.42.31,2.24v.82h-9.2v-1.15h7.86v-.16c-.01-.68-.15-1.32-.41-1.92-.26-.6-.64-1.08-1.15-1.45-.51-.38-1.15-.56-1.91-.56-.57,0-1.09.12-1.57.36-.47.24-.88.58-1.22,1.03s-.6.97-.79,1.58c-.18.61-.28,1.29-.28,2.03v.48c0,.67.1,1.3.3,1.88s.48,1.09.85,1.53c.37.44.81.79,1.32,1.03.51.25,1.07.37,1.68.37.72,0,1.36-.13,1.91-.4.55-.27,1.05-.69,1.49-1.26l.84.65c-.26.39-.59.75-.98,1.08-.39.33-.86.59-1.41.79-.55.2-1.18.29-1.91.29Z"/>
        <path class="st0" d="M987.91,570.31l2.57,9.37.55,2.79h-.98l-3.53-12.15h1.38ZM990.95,579.62l2.93-9.31h.94l-.56,2.5-3.07,9.65h-.94l.7-2.84ZM995.02,570.31l2.89,9.23.73,2.92h-.94l-3.13-9.66-.53-2.49h.99ZM998.48,579.64l2.5-9.33h1.38l-3.53,12.15h-.97l.61-2.82Z"/>
        <path class="st0" d="M1015.02,581.53c.57,0,1.1-.11,1.6-.32.5-.21.91-.53,1.24-.96.33-.42.51-.94.56-1.55h1.28c-.04.77-.27,1.46-.7,2.06s-.99,1.07-1.68,1.42-1.45.51-2.29.51-1.59-.15-2.24-.46c-.65-.31-1.19-.74-1.62-1.29-.43-.55-.76-1.19-.98-1.93-.22-.74-.33-1.53-.33-2.39v-.47c0-.85.11-1.65.33-2.39.22-.74.55-1.38.98-1.93.43-.55.97-.98,1.62-1.29.64-.31,1.39-.46,2.23-.46s1.65.18,2.34.53c.69.35,1.25.85,1.66,1.49.42.64.64,1.41.68,2.29h-1.28c-.04-.65-.21-1.21-.52-1.68-.31-.47-.71-.83-1.21-1.09-.5-.25-1.06-.38-1.67-.38-.69,0-1.28.13-1.76.4-.49.27-.88.63-1.18,1.09-.3.46-.53.99-.67,1.57-.14.59-.21,1.2-.21,1.85v.47c0,.65.07,1.27.21,1.86.14.59.36,1.11.66,1.57.3.46.7.82,1.19,1.08.49.27,1.08.4,1.78.4Z"/>
        <path class="st0" d="M1021.65,576.58v-.37c0-.88.13-1.7.38-2.45.25-.75.62-1.4,1.09-1.94.48-.55,1.05-.97,1.71-1.27.67-.3,1.41-.46,2.22-.46s1.57.15,2.23.46c.67.3,1.24.73,1.72,1.27.48.55.85,1.19,1.1,1.94.25.75.38,1.56.38,2.45v.37c0,.88-.13,1.7-.38,2.44-.25.75-.62,1.39-1.1,1.94-.47.55-1.05.97-1.71,1.27-.67.3-1.41.46-2.22.46s-1.57-.15-2.24-.46c-.67-.3-1.24-.73-1.72-1.27-.48-.55-.85-1.19-1.1-1.94-.25-.74-.38-1.56-.38-2.44ZM1022.98,576.21v.37c0,.67.09,1.3.27,1.89.18.59.44,1.12.79,1.58.34.46.77.82,1.28,1.08.51.26,1.1.39,1.76.39s1.24-.13,1.75-.39c.5-.26.93-.62,1.27-1.08.34-.46.6-.99.78-1.58.18-.6.26-1.23.26-1.89v-.37c0-.66-.09-1.28-.26-1.88-.18-.59-.44-1.12-.79-1.58-.35-.46-.78-.83-1.29-1.1-.51-.27-1.09-.4-1.75-.4s-1.24.13-1.75.4c-.5.27-.93.64-1.28,1.1-.35.46-.61.99-.79,1.58-.18.59-.26,1.22-.26,1.88Z"/>
        <path class="st0" d="M1034.73,576.51v-.24c0-.94.11-1.79.33-2.56.22-.76.53-1.41.94-1.95.41-.54.9-.96,1.48-1.25.58-.29,1.23-.43,1.95-.43s1.34.12,1.89.35c.55.23,1.02.57,1.41,1,.39.43.71.95.95,1.55.24.6.42,1.27.53,2v3c-.09.69-.25,1.32-.49,1.89-.24.57-.56,1.07-.95,1.49-.4.42-.87.75-1.43.98-.56.23-1.2.34-1.93.34s-1.37-.15-1.94-.45c-.58-.3-1.07-.72-1.47-1.27-.4-.55-.71-1.2-.93-1.96-.22-.76-.33-1.59-.33-2.49ZM1036.08,576.27v.24c0,.71.07,1.37.21,1.98.14.61.36,1.13.65,1.58s.66.8,1.11,1.06c.45.25.98.38,1.59.38.77,0,1.42-.15,1.94-.44.52-.29.94-.69,1.26-1.18s.54-1.03.68-1.61v-3.49c-.09-.4-.22-.8-.39-1.21-.17-.41-.41-.79-.7-1.14-.3-.35-.67-.63-1.12-.84-.45-.21-1-.32-1.65-.32s-1.16.13-1.61.38c-.45.25-.82.61-1.12,1.06-.3.45-.52.98-.66,1.59-.14.61-.21,1.26-.21,1.98ZM1043.16,580.1v-14.89h1.35v17.25h-1.26l-.09-2.36Z"/>
        <path class="st0" d="M1052.74,582.69c-.79,0-1.52-.15-2.18-.44-.66-.29-1.24-.7-1.73-1.24-.49-.53-.87-1.16-1.13-1.89-.27-.73-.4-1.53-.4-2.4v-.48c0-.94.14-1.78.42-2.54.28-.76.66-1.4,1.15-1.94.49-.54,1.04-.95,1.67-1.24s1.28-.43,1.97-.43c.77,0,1.46.14,2.06.41.6.27,1.1.66,1.51,1.16.41.5.72,1.09.93,1.76.21.68.31,1.42.31,2.24v.82h-9.2v-1.15h7.86v-.16c-.02-.68-.15-1.32-.41-1.92-.26-.6-.64-1.08-1.15-1.45-.51-.38-1.15-.56-1.91-.56-.57,0-1.09.12-1.57.36-.48.24-.88.58-1.22,1.03-.34.45-.6.97-.79,1.58-.18.61-.28,1.29-.28,2.03v.48c0,.67.1,1.3.3,1.88.2.58.48,1.09.85,1.53.37.44.81.79,1.32,1.03.51.25,1.07.37,1.68.37.72,0,1.35-.13,1.91-.4.55-.27,1.05-.69,1.49-1.26l.84.65c-.26.39-.59.75-.98,1.08-.39.33-.86.59-1.41.79-.55.2-1.18.29-1.91.29Z"/>
        <path class="st0" d="M1063.75,577.91h-1.35c0-.64.07-1.18.19-1.62.12-.44.31-.85.58-1.22.27-.37.63-.79,1.09-1.24.4-.4.75-.77,1.06-1.11.31-.34.55-.72.72-1.13.18-.41.26-.92.26-1.52s-.1-1.11-.31-1.56c-.21-.45-.52-.8-.94-1.06-.42-.25-.94-.38-1.57-.38-.58,0-1.09.11-1.54.34s-.81.55-1.07.97c-.26.42-.39.93-.41,1.53h-1.34c.02-.85.22-1.58.61-2.18.39-.6.92-1.06,1.57-1.38s1.38-.48,2.17-.48c.9,0,1.66.18,2.27.53.62.35,1.09.84,1.42,1.47.33.63.49,1.36.49,2.19,0,.67-.11,1.27-.34,1.8-.22.54-.54,1.04-.93,1.51-.4.47-.86.95-1.38,1.43-.48.41-.81.88-.99,1.41-.18.53-.27,1.09-.27,1.69ZM1062.22,581.66c0-.25.08-.47.25-.65.17-.18.39-.26.67-.26s.51.09.68.26c.17.18.25.39.25.65s-.08.46-.25.63c-.17.18-.39.26-.68.26s-.51-.09-.67-.26c-.16-.18-.25-.39-.25-.63Z"/>
        <path class="st4" d="M1076.27,566.11h5.31c1.13,0,2.11.18,2.94.55.83.37,1.47.91,1.93,1.62.45.72.68,1.59.68,2.63,0,.77-.16,1.47-.49,2.1-.33.63-.77,1.15-1.34,1.58-.57.42-1.23.71-1.98.87l-.48.18h-5.67l-.02-1.18h4.75c.85,0,1.57-.16,2.13-.49.57-.33,1-.77,1.29-1.31.29-.54.43-1.12.43-1.75,0-.74-.16-1.38-.48-1.93s-.79-.96-1.41-1.25c-.62-.29-1.38-.44-2.28-.44h-3.93v15.16h-1.38v-16.35ZM1086.37,582.46l-4.23-7.31h1.48s4.22,7.17,4.22,7.17v.15h-1.47Z"/>
        <path class="st4" d="M1095.29,582.69c-.79,0-1.52-.15-2.18-.44-.66-.29-1.24-.7-1.73-1.24-.49-.53-.87-1.16-1.13-1.89-.27-.73-.4-1.53-.4-2.4v-.48c0-.94.14-1.78.42-2.54.28-.76.66-1.4,1.15-1.94.49-.54,1.04-.95,1.67-1.24.63-.29,1.28-.43,1.97-.43.77,0,1.46.14,2.05.41.6.27,1.1.66,1.51,1.16.41.5.72,1.09.93,1.76.21.68.31,1.42.31,2.24v.82h-9.2v-1.15h7.86v-.16c-.01-.68-.15-1.32-.41-1.92-.26-.6-.64-1.08-1.15-1.45-.51-.38-1.15-.56-1.91-.56-.57,0-1.09.12-1.57.36-.47.24-.88.58-1.22,1.03s-.6.97-.79,1.58c-.18.61-.28,1.29-.28,2.03v.48c0,.67.1,1.3.3,1.88s.48,1.09.85,1.53c.37.44.81.79,1.32,1.03.51.25,1.07.37,1.68.37.72,0,1.36-.13,1.91-.4.55-.27,1.05-.69,1.49-1.26l.84.65c-.26.39-.59.75-.98,1.08-.39.33-.86.59-1.41.79-.55.2-1.18.29-1.91.29Z"/>
        <path class="st4" d="M1109.77,579.36c0-.33-.08-.66-.25-.98-.16-.32-.48-.62-.95-.89-.47-.27-1.16-.5-2.06-.68-.67-.15-1.27-.32-1.8-.51-.53-.19-.97-.41-1.33-.67-.36-.26-.63-.58-.82-.94-.19-.37-.28-.8-.28-1.3,0-.45.1-.87.3-1.27.2-.4.48-.75.85-1.06.37-.3.82-.54,1.35-.71.53-.17,1.12-.26,1.78-.26.94,0,1.74.16,2.41.48s1.18.75,1.54,1.3c.36.55.53,1.16.53,1.85h-1.34c0-.42-.12-.82-.36-1.19-.24-.38-.6-.68-1.07-.92-.47-.24-1.04-.36-1.71-.36s-1.26.1-1.7.31c-.43.21-.75.48-.95.8-.2.32-.3.66-.3,1,0,.27.04.51.13.74.09.22.24.42.47.61.23.19.56.36.98.53.43.17.98.33,1.66.48.98.22,1.78.48,2.41.79.62.31,1.09.69,1.39,1.15.3.45.45,1,.45,1.65,0,.5-.11.96-.31,1.38-.21.42-.51.77-.9,1.07-.39.3-.86.53-1.42.7-.55.17-1.17.25-1.85.25-1.03,0-1.89-.17-2.6-.51-.71-.34-1.24-.79-1.61-1.35-.36-.56-.54-1.15-.54-1.78h1.34c.04.63.24,1.12.6,1.49.35.36.78.62,1.3.77.51.15,1.02.22,1.52.22.69,0,1.27-.1,1.73-.3.46-.2.82-.47,1.06-.8.24-.33.36-.69.36-1.07Z"/>
        <path class="st4" d="M1118.84,582.69c-.79,0-1.52-.15-2.18-.44-.66-.29-1.24-.7-1.73-1.24-.49-.53-.87-1.16-1.13-1.89-.27-.73-.4-1.53-.4-2.4v-.48c0-.94.14-1.78.42-2.54.28-.76.66-1.4,1.15-1.94.49-.54,1.04-.95,1.67-1.24s1.28-.43,1.97-.43c.77,0,1.46.14,2.06.41.6.27,1.1.66,1.51,1.16.41.5.72,1.09.93,1.76.21.68.31,1.42.31,2.24v.82h-9.2v-1.15h7.86v-.16c-.02-.68-.15-1.32-.41-1.92-.26-.6-.64-1.08-1.15-1.45-.51-.38-1.15-.56-1.91-.56-.57,0-1.09.12-1.57.36-.48.24-.88.58-1.22,1.03-.34.45-.6.97-.79,1.58-.18.61-.28,1.29-.28,2.03v.48c0,.67.1,1.3.3,1.88.2.58.48,1.09.85,1.53.37.44.81.79,1.32,1.03.51.25,1.07.37,1.68.37.72,0,1.35-.13,1.91-.4.55-.27,1.05-.69,1.49-1.26l.84.65c-.26.39-.59.75-.98,1.08-.39.33-.86.59-1.41.79-.55.2-1.18.29-1.91.29Z"/>
        <path class="st4" d="M1127.38,572.9v9.56h-1.34v-12.15h1.28l.06,2.59ZM1127.08,575.63l-.6-.34c.04-.72.19-1.39.44-2.02s.58-1.18,1-1.66c.42-.48.92-.85,1.49-1.12.57-.27,1.21-.4,1.9-.4.61,0,1.15.08,1.63.25.48.17.89.43,1.22.79s.59.82.77,1.38c.18.56.26,1.25.26,2.05v7.91h-1.35v-7.92c0-.84-.12-1.5-.35-1.97-.23-.47-.56-.81-.99-1.02s-.93-.3-1.52-.3c-.64,0-1.21.14-1.69.42-.48.28-.89.64-1.21,1.09-.33.45-.57.92-.75,1.43-.17.51-.27.99-.28,1.44Z"/>
        <path class="st4" d="M1138.15,576.51v-.24c0-.94.11-1.79.33-2.56.22-.76.53-1.41.94-1.95.41-.54.9-.96,1.48-1.25.58-.29,1.23-.43,1.95-.43s1.34.12,1.89.35c.55.23,1.02.57,1.41,1,.39.43.71.95.95,1.55.24.6.42,1.27.53,2v3c-.09.69-.25,1.32-.49,1.89-.24.57-.56,1.07-.96,1.49-.4.42-.87.75-1.43.98-.56.23-1.2.34-1.93.34s-1.37-.15-1.94-.45c-.58-.3-1.07-.72-1.47-1.27-.4-.55-.71-1.2-.93-1.96-.22-.76-.33-1.59-.33-2.49ZM1139.5,576.27v.24c0,.71.07,1.37.21,1.98.14.61.36,1.13.65,1.58s.66.8,1.11,1.06c.45.25.98.38,1.59.38.77,0,1.42-.15,1.94-.44.52-.29.94-.69,1.26-1.18s.54-1.03.69-1.61v-3.49c-.09-.4-.22-.8-.39-1.21-.17-.41-.41-.79-.7-1.14-.29-.35-.67-.63-1.12-.84-.45-.21-1-.32-1.64-.32s-1.16.13-1.61.38c-.45.25-.82.61-1.12,1.06-.3.45-.51.98-.66,1.59-.14.61-.21,1.26-.21,1.98ZM1146.58,580.1v-14.89h1.35v17.25h-1.26l-.09-2.36Z"/>
        <path class="st4" d="M1161.55,581.53c.57,0,1.1-.11,1.6-.32.5-.21.91-.53,1.24-.96.33-.42.51-.94.56-1.55h1.28c-.04.77-.27,1.46-.7,2.06s-.99,1.07-1.68,1.42-1.45.51-2.29.51-1.59-.15-2.24-.46c-.65-.31-1.19-.74-1.62-1.29-.43-.55-.76-1.19-.98-1.93-.22-.74-.33-1.53-.33-2.39v-.47c0-.85.11-1.65.33-2.39.22-.74.55-1.38.98-1.93.43-.55.97-.98,1.62-1.29.64-.31,1.39-.46,2.23-.46s1.65.18,2.34.53c.69.35,1.25.85,1.66,1.49.42.64.64,1.41.68,2.29h-1.28c-.04-.65-.21-1.21-.52-1.68-.31-.47-.71-.83-1.21-1.09-.5-.25-1.06-.38-1.67-.38-.69,0-1.28.13-1.76.4-.49.27-.88.63-1.18,1.09-.3.46-.53.99-.67,1.57-.14.59-.21,1.2-.21,1.85v.47c0,.65.07,1.27.21,1.86.14.59.36,1.11.66,1.57.3.46.7.82,1.19,1.08.49.27,1.08.4,1.78.4Z"/>
        <path class="st4" d="M1168.18,576.58v-.37c0-.88.13-1.7.38-2.45.25-.75.62-1.4,1.09-1.94.48-.55,1.05-.97,1.71-1.27.67-.3,1.41-.46,2.22-.46s1.57.15,2.23.46c.67.3,1.24.73,1.72,1.27.48.55.85,1.19,1.1,1.94.25.75.38,1.56.38,2.45v.37c0,.88-.13,1.7-.38,2.44-.25.75-.62,1.39-1.1,1.94-.47.55-1.05.97-1.71,1.27-.67.3-1.41.46-2.22.46s-1.57-.15-2.24-.46c-.67-.3-1.24-.73-1.72-1.27-.48-.55-.85-1.19-1.1-1.94-.25-.74-.38-1.56-.38-2.44ZM1169.52,576.21v.37c0,.67.09,1.3.27,1.89.18.59.44,1.12.79,1.58.34.46.77.82,1.28,1.08.51.26,1.1.39,1.76.39s1.24-.13,1.75-.39c.5-.26.93-.62,1.27-1.08.34-.46.6-.99.78-1.58.18-.6.26-1.23.26-1.89v-.37c0-.66-.09-1.28-.26-1.88-.18-.59-.44-1.12-.79-1.58-.35-.46-.78-.83-1.29-1.1-.51-.27-1.09-.4-1.75-.4s-1.24.13-1.75.4c-.5.27-.93.64-1.28,1.1-.35.46-.61.99-.79,1.58-.18.59-.26,1.22-.26,1.88Z"/>
        <path class="st4" d="M1181.26,576.51v-.24c0-.94.11-1.79.33-2.56.22-.76.53-1.41.94-1.95.41-.54.9-.96,1.48-1.25.58-.29,1.23-.43,1.95-.43s1.34.12,1.89.35c.55.23,1.02.57,1.41,1,.39.43.71.95.95,1.55.24.6.42,1.27.53,2v3c-.09.69-.25,1.32-.49,1.89-.24.57-.56,1.07-.95,1.49-.4.42-.87.75-1.43.98-.56.23-1.2.34-1.93.34s-1.37-.15-1.94-.45c-.58-.3-1.07-.72-1.47-1.27-.4-.55-.71-1.2-.93-1.96-.22-.76-.33-1.59-.33-2.49ZM1182.61,576.27v.24c0,.71.07,1.37.21,1.98.14.61.36,1.13.65,1.58s.66.8,1.11,1.06c.45.25.98.38,1.59.38.77,0,1.42-.15,1.94-.44.52-.29.94-.69,1.26-1.18s.54-1.03.68-1.61v-3.49c-.09-.4-.22-.8-.39-1.21-.17-.41-.41-.79-.7-1.14-.3-.35-.67-.63-1.12-.84-.45-.21-1-.32-1.65-.32s-1.16.13-1.61.38c-.45.25-.82.61-1.12,1.06-.3.45-.52.98-.66,1.59-.14.61-.21,1.26-.21,1.98ZM1189.7,580.1v-14.89h1.35v17.25h-1.26l-.09-2.36Z"/>
        <path class="st4" d="M1199.28,582.69c-.79,0-1.52-.15-2.18-.44-.66-.29-1.24-.7-1.73-1.24-.49-.53-.87-1.16-1.13-1.89-.27-.73-.4-1.53-.4-2.4v-.48c0-.94.14-1.78.42-2.54.28-.76.66-1.4,1.15-1.94.49-.54,1.04-.95,1.67-1.24s1.28-.43,1.97-.43c.77,0,1.46.14,2.06.41.6.27,1.1.66,1.51,1.16.41.5.72,1.09.93,1.76.21.68.31,1.42.31,2.24v.82h-9.2v-1.15h7.86v-.16c-.02-.68-.15-1.32-.41-1.92-.26-.6-.64-1.08-1.15-1.45-.51-.38-1.15-.56-1.91-.56-.57,0-1.09.12-1.57.36-.48.24-.88.58-1.22,1.03-.34.45-.6.97-.79,1.58-.18.61-.28,1.29-.28,2.03v.48c0,.67.1,1.3.3,1.88.2.58.48,1.09.85,1.53.37.44.81.79,1.32,1.03.51.25,1.07.37,1.68.37.72,0,1.35-.13,1.91-.4.55-.27,1.05-.69,1.49-1.26l.84.65c-.26.39-.59.75-.98,1.08-.39.33-.86.59-1.41.79-.55.2-1.18.29-1.91.29Z"/>
        <path class="st4" d="M1074.23,584.71v-1.12h130.49v1.12h-130.49Z"/>
      </g>
    </g>
  </g>
</svg>