<?xml version="1.0" encoding="UTF-8"?>
<svg xmlns="http://www.w3.org/2000/svg" version="1.1" viewBox="0 0 1920 1080">
  <!-- Generator: Adobe Illustrator 29.8.2, SVG Export Plug-In . SVG Version: 2.1.1 Build 3)  -->
  <defs>
    <style>
      .st0 {
        fill: #fff;
      }

      .st1 {
        stroke: #fff;
        stroke-width: 3px;
      }

      .st1, .st2 {
        fill: none;
        stroke-linecap: round;
        stroke-linejoin: round;
      }

      .st3 {
        fill: #212121;
      }

      .st2 {
        stroke: #282828;
        stroke-width: 14.39px;
      }

      .st4 {
        fill: #e87f0c;
      }
    </style>
  </defs>
  <g id="Layer_1">
    <rect class="st3" x=".18" y="-.1" width="1920" height="1080"/>
  </g>
  <g id="Layer_3">
    <rect class="st4" x="704" y="825.19" width="512" height="74" rx="36.85" ry="36.85"/>
    <g>
      <path class="st0" d="M864.37,860.2v7.04c-.28.33-.7.69-1.28,1.08-.58.39-1.32.72-2.23,1-.91.28-2.01.42-3.31.42-1.15,0-2.19-.19-3.14-.57-.94-.38-1.76-.93-2.44-1.67-.68-.73-1.2-1.63-1.57-2.69-.37-1.06-.55-2.28-.55-3.64v-1.11c0-1.37.18-2.58.53-3.65.35-1.07.86-1.97,1.52-2.7s1.44-1.29,2.36-1.67c.91-.38,1.92-.57,3.04-.57,1.55,0,2.82.25,3.81.75.99.5,1.75,1.19,2.28,2.08.52.88.85,1.89.97,3.03h-3.55c-.09-.6-.26-1.13-.51-1.57-.25-.45-.61-.8-1.08-1.05-.47-.25-1.07-.38-1.81-.38-.61,0-1.15.12-1.63.37-.48.25-.88.61-1.2,1.09-.33.48-.57,1.07-.74,1.78s-.26,1.53-.26,2.47v1.14c0,.93.09,1.75.27,2.46.18.71.45,1.31.8,1.79.35.48.79.85,1.31,1.09.52.24,1.13.37,1.82.37.58,0,1.06-.05,1.45-.15.39-.1.7-.22.94-.36.24-.14.43-.28.56-.41v-3.15h-3.34v-2.61h7.01Z"/>
      <path class="st0" d="M866.54,863.02v-.26c0-.97.14-1.86.42-2.68.28-.82.68-1.53,1.21-2.13.53-.6,1.18-1.07,1.95-1.41.77-.34,1.66-.51,2.66-.51s1.89.17,2.67.51c.78.34,1.44.81,1.97,1.41.53.6.94,1.31,1.21,2.13.28.82.42,1.71.42,2.68v.26c0,.96-.14,1.85-.42,2.67-.28.82-.68,1.53-1.21,2.14-.53.61-1.19,1.08-1.96,1.41-.77.33-1.66.5-2.66.5s-1.89-.17-2.67-.5c-.78-.33-1.43-.8-1.96-1.41-.53-.61-.94-1.32-1.21-2.14-.28-.82-.42-1.71-.42-2.67ZM870.06,862.77v.26c0,.55.05,1.07.15,1.55.1.48.25.9.47,1.26.22.36.5.65.85.85.35.2.78.3,1.28.3s.91-.1,1.26-.3c.35-.2.63-.49.84-.85.21-.36.37-.78.47-1.26.1-.48.15-1,.15-1.55v-.26c0-.54-.05-1.04-.15-1.52-.1-.48-.26-.9-.48-1.27-.22-.37-.5-.66-.85-.87-.35-.21-.77-.32-1.27-.32s-.92.11-1.26.32c-.35.21-.63.5-.84.87-.22.37-.37.79-.47,1.27-.1.48-.15.98-.15,1.52Z"/>
      <path class="st0" d="M893.9,856.29v2.49h-7.69v-2.49h7.69ZM888.11,853.03h3.52v12.49c0,.38.05.68.15.88.1.2.25.34.46.42.2.08.46.12.77.12.22,0,.42-.01.59-.03.17-.02.32-.04.45-.07v2.59c-.29.1-.61.17-.96.23-.35.06-.74.09-1.16.09-.77,0-1.45-.13-2.02-.38-.57-.26-1.02-.67-1.32-1.24-.31-.57-.46-1.32-.46-2.25v-12.84Z"/>
      <path class="st0" d="M895,863.02v-.26c0-.97.14-1.86.42-2.68.28-.82.68-1.53,1.21-2.13.53-.6,1.18-1.07,1.95-1.41.77-.34,1.66-.51,2.66-.51s1.89.17,2.67.51c.78.34,1.44.81,1.97,1.41.53.6.94,1.31,1.21,2.13.28.82.42,1.71.42,2.68v.26c0,.96-.14,1.85-.42,2.67-.28.82-.68,1.53-1.21,2.14-.53.61-1.19,1.08-1.96,1.41-.77.33-1.66.5-2.66.5s-1.89-.17-2.67-.5c-.78-.33-1.43-.8-1.96-1.41-.53-.61-.94-1.32-1.21-2.14-.28-.82-.42-1.71-.42-2.67ZM898.51,862.77v.26c0,.55.05,1.07.15,1.55.1.48.25.9.47,1.26.22.36.5.65.85.85.35.2.78.3,1.28.3s.91-.1,1.26-.3c.35-.2.63-.49.84-.85.21-.36.37-.78.47-1.26.1-.48.15-1,.15-1.55v-.26c0-.54-.05-1.04-.15-1.52-.1-.48-.26-.9-.48-1.27-.22-.37-.5-.66-.85-.87-.35-.21-.77-.32-1.27-.32s-.92.11-1.26.32c-.35.21-.63.5-.84.87-.22.37-.37.79-.47,1.27-.1.48-.15.98-.15,1.52Z"/>
      <path class="st0" d="M923.33,854.76l-4.83,14.73h-3.89l6.6-17.77h2.48l-.35,3.04ZM927.13,862.88v2.87h-9.39v-2.87h9.39ZM927.35,869.49l-4.85-14.73-.39-3.04h2.5l6.64,17.77h-3.91Z"/>
      <path class="st0" d="M938.14,866.99c.43,0,.81-.08,1.15-.25.33-.17.6-.4.79-.71.19-.3.29-.67.3-1.08h3.31c0,.93-.26,1.75-.74,2.47-.49.72-1.14,1.29-1.96,1.7-.82.41-1.74.62-2.76.62s-1.92-.17-2.68-.51c-.76-.34-1.39-.82-1.9-1.42-.5-.61-.88-1.31-1.14-2.12-.25-.81-.38-1.68-.38-2.61v-.35c0-.94.13-1.81.38-2.62.25-.81.63-1.52,1.14-2.12s1.14-1.08,1.89-1.42c.76-.34,1.64-.51,2.66-.51,1.08,0,2.03.21,2.85.62.82.42,1.46,1.01,1.93,1.78.47.77.71,1.68.71,2.73h-3.31c0-.44-.1-.84-.27-1.2-.18-.36-.43-.65-.76-.86-.33-.22-.73-.32-1.21-.32-.51,0-.93.11-1.26.32-.33.21-.58.51-.76.88-.18.37-.3.79-.37,1.26s-.1.96-.1,1.47v.35c0,.51.03,1,.1,1.48.07.47.19.89.37,1.26.18.37.44.66.76.87.33.21.75.32,1.27.32Z"/>
      <path class="st0" d="M951.16,866.99c.43,0,.81-.08,1.15-.25.33-.17.6-.4.79-.71.19-.3.29-.67.3-1.08h3.31c0,.93-.26,1.75-.74,2.47-.49.72-1.14,1.29-1.96,1.7-.82.41-1.74.62-2.76.62s-1.92-.17-2.68-.51c-.76-.34-1.39-.82-1.9-1.42-.5-.61-.88-1.31-1.14-2.12-.25-.81-.38-1.68-.38-2.61v-.35c0-.94.13-1.81.38-2.62.25-.81.63-1.52,1.14-2.12s1.14-1.08,1.89-1.42c.76-.34,1.64-.51,2.66-.51,1.08,0,2.03.21,2.85.62.82.42,1.46,1.01,1.93,1.78.47.77.71,1.68.71,2.73h-3.31c0-.44-.1-.84-.27-1.2-.18-.36-.43-.65-.76-.86-.33-.22-.73-.32-1.21-.32-.51,0-.93.11-1.26.32-.33.21-.58.51-.76.88-.18.37-.3.79-.37,1.26s-.1.96-.1,1.47v.35c0,.51.03,1,.1,1.48.07.47.19.89.37,1.26.18.37.44.66.76.87.33.21.75.32,1.27.32Z"/>
      <path class="st0" d="M958.17,863.02v-.26c0-.97.14-1.86.42-2.68.28-.82.68-1.53,1.21-2.13.53-.6,1.18-1.07,1.95-1.41.77-.34,1.66-.51,2.66-.51s1.89.17,2.67.51c.78.34,1.44.81,1.97,1.41.53.6.94,1.31,1.21,2.13.28.82.42,1.71.42,2.68v.26c0,.96-.14,1.85-.42,2.67-.28.82-.68,1.53-1.21,2.14-.53.61-1.19,1.08-1.96,1.41-.77.33-1.66.5-2.66.5s-1.89-.17-2.67-.5c-.78-.33-1.43-.8-1.96-1.41-.53-.61-.94-1.32-1.21-2.14-.28-.82-.42-1.71-.42-2.67ZM961.69,862.77v.26c0,.55.05,1.07.15,1.55.1.48.25.9.47,1.26s.5.65.85.85.78.3,1.28.3.91-.1,1.26-.3.63-.49.84-.85c.21-.36.37-.78.47-1.26.1-.48.15-1,.15-1.55v-.26c0-.54-.05-1.04-.15-1.52-.1-.48-.26-.9-.48-1.27s-.5-.66-.85-.87c-.35-.21-.77-.32-1.27-.32s-.92.11-1.26.32c-.35.21-.63.5-.84.87s-.37.79-.47,1.27c-.1.48-.15.98-.15,1.52Z"/>
      <path class="st0" d="M981.05,863.62l1.04-.02c0,.88-.1,1.7-.3,2.45-.2.75-.51,1.4-.92,1.95-.41.55-.92.98-1.54,1.28-.62.31-1.35.46-2.19.46-.64,0-1.24-.09-1.78-.27-.54-.18-1-.47-1.39-.87s-.69-.9-.9-1.53c-.22-.62-.32-1.37-.32-2.25v-8.53h3.52v8.56c0,.39.05.72.14.99.09.27.23.49.4.66s.37.29.6.37c.23.07.49.11.77.11.72,0,1.3-.15,1.72-.44.42-.29.72-.69.89-1.2s.26-1.08.26-1.7ZM980.66,866.33v-10.05h3.52v13.21h-3.31l-.21-3.16Z"/>
      <path class="st0" d="M990.29,859.1v10.39h-3.52v-13.21h3.3l.22,2.82ZM989.77,862.42h-.95c0-.98.13-1.86.38-2.64.25-.79.61-1.46,1.06-2.01.46-.56,1-.99,1.63-1.28.63-.3,1.34-.45,2.12-.45.62,0,1.18.09,1.7.27s.95.46,1.32.85.66.91.85,1.55c.2.64.3,1.43.3,2.36v8.42h-3.54v-8.44c0-.59-.08-1.04-.24-1.37-.16-.33-.4-.55-.71-.69-.31-.13-.7-.2-1.15-.2s-.88.09-1.23.28c-.35.19-.63.45-.85.78-.22.33-.39.71-.51,1.15s-.17.91-.17,1.42Z"/>
      <path class="st0" d="M1007.33,856.29v2.49h-7.69v-2.49h7.69ZM1001.54,853.03h3.52v12.49c0,.38.05.68.15.88s.25.34.46.42.46.12.77.12c.22,0,.42-.01.59-.03.17-.02.32-.04.45-.07v2.59c-.29.1-.61.17-.96.23-.35.06-.74.09-1.16.09-.77,0-1.45-.13-2.02-.38-.57-.26-1.01-.67-1.32-1.24-.31-.57-.46-1.32-.46-2.25v-12.84Z"/>
      <path class="st0" d="M1022.67,863.16h-4.53v-2.86h4.53c.7,0,1.27-.12,1.71-.35.44-.23.76-.56.96-.97s.3-.88.3-1.4-.1-1.02-.3-1.48c-.2-.46-.53-.82-.96-1.1-.44-.28-1.01-.42-1.71-.42h-3.26v14.91h-3.66v-17.77h6.92c1.39,0,2.59.25,3.58.75,1,.5,1.76,1.19,2.29,2.07s.79,1.88.79,3.02-.26,2.14-.79,2.98-1.29,1.49-2.29,1.94c-1,.46-2.19.68-3.58.68Z"/>
      <path class="st0" d="M1039.1,861.45l.02,1.99h-1.96c-.46,0-.87.05-1.21.16-.34.11-.62.25-.84.45-.22.19-.38.41-.48.67-.1.25-.15.53-.15.83s.07.57.21.81.34.43.6.56c.26.13.57.2.92.2.53,0,.99-.11,1.38-.32.39-.21.69-.47.91-.78.21-.31.33-.6.34-.88l.93,1.49c-.13.33-.31.68-.53,1.04-.22.36-.51.69-.85,1.01s-.75.57-1.23.77c-.48.2-1.05.3-1.71.3-.84,0-1.6-.17-2.28-.51s-1.22-.81-1.61-1.4c-.39-.6-.59-1.28-.59-2.04,0-.69.13-1.31.39-1.84s.64-.99,1.15-1.36c.51-.37,1.15-.65,1.91-.84.77-.19,1.65-.29,2.66-.29h2.04ZM1038.64,866.51v-5.88c0-.42-.07-.79-.21-1.09-.14-.3-.35-.54-.64-.71s-.66-.26-1.12-.26c-.39,0-.73.07-1.01.2-.29.13-.5.33-.66.57s-.23.54-.23.87h-3.52c0-.56.13-1.09.39-1.6.26-.5.64-.95,1.13-1.34.5-.39,1.09-.69,1.78-.91.69-.22,1.46-.33,2.31-.33,1.03,0,1.94.17,2.73.51.8.34,1.43.85,1.89,1.54.46.68.69,1.54.69,2.56v5.65c0,.72.04,1.32.13,1.78.09.46.22.86.39,1.2v.21h-3.55c-.17-.36-.3-.81-.38-1.35-.08-.54-.13-1.08-.13-1.63Z"/>
      <path class="st0" d="M1044.36,863.05v-.26c0-1.01.12-1.93.37-2.75.25-.83.6-1.54,1.06-2.13.46-.59,1.02-1.05,1.68-1.38s1.4-.49,2.23-.49c.88,0,1.62.16,2.21.49s1.08.79,1.46,1.39c.38.6.68,1.3.9,2.11.21.81.38,1.7.51,2.66v.56c-.12.92-.31,1.77-.55,2.56s-.57,1.48-.96,2.07c-.4.59-.89,1.05-1.48,1.37-.59.33-1.29.49-2.11.49s-1.55-.17-2.2-.5c-.66-.33-1.21-.8-1.68-1.4-.46-.6-.82-1.31-1.07-2.12-.25-.81-.37-1.7-.37-2.66ZM1053.25,856.29h3.19v12.77c0,1.2-.27,2.23-.8,3.07-.53.84-1.28,1.48-2.23,1.92s-2.06.65-3.32.65c-.55,0-1.14-.07-1.75-.22s-1.2-.38-1.76-.68c-.56-.31-1.02-.7-1.4-1.17l1.55-2.08c.41.47.88.84,1.42,1.1s1.13.4,1.78.4,1.17-.12,1.61-.35c.44-.23.78-.57,1.01-1.01.24-.44.35-.98.35-1.61v-9.74l.34-3.05ZM1047.88,862.79v.26c0,.54.05,1.05.16,1.53.11.47.27.89.49,1.25.22.36.5.64.84.84.34.2.74.3,1.2.3.64,0,1.17-.14,1.58-.41.41-.27.71-.65.92-1.13.2-.48.32-1.03.35-1.66v-1.6c-.02-.51-.09-.97-.21-1.39s-.29-.76-.51-1.06-.5-.52-.85-.68-.76-.24-1.25-.24-.87.1-1.2.31c-.34.21-.62.49-.84.85-.22.36-.39.78-.51,1.26-.11.48-.17,1.01-.17,1.57Z"/>
      <path class="st0" d="M1065.25,869.74c-1.03,0-1.95-.17-2.76-.49-.81-.33-1.5-.79-2.07-1.37s-1-1.27-1.3-2.04c-.3-.78-.45-1.61-.45-2.48v-.49c0-1,.14-1.92.43-2.75s.69-1.55,1.23-2.16,1.18-1.08,1.95-1.41c.76-.33,1.63-.49,2.59-.49s1.77.15,2.49.46,1.33.75,1.83,1.32c.49.57.86,1.25,1.12,2.04.25.79.38,1.67.38,2.64v1.46h-10.5v-2.34h7.04v-.27c0-.49-.09-.93-.26-1.31-.18-.39-.44-.69-.79-.92-.35-.23-.8-.34-1.34-.34-.46,0-.86.1-1.2.31-.33.2-.6.49-.81.85-.21.37-.36.79-.46,1.29-.1.49-.15,1.03-.15,1.62v.49c0,.53.08,1.02.23,1.46s.37.83.65,1.16c.28.33.62.58,1.03.76.4.18.86.27,1.37.27.63,0,1.23-.12,1.78-.37.55-.25,1.02-.62,1.42-1.13l1.71,1.86c-.28.4-.65.78-1.13,1.15-.48.37-1.05.67-1.72.9-.67.23-1.43.35-2.28.35Z"/>
    </g>
    <g>
      <path class="st0" d="M379.92,521.16l7.43,15.27,7.43-15.27h6.11l-10.77,20.21v11.78h-5.56v-11.78l-10.77-20.21h6.13Z"/>
      <path class="st0" d="M401.39,541.53v-.51c0-1.71.25-3.31.75-4.78.5-1.47,1.22-2.75,2.16-3.84.95-1.09,2.1-1.94,3.47-2.55s2.92-.91,4.65-.91,3.3.3,4.67.91,2.53,1.46,3.48,2.55,1.68,2.37,2.18,3.84c.5,1.47.75,3.07.75,4.78v.51c0,1.71-.25,3.3-.75,4.77s-1.22,2.74-2.18,3.83c-.95,1.09-2.11,1.94-3.47,2.55-1.36.61-2.91.91-4.64.91s-3.3-.3-4.67-.91c-1.37-.61-2.53-1.46-3.48-2.55-.95-1.09-1.68-2.37-2.18-3.83s-.75-3.05-.75-4.77ZM406.69,541.02v.51c0,1.07.11,2.08.33,3.03.22.95.56,1.79,1.03,2.51s1.07,1.28,1.8,1.69,1.6.62,2.61.62,1.83-.21,2.56-.62c.73-.41,1.32-.97,1.79-1.69s.82-1.55,1.04-2.51c.23-.95.34-1.96.34-3.03v-.51c0-1.05-.11-2.05-.34-3-.23-.95-.58-1.78-1.05-2.52-.48-.73-1.08-1.31-1.8-1.73-.73-.42-1.59-.63-2.58-.63s-1.86.21-2.58.63c-.72.42-1.32.99-1.79,1.73s-.81,1.57-1.03,2.52c-.22.94-.33,1.94-.33,3Z"/>
      <path class="st0" d="M442.98,542.6l1.78-.04c0,1.6-.18,3.07-.53,4.41-.35,1.34-.89,2.5-1.63,3.49-.73.99-1.67,1.76-2.81,2.31-1.14.55-2.51.82-4.11.82-1.16,0-2.22-.17-3.19-.51-.97-.34-1.8-.86-2.49-1.56s-1.23-1.62-1.61-2.75c-.38-1.13-.57-2.47-.57-4.04v-15.36h5.3v15.4c0,.86.1,1.58.31,2.16.21.58.48,1.04.83,1.39s.76.6,1.23.75.97.22,1.49.22c1.51,0,2.7-.3,3.57-.89.87-.59,1.49-1.4,1.87-2.41.37-1.01.56-2.15.56-3.41ZM442.24,547.55v-18.17h5.32v23.77h-5.01l-.31-5.6Z"/>
      <path class="st0" d="M469.37,519.4v33.75h-5.27v-33.75h5.27ZM468.45,540.39l-1.71-.02c.01-1.64.25-3.16.69-4.55.45-1.39,1.08-2.6,1.89-3.64.81-1.03,1.79-1.83,2.93-2.4,1.14-.56,2.41-.85,3.8-.85,1.17,0,2.23.16,3.17.48.95.32,1.76.84,2.45,1.55.69.71,1.21,1.63,1.57,2.77.36,1.14.54,2.52.54,4.14v15.27h-5.32v-15.31c0-1.14-.17-2.05-.49-2.72-.33-.67-.81-1.16-1.44-1.46-.63-.3-1.4-.45-2.31-.45s-1.79.19-2.52.57c-.72.38-1.33.9-1.81,1.56s-.85,1.42-1.09,2.29c-.24.86-.36,1.79-.36,2.77Z"/>
      <path class="st0" d="M503.32,538.69l.04,3.27h-3.8c-.98,0-1.85.09-2.59.27-.75.18-1.37.45-1.87.8s-.87.78-1.12,1.27-.37,1.06-.37,1.69.15,1.2.44,1.72c.29.52.72.93,1.29,1.22.56.29,1.25.44,2.05.44,1.08,0,2.03-.22,2.85-.67.81-.45,1.45-1,1.92-1.65.47-.65.72-1.27.75-1.86l1.71,2.35c-.18.6-.48,1.25-.9,1.93s-.98,1.34-1.66,1.97c-.68.62-1.49,1.13-2.44,1.53-.94.4-2.03.59-3.26.59-1.55,0-2.94-.31-4.15-.93-1.22-.62-2.17-1.46-2.86-2.53-.69-1.06-1.03-2.27-1.03-3.61,0-1.26.24-2.38.71-3.35.48-.97,1.18-1.79,2.11-2.45.93-.66,2.07-1.16,3.42-1.5s2.89-.52,4.61-.52h4.15ZM502.55,548.38v-11.34c0-.85-.15-1.58-.46-2.2s-.77-1.09-1.4-1.43c-.62-.34-1.4-.51-2.34-.51-.86,0-1.61.15-2.24.44s-1.12.69-1.47,1.19-.53,1.06-.53,1.69h-5.27c0-.94.23-1.85.68-2.72s1.11-1.66,1.98-2.35,1.9-1.23,3.1-1.63,2.55-.59,4.04-.59c1.79,0,3.37.3,4.76.9,1.38.6,2.48,1.51,3.27,2.71.8,1.21,1.2,2.72,1.2,4.54v10.57c0,1.08.08,2.05.23,2.91.15.86.38,1.6.67,2.23v.35h-5.43c-.25-.57-.44-1.3-.58-2.19-.14-.89-.21-1.75-.21-2.58Z"/>
      <path class="st0" d="M516.35,529.38l5.93,19.66.29,4.11h-3.43l-8.31-23.77h5.52ZM520.81,548.95l5.82-19.58h5.49l-8.26,23.77h-3.43l.37-4.2Z"/>
      <path class="st0" d="M545.6,553.59c-1.76,0-3.34-.29-4.76-.87-1.41-.58-2.61-1.39-3.6-2.43-.99-1.04-1.75-2.26-2.27-3.67s-.79-2.92-.79-4.55v-.88c0-1.86.27-3.54.81-5.05s1.3-2.8,2.26-3.88c.97-1.08,2.11-1.9,3.43-2.47s2.75-.86,4.28-.86c1.7,0,3.19.29,4.46.86s2.33,1.37,3.18,2.41c.84,1.03,1.47,2.26,1.89,3.68.42,1.42.63,2.99.63,4.7v2.26h-18.37v-3.8h13.14v-.42c-.03-.95-.22-1.85-.56-2.68s-.87-1.51-1.57-2.02-1.64-.77-2.81-.77c-.88,0-1.66.19-2.34.56-.68.37-1.25.91-1.7,1.61s-.8,1.55-1.04,2.54c-.24.99-.36,2.1-.36,3.33v.88c0,1.04.14,2,.43,2.89.29.89.71,1.66,1.26,2.32.56.66,1.23,1.18,2.02,1.55.79.37,1.69.56,2.7.56,1.27,0,2.41-.26,3.41-.77s1.86-1.24,2.59-2.17l2.79,2.7c-.51.75-1.18,1.46-2,2.14-.82.68-1.82,1.23-3,1.66-1.18.42-2.55.64-4.1.64Z"/>
      <path class="st0" d="M583.74,546.71c0-.53-.13-1.01-.4-1.44-.26-.43-.77-.82-1.51-1.18s-1.83-.67-3.26-.97c-1.26-.28-2.41-.61-3.46-1-1.05-.39-1.94-.86-2.69-1.42-.75-.56-1.33-1.22-1.74-1.98s-.62-1.64-.62-2.64.21-1.88.64-2.75,1.03-1.63,1.82-2.29,1.75-1.18,2.89-1.56,2.41-.57,3.81-.57c1.99,0,3.7.33,5.13,1,1.43.67,2.52,1.57,3.28,2.7.76,1.14,1.14,2.41,1.14,3.83h-5.3c0-.63-.16-1.22-.47-1.77-.31-.55-.79-1-1.42-1.34s-1.42-.52-2.37-.52-1.66.14-2.25.43c-.59.29-1.03.66-1.32,1.11-.29.45-.43.95-.43,1.49,0,.4.08.75.23,1.07.15.32.41.6.78.86s.87.49,1.5.71c.64.22,1.44.43,2.41.64,1.82.38,3.38.87,4.69,1.46,1.31.59,2.32,1.35,3.02,2.28.7.93,1.05,2.11,1.05,3.53,0,1.05-.22,2.02-.67,2.89-.45.87-1.09,1.63-1.94,2.26-.85.64-1.86,1.13-3.04,1.48-1.18.35-2.5.53-3.97.53-2.15,0-3.98-.38-5.47-1.15-1.49-.77-2.63-1.76-3.39-2.97-.77-1.21-1.15-2.46-1.15-3.77h5.12c.06.98.33,1.76.82,2.34.49.58,1.11,1,1.85,1.25.74.26,1.5.38,2.3.38.95,0,1.75-.13,2.4-.38.64-.26,1.14-.61,1.47-1.05.34-.45.51-.96.51-1.53Z"/>
      <path class="st0" d="M608.61,542.6l1.78-.04c0,1.6-.18,3.07-.53,4.41-.35,1.34-.89,2.5-1.63,3.49-.73.99-1.67,1.76-2.81,2.31-1.14.55-2.51.82-4.11.82-1.16,0-2.22-.17-3.19-.51-.97-.34-1.8-.86-2.49-1.56s-1.23-1.62-1.61-2.75c-.38-1.13-.57-2.47-.57-4.04v-15.36h5.3v15.4c0,.86.1,1.58.31,2.16.21.58.48,1.04.83,1.39s.76.6,1.23.75.97.22,1.49.22c1.51,0,2.7-.3,3.57-.89.87-.59,1.49-1.4,1.87-2.41.37-1.01.56-2.15.56-3.41ZM607.87,547.55v-18.17h5.32v23.77h-5.01l-.31-5.6Z"/>
      <path class="st0" d="M628.3,549.37c.86,0,1.64-.17,2.34-.52.7-.34,1.26-.82,1.69-1.44.43-.62.67-1.33.71-2.13h4.99c-.03,1.54-.48,2.94-1.36,4.2-.88,1.26-2.04,2.26-3.49,3-1.45.74-3.05,1.11-4.81,1.11s-3.4-.31-4.75-.93c-1.35-.62-2.47-1.48-3.36-2.58s-1.56-2.37-2.01-3.8-.67-2.97-.67-4.62v-.77c0-1.64.22-3.18.67-4.62s1.12-2.71,2.01-3.81,2.01-1.96,3.36-2.58c1.35-.62,2.92-.93,4.72-.93,1.9,0,3.57.38,5.01,1.13s2.57,1.8,3.39,3.14c.83,1.34,1.26,2.9,1.29,4.67h-4.99c-.04-.88-.26-1.67-.65-2.38-.39-.71-.93-1.28-1.63-1.7s-1.53-.64-2.49-.64c-1.07,0-1.96.22-2.66.65s-1.25,1.02-1.65,1.76-.68,1.57-.85,2.48c-.17.92-.25,1.86-.25,2.85v.77c0,.98.08,1.93.24,2.86.16.92.44,1.75.85,2.47.4.72.96,1.3,1.66,1.74.7.43,1.6.65,2.68.65Z"/>
      <path class="st0" d="M651.79,549.37c.86,0,1.64-.17,2.34-.52.7-.34,1.26-.82,1.69-1.44.43-.62.67-1.33.71-2.13h4.99c-.03,1.54-.48,2.94-1.36,4.2-.88,1.26-2.04,2.26-3.49,3-1.45.74-3.05,1.11-4.81,1.11s-3.4-.31-4.75-.93c-1.35-.62-2.47-1.48-3.36-2.58s-1.56-2.37-2.01-3.8-.67-2.97-.67-4.62v-.77c0-1.64.22-3.18.67-4.62s1.12-2.71,2.01-3.81,2.01-1.96,3.36-2.58c1.35-.62,2.92-.93,4.72-.93,1.9,0,3.57.38,5.01,1.13s2.57,1.8,3.39,3.14c.83,1.34,1.26,2.9,1.29,4.67h-4.99c-.04-.88-.26-1.67-.65-2.38-.39-.71-.93-1.28-1.63-1.7s-1.53-.64-2.49-.64c-1.07,0-1.96.22-2.66.65s-1.25,1.02-1.65,1.76-.68,1.57-.85,2.48c-.17.92-.25,1.86-.25,2.85v.77c0,.98.08,1.93.24,2.86.16.92.44,1.75.85,2.47.4.72.96,1.3,1.66,1.74.7.43,1.6.65,2.68.65Z"/>
      <path class="st0" d="M676.05,553.59c-1.76,0-3.34-.29-4.76-.87-1.41-.58-2.61-1.39-3.6-2.43-.99-1.04-1.75-2.26-2.27-3.67s-.79-2.92-.79-4.55v-.88c0-1.86.27-3.54.81-5.05s1.3-2.8,2.26-3.88c.97-1.08,2.11-1.9,3.43-2.47s2.75-.86,4.28-.86c1.7,0,3.19.29,4.46.86s2.33,1.37,3.18,2.41c.84,1.03,1.47,2.26,1.89,3.68.42,1.42.63,2.99.63,4.7v2.26h-18.37v-3.8h13.14v-.42c-.03-.95-.22-1.85-.56-2.68s-.87-1.51-1.57-2.02-1.64-.77-2.81-.77c-.88,0-1.66.19-2.34.56-.68.37-1.25.91-1.7,1.61s-.8,1.55-1.04,2.54c-.24.99-.36,2.1-.36,3.33v.88c0,1.04.14,2,.43,2.89.29.89.71,1.66,1.26,2.32.56.66,1.23,1.18,2.02,1.55.79.37,1.69.56,2.7.56,1.27,0,2.41-.26,3.41-.77s1.86-1.24,2.59-2.17l2.79,2.7c-.51.75-1.18,1.46-2,2.14-.82.68-1.82,1.23-3,1.66-1.18.42-2.55.64-4.1.64Z"/>
      <path class="st0" d="M703.01,546.71c0-.53-.13-1.01-.4-1.44-.26-.43-.77-.82-1.51-1.18s-1.83-.67-3.26-.97c-1.26-.28-2.41-.61-3.46-1-1.05-.39-1.94-.86-2.69-1.42-.75-.56-1.33-1.22-1.74-1.98s-.62-1.64-.62-2.64.21-1.88.64-2.75,1.03-1.63,1.82-2.29,1.75-1.18,2.89-1.56,2.41-.57,3.81-.57c1.99,0,3.7.33,5.13,1,1.43.67,2.52,1.57,3.28,2.7.76,1.14,1.14,2.41,1.14,3.83h-5.3c0-.63-.16-1.22-.47-1.77-.31-.55-.79-1-1.42-1.34s-1.42-.52-2.37-.52-1.66.14-2.25.43c-.59.29-1.03.66-1.32,1.11-.29.45-.43.95-.43,1.49,0,.4.08.75.23,1.07.15.32.41.6.78.86s.87.49,1.5.71c.64.22,1.44.43,2.41.64,1.82.38,3.38.87,4.69,1.46,1.31.59,2.32,1.35,3.02,2.28.7.93,1.05,2.11,1.05,3.53,0,1.05-.22,2.02-.67,2.89-.45.87-1.09,1.63-1.94,2.26-.85.64-1.86,1.13-3.04,1.48-1.18.35-2.5.53-3.97.53-2.15,0-3.98-.38-5.47-1.15-1.49-.77-2.63-1.76-3.39-2.97-.77-1.21-1.15-2.46-1.15-3.77h5.12c.06.98.33,1.76.82,2.34.49.58,1.11,1,1.85,1.25.74.26,1.5.38,2.3.38.95,0,1.75-.13,2.4-.38.64-.26,1.14-.61,1.47-1.05.34-.45.51-.96.51-1.53Z"/>
      <path class="st0" d="M726.17,546.71c0-.53-.13-1.01-.4-1.44-.26-.43-.77-.82-1.51-1.18s-1.83-.67-3.26-.97c-1.26-.28-2.41-.61-3.46-1-1.05-.39-1.94-.86-2.69-1.42-.75-.56-1.33-1.22-1.74-1.98s-.62-1.64-.62-2.64.21-1.88.64-2.75,1.03-1.63,1.82-2.29,1.75-1.18,2.89-1.56,2.41-.57,3.81-.57c1.99,0,3.7.33,5.13,1,1.43.67,2.52,1.57,3.28,2.7.76,1.14,1.14,2.41,1.14,3.83h-5.3c0-.63-.16-1.22-.47-1.77-.31-.55-.79-1-1.42-1.34s-1.42-.52-2.37-.52-1.66.14-2.25.43c-.59.29-1.03.66-1.32,1.11-.29.45-.43.95-.43,1.49,0,.4.08.75.23,1.07.15.32.41.6.78.86s.87.49,1.5.71c.64.22,1.44.43,2.41.64,1.82.38,3.38.87,4.69,1.46,1.31.59,2.32,1.35,3.02,2.28.7.93,1.05,2.11,1.05,3.53,0,1.05-.22,2.02-.67,2.89-.45.87-1.09,1.63-1.94,2.26-.85.64-1.86,1.13-3.04,1.48-1.18.35-2.5.53-3.97.53-2.15,0-3.98-.38-5.47-1.15-1.49-.77-2.63-1.76-3.39-2.97-.77-1.21-1.15-2.46-1.15-3.77h5.12c.06.98.33,1.76.82,2.34.49.58,1.11,1,1.85,1.25.74.26,1.5.38,2.3.38.95,0,1.75-.13,2.4-.38.64-.26,1.14-.61,1.47-1.05.34-.45.51-.96.51-1.53Z"/>
      <path class="st0" d="M748.05,529.38v3.87h-13.84v-3.87h13.84ZM743.15,553.15h-5.3v-26.06c0-1.77.33-3.26,1-4.47.67-1.21,1.62-2.12,2.87-2.75s2.72-.93,4.42-.93c.53,0,1.05.03,1.56.1.51.07,1.01.16,1.49.3l-.13,4.09c-.29-.07-.61-.12-.96-.15-.34-.03-.71-.04-1.11-.04-.81,0-1.5.15-2.08.45-.58.3-1.02.74-1.32,1.31s-.45,1.27-.45,2.11v26.06Z"/>
      <path class="st0" d="M766.93,542.6l1.78-.04c0,1.6-.18,3.07-.53,4.41-.35,1.34-.89,2.5-1.63,3.49-.73.99-1.67,1.76-2.81,2.31-1.14.55-2.51.82-4.11.82-1.16,0-2.22-.17-3.19-.51-.97-.34-1.8-.86-2.49-1.56s-1.23-1.62-1.61-2.75c-.38-1.13-.57-2.47-.57-4.04v-15.36h5.3v15.4c0,.86.1,1.58.31,2.16.21.58.48,1.04.83,1.39s.76.6,1.23.75.97.22,1.49.22c1.51,0,2.7-.3,3.57-.89.87-.59,1.49-1.4,1.87-2.41.37-1.01.56-2.15.56-3.41ZM766.18,547.55v-18.17h5.32v23.77h-5.01l-.31-5.6Z"/>
      <path class="st0" d="M782.57,519.4v33.75h-5.32v-33.75h5.32Z"/>
      <path class="st0" d="M794.04,519.4v33.75h-5.32v-33.75h5.32Z"/>
      <path class="st0" d="M803.09,529.38l5.65,17.8.94,5.58-3.67.94-8.64-24.32h5.71ZM806.74,550.56l6.46-21.18h5.67l-9.54,27.4c-.22.59-.51,1.22-.86,1.91s-.81,1.34-1.37,1.97c-.56.62-1.26,1.13-2.1,1.52-.83.39-1.85.58-3.03.58-.47,0-.92-.04-1.35-.12-.43-.08-.84-.17-1.22-.25l-.02-4.04c.15.01.33.03.54.04.21.01.38.02.52.02.88,0,1.61-.11,2.2-.32.59-.21,1.07-.55,1.44-1.02.37-.47.69-1.1.96-1.89l1.71-4.61Z"/>
      <path class="st0" d="M843.55,553.59c-1.76,0-3.34-.29-4.76-.87-1.41-.58-2.61-1.39-3.6-2.43-.99-1.04-1.75-2.26-2.27-3.67s-.79-2.92-.79-4.55v-.88c0-1.86.27-3.54.81-5.05s1.3-2.8,2.26-3.88c.97-1.08,2.11-1.9,3.43-2.47s2.75-.86,4.28-.86c1.7,0,3.19.29,4.46.86s2.33,1.37,3.18,2.41c.84,1.03,1.47,2.26,1.89,3.68.42,1.42.63,2.99.63,4.7v2.26h-18.37v-3.8h13.14v-.42c-.03-.95-.22-1.85-.56-2.68s-.87-1.51-1.57-2.02-1.64-.77-2.81-.77c-.88,0-1.66.19-2.34.56-.68.37-1.25.91-1.7,1.61s-.8,1.55-1.04,2.54c-.24.99-.36,2.1-.36,3.33v.88c0,1.04.14,2,.43,2.89.29.89.71,1.66,1.26,2.32.56.66,1.23,1.18,2.02,1.55.79.37,1.69.56,2.7.56,1.27,0,2.41-.26,3.41-.77s1.86-1.24,2.59-2.17l2.79,2.7c-.51.75-1.18,1.46-2,2.14-.82.68-1.82,1.23-3,1.66-1.18.42-2.55.64-4.1.64Z"/>
      <path class="st0" d="M862.42,534.45v18.7h-5.3v-23.77h4.99l.31,5.08ZM861.48,540.39l-1.71-.02c.01-1.68.25-3.23.71-4.64.46-1.41,1.11-2.61,1.93-3.63s1.82-1.79,2.98-2.34c1.16-.55,2.45-.82,3.87-.82,1.14,0,2.18.16,3.11.47.93.31,1.73.82,2.39,1.53s1.18,1.61,1.53,2.74c.35,1.12.53,2.49.53,4.12v15.36h-5.32v-15.38c0-1.14-.17-2.05-.49-2.71-.33-.67-.81-1.14-1.43-1.43-.62-.29-1.4-.43-2.32-.43s-1.72.19-2.44.57-1.32.9-1.81,1.56c-.49.66-.87,1.42-1.13,2.29s-.4,1.79-.4,2.77Z"/>
      <path class="st0" d="M896.39,538.69l.04,3.27h-3.8c-.98,0-1.85.09-2.59.27-.75.18-1.37.45-1.87.8s-.87.78-1.12,1.27-.37,1.06-.37,1.69.15,1.2.44,1.72c.29.52.72.93,1.29,1.22.56.29,1.25.44,2.05.44,1.08,0,2.03-.22,2.85-.67.81-.45,1.45-1,1.92-1.65.47-.65.72-1.27.75-1.86l1.71,2.35c-.18.6-.48,1.25-.9,1.93s-.98,1.34-1.66,1.97c-.68.62-1.49,1.13-2.44,1.53-.94.4-2.03.59-3.26.59-1.55,0-2.94-.31-4.15-.93-1.22-.62-2.17-1.46-2.86-2.53-.69-1.06-1.03-2.27-1.03-3.61,0-1.26.24-2.38.71-3.35.48-.97,1.18-1.79,2.11-2.45.93-.66,2.07-1.16,3.42-1.5s2.89-.52,4.61-.52h4.15ZM895.62,548.38v-11.34c0-.85-.15-1.58-.46-2.2s-.77-1.09-1.4-1.43c-.62-.34-1.4-.51-2.34-.51-.86,0-1.61.15-2.24.44s-1.12.69-1.47,1.19-.53,1.06-.53,1.69h-5.27c0-.94.23-1.85.68-2.72s1.11-1.66,1.98-2.35,1.9-1.23,3.1-1.63,2.55-.59,4.04-.59c1.79,0,3.37.3,4.76.9,1.38.6,2.48,1.51,3.27,2.71.8,1.21,1.2,2.72,1.2,4.54v10.57c0,1.08.08,2.05.23,2.91.15.86.38,1.6.67,2.23v.35h-5.43c-.25-.57-.44-1.3-.58-2.19-.14-.89-.21-1.75-.21-2.58Z"/>
      <path class="st0" d="M906.5,519.4h5.3v28.67l-.51,5.08h-4.79v-33.75ZM927.31,541.04v.46c0,1.76-.19,3.37-.58,4.84-.39,1.47-.97,2.75-1.76,3.83-.78,1.08-1.75,1.92-2.9,2.52-1.15.59-2.48.89-3.99.89s-2.77-.28-3.87-.83-2.02-1.35-2.76-2.37-1.34-2.25-1.79-3.67-.78-2.99-.97-4.7v-1.47c.19-1.73.51-3.3.97-4.71s1.05-2.64,1.79-3.67c.74-1.03,1.66-1.83,2.75-2.38,1.09-.56,2.37-.83,3.83-.83s2.87.29,4.03.88c1.16.59,2.13,1.42,2.91,2.49.78,1.08,1.36,2.35,1.75,3.83.39,1.48.58,3.11.58,4.9ZM922.01,541.5v-.46c0-1.07-.09-2.08-.26-3.02-.18-.95-.47-1.78-.87-2.49-.4-.72-.95-1.29-1.63-1.7-.68-.42-1.53-.63-2.54-.63-.94,0-1.74.16-2.42.48s-1.24.76-1.69,1.32-.81,1.2-1.07,1.93-.43,1.52-.52,2.37v3.98c.13,1.1.41,2.11.85,3.02.43.92,1.04,1.65,1.83,2.2.79.55,1.81.82,3.05.82.98,0,1.81-.2,2.48-.59.67-.4,1.21-.95,1.61-1.66.4-.71.7-1.54.88-2.49s.27-1.98.27-3.08Z"/>
      <path class="st0" d="M937.43,519.4v33.75h-5.32v-33.75h5.32Z"/>
      <path class="st0" d="M953.72,553.59c-1.76,0-3.34-.29-4.76-.87-1.41-.58-2.61-1.39-3.6-2.43-.99-1.04-1.75-2.26-2.27-3.67s-.79-2.92-.79-4.55v-.88c0-1.86.27-3.54.81-5.05s1.3-2.8,2.26-3.88c.97-1.08,2.11-1.9,3.43-2.47s2.75-.86,4.28-.86c1.7,0,3.19.29,4.46.86s2.33,1.37,3.18,2.41c.84,1.03,1.47,2.26,1.89,3.68.42,1.42.63,2.99.63,4.7v2.26h-18.37v-3.8h13.14v-.42c-.03-.95-.22-1.85-.56-2.68s-.87-1.51-1.57-2.02-1.64-.77-2.81-.77c-.88,0-1.66.19-2.34.56-.68.37-1.25.91-1.7,1.61s-.8,1.55-1.04,2.54c-.24.99-.36,2.1-.36,3.33v.88c0,1.04.14,2,.43,2.89.29.89.71,1.66,1.26,2.32.56.66,1.23,1.18,2.02,1.55.79.37,1.69.56,2.7.56,1.27,0,2.41-.26,3.41-.77s1.86-1.24,2.59-2.17l2.79,2.7c-.51.75-1.18,1.46-2,2.14-.82.68-1.82,1.23-3,1.66-1.18.42-2.55.64-4.1.64Z"/>
      <path class="st0" d="M966.37,541.53v-.46c0-1.8.21-3.45.64-4.93s1.04-2.77,1.85-3.85c.81-1.08,1.79-1.9,2.94-2.48s2.46-.87,3.91-.87,2.7.28,3.78.83,2.01,1.35,2.77,2.38c.76,1.03,1.37,2.26,1.82,3.69.45,1.43.78,3.01.97,4.76v1.47c-.19,1.7-.51,3.25-.97,4.66s-1.06,2.62-1.82,3.65-1.69,1.82-2.78,2.37c-1.09.56-2.36.83-3.81.83s-2.73-.3-3.88-.9c-1.15-.6-2.13-1.44-2.93-2.53s-1.42-2.36-1.85-3.83c-.42-1.47-.64-3.07-.64-4.8ZM971.67,541.07v.46c0,1.08.1,2.09.3,3.03.2.94.51,1.76.93,2.47.42.71.98,1.27,1.66,1.67.68.4,1.5.6,2.45.6,1.2,0,2.19-.26,2.97-.79s1.39-1.24,1.83-2.14c.45-.9.75-1.91.91-3.02v-3.98c-.09-.86-.27-1.67-.54-2.42-.27-.75-.63-1.4-1.09-1.97s-1.01-1-1.68-1.32c-.67-.31-1.45-.47-2.36-.47-.97,0-1.79.21-2.46.62s-1.23.97-1.66,1.69c-.43.72-.75,1.55-.96,2.5s-.31,1.97-.31,3.05ZM981.84,548.23v-28.83h5.32v33.75h-4.81l-.51-4.92Z"/>
      <path class="st0" d="M1026.58,521.16v4.39h-25.47v-4.39h25.47ZM1016.54,521.16v31.99h-5.47v-31.99h5.47Z"/>
      <path class="st0" d="M1032.33,529.38l4.29,18.59.35,5.19h-3.38l-6.44-23.77h5.19ZM1035.56,547.88l5.49-18.5h3.38l-.92,5.54-5.54,18.24h-3.03l.62-5.27ZM1045.01,529.38l5.43,18.28.68,5.49h-3.03l-5.6-18.26-.92-5.52h3.45ZM1049.58,547.75l4.15-18.37h5.16l-6.42,23.77h-3.38l.48-5.41Z"/>
      <path class="st0" d="M1061.49,541.53v-.51c0-1.71.25-3.31.75-4.78.5-1.47,1.22-2.75,2.16-3.84.95-1.09,2.1-1.94,3.47-2.55,1.37-.61,2.92-.91,4.65-.91s3.3.3,4.67.91c1.37.61,2.53,1.46,3.48,2.55s1.68,2.37,2.18,3.84c.5,1.47.75,3.07.75,4.78v.51c0,1.71-.25,3.3-.75,4.77s-1.22,2.74-2.18,3.83c-.95,1.09-2.11,1.94-3.47,2.55-1.36.61-2.91.91-4.64.91s-3.3-.3-4.67-.91c-1.37-.61-2.53-1.46-3.48-2.55-.95-1.09-1.68-2.37-2.17-3.83s-.75-3.05-.75-4.77ZM1066.79,541.02v.51c0,1.07.11,2.08.33,3.03.22.95.56,1.79,1.03,2.51s1.07,1.28,1.8,1.69,1.6.62,2.62.62,1.83-.21,2.56-.62c.73-.41,1.32-.97,1.79-1.69s.82-1.55,1.04-2.51c.23-.95.34-1.96.34-3.03v-.51c0-1.05-.11-2.05-.34-3-.23-.95-.58-1.78-1.05-2.52-.48-.73-1.08-1.31-1.8-1.73-.73-.42-1.59-.63-2.58-.63s-1.86.21-2.58.63c-.72.42-1.32.99-1.79,1.73s-.81,1.57-1.03,2.52c-.22.94-.33,1.94-.33,3Z"/>
      <path class="st0" d="M1098.69,537.37v4.22h-11.62v-4.22h11.62Z"/>
      <path class="st0" d="M1109.37,521.16v31.99h-5.51v-31.99h5.51ZM1124.25,521.16v4.39h-16.28v-4.39h16.28ZM1122.42,535.16v4.37h-14.46v-4.37h14.46Z"/>
      <path class="st0" d="M1141.54,538.69l.04,3.27h-3.8c-.98,0-1.85.09-2.59.27-.75.18-1.37.45-1.87.8s-.87.78-1.12,1.27-.37,1.06-.37,1.69.15,1.2.44,1.72c.29.52.72.93,1.29,1.22.56.29,1.25.44,2.05.44,1.08,0,2.03-.22,2.85-.67.81-.45,1.45-1,1.92-1.65.47-.65.72-1.27.75-1.86l1.71,2.35c-.18.6-.48,1.25-.9,1.93s-.98,1.34-1.66,1.97c-.68.62-1.49,1.13-2.44,1.53-.94.4-2.03.59-3.26.59-1.55,0-2.94-.31-4.15-.93-1.22-.62-2.17-1.46-2.86-2.53-.69-1.06-1.03-2.27-1.03-3.61,0-1.26.24-2.38.71-3.35.48-.97,1.18-1.79,2.11-2.45.93-.66,2.07-1.16,3.42-1.5s2.89-.52,4.61-.52h4.15ZM1140.77,548.38v-11.34c0-.85-.15-1.58-.46-2.2s-.77-1.09-1.39-1.43c-.62-.34-1.4-.51-2.34-.51-.86,0-1.61.15-2.24.44s-1.12.69-1.47,1.19-.53,1.06-.53,1.69h-5.27c0-.94.23-1.85.68-2.72s1.11-1.66,1.98-2.35,1.9-1.23,3.1-1.63,2.55-.59,4.04-.59c1.79,0,3.37.3,4.76.9,1.38.6,2.48,1.51,3.27,2.71.8,1.21,1.2,2.72,1.2,4.54v10.57c0,1.08.08,2.05.23,2.91.15.86.38,1.6.67,2.23v.35h-5.43c-.25-.57-.44-1.3-.58-2.19-.14-.89-.21-1.75-.21-2.58Z"/>
      <path class="st0" d="M1161.34,549.37c.86,0,1.64-.17,2.34-.52.7-.34,1.26-.82,1.69-1.44.43-.62.67-1.33.71-2.13h4.99c-.03,1.54-.48,2.94-1.36,4.2-.88,1.26-2.04,2.26-3.49,3-1.45.74-3.05,1.11-4.81,1.11s-3.4-.31-4.75-.93c-1.35-.62-2.47-1.48-3.36-2.58s-1.56-2.37-2.01-3.8c-.45-1.44-.67-2.97-.67-4.62v-.77c0-1.64.22-3.18.67-4.62.45-1.44,1.12-2.71,2.01-3.81s2.01-1.96,3.36-2.58c1.35-.62,2.92-.93,4.72-.93,1.9,0,3.57.38,5.01,1.13s2.57,1.8,3.39,3.14c.83,1.34,1.26,2.9,1.29,4.67h-4.99c-.04-.88-.26-1.67-.65-2.38-.39-.71-.93-1.28-1.63-1.7-.7-.42-1.53-.64-2.49-.64-1.07,0-1.96.22-2.66.65s-1.25,1.02-1.65,1.76-.68,1.57-.85,2.48c-.17.92-.25,1.86-.25,2.85v.77c0,.98.08,1.93.24,2.86.16.92.44,1.75.85,2.47.4.72.96,1.3,1.66,1.74.7.43,1.6.65,2.68.65Z"/>
      <path class="st0" d="M1186.01,529.38v3.87h-13.4v-3.87h13.4ZM1176.47,523.55h5.3v23.03c0,.73.11,1.29.32,1.68.21.39.51.65.89.78.38.13.83.2,1.34.2.37,0,.72-.02,1.05-.07.34-.04.61-.09.81-.13l.02,4.04c-.44.13-.95.25-1.53.35-.58.1-1.24.15-1.99.15-1.22,0-2.29-.22-3.23-.65-.94-.43-1.67-1.14-2.2-2.12s-.79-2.29-.79-3.91v-23.36Z"/>
      <path class="st0" d="M1188.56,541.53v-.51c0-1.71.25-3.31.75-4.78.5-1.47,1.22-2.75,2.16-3.84.95-1.09,2.1-1.94,3.47-2.55,1.37-.61,2.92-.91,4.65-.91s3.3.3,4.67.91c1.37.61,2.53,1.46,3.48,2.55.95,1.09,1.68,2.37,2.17,3.84.5,1.47.75,3.07.75,4.78v.51c0,1.71-.25,3.3-.75,4.77s-1.22,2.74-2.17,3.83c-.95,1.09-2.11,1.94-3.47,2.55-1.36.61-2.91.91-4.64.91s-3.3-.3-4.67-.91c-1.37-.61-2.53-1.46-3.48-2.55-.95-1.09-1.68-2.37-2.18-3.83s-.75-3.05-.75-4.77ZM1193.86,541.02v.51c0,1.07.11,2.08.33,3.03.22.95.56,1.79,1.03,2.51s1.07,1.28,1.8,1.69,1.6.62,2.61.62,1.83-.21,2.56-.62c.73-.41,1.32-.97,1.79-1.69s.82-1.55,1.04-2.51c.23-.95.34-1.96.34-3.03v-.51c0-1.05-.11-2.05-.34-3-.23-.95-.58-1.78-1.05-2.52-.48-.73-1.08-1.31-1.8-1.73-.73-.42-1.59-.63-2.58-.63s-1.86.21-2.58.63c-.72.42-1.32.99-1.79,1.73s-.81,1.57-1.03,2.52c-.22.94-.33,1.94-.33,3Z"/>
      <path class="st0" d="M1220.42,533.9v19.25h-5.3v-23.77h5.05l.24,4.53ZM1227.69,529.22l-.04,4.92c-.32-.06-.67-.1-1.04-.13-.37-.03-.74-.04-1.11-.04-.91,0-1.71.13-2.39.38-.69.26-1.26.62-1.72,1.1-.46.48-.82,1.05-1.07,1.73s-.39,1.43-.44,2.26l-1.21.09c0-1.49.15-2.88.44-4.15s.74-2.4,1.33-3.36c.59-.97,1.34-1.72,2.24-2.26.9-.54,1.94-.81,3.13-.81.32,0,.67.03,1.04.09.37.06.66.12.85.2Z"/>
      <path class="st0" d="M1255.18,525.42l-9.56,27.73h-5.78l12.04-31.99h3.69l-.39,4.26ZM1262.72,541.29v4.37h-17.4v-4.37h17.4ZM1263.18,553.15l-9.58-27.73-.42-4.26h3.71l12.09,31.99h-5.8Z"/>
      <path class="st0" d="M1286.84,542.6l1.78-.04c0,1.6-.18,3.07-.53,4.41-.35,1.34-.89,2.5-1.63,3.49-.73.99-1.67,1.76-2.81,2.31-1.14.55-2.51.82-4.11.82-1.16,0-2.22-.17-3.19-.51-.97-.34-1.8-.86-2.49-1.56-.7-.7-1.23-1.62-1.62-2.75-.38-1.13-.57-2.47-.57-4.04v-15.36h5.29v15.4c0,.86.1,1.58.31,2.16.21.58.48,1.04.83,1.39s.76.6,1.23.75.97.22,1.49.22c1.51,0,2.7-.3,3.57-.89.87-.59,1.49-1.4,1.87-2.41.37-1.01.56-2.15.56-3.41ZM1286.1,547.55v-18.17h5.32v23.77h-5.01l-.31-5.6Z"/>
      <path class="st0" d="M1307.72,529.38v3.87h-13.4v-3.87h13.4ZM1298.18,523.55h5.3v23.03c0,.73.11,1.29.32,1.68.21.39.51.65.89.78.38.13.83.2,1.34.2.37,0,.72-.02,1.05-.07.34-.04.61-.09.81-.13l.02,4.04c-.44.13-.95.25-1.53.35-.58.1-1.24.15-1.99.15-1.22,0-2.29-.22-3.23-.65-.94-.43-1.67-1.14-2.2-2.12s-.79-2.29-.79-3.91v-23.36Z"/>
      <path class="st0" d="M1317.03,519.4v33.75h-5.27v-33.75h5.27ZM1316.11,540.39l-1.71-.02c.01-1.64.25-3.16.69-4.55.45-1.39,1.08-2.6,1.89-3.64.81-1.03,1.79-1.83,2.93-2.4,1.14-.56,2.41-.85,3.8-.85,1.17,0,2.23.16,3.17.48.95.32,1.76.84,2.45,1.55.69.71,1.21,1.63,1.57,2.77.36,1.14.54,2.52.54,4.14v15.27h-5.32v-15.31c0-1.14-.17-2.05-.49-2.72-.33-.67-.81-1.16-1.44-1.46-.63-.3-1.4-.45-2.31-.45-.95,0-1.79.19-2.52.57-.72.38-1.33.9-1.81,1.56s-.85,1.42-1.09,2.29c-.24.86-.36,1.79-.36,2.77Z"/>
      <path class="st0" d="M1347.29,553.59c-1.76,0-3.34-.29-4.76-.87-1.41-.58-2.61-1.39-3.6-2.43-.99-1.04-1.75-2.26-2.27-3.67s-.79-2.92-.79-4.55v-.88c0-1.86.27-3.54.81-5.05s1.3-2.8,2.26-3.88c.97-1.08,2.11-1.9,3.43-2.47s2.75-.86,4.29-.86c1.7,0,3.19.29,4.46.86,1.27.57,2.33,1.37,3.17,2.41.84,1.03,1.47,2.26,1.89,3.68.42,1.42.63,2.99.63,4.7v2.26h-18.37v-3.8h13.14v-.42c-.03-.95-.22-1.85-.56-2.68-.34-.83-.87-1.51-1.57-2.02s-1.64-.77-2.81-.77c-.88,0-1.66.19-2.34.56-.68.37-1.25.91-1.7,1.61-.46.7-.8,1.55-1.04,2.54-.24.99-.36,2.1-.36,3.33v.88c0,1.04.14,2,.43,2.89.29.89.71,1.66,1.26,2.32.56.66,1.23,1.18,2.02,1.55.79.37,1.69.56,2.7.56,1.27,0,2.41-.26,3.41-.77s1.86-1.24,2.59-2.17l2.79,2.7c-.51.75-1.18,1.46-2,2.14-.82.68-1.82,1.23-3,1.66-1.18.42-2.55.64-4.1.64Z"/>
      <path class="st0" d="M1366.17,534.45v18.7h-5.3v-23.77h4.99l.31,5.08ZM1365.22,540.39l-1.71-.02c.01-1.68.25-3.23.71-4.64.46-1.41,1.11-2.61,1.93-3.63.83-1.01,1.82-1.79,2.98-2.34,1.16-.55,2.45-.82,3.87-.82,1.14,0,2.18.16,3.11.47.93.31,1.73.82,2.39,1.53.67.7,1.18,1.61,1.53,2.74.35,1.12.53,2.49.53,4.12v15.36h-5.32v-15.38c0-1.14-.17-2.05-.49-2.71-.33-.67-.81-1.14-1.43-1.43-.62-.29-1.4-.43-2.32-.43s-1.72.19-2.44.57-1.32.9-1.81,1.56c-.49.66-.87,1.42-1.13,2.29s-.4,1.79-.4,2.77Z"/>
      <path class="st0" d="M1396.86,529.38v3.87h-13.4v-3.87h13.4ZM1387.32,523.55h5.3v23.03c0,.73.11,1.29.32,1.68.21.39.51.65.89.78.38.13.83.2,1.34.2.37,0,.72-.02,1.05-.07.34-.04.61-.09.81-.13l.02,4.04c-.44.13-.95.25-1.53.35-.58.1-1.24.15-1.99.15-1.22,0-2.29-.22-3.23-.65-.94-.43-1.67-1.14-2.2-2.12s-.79-2.29-.79-3.91v-23.36Z"/>
      <path class="st0" d="M1400.95,523.14c0-.81.27-1.48.8-2.01.54-.53,1.28-.8,2.23-.8s1.68.27,2.22.8c.54.54.81,1.21.81,2.01s-.27,1.45-.81,1.98c-.54.53-1.28.79-2.22.79s-1.7-.26-2.23-.79c-.53-.53-.8-1.19-.8-1.98ZM1406.62,529.38v23.77h-5.32v-23.77h5.32Z"/>
      <path class="st0" d="M1422.13,549.37c.86,0,1.64-.17,2.34-.52.7-.34,1.26-.82,1.69-1.44.43-.62.67-1.33.71-2.13h4.99c-.03,1.54-.48,2.94-1.36,4.2-.88,1.26-2.04,2.26-3.49,3-1.45.74-3.05,1.11-4.81,1.11s-3.4-.31-4.75-.93c-1.35-.62-2.47-1.48-3.36-2.58s-1.56-2.37-2.01-3.8c-.45-1.44-.67-2.97-.67-4.62v-.77c0-1.64.22-3.18.67-4.62.45-1.44,1.12-2.71,2.01-3.81s2.01-1.96,3.36-2.58c1.35-.62,2.92-.93,4.72-.93,1.9,0,3.57.38,5.01,1.13s2.57,1.8,3.39,3.14c.83,1.34,1.26,2.9,1.29,4.67h-4.99c-.04-.88-.26-1.67-.65-2.38-.39-.71-.93-1.28-1.63-1.7-.7-.42-1.53-.64-2.49-.64-1.07,0-1.96.22-2.66.65s-1.25,1.02-1.65,1.76c-.39.74-.68,1.57-.85,2.48-.17.92-.25,1.86-.25,2.85v.77c0,.98.08,1.93.24,2.86.16.92.44,1.75.85,2.47.4.72.96,1.3,1.66,1.74.7.43,1.6.65,2.68.65Z"/>
      <path class="st0" d="M1450.08,538.69l.04,3.27h-3.8c-.98,0-1.85.09-2.59.27-.75.18-1.37.45-1.87.8-.5.35-.87.78-1.12,1.27s-.37,1.06-.37,1.69.15,1.2.44,1.72c.29.52.72.93,1.29,1.22.56.29,1.25.44,2.05.44,1.08,0,2.03-.22,2.84-.67.81-.45,1.45-1,1.92-1.65.47-.65.72-1.27.75-1.86l1.71,2.35c-.18.6-.48,1.25-.9,1.93-.43.69-.98,1.34-1.66,1.97-.68.62-1.49,1.13-2.44,1.53-.94.4-2.03.59-3.26.59-1.55,0-2.94-.31-4.15-.93-1.22-.62-2.17-1.46-2.86-2.53-.69-1.06-1.03-2.27-1.03-3.61,0-1.26.24-2.38.71-3.35.48-.97,1.18-1.79,2.11-2.45.93-.66,2.07-1.16,3.42-1.5s2.89-.52,4.61-.52h4.15ZM1449.31,548.38v-11.34c0-.85-.15-1.58-.46-2.2-.31-.62-.77-1.09-1.39-1.43-.62-.34-1.4-.51-2.34-.51-.87,0-1.61.15-2.24.44s-1.12.69-1.47,1.19-.53,1.06-.53,1.69h-5.27c0-.94.23-1.85.68-2.72s1.11-1.66,1.98-2.35c.86-.69,1.9-1.23,3.1-1.63s2.55-.59,4.04-.59c1.79,0,3.37.3,4.76.9,1.38.6,2.48,1.51,3.27,2.71.8,1.21,1.2,2.72,1.2,4.54v10.57c0,1.08.08,2.05.23,2.91.15.86.38,1.6.67,2.23v.35h-5.43c-.25-.57-.44-1.3-.58-2.19-.14-.89-.21-1.75-.21-2.58Z"/>
      <path class="st0" d="M1471.06,529.38v3.87h-13.4v-3.87h13.4ZM1461.53,523.55h5.3v23.03c0,.73.11,1.29.32,1.68.21.39.51.65.89.78.38.13.83.2,1.34.2.37,0,.72-.02,1.05-.07.34-.04.61-.09.81-.13l.02,4.04c-.44.13-.95.25-1.53.35-.58.1-1.24.15-1.99.15-1.22,0-2.29-.22-3.23-.65-.94-.43-1.67-1.14-2.2-2.12s-.79-2.29-.79-3.91v-23.36Z"/>
      <path class="st0" d="M1475.15,523.14c0-.81.27-1.48.8-2.01.54-.53,1.28-.8,2.23-.8s1.68.27,2.22.8c.54.54.81,1.21.81,2.01s-.27,1.45-.81,1.98c-.54.53-1.28.79-2.22.79s-1.7-.26-2.23-.79c-.53-.53-.8-1.19-.8-1.98ZM1480.82,529.38v23.77h-5.32v-23.77h5.32Z"/>
      <path class="st0" d="M1485.61,541.53v-.51c0-1.71.25-3.31.75-4.78.5-1.47,1.22-2.75,2.16-3.84.95-1.09,2.1-1.94,3.47-2.55,1.37-.61,2.92-.91,4.65-.91s3.3.3,4.67.91c1.37.61,2.53,1.46,3.48,2.55.95,1.09,1.68,2.37,2.17,3.84.5,1.47.75,3.07.75,4.78v.51c0,1.71-.25,3.3-.75,4.77s-1.22,2.74-2.17,3.83c-.95,1.09-2.11,1.94-3.47,2.55-1.36.61-2.91.91-4.64.91s-3.3-.3-4.67-.91c-1.37-.61-2.53-1.46-3.48-2.55-.95-1.09-1.68-2.37-2.18-3.83s-.75-3.05-.75-4.77ZM1490.9,541.02v.51c0,1.07.11,2.08.33,3.03.22.95.56,1.79,1.03,2.51s1.07,1.28,1.8,1.69c.73.41,1.6.62,2.61.62s1.83-.21,2.56-.62c.73-.41,1.32-.97,1.79-1.69s.82-1.55,1.04-2.51c.23-.95.34-1.96.34-3.03v-.51c0-1.05-.11-2.05-.34-3-.23-.95-.58-1.78-1.05-2.52-.48-.73-1.08-1.31-1.8-1.73-.73-.42-1.59-.63-2.58-.63s-1.86.21-2.58.63c-.72.42-1.32.99-1.79,1.73s-.81,1.57-1.03,2.52c-.22.94-.33,1.94-.33,3Z"/>
      <path class="st0" d="M1517.4,534.45v18.7h-5.3v-23.77h4.99l.31,5.08ZM1516.46,540.39l-1.71-.02c.01-1.68.25-3.23.71-4.64.46-1.41,1.11-2.61,1.93-3.63.83-1.01,1.82-1.79,2.98-2.34,1.16-.55,2.45-.82,3.87-.82,1.14,0,2.18.16,3.11.47.93.31,1.73.82,2.39,1.53.67.7,1.18,1.61,1.53,2.74.35,1.12.53,2.49.53,4.12v15.36h-5.32v-15.38c0-1.14-.17-2.05-.49-2.71-.33-.67-.81-1.14-1.43-1.43-.62-.29-1.4-.43-2.32-.43s-1.72.19-2.44.57-1.32.9-1.81,1.56c-.49.66-.87,1.42-1.13,2.29s-.4,1.79-.4,2.77Z"/>
      <path class="st0" d="M1537.55,550.65c0-.81.27-1.48.8-2.03.54-.55,1.28-.82,2.23-.82s1.68.27,2.22.82c.54.55.81,1.23.81,2.03s-.27,1.44-.81,1.99c-.54.55-1.28.82-2.22.82s-1.7-.27-2.23-.82c-.53-.55-.8-1.21-.8-1.99ZM1543.31,521.16l-.53,22.57h-4.53l-.55-22.57h5.6Z"/>
    </g>
    <g>
      <path class="st0" d="M615.99,600.88l4.13,8.48,4.13-8.48h3.39l-5.98,11.23v6.54h-3.09v-6.54l-5.98-11.23h3.41Z"/>
      <path class="st0" d="M627.91,612.19v-.28c0-.95.14-1.84.42-2.66.28-.82.68-1.53,1.2-2.14.53-.61,1.17-1.08,1.93-1.42.76-.34,1.62-.51,2.58-.51s1.83.17,2.59.51c.76.34,1.41.81,1.94,1.42.53.61.93,1.32,1.21,2.14.28.82.42,1.7.42,2.66v.28c0,.95-.14,1.83-.42,2.65-.28.81-.68,1.52-1.21,2.13-.53.61-1.17,1.08-1.93,1.42-.76.34-1.62.51-2.58.51s-1.83-.17-2.59-.51c-.76-.34-1.41-.81-1.94-1.42-.53-.61-.93-1.32-1.21-2.13-.28-.81-.42-1.7-.42-2.65ZM630.86,611.91v.28c0,.59.06,1.16.18,1.68.12.53.31.99.57,1.39.26.4.59.71,1,.94.41.23.89.34,1.45.34s1.02-.11,1.42-.34c.4-.23.73-.54,1-.94.26-.4.45-.86.58-1.39.13-.53.19-1.09.19-1.68v-.28c0-.59-.06-1.14-.19-1.67-.13-.53-.32-.99-.59-1.4-.26-.41-.6-.73-1-.96-.4-.23-.88-.35-1.43-.35s-1.03.12-1.43.35c-.4.23-.73.55-.99.96-.26.41-.45.87-.57,1.4-.12.52-.18,1.08-.18,1.67Z"/>
      <path class="st0" d="M651.02,612.79l.99-.02c0,.89-.1,1.7-.29,2.45-.2.75-.5,1.39-.9,1.94-.41.55-.93.98-1.56,1.28-.63.31-1.4.46-2.28.46-.64,0-1.23-.09-1.77-.28-.54-.19-1-.48-1.39-.87-.39-.39-.69-.9-.9-1.53-.21-.63-.32-1.38-.32-2.25v-8.53h2.94v8.56c0,.48.06.88.17,1.2.11.32.27.58.46.77s.42.33.68.42c.26.08.54.12.83.12.84,0,1.5-.16,1.98-.49.48-.33.83-.78,1.04-1.34.21-.56.31-1.19.31-1.89ZM650.61,615.54v-10.09h2.95v13.21h-2.78l-.17-3.11Z"/>
      <path class="st0" d="M659.36,599.9v1.72c0,.51-.09,1.04-.27,1.59-.18.55-.44,1.07-.76,1.57-.33.5-.7.93-1.12,1.3l-1.48-.93c.33-.5.6-1.04.81-1.6.21-.57.31-1.2.31-1.91v-1.75h2.51Z"/>
      <path class="st0" d="M664.91,607.96v10.69h-2.94v-13.21h2.81l.13,2.51ZM668.95,605.36l-.02,2.74c-.18-.03-.37-.06-.58-.07-.21-.02-.41-.02-.62-.02-.5,0-.95.07-1.33.21-.38.14-.7.35-.96.61-.26.26-.45.58-.59.96-.14.38-.22.79-.24,1.26l-.67.05c0-.83.08-1.6.24-2.31.16-.71.41-1.33.74-1.87.33-.54.75-.96,1.25-1.26.5-.3,1.08-.45,1.74-.45.18,0,.37.02.58.05.21.03.36.07.47.11Z"/>
      <path class="st0" d="M676.39,618.89c-.98,0-1.86-.16-2.64-.48-.79-.32-1.45-.77-2-1.35-.55-.58-.97-1.26-1.26-2.04s-.44-1.62-.44-2.53v-.49c0-1.03.15-1.97.45-2.81.3-.84.72-1.56,1.26-2.15.54-.6,1.17-1.06,1.9-1.37.73-.32,1.53-.48,2.38-.48.94,0,1.77.16,2.48.48.71.32,1.3.76,1.76,1.34.47.57.82,1.26,1.05,2.04.23.79.35,1.66.35,2.61v1.26h-10.21v-2.11h7.3v-.23c-.02-.53-.12-1.03-.31-1.49-.19-.46-.48-.84-.87-1.12-.39-.28-.91-.43-1.56-.43-.49,0-.92.1-1.3.31-.38.21-.69.51-.95.9-.25.39-.45.86-.58,1.41-.13.55-.2,1.17-.2,1.85v.49c0,.58.08,1.11.24,1.61.16.49.39.92.7,1.29.31.37.68.65,1.12.86.44.21.94.31,1.5.31.71,0,1.34-.14,1.89-.43.55-.29,1.03-.69,1.44-1.21l1.55,1.5c-.29.42-.66.81-1.11,1.19-.46.38-1.01.69-1.67.92-.66.24-1.41.35-2.28.35Z"/>
      <path class="st0" d="M698.04,610.62l.02,1.82h-2.11c-.55,0-1.03.05-1.44.15s-.76.25-1.04.45c-.28.2-.48.43-.62.71-.14.28-.21.59-.21.94s.08.67.24.96c.16.29.4.51.71.68.31.16.69.24,1.14.24.6,0,1.13-.12,1.58-.37.45-.25.81-.55,1.07-.92.26-.36.4-.71.42-1.03l.95,1.31c-.1.33-.26.69-.5,1.07-.24.38-.54.75-.92,1.09-.38.35-.83.63-1.36.85-.52.22-1.13.33-1.81.33-.86,0-1.63-.17-2.31-.52-.68-.35-1.2-.81-1.59-1.4-.38-.59-.57-1.26-.57-2.01,0-.7.13-1.32.4-1.86.26-.54.66-1,1.17-1.36.52-.37,1.15-.64,1.9-.84.75-.19,1.6-.29,2.56-.29h2.31ZM697.62,616v-6.3c0-.47-.09-.88-.26-1.22s-.43-.61-.77-.79c-.35-.19-.78-.28-1.3-.28-.48,0-.9.08-1.25.24-.35.16-.62.38-.82.66-.2.28-.29.59-.29.94h-2.93c0-.52.13-1.03.38-1.51.25-.49.62-.92,1.1-1.31.48-.38,1.05-.68,1.72-.9.67-.22,1.42-.33,2.25-.33.99,0,1.87.17,2.64.5.77.33,1.38.84,1.82,1.51.44.67.67,1.51.67,2.52v5.87c0,.6.04,1.14.13,1.62.09.48.21.89.37,1.24v.2h-3.02c-.14-.32-.25-.72-.32-1.21-.08-.49-.12-.97-.12-1.43Z"/>
      <path class="st0" d="M706.8,599.9v18.75h-2.95v-18.75h2.95Z"/>
      <path class="st0" d="M713.17,599.9v18.75h-2.95v-18.75h2.95Z"/>
      <path class="st0" d="M730.01,615.07c0-.29-.07-.56-.22-.8s-.43-.46-.84-.65c-.41-.2-1.02-.37-1.81-.54-.7-.15-1.34-.34-1.92-.56-.58-.21-1.08-.48-1.5-.79s-.74-.68-.96-1.1c-.23-.42-.34-.91-.34-1.46s.12-1.05.35-1.53c.24-.48.57-.9,1.01-1.27.44-.37.97-.66,1.6-.87.63-.21,1.34-.32,2.12-.32,1.11,0,2.06.19,2.85.56.79.37,1.4.87,1.82,1.5.42.63.63,1.34.63,2.13h-2.94c0-.35-.09-.68-.26-.98-.17-.3-.44-.55-.79-.74-.35-.19-.79-.29-1.32-.29s-.92.08-1.25.24c-.33.16-.57.36-.73.62-.16.25-.24.53-.24.83,0,.22.04.42.13.59.09.18.23.33.43.48.2.14.48.27.84.4.35.12.8.24,1.34.35,1.01.21,1.88.48,2.61.81.73.33,1.29.75,1.68,1.27s.59,1.17.59,1.96c0,.59-.12,1.12-.37,1.61-.25.48-.61.9-1.08,1.26-.47.35-1.04.63-1.69.82-.66.2-1.39.29-2.2.29-1.2,0-2.21-.21-3.04-.64-.83-.43-1.46-.98-1.89-1.65-.43-.67-.64-1.37-.64-2.09h2.84c.03.55.19.98.46,1.3.27.32.61.55,1.03.7.41.14.84.21,1.28.21.53,0,.97-.07,1.33-.21.36-.14.63-.34.82-.59.19-.25.28-.53.28-.85Z"/>
      <path class="st0" d="M741.29,618.89c-.98,0-1.86-.16-2.64-.48-.79-.32-1.45-.77-2-1.35-.55-.58-.97-1.26-1.26-2.04s-.44-1.62-.44-2.53v-.49c0-1.03.15-1.97.45-2.81.3-.84.72-1.56,1.26-2.15.54-.6,1.17-1.06,1.9-1.37.73-.32,1.53-.48,2.38-.48.94,0,1.77.16,2.48.48.71.32,1.3.76,1.76,1.34.47.57.82,1.26,1.05,2.04.23.79.35,1.66.35,2.61v1.26h-10.21v-2.11h7.3v-.23c-.02-.53-.12-1.03-.31-1.49-.19-.46-.48-.84-.87-1.12-.39-.28-.91-.43-1.56-.43-.49,0-.92.1-1.3.31-.38.21-.69.51-.95.9-.25.39-.45.86-.58,1.41-.13.55-.2,1.17-.2,1.85v.49c0,.58.08,1.11.24,1.61.16.49.39.92.7,1.29.31.37.68.65,1.12.86.44.21.94.31,1.5.31.71,0,1.34-.14,1.89-.43.55-.29,1.03-.69,1.44-1.21l1.55,1.5c-.29.42-.66.81-1.11,1.19-.46.38-1.01.69-1.67.92-.66.24-1.41.35-2.28.35Z"/>
      <path class="st0" d="M754.92,605.44v2.15h-7.45v-2.15h7.45ZM749.62,602.21h2.94v12.79c0,.41.06.72.18.93.12.22.28.36.49.43.21.07.46.11.74.11.2,0,.4-.01.59-.04.19-.03.34-.05.45-.07v2.25c-.23.07-.51.14-.84.2-.32.06-.69.09-1.1.09-.68,0-1.27-.12-1.79-.36-.52-.24-.93-.63-1.22-1.18s-.44-1.27-.44-2.17v-12.98Z"/>
      <path class="st0" d="M757.38,617.26c0-.45.15-.82.45-1.13.3-.31.71-.46,1.24-.46s.93.15,1.23.46c.3.3.45.68.45,1.13s-.15.8-.45,1.1c-.3.31-.71.46-1.23.46s-.94-.15-1.24-.46c-.3-.3-.45-.67-.45-1.1ZM760.58,600.88l-.29,12.54h-2.51l-.31-12.54h3.11Z"/>
      <path class="st0" d="M773.37,600.88v17.77h-3.06v-17.77h3.06ZM781.64,600.88v2.44h-9.05v-2.44h9.05ZM780.62,608.65v2.43h-8.03v-2.43h8.03Z"/>
      <path class="st0" d="M786.42,607.96v10.69h-2.94v-13.21h2.81l.13,2.51ZM790.46,605.36l-.02,2.74c-.18-.03-.37-.06-.58-.07-.21-.02-.41-.02-.62-.02-.5,0-.95.07-1.33.21-.38.14-.7.35-.96.61-.26.26-.45.58-.59.96-.14.38-.22.79-.24,1.26l-.67.05c0-.83.08-1.6.24-2.31.16-.71.41-1.33.74-1.87.33-.54.75-.96,1.25-1.26.5-.3,1.08-.45,1.74-.45.18,0,.37.02.58.05.21.03.36.07.47.11Z"/>
      <path class="st0" d="M791.43,612.19v-.28c0-.95.14-1.84.42-2.66.28-.82.68-1.53,1.2-2.14.53-.61,1.17-1.08,1.93-1.42.76-.34,1.62-.51,2.58-.51s1.83.17,2.59.51c.76.34,1.41.81,1.94,1.42.53.61.93,1.32,1.21,2.14.28.82.42,1.7.42,2.66v.28c0,.95-.14,1.83-.42,2.65-.28.81-.68,1.52-1.21,2.13-.53.61-1.17,1.08-1.93,1.42-.76.34-1.62.51-2.58.51s-1.83-.17-2.59-.51c-.76-.34-1.41-.81-1.94-1.42-.53-.61-.93-1.32-1.21-2.13-.28-.81-.42-1.7-.42-2.65ZM794.37,611.91v.28c0,.59.06,1.16.18,1.68.12.53.31.99.57,1.39.26.4.59.71,1,.94.41.23.89.34,1.45.34s1.02-.11,1.42-.34c.4-.23.73-.54,1-.94.26-.4.45-.86.58-1.39.13-.53.19-1.09.19-1.68v-.28c0-.59-.06-1.14-.19-1.67-.13-.53-.32-.99-.59-1.4-.26-.41-.6-.73-1-.96-.4-.23-.88-.35-1.43-.35s-1.03.12-1.43.35c-.4.23-.73.55-.99.96-.26.41-.45.87-.57,1.4-.12.52-.18,1.08-.18,1.67Z"/>
      <path class="st0" d="M809.11,608.13v10.52h-2.94v-13.21h2.77l.17,2.69ZM808.64,611.56h-1c0-.92.11-1.77.34-2.54.23-.77.56-1.45,1-2.02.44-.57.99-1.02,1.64-1.33.66-.31,1.41-.47,2.28-.47.6,0,1.15.09,1.65.26.5.17.94.45,1.31.82.37.37.65.85.85,1.44.2.59.3,1.29.3,2.12v8.8h-2.94v-8.54c0-.64-.1-1.15-.29-1.51-.19-.37-.46-.63-.82-.79-.35-.16-.77-.24-1.26-.24-.55,0-1.02.11-1.41.32-.39.21-.7.5-.95.87-.24.37-.42.79-.54,1.27-.11.48-.17.99-.17,1.54ZM816.83,610.78l-1.38.3c0-.8.11-1.55.34-2.26.22-.71.55-1.34.99-1.88.44-.54.97-.97,1.62-1.28.64-.31,1.38-.46,2.21-.46.68,0,1.28.09,1.81.27.53.18.99.47,1.36.86.37.39.66.9.85,1.52.2.62.29,1.37.29,2.25v8.54h-2.95v-8.56c0-.67-.1-1.18-.29-1.55-.19-.37-.46-.62-.81-.76-.35-.14-.77-.21-1.26-.21-.46,0-.86.08-1.2.25-.35.17-.64.4-.87.7-.24.3-.41.64-.53,1.02-.12.38-.18.8-.18,1.25Z"/>
      <path class="st0" d="M837.08,608.26v10.39h-2.94v-13.21h2.77l.17,2.82ZM836.56,611.56h-.95c0-.95.14-1.81.4-2.59.26-.78.61-1.45,1.07-2.01.46-.56,1.01-1,1.65-1.3.64-.31,1.36-.46,2.15-.46.63,0,1.21.09,1.73.26.52.17.96.46,1.33.85.37.39.65.9.85,1.52.2.62.29,1.39.29,2.29v8.53h-2.95v-8.54c0-.63-.09-1.14-.27-1.51-.18-.37-.45-.63-.79-.79-.35-.16-.77-.24-1.29-.24s-.96.11-1.35.32c-.4.21-.73.5-1.01.87-.27.37-.48.79-.63,1.27-.15.48-.22.99-.22,1.54Z"/>
      <path class="st0" d="M847.52,612.19v-.28c0-.95.14-1.84.42-2.66.28-.82.68-1.53,1.2-2.14.53-.61,1.17-1.08,1.93-1.42.76-.34,1.62-.51,2.58-.51s1.83.17,2.59.51c.76.34,1.41.81,1.94,1.42.53.61.93,1.32,1.21,2.14.28.82.42,1.7.42,2.66v.28c0,.95-.14,1.83-.42,2.65-.28.81-.68,1.52-1.21,2.13-.53.61-1.17,1.08-1.93,1.42-.76.34-1.62.51-2.58.51s-1.83-.17-2.59-.51c-.76-.34-1.41-.81-1.94-1.42-.53-.61-.93-1.32-1.21-2.13-.28-.81-.42-1.7-.42-2.65ZM850.46,611.91v.28c0,.59.06,1.16.18,1.68.12.53.31.99.57,1.39.26.4.59.71,1,.94.41.23.89.34,1.45.34s1.02-.11,1.42-.34c.4-.23.73-.54,1-.94.26-.4.45-.86.58-1.39.13-.53.19-1.09.19-1.68v-.28c0-.59-.06-1.14-.19-1.67-.13-.53-.32-.99-.59-1.4-.26-.41-.6-.73-1-.96-.4-.23-.88-.35-1.43-.35s-1.03.12-1.43.35c-.4.23-.73.55-.99.96-.26.41-.45.87-.57,1.4-.12.52-.18,1.08-.18,1.67Z"/>
      <path class="st0" d="M864.06,605.44l2.38,10.33.2,2.88h-1.88l-3.58-13.21h2.88ZM865.85,615.72l3.05-10.28h1.88l-.51,3.08-3.08,10.13h-1.68l.34-2.93ZM871.1,605.44l3.02,10.16.38,3.05h-1.68l-3.11-10.14-.51-3.06h1.92ZM873.64,615.65l2.31-10.21h2.87l-3.56,13.21h-1.88l.27-3Z"/>
      <path class="st0" d="M886.47,612.19v-.28c0-.95.14-1.84.42-2.66.28-.82.68-1.53,1.2-2.14.53-.61,1.17-1.08,1.93-1.42.76-.34,1.62-.51,2.58-.51s1.83.17,2.59.51c.76.34,1.41.81,1.94,1.42.53.61.93,1.32,1.21,2.14.28.82.42,1.7.42,2.66v.28c0,.95-.14,1.83-.42,2.65-.28.81-.68,1.52-1.21,2.13-.53.61-1.17,1.08-1.93,1.42-.76.34-1.62.51-2.58.51s-1.83-.17-2.59-.51c-.76-.34-1.41-.81-1.94-1.42-.53-.61-.93-1.32-1.21-2.13-.28-.81-.42-1.7-.42-2.65ZM889.41,611.91v.28c0,.59.06,1.16.18,1.68.12.53.31.99.57,1.39.26.4.59.71,1,.94.41.23.89.34,1.45.34s1.02-.11,1.42-.34c.4-.23.73-.54,1-.94.26-.4.45-.86.58-1.39.13-.53.19-1.09.19-1.68v-.28c0-.59-.06-1.14-.19-1.67-.13-.53-.32-.99-.59-1.4-.26-.41-.6-.73-1-.96-.4-.23-.88-.35-1.43-.35s-1.03.12-1.43.35c-.4.23-.73.55-.99.96-.26.41-.45.87-.57,1.4-.12.52-.18,1.08-.18,1.67Z"/>
      <path class="st0" d="M904.13,608.26v10.39h-2.94v-13.21h2.77l.17,2.82ZM903.61,611.56h-.95c0-.95.14-1.81.4-2.59.26-.78.61-1.45,1.07-2.01.46-.56,1.01-1,1.65-1.3.64-.31,1.36-.46,2.15-.46.63,0,1.21.09,1.73.26.52.17.96.46,1.33.85.37.39.65.9.85,1.52.2.62.29,1.39.29,2.29v8.53h-2.95v-8.54c0-.63-.09-1.14-.27-1.51-.18-.37-.45-.63-.79-.79-.35-.16-.77-.24-1.29-.24s-.96.11-1.35.32c-.4.21-.73.5-1.01.87-.27.37-.48.79-.63,1.27-.15.48-.22.99-.22,1.54Z"/>
      <path class="st0" d="M917.89,615.82v2.1c-.01.83-.22,1.68-.63,2.56s-.96,1.6-1.65,2.17l-1.57-.92c.23-.37.44-.74.62-1.11.19-.37.34-.77.45-1.2.11-.42.17-.89.17-1.4v-2.21h2.61Z"/>
      <path class="st0" d="M928.74,605.44l3.14,9.89.52,3.1-2.04.52-4.8-13.51h3.17ZM930.77,617.21l3.59-11.77h3.15l-5.3,15.22c-.12.33-.28.68-.48,1.06s-.45.75-.76,1.09c-.31.35-.7.63-1.17.84s-1.03.32-1.68.32c-.26,0-.51-.02-.75-.07-.24-.04-.47-.09-.68-.14v-2.25c.07,0,.17.02.29.02.12,0,.21.01.29.01.49,0,.9-.06,1.22-.18.33-.12.59-.31.8-.57.21-.26.38-.61.53-1.05l.95-2.56Z"/>
      <path class="st0" d="M938.44,612.19v-.28c0-.95.14-1.84.42-2.66.28-.82.68-1.53,1.2-2.14.53-.61,1.17-1.08,1.93-1.42.76-.34,1.62-.51,2.58-.51s1.83.17,2.59.51c.76.34,1.41.81,1.94,1.42.53.61.93,1.32,1.21,2.14.28.82.42,1.7.42,2.66v.28c0,.95-.14,1.83-.42,2.65-.28.81-.68,1.52-1.21,2.13-.53.61-1.17,1.08-1.93,1.42-.76.34-1.62.51-2.58.51s-1.83-.17-2.59-.51c-.76-.34-1.41-.81-1.94-1.42-.53-.61-.93-1.32-1.21-2.13-.28-.81-.42-1.7-.42-2.65ZM941.38,611.91v.28c0,.59.06,1.16.18,1.68.12.53.31.99.57,1.39.26.4.59.71,1,.94.41.23.89.34,1.45.34s1.02-.11,1.42-.34c.4-.23.73-.54,1-.94.26-.4.45-.86.58-1.39.13-.53.19-1.09.19-1.68v-.28c0-.59-.06-1.14-.19-1.67-.13-.53-.32-.99-.59-1.4-.26-.41-.6-.73-1-.96-.4-.23-.88-.35-1.43-.35s-1.03.12-1.43.35c-.4.23-.73.55-.99.96-.26.41-.45.87-.57,1.4-.12.52-.18,1.08-.18,1.67Z"/>
      <path class="st0" d="M961.54,612.79l.99-.02c0,.89-.1,1.7-.29,2.45-.2.75-.5,1.39-.9,1.94-.41.55-.93.98-1.56,1.28-.63.31-1.4.46-2.28.46-.64,0-1.23-.09-1.77-.28-.54-.19-1-.48-1.39-.87-.39-.39-.69-.9-.9-1.53-.21-.63-.32-1.38-.32-2.25v-8.53h2.94v8.56c0,.48.06.88.17,1.2.11.32.27.58.46.77s.42.33.68.42c.26.08.54.12.83.12.84,0,1.5-.16,1.98-.49.48-.33.83-.78,1.04-1.34.21-.56.31-1.19.31-1.89ZM961.13,615.54v-10.09h2.95v13.21h-2.78l-.17-3.11Z"/>
      <path class="st0" d="M970.04,607.96v10.69h-2.94v-13.21h2.81l.13,2.51ZM974.08,605.36l-.02,2.74c-.18-.03-.37-.06-.58-.07-.21-.02-.41-.02-.62-.02-.5,0-.95.07-1.33.21-.38.14-.7.35-.96.61-.26.26-.45.58-.59.96-.14.38-.22.79-.24,1.26l-.67.05c0-.83.08-1.6.24-2.31.16-.71.41-1.33.74-1.87.33-.54.75-.96,1.25-1.26.5-.3,1.08-.45,1.74-.45.18,0,.37.02.58.05.21.03.36.07.47.11Z"/>
      <path class="st0" d="M990.01,610.62l.02,1.82h-2.11c-.55,0-1.03.05-1.44.15s-.76.25-1.04.45-.48.43-.62.71c-.14.28-.21.59-.21.94s.08.67.24.96.4.51.71.68c.31.16.69.24,1.14.24.6,0,1.13-.12,1.58-.37.45-.25.81-.55,1.07-.92.26-.36.4-.71.42-1.03l.95,1.31c-.1.33-.26.69-.5,1.07s-.54.75-.92,1.09c-.38.35-.83.63-1.36.85-.52.22-1.13.33-1.81.33-.86,0-1.63-.17-2.31-.52s-1.2-.81-1.59-1.4c-.38-.59-.57-1.26-.57-2.01,0-.7.13-1.32.4-1.86s.66-1,1.17-1.36,1.15-.64,1.9-.84c.75-.19,1.6-.29,2.56-.29h2.31ZM989.58,616v-6.3c0-.47-.09-.88-.26-1.22s-.43-.61-.77-.79c-.35-.19-.78-.28-1.3-.28-.48,0-.9.08-1.25.24-.35.16-.62.38-.82.66-.2.28-.29.59-.29.94h-2.93c0-.52.13-1.03.38-1.51s.62-.92,1.1-1.31c.48-.38,1.05-.68,1.72-.9.67-.22,1.42-.33,2.25-.33.99,0,1.87.17,2.64.5.77.33,1.38.84,1.82,1.51.44.67.67,1.51.67,2.52v5.87c0,.6.04,1.14.13,1.62.09.48.21.89.37,1.24v.2h-3.01c-.14-.32-.25-.72-.32-1.21-.08-.49-.12-.97-.12-1.43Z"/>
      <path class="st0" d="M1001.01,616.55c.48,0,.91-.1,1.3-.29.39-.19.7-.46.94-.8.24-.34.37-.74.4-1.18h2.77c-.02.85-.27,1.63-.76,2.33-.49.7-1.13,1.26-1.94,1.67-.81.41-1.7.62-2.67.62s-1.89-.17-2.64-.52-1.37-.82-1.87-1.43c-.5-.61-.87-1.31-1.12-2.11-.25-.8-.37-1.65-.37-2.56v-.43c0-.91.12-1.77.37-2.57s.62-1.51,1.12-2.12c.5-.61,1.12-1.09,1.87-1.43.75-.35,1.62-.52,2.62-.52,1.06,0,1.99.21,2.78.63.8.42,1.43,1,1.89,1.75.46.75.7,1.61.71,2.59h-2.77c-.02-.49-.14-.93-.36-1.32-.22-.39-.52-.71-.9-.95-.39-.24-.85-.35-1.39-.35-.59,0-1.09.12-1.48.36s-.7.57-.92.98-.38.87-.47,1.38c-.09.51-.14,1.04-.14,1.58v.43c0,.55.04,1.07.13,1.59.09.51.25.97.47,1.37.22.4.53.72.92.96.39.24.89.36,1.49.36Z"/>
      <path class="st0" d="M1014.06,616.55c.48,0,.91-.1,1.3-.29.39-.19.7-.46.94-.8s.37-.74.4-1.18h2.77c-.02.85-.27,1.63-.76,2.33-.49.7-1.14,1.26-1.94,1.67-.81.41-1.7.62-2.67.62s-1.89-.17-2.64-.52c-.75-.35-1.37-.82-1.87-1.43s-.87-1.31-1.12-2.11c-.25-.8-.37-1.65-.37-2.56v-.43c0-.91.12-1.77.37-2.57.25-.8.62-1.51,1.12-2.12s1.12-1.09,1.87-1.43c.75-.35,1.62-.52,2.62-.52,1.06,0,1.99.21,2.78.63.8.42,1.43,1,1.89,1.75.46.75.7,1.61.71,2.59h-2.77c-.02-.49-.14-.93-.36-1.32-.21-.39-.52-.71-.9-.95-.39-.24-.85-.35-1.38-.35-.59,0-1.09.12-1.48.36s-.7.57-.92.98-.38.87-.47,1.38c-.09.51-.14,1.04-.14,1.58v.43c0,.55.04,1.07.13,1.59.09.51.25.97.47,1.37.22.4.53.72.92.96.39.24.89.36,1.49.36Z"/>
      <path class="st0" d="M1021.15,612.19v-.28c0-.95.14-1.84.42-2.66.28-.82.68-1.53,1.2-2.14.53-.61,1.17-1.08,1.93-1.42s1.62-.51,2.58-.51,1.83.17,2.59.51,1.41.81,1.93,1.42.93,1.32,1.21,2.14c.28.82.42,1.7.42,2.66v.28c0,.95-.14,1.83-.42,2.65-.28.81-.68,1.52-1.21,2.13-.53.61-1.17,1.08-1.93,1.42-.76.34-1.62.51-2.58.51s-1.83-.17-2.59-.51c-.76-.34-1.41-.81-1.94-1.42-.53-.61-.93-1.32-1.21-2.13-.28-.81-.42-1.7-.42-2.65ZM1024.09,611.91v.28c0,.59.06,1.16.18,1.68.12.53.31.99.57,1.39.26.4.59.71,1,.94s.89.34,1.45.34,1.02-.11,1.42-.34c.4-.23.73-.54,1-.94.26-.4.45-.86.58-1.39.13-.53.19-1.09.19-1.68v-.28c0-.59-.06-1.14-.19-1.67-.13-.53-.32-.99-.59-1.4-.26-.41-.6-.73-1-.96-.4-.23-.88-.35-1.43-.35s-1.03.12-1.43.35c-.4.23-.73.55-1,.96-.26.41-.45.87-.57,1.4-.12.52-.18,1.08-.18,1.67Z"/>
      <path class="st0" d="M1044.26,612.79l.99-.02c0,.89-.1,1.7-.29,2.45-.2.75-.5,1.39-.9,1.94-.41.55-.93.98-1.56,1.28-.63.31-1.4.46-2.28.46-.64,0-1.23-.09-1.77-.28-.54-.19-1-.48-1.39-.87s-.69-.9-.9-1.53c-.21-.63-.32-1.38-.32-2.25v-8.53h2.94v8.56c0,.48.06.88.17,1.2.11.32.27.58.46.77s.42.33.68.42c.26.08.54.12.83.12.84,0,1.5-.16,1.98-.49.48-.33.83-.78,1.04-1.34.21-.56.31-1.19.31-1.89ZM1043.84,615.54v-10.09h2.95v13.21h-2.78l-.17-3.11Z"/>
      <path class="st0" d="M1052.72,608.26v10.39h-2.94v-13.21h2.77l.17,2.82ZM1052.19,611.56h-.95c0-.95.14-1.81.4-2.59.26-.78.62-1.45,1.07-2.01.46-.56,1.01-1,1.65-1.3.64-.31,1.36-.46,2.15-.46.63,0,1.21.09,1.73.26s.96.46,1.33.85c.37.39.65.9.85,1.52.2.62.29,1.39.29,2.29v8.53h-2.95v-8.54c0-.63-.09-1.14-.27-1.51-.18-.37-.45-.63-.79-.79-.35-.16-.77-.24-1.29-.24s-.96.11-1.36.32-.73.5-1.01.87c-.27.37-.48.79-.63,1.27-.15.48-.22.99-.22,1.54Z"/>
      <path class="st0" d="M1069.77,605.44v2.15h-7.45v-2.15h7.45ZM1064.47,602.21h2.94v12.79c0,.41.06.72.18.93s.28.36.49.43c.21.07.46.11.75.11.2,0,.4-.01.59-.04.19-.03.34-.05.45-.07v2.25c-.23.07-.51.14-.84.2-.32.06-.69.09-1.1.09-.68,0-1.27-.12-1.79-.36-.52-.24-.93-.63-1.22-1.18s-.44-1.27-.44-2.17v-12.98Z"/>
      <path class="st0" d="M1078.26,601.97c0-.45.15-.82.45-1.12.3-.3.71-.45,1.24-.45s.93.15,1.23.45c.3.3.45.67.45,1.12s-.15.81-.45,1.1-.71.44-1.23.44-.94-.15-1.24-.44-.45-.66-.45-1.1ZM1081.41,605.44v13.21h-2.95v-13.21h2.95Z"/>
      <path class="st0" d="M1092.04,615.07c0-.29-.07-.56-.22-.8s-.42-.46-.84-.65-1.02-.37-1.81-.54c-.7-.15-1.34-.34-1.92-.56-.58-.21-1.08-.48-1.5-.79s-.74-.68-.96-1.1-.34-.91-.34-1.46.12-1.05.35-1.53c.24-.48.57-.9,1.01-1.27.44-.37.97-.66,1.61-.87s1.34-.32,2.12-.32c1.11,0,2.06.19,2.85.56.79.37,1.4.87,1.82,1.5.42.63.63,1.34.63,2.13h-2.94c0-.35-.09-.68-.26-.98-.17-.3-.44-.55-.79-.74-.35-.19-.79-.29-1.32-.29s-.92.08-1.25.24c-.33.16-.57.36-.73.62-.16.25-.24.53-.24.83,0,.22.04.42.13.59.09.18.23.33.43.48.2.14.48.27.84.4.35.12.8.24,1.34.35,1.01.21,1.88.48,2.61.81.73.33,1.29.75,1.68,1.27s.59,1.17.59,1.96c0,.59-.12,1.12-.37,1.61s-.61.9-1.08,1.26c-.47.35-1.04.63-1.69.82-.66.2-1.39.29-2.2.29-1.2,0-2.21-.21-3.04-.64-.83-.43-1.46-.98-1.89-1.65-.43-.67-.64-1.37-.64-2.09h2.84c.03.55.18.98.46,1.3.27.32.61.55,1.03.7.41.14.84.21,1.28.21.53,0,.97-.07,1.33-.21.36-.14.63-.34.82-.59.19-.25.28-.53.28-.85Z"/>
      <path class="st0" d="M1109.53,618.89c-.98,0-1.86-.16-2.64-.48-.79-.32-1.45-.77-2-1.35-.55-.58-.97-1.26-1.26-2.04s-.44-1.62-.44-2.53v-.49c0-1.03.15-1.97.45-2.81s.72-1.56,1.26-2.15c.54-.6,1.17-1.06,1.9-1.37.73-.32,1.53-.48,2.38-.48.94,0,1.77.16,2.48.48.71.32,1.3.76,1.76,1.34.47.57.82,1.26,1.05,2.04.23.79.35,1.66.35,2.61v1.26h-10.21v-2.11h7.3v-.23c-.02-.53-.12-1.03-.31-1.49-.19-.46-.48-.84-.87-1.12-.39-.28-.91-.43-1.56-.43-.49,0-.92.1-1.3.31-.38.21-.69.51-.95.9-.25.39-.45.86-.58,1.41-.13.55-.2,1.17-.2,1.85v.49c0,.58.08,1.11.24,1.61.16.49.39.92.7,1.29.31.37.68.65,1.12.86.44.21.94.31,1.5.31.71,0,1.34-.14,1.89-.43s1.03-.69,1.44-1.21l1.55,1.5c-.29.42-.66.81-1.11,1.19-.46.38-1.01.69-1.67.92-.66.24-1.41.35-2.28.35Z"/>
      <path class="st0" d="M1118.76,605.44l3.3,10.92.16,2.28h-1.9l-4.61-13.21h3.06ZM1121.24,616.32l3.24-10.88h3.05l-4.59,13.21h-1.9l.21-2.33Z"/>
      <path class="st0" d="M1135.01,618.89c-.98,0-1.86-.16-2.64-.48s-1.45-.77-2-1.35c-.55-.58-.97-1.26-1.26-2.04s-.44-1.62-.44-2.53v-.49c0-1.03.15-1.97.45-2.81.3-.84.72-1.56,1.26-2.15.54-.6,1.17-1.06,1.9-1.37.73-.32,1.53-.48,2.38-.48.94,0,1.77.16,2.48.48.71.32,1.3.76,1.76,1.34.47.57.82,1.26,1.05,2.04.23.79.35,1.66.35,2.61v1.26h-10.21v-2.11h7.3v-.23c-.02-.53-.12-1.03-.31-1.49-.19-.46-.48-.84-.87-1.12-.39-.28-.91-.43-1.56-.43-.49,0-.92.1-1.3.31-.38.21-.69.51-.95.9s-.45.86-.58,1.41c-.13.55-.2,1.17-.2,1.85v.49c0,.58.08,1.11.24,1.61.16.49.39.92.7,1.29.31.37.68.65,1.12.86.44.21.94.31,1.5.31.71,0,1.34-.14,1.89-.43.55-.29,1.03-.69,1.44-1.21l1.55,1.5c-.29.42-.66.81-1.11,1.19-.46.38-1.01.69-1.67.92-.66.24-1.42.35-2.28.35Z"/>
      <path class="st0" d="M1145.49,608.26v10.39h-2.94v-13.21h2.77l.17,2.82ZM1144.97,611.56h-.95c0-.95.14-1.81.4-2.59.26-.78.62-1.45,1.07-2.01.46-.56,1.01-1,1.65-1.3.64-.31,1.36-.46,2.15-.46.63,0,1.21.09,1.73.26s.96.46,1.33.85c.37.39.65.9.85,1.52.2.62.29,1.39.29,2.29v8.53h-2.95v-8.54c0-.63-.09-1.14-.27-1.51-.18-.37-.45-.63-.79-.79-.35-.16-.77-.24-1.29-.24s-.96.11-1.36.32-.73.5-1.01.87c-.27.37-.48.79-.63,1.27-.15.48-.22.99-.22,1.54Z"/>
      <path class="st0" d="M1165.65,608.13v10.52h-2.94v-13.21h2.77l.17,2.69ZM1165.17,611.56h-1c0-.92.11-1.77.34-2.54.23-.77.56-1.45,1-2.02.44-.57.99-1.02,1.64-1.33s1.41-.47,2.28-.47c.6,0,1.15.09,1.65.26.5.17.94.45,1.31.82.37.37.65.85.85,1.44.2.59.3,1.29.3,2.12v8.8h-2.94v-8.54c0-.64-.1-1.15-.29-1.51-.19-.37-.46-.63-.82-.79-.35-.16-.78-.24-1.26-.24-.55,0-1.02.11-1.41.32-.39.21-.7.5-.95.87-.24.37-.42.79-.54,1.27-.11.48-.17.99-.17,1.54ZM1173.36,610.78l-1.38.3c0-.8.11-1.55.34-2.26.22-.71.55-1.34.99-1.88.44-.54.97-.97,1.62-1.28s1.38-.46,2.21-.46c.67,0,1.28.09,1.81.27.53.18.99.47,1.36.86.37.39.66.9.85,1.52.2.62.29,1.37.29,2.25v8.54h-2.95v-8.56c0-.67-.1-1.18-.29-1.55s-.46-.62-.81-.76c-.35-.14-.77-.21-1.26-.21-.46,0-.86.08-1.2.25-.35.17-.64.4-.87.7s-.41.64-.53,1.02c-.12.38-.18.8-.18,1.25Z"/>
      <path class="st0" d="M1183.92,612.19v-.28c0-.95.14-1.84.42-2.66.28-.82.68-1.53,1.2-2.14.53-.61,1.17-1.08,1.93-1.42s1.62-.51,2.58-.51,1.83.17,2.59.51,1.41.81,1.93,1.42.93,1.32,1.21,2.14c.28.82.42,1.7.42,2.66v.28c0,.95-.14,1.83-.42,2.65-.28.81-.68,1.52-1.21,2.13-.53.61-1.17,1.08-1.93,1.42-.76.34-1.62.51-2.58.51s-1.83-.17-2.59-.51c-.76-.34-1.41-.81-1.94-1.42-.53-.61-.93-1.32-1.21-2.13-.28-.81-.42-1.7-.42-2.65ZM1186.86,611.91v.28c0,.59.06,1.16.18,1.68.12.53.31.99.57,1.39.26.4.59.71,1,.94s.89.34,1.45.34,1.02-.11,1.42-.34c.4-.23.73-.54,1-.94.26-.4.45-.86.58-1.39.13-.53.19-1.09.19-1.68v-.28c0-.59-.06-1.14-.19-1.67-.13-.53-.32-.99-.59-1.4-.26-.41-.6-.73-1-.96-.4-.23-.88-.35-1.43-.35s-1.03.12-1.43.35c-.4.23-.73.55-1,.96-.26.41-.45.87-.57,1.4-.12.52-.18,1.08-.18,1.67Z"/>
      <path class="st0" d="M1201.62,607.96v10.69h-2.94v-13.21h2.81l.13,2.51ZM1205.66,605.36l-.02,2.74c-.18-.03-.37-.06-.58-.07-.21-.02-.41-.02-.62-.02-.5,0-.95.07-1.33.21-.38.14-.7.35-.96.61-.26.26-.45.58-.59.96-.14.38-.22.79-.24,1.26l-.67.05c0-.83.08-1.6.24-2.31.16-.71.41-1.33.74-1.87.33-.54.75-.96,1.25-1.26.5-.3,1.08-.45,1.74-.45.18,0,.37.02.58.05.21.03.36.07.47.11Z"/>
      <path class="st0" d="M1213.09,618.89c-.98,0-1.86-.16-2.64-.48s-1.45-.77-2-1.35c-.55-.58-.97-1.26-1.26-2.04s-.44-1.62-.44-2.53v-.49c0-1.03.15-1.97.45-2.81s.72-1.56,1.26-2.15c.54-.6,1.17-1.06,1.9-1.37.73-.32,1.53-.48,2.38-.48.94,0,1.77.16,2.48.48.71.32,1.29.76,1.76,1.34.47.57.82,1.26,1.05,2.04.23.79.35,1.66.35,2.61v1.26h-10.21v-2.11h7.3v-.23c-.02-.53-.12-1.03-.31-1.49-.19-.46-.48-.84-.87-1.12-.39-.28-.91-.43-1.56-.43-.49,0-.92.1-1.3.31-.38.21-.69.51-.95.9-.25.39-.45.86-.58,1.41-.13.55-.2,1.17-.2,1.85v.49c0,.58.08,1.11.24,1.61.16.49.39.92.7,1.29.31.37.68.65,1.12.86.44.21.94.31,1.5.31.71,0,1.34-.14,1.89-.43s1.03-.69,1.44-1.21l1.55,1.5c-.29.42-.66.81-1.11,1.19-.46.38-1.01.69-1.67.92-.66.24-1.41.35-2.28.35Z"/>
      <path class="st0" d="M1234.29,615.07c0-.29-.07-.56-.22-.8s-.42-.46-.84-.65-1.01-.37-1.81-.54c-.7-.15-1.34-.34-1.92-.56-.58-.21-1.08-.48-1.5-.79s-.74-.68-.96-1.1c-.23-.42-.34-.91-.34-1.46s.12-1.05.35-1.53c.24-.48.57-.9,1.01-1.27.44-.37.97-.66,1.61-.87s1.34-.32,2.12-.32c1.11,0,2.06.19,2.85.56.79.37,1.4.87,1.82,1.5.42.63.63,1.34.63,2.13h-2.94c0-.35-.09-.68-.26-.98-.17-.3-.44-.55-.79-.74s-.79-.29-1.32-.29-.92.08-1.25.24c-.33.16-.57.36-.73.62-.16.25-.24.53-.24.83,0,.22.04.42.13.59.09.18.23.33.43.48s.48.27.84.4c.35.12.8.24,1.34.35,1.01.21,1.88.48,2.61.81.73.33,1.29.75,1.68,1.27s.59,1.17.59,1.96c0,.59-.12,1.12-.37,1.61s-.61.9-1.08,1.26c-.47.35-1.04.63-1.69.82-.66.2-1.39.29-2.2.29-1.2,0-2.21-.21-3.04-.64-.83-.43-1.46-.98-1.89-1.65-.43-.67-.64-1.37-.64-2.09h2.84c.03.55.18.98.46,1.3.27.32.61.55,1.03.7.41.14.84.21,1.28.21.53,0,.97-.07,1.33-.21.36-.14.63-.34.82-.59.19-.25.28-.53.28-.85Z"/>
      <path class="st0" d="M1245.57,618.89c-.98,0-1.86-.16-2.64-.48s-1.45-.77-2-1.35c-.55-.58-.97-1.26-1.26-2.04s-.44-1.62-.44-2.53v-.49c0-1.03.15-1.97.45-2.81s.72-1.56,1.26-2.15c.54-.6,1.17-1.06,1.9-1.37.73-.32,1.53-.48,2.38-.48.94,0,1.77.16,2.48.48.71.32,1.29.76,1.76,1.34.47.57.82,1.26,1.05,2.04.23.79.35,1.66.35,2.61v1.26h-10.21v-2.11h7.3v-.23c-.02-.53-.12-1.03-.31-1.49-.19-.46-.48-.84-.87-1.12-.39-.28-.91-.43-1.56-.43-.49,0-.92.1-1.3.31-.38.21-.69.51-.95.9-.25.39-.45.86-.58,1.41-.13.55-.2,1.17-.2,1.85v.49c0,.58.08,1.11.24,1.61.16.49.39.92.7,1.29.31.37.68.65,1.12.86.44.21.94.31,1.5.31.71,0,1.34-.14,1.89-.43s1.03-.69,1.44-1.21l1.55,1.5c-.29.42-.66.81-1.11,1.19-.46.38-1.01.69-1.67.92-.66.24-1.41.35-2.28.35Z"/>
      <path class="st0" d="M1258.53,616.55c.48,0,.91-.1,1.3-.29.39-.19.7-.46.94-.8.24-.34.37-.74.4-1.18h2.77c-.02.85-.27,1.63-.76,2.33-.49.7-1.14,1.26-1.94,1.67-.81.41-1.7.62-2.67.62s-1.89-.17-2.64-.52c-.75-.35-1.37-.82-1.87-1.43s-.87-1.31-1.12-2.11c-.25-.8-.37-1.65-.37-2.56v-.43c0-.91.12-1.77.37-2.57s.62-1.51,1.12-2.12,1.12-1.09,1.87-1.43c.75-.35,1.62-.52,2.62-.52,1.06,0,1.99.21,2.78.63.8.42,1.43,1,1.89,1.75.46.75.7,1.61.71,2.59h-2.77c-.02-.49-.14-.93-.36-1.32-.22-.39-.52-.71-.9-.95-.39-.24-.85-.35-1.39-.35-.59,0-1.09.12-1.48.36s-.7.57-.92.98c-.22.41-.38.87-.47,1.38-.09.51-.14,1.04-.14,1.58v.43c0,.55.04,1.07.13,1.59.09.51.25.97.47,1.37.22.4.53.72.92.96.39.24.89.36,1.49.36Z"/>
      <path class="st0" d="M1274.54,612.79l.99-.02c0,.89-.1,1.7-.29,2.45-.2.75-.5,1.39-.9,1.94-.41.55-.93.98-1.56,1.28-.63.31-1.4.46-2.28.46-.64,0-1.23-.09-1.77-.28-.54-.19-1-.48-1.39-.87s-.69-.9-.9-1.53c-.21-.63-.32-1.38-.32-2.25v-8.53h2.94v8.56c0,.48.06.88.17,1.2s.27.58.46.77.42.33.68.42c.26.08.54.12.83.12.84,0,1.5-.16,1.98-.49.48-.33.83-.78,1.04-1.34.21-.56.31-1.19.31-1.89ZM1274.13,615.54v-10.09h2.95v13.21h-2.78l-.17-3.11Z"/>
      <path class="st0" d="M1283.04,607.96v10.69h-2.94v-13.21h2.81l.13,2.51ZM1287.08,605.36l-.02,2.74c-.18-.03-.37-.06-.58-.07-.21-.02-.41-.02-.62-.02-.5,0-.95.07-1.33.21-.38.14-.7.35-.96.61-.26.26-.45.58-.59.96-.14.38-.22.79-.24,1.26l-.67.05c0-.83.08-1.6.24-2.31.16-.71.41-1.33.74-1.87.33-.54.75-.96,1.25-1.26.5-.3,1.08-.45,1.74-.45.18,0,.37.02.58.05.21.03.36.07.47.11Z"/>
      <path class="st0" d="M1294.51,618.89c-.98,0-1.86-.16-2.64-.48s-1.45-.77-2-1.35c-.55-.58-.97-1.26-1.26-2.04s-.44-1.62-.44-2.53v-.49c0-1.03.15-1.97.45-2.81s.72-1.56,1.26-2.15c.54-.6,1.17-1.06,1.9-1.37.73-.32,1.53-.48,2.38-.48.94,0,1.77.16,2.48.48.71.32,1.29.76,1.76,1.34.47.57.82,1.26,1.05,2.04.23.79.35,1.66.35,2.61v1.26h-10.21v-2.11h7.3v-.23c-.02-.53-.12-1.03-.31-1.49-.19-.46-.48-.84-.87-1.12-.39-.28-.91-.43-1.56-.43-.49,0-.92.1-1.3.31-.38.21-.69.51-.95.9-.25.39-.45.86-.58,1.41-.13.55-.2,1.17-.2,1.85v.49c0,.58.08,1.11.24,1.61.16.49.39.92.7,1.29.31.37.68.65,1.12.86.44.21.94.31,1.5.31.71,0,1.34-.14,1.89-.43s1.03-.69,1.44-1.21l1.55,1.5c-.29.42-.66.81-1.11,1.19-.46.38-1.01.69-1.67.92-.66.24-1.41.35-2.28.35Z"/>
      <path class="st0" d="M1302.21,617.18c0-.46.15-.84.46-1.15s.73-.47,1.26-.47.96.16,1.26.47c.31.31.46.7.46,1.15s-.15.84-.46,1.15c-.3.31-.73.46-1.26.46s-.95-.15-1.26-.46-.46-.69-.46-1.15Z"/>
    </g>
    <circle class="st0" cx="963.73" cy="391.01" r="71"/>
    <polyline class="st2" points="990.63 372.3 953.2 409.73 936.84 393.37"/>
    <circle class="st0" cx="823" cy="358.75" r="10.5"/>
    <path class="st0" d="M805.5,386.25v-5.95c0-5.55,5.75-10.05,12.84-10.05h8.32c7.09,0,12.84,4.5,12.84,10.05v5.95"/>
    <path class="st0" d="M1102.61,295.33h-.94v-6.42h0c0-9.49-7.69-17.18-17.18-17.18s-17.18,7.69-17.18,17.18v6.42h-.94c-6.57,0-11.89,5.32-11.89,11.89v21.86c0,6.57,5.32,11.89,11.89,11.89h36.22c6.57,0,11.89-5.32,11.89-11.89v-21.86c0-6.57-5.32-11.89-11.89-11.89ZM1073.52,295.33v-6.42h0c0-6.07,4.92-10.98,10.98-10.98s10.98,4.92,10.98,10.98h0v6.42h-21.97Z"/>
    <g>
      <path class="st0" d="M99.56,62.05v6.77c-.23.34-.59.72-1.09,1.14s-1.19.78-2.06,1.09-2,.46-3.38.46c-1.13,0-2.16-.2-3.1-.59s-1.76-.97-2.45-1.73-1.22-1.68-1.6-2.77-.56-2.32-.56-3.7v-1.43c0-1.38.16-2.61.49-3.69s.81-2,1.44-2.76,1.41-1.33,2.34-1.73,1.98-.59,3.17-.59c1.41,0,2.6.24,3.55.73s1.7,1.16,2.23,2.01.88,1.83,1.03,2.92h-2.45c-.11-.67-.33-1.28-.65-1.83s-.79-.99-1.39-1.33-1.38-.5-2.32-.5c-.85,0-1.6.16-2.22.47s-1.14.76-1.55,1.35-.71,1.29-.91,2.12-.3,1.76-.3,2.81v1.46c0,1.07.12,2.02.37,2.86s.61,1.55,1.07,2.14,1.02,1.03,1.67,1.34,1.36.46,2.15.46c.87,0,1.58-.07,2.12-.22s.96-.33,1.27-.53.54-.4.7-.59v-4.14h-4.28v-1.98h6.72Z"/>
      <path class="st0" d="M102.63,64.54v-.29c0-.99.14-1.91.43-2.76s.7-1.59,1.24-2.22,1.2-1.12,1.97-1.47,1.63-.53,2.59-.53,1.83.18,2.61.53,1.43.84,1.98,1.47.96,1.37,1.25,2.22.43,1.77.43,2.76v.29c0,.99-.14,1.91-.43,2.75s-.7,1.58-1.25,2.22-1.2,1.12-1.97,1.47-1.63.53-2.6.53-1.83-.18-2.6-.53-1.43-.84-1.97-1.47-.96-1.37-1.25-2.22-.43-1.76-.43-2.75ZM104.98,64.25v.29c0,.69.08,1.33.24,1.94s.4,1.14.73,1.61.73.83,1.23,1.1,1.06.4,1.71.4,1.21-.13,1.69-.4.89-.63,1.21-1.1.56-1,.73-1.61.25-1.25.25-1.94v-.29c0-.68-.08-1.32-.25-1.92s-.41-1.14-.74-1.61-.73-.84-1.22-1.11-1.06-.41-1.71-.41-1.21.14-1.69.41-.89.64-1.22,1.11-.57,1.01-.73,1.61-.24,1.25-.24,1.92Z"/>
      <path class="st0" d="M124.52,51.76h2.36v16.83l-.2,2.67h-2.16v-19.5ZM136.16,64.28v.27c0,1-.12,1.92-.36,2.77s-.58,1.59-1.04,2.22-1.02,1.11-1.68,1.46-1.42.52-2.27.52-1.64-.15-2.29-.45-1.21-.73-1.66-1.3-.81-1.25-1.07-2.06-.45-1.71-.55-2.72v-1.17c.1-1.02.29-1.93.55-2.73s.62-1.49,1.07-2.06,1-1.01,1.65-1.31,1.41-.45,2.27-.45,1.63.17,2.3.5,1.23.81,1.68,1.43.8,1.36,1.03,2.22.36,1.81.36,2.86ZM133.8,64.54v-.27c0-.69-.06-1.33-.19-1.94s-.33-1.14-.61-1.6-.65-.83-1.1-1.09-1.02-.4-1.69-.4c-.59,0-1.11.1-1.54.3s-.81.48-1.11.82-.55.73-.74,1.17-.33.89-.43,1.35v3.06c.14.59.36,1.16.67,1.71s.72.99,1.24,1.34,1.17.52,1.94.52c.63,0,1.18-.13,1.63-.39s.82-.62,1.1-1.07.49-.99.63-1.59.2-1.24.2-1.93Z"/>
      <path class="st0" d="M147.64,62.93l.03,1.65h-2.37c-.67,0-1.27.05-1.79.16s-.96.26-1.32.48-.63.48-.81.79-.28.69-.28,1.11.1.83.29,1.18.49.64.88.84.88.31,1.45.31c.72,0,1.35-.15,1.9-.46s.99-.68,1.31-1.12.5-.87.53-1.28l1,1.13c-.06.36-.22.75-.48,1.18s-.61.84-1.05,1.24-.95.72-1.55.98-1.27.39-2.01.39c-.93,0-1.75-.18-2.44-.55s-1.24-.85-1.62-1.47-.58-1.3-.58-2.06.14-1.39.43-1.95.7-1.03,1.24-1.41,1.19-.66,1.96-.86,1.61-.29,2.55-.29h2.73ZM147.23,68.91v-7.07c0-.54-.11-1.01-.32-1.42s-.54-.71-.97-.93-.96-.33-1.6-.33c-.59,0-1.11.1-1.56.3s-.79.47-1.04.8-.37.69-.37,1.07h-2.35c0-.49.13-.98.38-1.46s.62-.92,1.1-1.31,1.05-.71,1.73-.94,1.42-.35,2.25-.35c1,0,1.88.17,2.65.51s1.37.85,1.8,1.53.65,1.53.65,2.56v6.4c0,.46.04.94.12,1.46s.2.96.36,1.33v.2h-2.45c-.12-.27-.21-.63-.28-1.09s-.1-.87-.1-1.26Z"/>
      <path class="st0" d="M158.77,69.58c.56,0,1.07-.11,1.55-.34s.86-.54,1.17-.95.48-.86.52-1.38h2.23c-.04.81-.32,1.57-.82,2.27s-1.16,1.26-1.97,1.69-1.71.64-2.68.64c-1.03,0-1.93-.18-2.7-.55s-1.4-.86-1.9-1.5-.88-1.36-1.13-2.19-.37-1.7-.37-2.62v-.53c0-.92.12-1.8.37-2.62s.63-1.56,1.13-2.19,1.14-1.13,1.9-1.5,1.67-.55,2.7-.55,2.01.22,2.82.65,1.44,1.03,1.9,1.78.71,1.6.76,2.55h-2.23c-.04-.57-.2-1.08-.48-1.54s-.65-.82-1.12-1.1-1.02-.41-1.64-.41c-.72,0-1.32.14-1.81.43s-.87.66-1.16,1.14-.49,1.01-.61,1.59-.18,1.17-.18,1.77v.53c0,.6.06,1.19.18,1.78s.32,1.11.6,1.59.67.85,1.16,1.14,1.09.43,1.82.43Z"/>
      <path class="st0" d="M169.24,51.76v19.5h-2.36v-19.5h2.36ZM177.64,57.52l-5.99,6.41-3.35,3.48-.19-2.5,2.4-2.87,4.27-4.52h2.87ZM175.49,71.26l-4.9-6.55,1.22-2.09,6.45,8.65h-2.77Z"/>
    </g>
    <path class="st1" d="M53.5,63.31h18M53.73,63.66l7.28-7.28M53.73,63.66l7.28,7.28"/>
  </g>
</svg>