<?xml version="1.0" encoding="UTF-8"?>
<svg xmlns="http://www.w3.org/2000/svg" version="1.1" viewBox="0 0 510 512.25">
  <!-- Generator: Adobe Illustrator 29.8.2, SVG Export Plug-In . SVG Version: 2.1.1 Build 3)  -->
  <defs>
    <style>
      .st0 {
        fill: #fff;
      }

      .st1 {
        fill: none;
        stroke: #e87f0c;
        stroke-linecap: round;
        stroke-miterlimit: 10;
        stroke-width: 10px;
      }

      .st2 {
        fill: #212121;
      }
    </style>
  </defs>
  <g id="Layer_5">
    <rect class="st2" x="0" width="510" height="512.25"/>
  </g>
  <g id="Layer_3">
    <g>
      <g>
        <path class="st0" d="M58.87,363.74v-63.9h10.5v63.9h-10.5ZM63.93,338.96v-10.06h20.43c2.55,0,4.61-.87,6.17-2.61,1.57-1.74,2.35-4.02,2.35-6.83s-.78-5.21-2.33-6.94c-1.55-1.73-3.62-2.59-6.2-2.59h-20.43v-10.06h20.13c3.96,0,7.4.81,10.33,2.44,2.93,1.62,5.21,3.9,6.86,6.83,1.64,2.93,2.46,6.37,2.46,10.33s-.82,7.35-2.46,10.28c-1.64,2.93-3.93,5.2-6.88,6.81s-6.38,2.42-10.31,2.42h-20.13Z"/>
        <path class="st0" d="M114.02,363.74v-63.9h10.5v63.9h-10.5ZM119.6,337.2v-10.06h36.34v10.06h-36.34ZM149.66,363.74v-63.9h10.5v63.9h-10.5Z"/>
        <path class="st0" d="M175.11,363.74v-63.9h10.5v63.9h-10.5ZM180.16,338.96v-10.06h20.43c2.55,0,4.61-.87,6.17-2.61,1.57-1.74,2.35-4.02,2.35-6.83s-.78-5.21-2.33-6.94-3.62-2.59-6.2-2.59h-20.43v-10.06h20.13c3.96,0,7.4.81,10.33,2.44,2.93,1.62,5.21,3.9,6.86,6.83s2.46,6.37,2.46,10.33-.82,7.35-2.46,10.28-3.93,5.2-6.88,6.81c-2.95,1.61-6.38,2.42-10.3,2.42h-20.13Z"/>
        <path class="st0" d="M230.26,363.74v-63.9h10.46v63.9h-10.46ZM235.53,363.74v-9.93h18.85c3.75,0,6.5-.79,8.24-2.37s2.62-3.71,2.62-6.37v-.13c0-2.81-.8-5.02-2.39-6.64-1.6-1.61-4.05-2.42-7.36-2.42h-19.95v-9.84h19.95c2.9,0,5.11-.7,6.64-2.11s2.29-3.44,2.29-6.11-.81-4.64-2.42-6c-1.61-1.36-3.98-2.04-7.12-2.04h-19.34v-9.93h20.35c6.27,0,11.02,1.54,14.26,4.61,3.24,3.08,4.86,7.31,4.86,12.7,0,3.46-1.01,6.45-3.03,8.99-2.02,2.54-5.04,4.15-9.05,4.86,4.1.59,7.28,2.27,9.54,5.05s3.38,6.17,3.38,10.15v.13c0,5.36-1.7,9.6-5.1,12.72-3.4,3.12-8.1,4.68-14.11,4.68h-21.09Z"/>
        <path class="st0" d="M280.88,363.74l23.99-63.9h7.65l23.99,63.9h-11.29l-16.52-47.59-16.52,47.59h-11.29ZM292.18,351.61v-10.06h33.62v10.06h-33.62Z"/>
        <path class="st0" d="M345.31,363.7v-63.85h11.43l27.51,49.17-1.05,1.14v-50.32h10.2v63.85h-11.51l-27.42-48.43,1.05-1.14v49.57h-10.2Z"/>
        <path class="st0" d="M408.33,363.74v-63.9h10.5v63.9h-10.5ZM415.58,351.79l-.09-14.55,26.89-37.4h13.1l-39.9,51.94ZM445.55,363.74l-19.42-33.22,8.7-6.55,23.33,39.77h-12.61Z"/>
      </g>
      <g>
        <path class="st1" d="M178.55,156.14c0,17.66,34.23,31.97,76.45,31.97s76.45-14.32,76.45-31.97-34.23-31.97-76.45-31.97-76.45,14.32-76.45,31.97"/>
        <path class="st1" d="M178.55,193.33c0,17.66,34.23,31.97,76.45,31.97s76.45-14.32,76.45-31.97"/>
        <path class="st1" d="M178.55,230.58c0,17.66,34.23,31.97,76.45,31.97s76.45-14.32,76.45-31.97"/>
        <path class="st1" d="M178.56,229.82s0-.44,0-.98v-70.93"/>
      </g>
    </g>
    <path class="st1" d="M331.34,156.14c.06,0,.11.45.11,1v72.44c0,.55-.05,1-.11,1"/>
  </g>
</svg>