<?xml version="1.0" encoding="UTF-8"?>
<svg xmlns="http://www.w3.org/2000/svg" viewBox="0 0 1920 1080">
  <defs>
    <style>
      .cls-1 {
        fill: #181818;
      }

      .cls-2 {
        letter-spacing: -.01em;
      }

      .cls-3 {
        letter-spacing: 0em;
      }

      .cls-4, .cls-5, .cls-6, .cls-7, .cls-8, .cls-9 {
        fill: none;
      }

      .cls-4, .cls-6, .cls-7 {
        stroke-linejoin: round;
      }

      .cls-4, .cls-6, .cls-7, .cls-8 {
        stroke-linecap: round;
      }

      .cls-4, .cls-6, .cls-7, .cls-8, .cls-9 {
        stroke: #fff;
      }

      .cls-4, .cls-9 {
        stroke-width: 2.32px;
      }

      .cls-10, .cls-11, .cls-12, .cls-13, .cls-14, .cls-15, .cls-16, .cls-17 {
        fill: #fff;
      }

      .cls-11 {
        fill-rule: evenodd;
      }

      .cls-5 {
        stroke: #424242;
      }

      .cls-5, .cls-8 {
        stroke-miterlimit: 10;
      }

      .cls-18 {
        fill: #303030;
      }

      .cls-19 {
        letter-spacing: 0em;
      }

      .cls-12 {
        font-size: 23px;
      }

      .cls-12, .cls-13, .cls-14, .cls-20, .cls-17 {
        font-weight: 700;
      }

      .cls-12, .cls-20 {
        font-family: Roboto-Bold, Roboto;
        font-variation-settings: 'wght' 700, 'wdth' 100;
      }

      .cls-6 {
        stroke-width: 2px;
      }

      .cls-7 {
        stroke-width: 3.03px;
      }

      .cls-21 {
        letter-spacing: 0em;
      }

      .cls-22 {
        fill: #212121;
      }

      .cls-13 {
        font-size: 57px;
      }

      .cls-13, .cls-14, .cls-17 {
        font-family: Roboto-ExtraBold, Roboto;
        font-variation-settings: 'wght' 800, 'wdth' 100;
      }

      .cls-14, .cls-16 {
        font-size: 17px;
      }

      .cls-8 {
        stroke-width: 3px;
      }

      .cls-15 {
        font-family: Roboto-Light, Roboto;
        font-size: 21px;
        font-variation-settings: 'wght' 300, 'wdth' 100;
        font-weight: 300;
      }

      .cls-16 {
        font-family: Roboto-Regular, Roboto;
        font-variation-settings: 'wght' 400, 'wdth' 100;
      }

      .cls-20 {
        fill: #323232;
        font-size: 14.52px;
      }

      .cls-17 {
        font-size: 20px;
      }

      .cls-23 {
        letter-spacing: -.08em;
      }

      .cls-9 {
        stroke-miterlimit: 133.33;
      }

      .cls-24 {
        fill: #e87f0c;
      }
    </style>
  </defs>
  <g id="Layer_1" data-name="Layer 1">
    <rect class="cls-22" x="294.57" width="1625.43" height="1080"/>
    <rect class="cls-1" y="0" width="294.57" height="1080"/>
    <rect class="cls-18" x="10.2" y="199.78" width="274.17" height="44.22" rx="11.47" ry="11.47"/>
    <g>
      <text class="cls-16" transform="translate(1719.22 72.85)"><tspan class="cls-2" x="0" y="0">F</tspan><tspan x="9.22" y="0">o</tspan><tspan class="cls-21" x="18.92" y="0">r</tspan><tspan x="24.52" y="0">ename Surname</tspan></text>
      <g>
        <circle class="cls-18" cx="1680.88" cy="67.88" r="22"/>
        <g>
          <circle class="cls-10" cx="1680.88" cy="63.38" r="5"/>
          <path class="cls-10" d="M1672.38,77.38v-3.11c0-2.7,2.87-4.89,6.42-4.89h4.16c3.55,0,6.42,2.19,6.42,4.89v3.11"/>
        </g>
      </g>
    </g>
    <g>
      <text class="cls-16" transform="translate(66.67 984.32)"><tspan class="cls-2" x="0" y="0">F</tspan><tspan x="9.22" y="0">o</tspan><tspan class="cls-21" x="18.92" y="0">r</tspan><tspan x="24.52" y="0">got passwo</tspan><tspan class="cls-21" x="112.35" y="0">r</tspan><tspan x="117.95" y="0">d?</tspan></text>
      <g>
        <circle class="cls-10" cx="39.38" cy="979.35" r="10.5"/>
        <text class="cls-20" transform="translate(35.77 984.65)"><tspan x="0" y="0">?</tspan></text>
      </g>
    </g>
    <g>
      <text class="cls-16" transform="translate(66.54 1038)"><tspan x="0" y="0">C</tspan><tspan class="cls-21" x="11.06" y="0">r</tspan><tspan x="16.67" y="0">eate new account</tspan></text>
      <g>
        <circle class="cls-10" cx="35.88" cy="1029.03" r="4.5"/>
        <path class="cls-10" d="M28.88,1041.53v-2.75c0-2.35,2.37-4.25,5.29-4.25h3.43c2.92,0,5.29,1.9,5.29,4.25v2.75"/>
        <rect class="cls-10" x="45.63" y="1029.53" width="2" height="6"/>
        <rect class="cls-10" x="45.63" y="1029.53" width="2" height="6" transform="translate(1079.16 985.9) rotate(90)"/>
      </g>
    </g>
    <text class="cls-17" transform="translate(28.88 59.1)"><tspan x="0" y="0">Account Options</tspan></text>
    <g>
      <text class="cls-16" transform="translate(66.59 176.16)"><tspan x="0" y="0">Manage 2</tspan><tspan class="cls-23" x="75.06" y="0">F</tspan><tspan x="83.04" y="0">A</tspan></text>
      <path class="cls-10" d="M45.61,163.86h-.33v-2.23h0c0-3.3-2.67-5.97-5.97-5.97s-5.97,2.67-5.97,5.97v2.23h-.33c-2.28,0-4.13,1.85-4.13,4.13v7.6c0,2.28,1.85,4.13,4.13,4.13h12.59c2.28,0,4.13-1.85,4.13-4.13v-7.6c0-2.28-1.85-4.13-4.13-4.13ZM35.49,163.86v-2.23h0c0-2.11,1.71-3.82,3.82-3.82s3.82,1.71,3.82,3.82h0v2.23h-7.63Z"/>
    </g>
    <g>
      <g>
        <path class="cls-8" d="M43.38,321.75h2.83c1.2,0,2.17.97,2.17,2.17v10.66c0,1.2-.97,2.17-2.17,2.17h-2.83"/>
        <rect class="cls-10" x="28.88" y="326.25" width="8" height="6" rx="1.04" ry="1.04"/>
        <path class="cls-10" d="M34.88,323.9v11.42c0,.78,1.06,1.18,1.69.64l6.89-5.84c.43-.36.42-.95-.02-1.3l-6.89-5.57c-.64-.52-1.67-.12-1.67.66Z"/>
      </g>
      <text class="cls-14" transform="translate(65.92 334.22)"><tspan x="0" y="0">Sign Off</tspan></text>
    </g>
    <g>
      <path class="cls-11" d="M41.95,265.11c-3.3.27-6.06,2.88-6.5,6.17-.13.95-.07,1.87.15,2.73l-6.72,6.74v5.32h5.6l1.4-1.33v-2.67h2v-3h4.45c3.63.38,6.87-2.22,7.34-5.82.61-4.61-3.16-8.51-7.73-8.13ZM43.84,272.81c-1.13,0-2.04-.91-2.04-2.04s.91-2.04,2.04-2.04,2.04.91,2.04,2.04-.91,2.04-2.04,2.04Z"/>
      <text class="cls-16" transform="translate(66.59 280.54)"><tspan x="0" y="0">Change passwo</tspan><tspan class="cls-21" x="120.65" y="0">r</tspan><tspan x="126.25" y="0">d</tspan></text>
    </g>
    <g>
      <path class="cls-6" d="M47.35,227.53l-6.28-5.67M35.67,221.86l-6.28,5.67M28.92,217.14l7.72,5.4c.62.44.94.66,1.28.74.3.07.61.07.91,0,.34-.08.65-.3,1.28-.74l7.72-5.4M33.44,229.39h9.88c1.6,0,2.39,0,3-.31.54-.27.97-.7,1.25-1.23.31-.6.31-1.39.31-2.96v-6c0-1.58,0-2.36-.31-2.96-.27-.53-.71-.96-1.25-1.23-.61-.31-1.41-.31-3-.31h-9.88c-1.6,0-2.39,0-3,.31-.54.27-.97.7-1.25,1.23-.31.6-.31,1.39-.31,2.96v6c0,1.58,0,2.36.31,2.96.27.53.71.96,1.25,1.23.61.31,1.41.31,3,.31Z"/>
      <text class="cls-16" transform="translate(65.67 226.86)"><tspan x="0" y="0">Change email</tspan></text>
    </g>
    <g>
      <path class="cls-9" d="M28.88,111.07c0-5.7,1.22-6.92,6.92-6.92h7.01c5.7,0,6.92,1.22,6.92,6.92v7.01c0,5.7-1.22,6.92-6.92,6.92h-7.01c-5.7,0-6.92-1.22-6.92-6.92v-7.01Z"/>
      <path class="cls-4" d="M49.74,111.1h-20.86"/>
      <path class="cls-4" d="M35.83,125v-13.9"/>
      <text class="cls-16" transform="translate(66.66 119.54)"><tspan x="0" y="0">Dashboa</tspan><tspan class="cls-21" x="67.03" y="0">r</tspan><tspan x="72.63" y="0">d</tspan></text>
    </g>
  </g>
  <g id="Layer_2" data-name="Layer 2">
    <rect class="cls-5" x="862.57" y="493.64" width="489.43" height="70.74" rx="35.37" ry="35.37"/>
    <text class="cls-13" transform="translate(931.27 328.17)"><tspan x="0" y="0">Email Change</tspan></text>
    <rect class="cls-24" x="862.57" y="729.86" width="489.43" height="70.74" rx="35.37" ry="35.37"/>
    <text class="cls-12" transform="translate(993.55 771.95)"><tspan x="0" y="0">Confirm email change</tspan></text>
    <rect class="cls-5" x="862.57" y="395.7" width="489.43" height="70.74" rx="35.37" ry="35.37"/>
    <text class="cls-15" transform="translate(900.55 437.21)"><tspan x="0" y="0">enter passwo</tspan><tspan class="cls-19" x="123.98" y="0">r</tspan><tspan class="cls-3" x="130.85" y="0">d</tspan></text>
    <text class="cls-15" transform="translate(900.55 535.15)"><tspan x="0" y="0">enter new email</tspan></text>
    <path class="cls-7" d="M1313.3,537.87l-9.53-8.6M1295.58,529.26l-9.53,8.6M1285.34,522.09l11.71,8.2c.95.66,1.42,1,1.94,1.12.46.11.93.11,1.39,0,.52-.13.99-.46,1.94-1.12l11.71-8.2M1291.98,540.48h14.91c2.41,0,3.61,0,4.53-.47.81-.41,1.47-1.07,1.88-1.88.47-.92.47-2.12.47-4.53v-9.18c0-2.41,0-3.61-.47-4.53-.41-.81-1.07-1.47-1.88-1.88-.92-.47-2.12-.47-4.53-.47h-14.91c-2.41,0-3.61,0-4.53.47-.81.41-1.47,1.07-1.88,1.88-.47.92-.47,2.12-.47,4.53v9.18c0,2.41,0,3.61.47,4.53.41.81,1.07,1.47,1.88,1.88.92.47,2.12.47,4.53.47Z"/>
    <rect class="cls-5" x="862.57" y="591.58" width="489.43" height="70.74" rx="35.37" ry="35.37"/>
    <text class="cls-15" transform="translate(900.55 633.09)"><tspan x="0" y="0">confirm new email</tspan></text>
    <path class="cls-7" d="M1313.3,635.81l-9.53-8.6M1295.58,627.2l-9.53,8.6M1285.34,620.03l11.71,8.2c.95.66,1.42,1,1.94,1.12.46.11.93.11,1.39,0,.52-.13.99-.46,1.94-1.12l11.71-8.2M1291.98,638.42h14.91c2.41,0,3.61,0,4.53-.47.81-.41,1.47-1.07,1.88-1.88.47-.92.47-2.12.47-4.53v-9.18c0-2.41,0-3.61-.47-4.53-.41-.81-1.07-1.47-1.88-1.88-.92-.47-2.12-.47-4.53-.47h-14.91c-2.41,0-3.61,0-4.53.47-.81.41-1.47,1.07-1.88,1.88-.47.92-.47,2.12-.47,4.53v9.18c0,2.41,0,3.61.47,4.53.41.81,1.07,1.47,1.88,1.88.92.47,2.12.47,4.53.47Z"/>
    <path class="cls-10" d="M1306.44,426.89h-.36v-2.44h0c0-3.6-2.92-6.53-6.53-6.53s-6.53,2.92-6.53,6.53v2.44h-.36c-2.49,0-4.52,2.02-4.52,4.52v8.31c0,2.49,2.02,4.52,4.52,4.52h13.76c2.49,0,4.52-2.02,4.52-4.52v-8.31c0-2.49-2.02-4.52-4.52-4.52ZM1295.39,426.89v-2.44h0c0-2.3,1.87-4.17,4.17-4.17s4.17,1.87,4.17,4.17h0v2.44h-8.34Z"/>
  </g>
</svg>