<?xml version="1.0" encoding="UTF-8"?>
<svg id="Layer_2" data-name="Layer 2" xmlns="http://www.w3.org/2000/svg" viewBox="0 0 21.79 25.14">
  <defs>
    <style>
      .cls-1 {
        fill: #fff;
      }
    </style>
  </defs>
  <g id="Layer_4" data-name="Layer 4">
    <path class="cls-1" d="M17.47,8.57h-.34v-2.33h0c0-3.44-2.79-6.24-6.24-6.24s-6.24,2.79-6.24,6.24v2.33h-.34c-2.38,0-4.32,1.93-4.32,4.32v7.94c0,2.38,1.93,4.32,4.32,4.32h13.15c2.38,0,4.32-1.93,4.32-4.32v-7.94c0-2.38-1.93-4.32-4.32-4.32ZM6.91,8.57v-2.33h0c0-2.2,1.79-3.99,3.99-3.99s3.99,1.79,3.99,3.99h0v2.33h-7.98Z"/>
  </g>
</svg>