<?xml version="1.0" encoding="UTF-8"?>
<svg id="Layer_2" data-name="Layer 2" xmlns="http://www.w3.org/2000/svg" viewBox="0 0 31.95 25.98">
  <defs>
    <style>
      .cls-1 {
        fill: none;
        stroke: #fff;
        stroke-linecap: round;
        stroke-linejoin: round;
        stroke-width: 3.03px;
      }
    </style>
  </defs>
  <g id="Layer_4" data-name="Layer 4">
    <path class="cls-1" d="M29.72,21.85l-9.53-8.6M12,13.24L2.47,21.85M1.75,6.07l11.71,8.2c.95.66,1.42,1,1.94,1.12.46.11.93.11,1.39,0,.52-.13.99-.46,1.94-1.12l11.71-8.2M8.4,24.46h14.91c2.41,0,3.61,0,4.53-.47.81-.41,1.47-1.07,1.88-1.88.47-.92.47-2.12.47-4.53v-9.18c0-2.41,0-3.61-.47-4.53-.41-.81-1.07-1.47-1.88-1.88-.92-.47-2.12-.47-4.53-.47h-14.91c-2.41,0-3.61,0-4.53.47-.81.41-1.47,1.07-1.88,1.88-.47.92-.47,2.12-.47,4.53v9.18c0,2.41,0,3.61.47,4.53.41.81,1.07,1.47,1.88,1.88.92.47,2.12.47,4.53.47Z"/>
  </g>
</svg>