<?xml version="1.0" encoding="UTF-8"?>
<svg id="Layer_2" data-name="Layer 2" xmlns="http://www.w3.org/2000/svg" viewBox="0 0 262.98 229.99">
  <defs>
    <style>
      .cls-1 {
        fill: #fff;
      }
    </style>
  </defs>
  <g id="Layer_2-2" data-name="Layer 2">
    <path class="cls-1" d="M237.02,26.12h-39.87v-15.93c0-5.63-4.57-10.2-10.2-10.2h-1.7c-5.63,0-10.2,4.57-10.2,10.2v15.93h-87.11v-15.93c0-5.63-4.57-10.2-10.2-10.2h-1.7c-5.63,0-10.2,4.57-10.2,10.2v15.93H25.97C11.63,26.12,0,37.75,0,52.09v151.93c0,14.34,11.63,25.97,25.97,25.97h211.05c14.34,0,25.97-11.63,25.97-25.97V52.09c0-14.34-11.63-25.97-25.97-25.97ZM249.72,190.79c0,14.34-11.63,25.97-25.97,25.97H39.23c-14.34,0-25.97-11.63-25.97-25.97v-102.25c0-14.34,11.63-25.97,25.97-25.97h184.53c14.34,0,25.97,11.63,25.97,25.97v102.25Z"/>
  </g>
</svg>