<?xml version="1.0" encoding="UTF-8"?>
<svg xmlns="http://www.w3.org/2000/svg" version="1.1" viewBox="0 0 1920 1080">
  <!-- Generator: Adobe Illustrator 29.8.2, SVG Export Plug-In . SVG Version: 2.1.1 Build 3)  -->
  <defs>
    <style>
      .st0 {
        fill: #fff;
      }

      .st1 {
        stroke: #424242;
        stroke-miterlimit: 10;
      }

      .st1, .st2, .st3 {
        fill: none;
      }

      .st2 {
        stroke-width: 3px;
      }

      .st2, .st3 {
        stroke: #fff;
        stroke-linecap: round;
        stroke-linejoin: round;
      }

      .st3 {
        stroke-width: 3.03px;
      }

      .st4 {
        fill: #212121;
      }

      .st5 {
        fill: #e87f0c;
      }
    </style>
  </defs>
  <g id="Layer_1">
    <rect class="st4" x=".18" y="-.1" width="1920" height="1080"/>
  </g>
  <g id="Layer_2">
    <g>
      <path class="st0" d="M98.88,61.66v6.77c-.23.34-.59.72-1.09,1.14s-1.19.78-2.06,1.09-2,.46-3.38.46c-1.13,0-2.16-.2-3.1-.59s-1.76-.97-2.45-1.73-1.22-1.68-1.6-2.77-.56-2.32-.56-3.7v-1.43c0-1.38.16-2.61.49-3.69s.81-2,1.44-2.76,1.41-1.33,2.34-1.73,1.98-.59,3.17-.59c1.41,0,2.6.24,3.55.73s1.7,1.16,2.23,2.01.88,1.83,1.03,2.92h-2.45c-.11-.67-.33-1.28-.65-1.83s-.79-.99-1.39-1.33-1.38-.5-2.32-.5c-.85,0-1.6.16-2.22.47s-1.14.76-1.55,1.35-.71,1.29-.91,2.12-.3,1.76-.3,2.81v1.46c0,1.07.12,2.02.37,2.86s.61,1.55,1.07,2.14,1.02,1.03,1.67,1.34,1.36.46,2.15.46c.87,0,1.58-.07,2.12-.22s.96-.33,1.27-.53.54-.4.7-.59v-4.14h-4.28v-1.98h6.72Z"/>
      <path class="st0" d="M101.95,64.15v-.29c0-.99.14-1.91.43-2.76s.7-1.59,1.24-2.22,1.2-1.12,1.97-1.47,1.63-.53,2.59-.53,1.83.18,2.61.53,1.43.84,1.98,1.47.96,1.37,1.25,2.22.43,1.77.43,2.76v.29c0,.99-.14,1.91-.43,2.75s-.7,1.58-1.25,2.22-1.2,1.12-1.97,1.47-1.63.53-2.6.53-1.83-.18-2.6-.53-1.43-.84-1.97-1.47-.96-1.37-1.25-2.22-.43-1.76-.43-2.75ZM104.3,63.85v.29c0,.69.08,1.33.24,1.94s.4,1.14.73,1.61.73.83,1.23,1.1,1.06.4,1.71.4,1.21-.13,1.69-.4.89-.63,1.21-1.1.56-1,.73-1.61.25-1.25.25-1.94v-.29c0-.68-.08-1.32-.25-1.92s-.41-1.14-.74-1.61-.73-.84-1.22-1.11-1.06-.41-1.71-.41-1.21.14-1.69.41-.89.64-1.22,1.11-.57,1.01-.73,1.61-.24,1.25-.24,1.92Z"/>
      <path class="st0" d="M123.84,51.36h2.36v16.83l-.2,2.67h-2.16v-19.5ZM135.48,63.88v.27c0,1-.12,1.92-.36,2.77s-.58,1.59-1.04,2.22-1.02,1.11-1.68,1.46-1.42.52-2.27.52-1.64-.15-2.29-.45-1.21-.73-1.66-1.3-.81-1.25-1.07-2.06-.45-1.71-.55-2.72v-1.17c.1-1.02.29-1.93.55-2.73s.62-1.49,1.07-2.06,1-1.01,1.65-1.31,1.41-.45,2.27-.45,1.63.17,2.3.5,1.23.81,1.68,1.43.8,1.36,1.03,2.22.36,1.81.36,2.86ZM133.12,64.15v-.27c0-.69-.06-1.33-.19-1.94s-.33-1.14-.61-1.6-.65-.83-1.1-1.09-1.02-.4-1.69-.4c-.59,0-1.11.1-1.54.3s-.81.48-1.11.82-.55.73-.74,1.17-.33.89-.43,1.35v3.06c.14.59.36,1.16.67,1.71s.72.99,1.24,1.34,1.17.52,1.94.52c.63,0,1.18-.13,1.63-.39s.82-.62,1.1-1.07.49-.99.63-1.59.2-1.24.2-1.93Z"/>
      <path class="st0" d="M146.96,62.53l.03,1.65h-2.37c-.67,0-1.27.05-1.79.16s-.96.26-1.32.48-.63.48-.81.79-.28.69-.28,1.11.1.83.29,1.18.49.64.88.84.88.31,1.45.31c.72,0,1.35-.15,1.9-.46s.99-.68,1.31-1.12.5-.87.53-1.28l1,1.13c-.06.36-.22.75-.48,1.18s-.61.84-1.05,1.24-.95.72-1.55.98-1.27.39-2.01.39c-.93,0-1.75-.18-2.44-.55s-1.24-.85-1.62-1.47-.58-1.3-.58-2.06.14-1.39.43-1.95.7-1.03,1.24-1.41,1.19-.66,1.96-.86,1.61-.29,2.55-.29h2.73ZM146.55,68.51v-7.07c0-.54-.11-1.01-.32-1.42s-.54-.71-.97-.93-.96-.33-1.6-.33c-.59,0-1.11.1-1.56.3s-.79.47-1.04.8-.37.69-.37,1.07h-2.35c0-.49.13-.98.38-1.46s.62-.92,1.1-1.31,1.05-.71,1.73-.94,1.42-.35,2.25-.35c1,0,1.88.17,2.65.51s1.37.85,1.8,1.53.65,1.53.65,2.56v6.4c0,.46.04.94.12,1.46s.2.96.36,1.33v.2h-2.45c-.12-.27-.21-.63-.28-1.09s-.1-.87-.1-1.26Z"/>
      <path class="st0" d="M158.09,69.19c.56,0,1.07-.11,1.55-.34s.86-.54,1.17-.95.48-.86.52-1.38h2.23c-.04.81-.32,1.57-.82,2.27s-1.16,1.26-1.97,1.69-1.71.64-2.68.64c-1.03,0-1.93-.18-2.7-.55s-1.4-.86-1.9-1.5-.88-1.36-1.13-2.19-.37-1.7-.37-2.62v-.53c0-.92.12-1.8.37-2.62s.63-1.56,1.13-2.19,1.14-1.13,1.9-1.5,1.67-.55,2.7-.55,2.01.22,2.82.65,1.44,1.03,1.9,1.78.71,1.6.76,2.55h-2.23c-.04-.57-.2-1.08-.48-1.54s-.65-.82-1.12-1.1-1.02-.41-1.64-.41c-.72,0-1.32.14-1.81.43s-.87.66-1.16,1.14-.49,1.01-.61,1.59-.18,1.17-.18,1.77v.53c0,.6.06,1.19.18,1.78s.32,1.11.6,1.59.67.85,1.16,1.14,1.09.43,1.82.43Z"/>
      <path class="st0" d="M168.56,51.36v19.5h-2.36v-19.5h2.36ZM176.95,57.13l-5.99,6.41-3.35,3.48-.19-2.5,2.4-2.87,4.27-4.52h2.87ZM174.81,70.86l-4.9-6.55,1.22-2.09,6.45,8.65h-2.77Z"/>
    </g>
    <path class="st2" d="M53.5,63.31h17M53.05,63.26l7.28-7.28M53.05,63.26l7.28,7.28"/>
    <g>
      <rect class="st1" x="715.29" y="444.67" width="489.43" height="70.74" rx="35.37" ry="35.37"/>
      <g>
        <path class="st0" d="M727.46,336.44h15.56c3.1,0,5.78.46,8.06,1.39,2.27.93,4.02,2.3,5.25,4.12,1.22,1.82,1.84,4.06,1.84,6.74,0,2.23-.36,4.12-1.09,5.68s-1.74,2.85-3.05,3.87c-1.31,1.02-2.83,1.85-4.58,2.48l-2.95,1.61h-13.25l-.06-7.04h9.85c1.35,0,2.48-.24,3.37-.72.89-.48,1.56-1.16,2.02-2.05.45-.88.68-1.92.68-3.1s-.23-2.28-.7-3.17c-.46-.89-1.15-1.57-2.05-2.05-.9-.47-2.02-.71-3.35-.71h-6.48v33.48h-9.07v-40.52ZM749.9,376.97l-9.1-18.01,9.57-.03,9.24,17.62v.42h-9.71Z"/>
        <path class="st0" d="M778.06,377.52c-2.39,0-4.54-.38-6.43-1.14s-3.49-1.81-4.8-3.16c-1.31-1.35-2.31-2.9-2.99-4.66-.69-1.76-1.03-3.65-1.03-5.65v-1.06c0-2.24.32-4.31.95-6.21.63-1.89,1.55-3.54,2.77-4.94,1.21-1.4,2.71-2.49,4.49-3.26s3.81-1.16,6.1-1.16c2.13,0,4.04.35,5.71,1.04,1.67.7,3.08,1.69,4.23,2.98,1.15,1.29,2.03,2.84,2.63,4.65.6,1.81.9,3.84.9,6.08v3.56h-24.27v-5.59h15.75v-.67c0-1.06-.19-1.99-.57-2.78-.38-.8-.94-1.41-1.67-1.85-.73-.44-1.66-.65-2.77-.65s-1.94.22-2.64.67c-.71.45-1.27,1.07-1.68,1.88-.42.81-.72,1.74-.9,2.81-.19,1.07-.28,2.21-.28,3.44v1.06c0,1.17.16,2.24.47,3.2.32.96.78,1.79,1.39,2.48.61.69,1.35,1.22,2.23,1.61.87.39,1.86.58,2.98.58,1.37,0,2.68-.26,3.92-.79,1.24-.53,2.32-1.36,3.23-2.49l4.06,4.65c-.61.89-1.47,1.75-2.57,2.57s-2.43,1.5-3.97,2.02c-1.54.52-3.28.78-5.23.78Z"/>
        <path class="st0" d="M807.37,370.76c.93,0,1.73-.18,2.42-.53.69-.35,1.22-.85,1.6-1.49.38-.64.57-1.41.57-2.32h8.18c0,2.19-.56,4.12-1.68,5.79s-2.63,2.97-4.52,3.91c-1.89.94-4.03,1.41-6.4,1.41s-4.38-.39-6.12-1.16c-1.74-.77-3.2-1.85-4.37-3.24s-2.05-3.01-2.63-4.86c-.58-1.85-.88-3.85-.88-6v-.72c0-2.13.29-4.13.88-5.98.58-1.85,1.46-3.48,2.63-4.87s2.62-2.47,4.36-3.24c1.73-.77,3.77-1.16,6.11-1.16,2.47,0,4.65.47,6.55,1.42s3.39,2.31,4.47,4.08c1.08,1.77,1.61,3.9,1.61,6.39h-8.18c0-.96-.17-1.83-.52-2.6s-.86-1.38-1.56-1.84c-.7-.45-1.55-.68-2.57-.68s-1.93.23-2.6.68-1.19,1.08-1.54,1.88c-.35.8-.59,1.7-.72,2.71-.13,1.01-.19,2.08-.19,3.21v.72c0,1.15.06,2.24.19,3.27.13,1.03.38,1.93.74,2.71.36.78.88,1.39,1.54,1.84s1.55.67,2.64.67Z"/>
        <path class="st0" d="M823.21,362.22v-.58c0-2.21.32-4.24.95-6.11.63-1.87,1.56-3.48,2.78-4.86,1.22-1.37,2.73-2.44,4.51-3.21s3.82-1.16,6.12-1.16,4.4.39,6.19,1.16c1.79.77,3.3,1.84,4.52,3.21,1.22,1.37,2.15,2.99,2.78,4.86.63,1.86.95,3.9.95,6.11v.58c0,2.19-.32,4.22-.95,6.08-.63,1.87-1.56,3.49-2.78,4.87s-2.73,2.45-4.51,3.21-3.83,1.14-6.15,1.14-4.35-.38-6.15-1.14c-1.8-.76-3.31-1.83-4.54-3.21s-2.15-3.01-2.78-4.87c-.63-1.86-.95-3.89-.95-6.08ZM831.92,361.63v.58c0,1.19.1,2.3.29,3.34.2,1.04.52,1.95.96,2.73s1.03,1.39,1.77,1.82,1.63.65,2.69.65,1.95-.22,2.67-.65,1.31-1.04,1.75-1.82.77-1.69.96-2.73c.2-1.04.29-2.15.29-3.34v-.58c0-1.17-.1-2.27-.29-3.3-.19-1.03-.51-1.94-.96-2.74-.45-.8-1.03-1.42-1.77-1.86s-1.64-.67-2.71-.67-1.92.22-2.64.67-1.31,1.07-1.75,1.86c-.45.8-.77,1.71-.96,2.74-.19,1.03-.29,2.13-.29,3.3Z"/>
        <path class="st0" d="M862.64,346.85l6.26,23.99.06,6.12h-5.48l-9.99-30.11h9.16ZM866.71,370.82l6.29-23.96h9.13l-9.99,30.11h-5.48l.06-6.15Z"/>
        <path class="st0" d="M899.13,377.52c-2.39,0-4.54-.38-6.43-1.14s-3.49-1.81-4.8-3.16c-1.31-1.35-2.31-2.9-2.99-4.66-.69-1.76-1.03-3.65-1.03-5.65v-1.06c0-2.24.32-4.31.95-6.21.63-1.89,1.55-3.54,2.77-4.94,1.21-1.4,2.71-2.49,4.49-3.26s3.81-1.16,6.1-1.16c2.13,0,4.04.35,5.71,1.04,1.67.7,3.08,1.69,4.23,2.98,1.15,1.29,2.03,2.84,2.63,4.65.6,1.81.9,3.84.9,6.08v3.56h-24.27v-5.59h15.75v-.67c0-1.06-.19-1.99-.57-2.78-.38-.8-.94-1.41-1.67-1.85-.73-.44-1.66-.65-2.77-.65s-1.94.22-2.64.67c-.71.45-1.27,1.07-1.68,1.88-.42.81-.72,1.74-.9,2.81-.19,1.07-.28,2.21-.28,3.44v1.06c0,1.17.16,2.24.47,3.2.32.96.78,1.79,1.39,2.48.61.69,1.35,1.22,2.23,1.61.87.39,1.86.58,2.98.58,1.37,0,2.68-.26,3.92-.79,1.24-.53,2.32-1.36,3.23-2.49l4.06,4.65c-.61.89-1.47,1.75-2.57,2.57s-2.43,1.5-3.97,2.02c-1.54.52-3.28.78-5.23.78Z"/>
        <path class="st0" d="M924.57,353.87v23.1h-8.68v-30.11h8.15l.53,7.01ZM933.56,346.63l-.14,8.1c-.37-.06-.85-.11-1.45-.15-.59-.05-1.1-.07-1.53-.07-1.11,0-2.07.13-2.88.4-.81.27-1.47.66-2,1.18-.53.52-.92,1.16-1.18,1.93-.26.77-.39,1.66-.39,2.66l-1.64-.81c0-1.99.19-3.8.58-5.46.39-1.65.96-3.08,1.7-4.3.74-1.22,1.65-2.16,2.73-2.83,1.08-.67,2.3-1,3.67-1,.45,0,.9.03,1.36.08.46.06.85.14,1.17.25Z"/>
        <path class="st0" d="M960,352.64v35.9h-8.68v-41.69h8.1l.58,5.79ZM978.79,361.58v.58c0,2.19-.25,4.22-.75,6.08-.5,1.87-1.25,3.49-2.24,4.88s-2.21,2.47-3.66,3.24c-1.45.77-3.12,1.16-5.04,1.16s-3.39-.39-4.72-1.16c-1.33-.77-2.44-1.85-3.34-3.23-.9-1.38-1.62-2.97-2.17-4.76s-.97-3.71-1.27-5.75v-1.14c.3-2.17.72-4.18,1.28-6.04.56-1.85,1.28-3.47,2.17-4.83.89-1.36,1.99-2.43,3.31-3.19,1.32-.76,2.88-1.14,4.7-1.14s3.57.36,5.04,1.09c1.47.72,2.7,1.76,3.69,3.1.99,1.35,1.74,2.96,2.24,4.83.5,1.87.75,3.96.75,6.26ZM970.08,362.16v-.58c0-1.22-.09-2.35-.28-3.38-.19-1.03-.48-1.93-.89-2.7-.41-.77-.95-1.37-1.61-1.79-.67-.43-1.48-.64-2.45-.64-1.04,0-1.92.17-2.64.5-.72.33-1.31.82-1.75,1.46-.45.64-.76,1.42-.96,2.35-.2.93-.3,1.99-.32,3.17v3.06c.02,1.39.22,2.63.6,3.72.38,1.08.98,1.93,1.81,2.53.82.6,1.93.9,3.32.9.98,0,1.8-.22,2.46-.65.66-.44,1.19-1.05,1.59-1.85.4-.8.69-1.72.86-2.76.18-1.04.26-2.15.26-3.34Z"/>
        <path class="st0" d="M1000.41,358.6l.06,4.79h-4.31c-.97,0-1.8.12-2.49.36-.7.24-1.26.57-1.68.99-.43.42-.74.9-.93,1.45-.2.55-.29,1.15-.29,1.8,0,.61.15,1.16.45,1.66.3.49.71.88,1.22,1.16s1.12.42,1.81.42c1.13,0,2.1-.22,2.91-.67.81-.45,1.43-.99,1.88-1.63.45-.64.67-1.24.67-1.79l2.09,3.62c-.33.74-.74,1.51-1.22,2.3-.48.79-1.09,1.52-1.84,2.2-.74.68-1.64,1.23-2.69,1.66s-2.31.64-3.77.64c-1.89,0-3.61-.39-5.15-1.16-1.54-.77-2.77-1.83-3.69-3.19-.92-1.35-1.38-2.91-1.38-4.68,0-1.58.29-2.98.86-4.2.57-1.22,1.44-2.26,2.6-3.12,1.16-.85,2.62-1.5,4.38-1.93s3.82-.65,6.18-.65h4.34ZM999.33,369.79v-12.91c0-.91-.14-1.69-.42-2.34-.28-.65-.71-1.16-1.31-1.53-.59-.37-1.36-.56-2.31-.56-.8,0-1.49.14-2.07.42-.58.28-1.03.68-1.34,1.2-.31.52-.46,1.16-.46,1.92h-8.68c0-1.35.31-2.62.92-3.79s1.49-2.2,2.63-3.09c1.14-.89,2.51-1.58,4.11-2.07,1.6-.49,3.39-.74,5.37-.74,2.36,0,4.46.39,6.3,1.18,1.85.79,3.31,1.97,4.38,3.54s1.62,3.54,1.62,5.91v12.61c0,1.82.11,3.24.32,4.27.21,1.03.52,1.93.93,2.69v.47h-8.77c-.41-.87-.71-1.95-.92-3.24s-.31-2.6-.31-3.94Z"/>
        <path class="st0" d="M1029.8,368.59c0-.56-.17-1.05-.51-1.48-.34-.43-.96-.82-1.84-1.17-.88-.35-2.12-.71-3.72-1.06-1.5-.32-2.9-.73-4.2-1.24-1.3-.51-2.43-1.13-3.4-1.87-.96-.73-1.72-1.6-2.25-2.62-.54-1.01-.81-2.17-.81-3.46s.27-2.46.82-3.59c.55-1.13,1.35-2.13,2.39-3.01,1.05-.87,2.33-1.56,3.84-2.06s3.23-.75,5.16-.75c2.65,0,4.94.41,6.87,1.24,1.93.83,3.41,1.98,4.45,3.45,1.04,1.48,1.56,3.16,1.56,5.05h-8.68c0-.78-.15-1.46-.45-2.03-.3-.57-.75-1.02-1.36-1.35-.61-.32-1.42-.49-2.42-.49-.78,0-1.46.13-2.04.4-.58.27-1.04.64-1.36,1.1-.32.46-.49,1-.49,1.61,0,.43.1.81.29,1.15.19.34.5.66.92.95.42.29.96.54,1.64.77.68.22,1.51.44,2.49.64,2.1.39,4.01.94,5.75,1.64,1.73.71,3.13,1.68,4.17,2.92,1.05,1.24,1.57,2.89,1.57,4.93,0,1.34-.3,2.56-.9,3.67-.6,1.11-1.47,2.09-2.6,2.92s-2.49,1.48-4.06,1.95-3.36.7-5.34.7c-2.84,0-5.24-.51-7.21-1.53-1.97-1.02-3.45-2.31-4.44-3.85-.99-1.55-1.49-3.14-1.49-4.77h8.16c.04,1,.29,1.82.76,2.45.47.63,1.09,1.09,1.85,1.38.76.29,1.62.43,2.56.43s1.74-.13,2.37-.39c.63-.26,1.11-.62,1.45-1.07s.5-.98.5-1.57Z"/>
        <path class="st0" d="M1059.05,368.59c0-.56-.17-1.05-.51-1.48-.34-.43-.96-.82-1.84-1.17-.88-.35-2.12-.71-3.72-1.06-1.5-.32-2.9-.73-4.2-1.24-1.3-.51-2.43-1.13-3.4-1.87-.96-.73-1.72-1.6-2.25-2.62-.54-1.01-.81-2.17-.81-3.46s.27-2.46.82-3.59c.55-1.13,1.35-2.13,2.39-3.01,1.05-.87,2.33-1.56,3.84-2.06s3.23-.75,5.16-.75c2.65,0,4.94.41,6.87,1.24,1.93.83,3.41,1.98,4.45,3.45,1.04,1.48,1.56,3.16,1.56,5.05h-8.68c0-.78-.15-1.46-.45-2.03-.3-.57-.75-1.02-1.36-1.35-.61-.32-1.42-.49-2.42-.49-.78,0-1.46.13-2.04.4-.58.27-1.04.64-1.36,1.1-.32.46-.49,1-.49,1.61,0,.43.1.81.29,1.15.19.34.5.66.92.95.42.29.96.54,1.64.77.68.22,1.51.44,2.49.64,2.1.39,4.01.94,5.75,1.64,1.73.71,3.13,1.68,4.17,2.92,1.05,1.24,1.57,2.89,1.57,4.93,0,1.34-.3,2.56-.9,3.67-.6,1.11-1.47,2.09-2.6,2.92s-2.49,1.48-4.06,1.95-3.36.7-5.34.7c-2.84,0-5.24-.51-7.21-1.53-1.97-1.02-3.45-2.31-4.44-3.85-.99-1.55-1.49-3.14-1.49-4.77h8.16c.04,1,.29,1.82.76,2.45.47.63,1.09,1.09,1.85,1.38.76.29,1.62.43,2.56.43s1.74-.13,2.37-.39c.63-.26,1.11-.62,1.45-1.07s.5-.98.5-1.57Z"/>
        <path class="st0" d="M1078.45,346.85l3.95,21.65.42,8.46h-5.34l-7.4-30.11h8.38ZM1081.15,368.59l5.9-21.74h5.48l-1.87,9.69-5.9,20.43h-4.48l.86-8.38ZM1093.2,346.85l5.96,21.63.86,8.49h-4.54l-5.84-20.4-1.78-9.71h5.34ZM1097.88,368.09l3.92-21.24h8.38l-7.35,30.11h-5.34l.39-8.88Z"/>
        <path class="st0" d="M1112.63,362.22v-.58c0-2.21.31-4.24.95-6.11.63-1.87,1.56-3.48,2.78-4.86,1.22-1.37,2.73-2.44,4.51-3.21s3.82-1.16,6.12-1.16,4.4.39,6.19,1.16c1.79.77,3.3,1.84,4.52,3.21,1.22,1.37,2.15,2.99,2.78,4.86.63,1.86.95,3.9.95,6.11v.58c0,2.19-.32,4.22-.95,6.08-.63,1.87-1.56,3.49-2.78,4.87s-2.73,2.45-4.51,3.21-3.83,1.14-6.15,1.14-4.35-.38-6.15-1.14-3.31-1.83-4.54-3.21-2.15-3.01-2.78-4.87c-.63-1.86-.95-3.89-.95-6.08ZM1121.34,361.63v.58c0,1.19.1,2.3.29,3.34.2,1.04.51,1.95.96,2.73s1.03,1.39,1.77,1.82,1.63.65,2.69.65,1.95-.22,2.67-.65c.72-.44,1.31-1.04,1.75-1.82s.77-1.69.96-2.73c.2-1.04.29-2.15.29-3.34v-.58c0-1.17-.1-2.27-.29-3.3-.19-1.03-.51-1.94-.96-2.74-.45-.8-1.03-1.42-1.77-1.86s-1.64-.67-2.71-.67-1.92.22-2.64.67-1.31,1.07-1.75,1.86c-.45.8-.76,1.71-.96,2.74-.19,1.03-.29,2.13-.29,3.3Z"/>
        <path class="st0" d="M1154.71,353.87v23.1h-8.68v-30.11h8.16l.53,7.01ZM1163.7,346.63l-.14,8.1c-.37-.06-.85-.11-1.45-.15-.59-.05-1.1-.07-1.53-.07-1.11,0-2.07.13-2.88.4-.81.27-1.47.66-2,1.18-.53.52-.92,1.16-1.18,1.93s-.39,1.66-.39,2.66l-1.64-.81c0-1.99.2-3.8.58-5.46.39-1.65.96-3.08,1.7-4.3.74-1.22,1.65-2.16,2.73-2.83s2.3-1,3.67-1c.45,0,.9.03,1.36.08s.85.14,1.17.25Z"/>
        <path class="st0" d="M1165.48,362.27v-.58c0-2.28.25-4.36.77-6.25.51-1.88,1.26-3.51,2.25-4.87.99-1.36,2.22-2.42,3.69-3.16,1.47-.74,3.15-1.11,5.04-1.11,1.74,0,3.27.39,4.56,1.16s2.41,1.85,3.33,3.23c.92,1.38,1.67,3.01,2.24,4.87.58,1.87,1.01,3.88,1.31,6.05v1c-.28,2.08-.71,4.02-1.29,5.82-.58,1.8-1.34,3.38-2.25,4.75-.92,1.36-2.03,2.43-3.34,3.2-1.31.77-2.84,1.16-4.61,1.16-1.89,0-3.57-.38-5.02-1.14-1.46-.76-2.68-1.83-3.66-3.2-.98-1.37-1.73-2.99-2.24-4.84-.51-1.85-.77-3.88-.77-6.07ZM1174.17,361.69v.58c0,1.19.09,2.29.26,3.31.18,1.02.47,1.92.88,2.7s.95,1.39,1.62,1.82,1.48.65,2.45.65c1.3,0,2.37-.3,3.2-.9.83-.6,1.47-1.44,1.89-2.52.43-1.08.65-2.33.67-3.76v-2.92c0-1.19-.12-2.25-.36-3.2s-.6-1.74-1.07-2.39c-.47-.65-1.06-1.15-1.77-1.49-.71-.34-1.54-.52-2.51-.52s-1.75.22-2.42.65c-.67.44-1.21,1.04-1.63,1.82-.42.78-.72,1.69-.92,2.74-.19,1.05-.29,2.19-.29,3.41ZM1184.24,370.23v-36.01h8.74v42.75h-7.85l-.89-6.74Z"/>
      </g>
      <rect class="st5" x="715.29" y="681.06" width="489.43" height="70.74" rx="35.37" ry="35.37"/>
      <g>
        <path class="st0" d="M880.9,706.79h3.36v10.8c0,1.26-.27,2.32-.8,3.18-.54.86-1.27,1.51-2.21,1.94s-2.02.65-3.24.65-2.3-.22-3.25-.65-1.69-1.08-2.22-1.94c-.54-.86-.8-1.92-.8-3.18v-10.8h3.37v10.8c0,.73.12,1.33.35,1.8s.57.8,1,1.02c.44.22.96.33,1.56.33s1.14-.11,1.57-.33c.43-.22.76-.56.99-1.02s.34-1.06.34-1.8v-10.8Z"/>
        <path class="st0" d="M890.06,713.33v14.49h-3.23v-16.82h3l.24,2.34ZM897.76,716.94v.24c0,.88-.1,1.7-.31,2.46-.21.76-.51,1.41-.9,1.97-.4.56-.89.99-1.48,1.3s-1.26.47-2.03.47-1.39-.15-1.93-.45c-.55-.3-1.01-.72-1.38-1.26-.37-.54-.67-1.17-.89-1.89s-.4-1.49-.52-2.31v-.62c.12-.88.29-1.69.52-2.43s.52-1.38.89-1.92c.37-.54.83-.96,1.37-1.26s1.18-.45,1.91-.45c.77,0,1.45.15,2.04.44.59.29,1.08.71,1.48,1.26.4.55.7,1.2.91,1.95.21.76.31,1.6.31,2.52ZM894.51,717.17v-.24c0-.52-.04-.99-.13-1.43-.09-.44-.22-.82-.4-1.15-.18-.33-.42-.59-.72-.77s-.65-.28-1.07-.28c-.44,0-.82.07-1.13.21-.31.14-.56.35-.76.62-.2.27-.34.59-.44.97s-.16.8-.18,1.27v1.56c.04.55.14,1.05.31,1.49.17.44.44.78.8,1.04.36.25.83.38,1.41.38.43,0,.79-.09,1.08-.29.29-.19.53-.45.71-.79.18-.34.31-.73.39-1.17.08-.44.12-.92.12-1.43Z"/>
        <path class="st0" d="M899.26,717.22v-.24c0-.93.11-1.77.31-2.53.21-.76.52-1.41.92-1.96.4-.55.9-.97,1.49-1.27s1.27-.45,2.02-.45c.71,0,1.33.15,1.87.45s.99.72,1.37,1.27c.38.55.68,1.2.92,1.94s.4,1.56.51,2.44v.52c-.11.85-.27,1.63-.51,2.36s-.54,1.36-.92,1.9-.84.96-1.38,1.26-1.17.45-1.89.45c-.76,0-1.43-.15-2.02-.46-.59-.31-1.08-.74-1.48-1.29s-.71-1.21-.92-1.95c-.21-.75-.31-1.56-.31-2.45ZM902.49,716.98v.24c0,.5.04.97.12,1.4.08.43.21.82.39,1.15s.42.59.72.78.66.28,1.08.28c.55,0,1.01-.13,1.37-.38s.63-.6.83-1.04c.19-.44.3-.95.33-1.53v-1.47c-.02-.47-.09-.9-.2-1.27s-.27-.7-.47-.97-.46-.48-.76-.63c-.3-.15-.66-.22-1.07-.22s-.78.1-1.08.29c-.3.19-.54.45-.72.78-.18.33-.32.72-.4,1.16s-.13.93-.13,1.44ZM906.94,720.5v-14.6h3.26v17.25h-2.93l-.33-2.65Z"/>
        <path class="st0" d="M919.7,715.75l.02,1.83h-1.81c-.43,0-.8.05-1.11.15-.31.1-.57.23-.78.41-.2.18-.35.38-.44.61s-.14.49-.14.76.06.53.19.75.31.39.55.52c.24.12.52.19.84.19.49,0,.91-.1,1.27-.29.36-.19.64-.43.84-.72.2-.28.3-.55.31-.81l.85,1.37c-.12.31-.28.62-.49.95s-.47.64-.78.93-.69.52-1.13.71c-.44.18-.97.28-1.57.28-.77,0-1.47-.16-2.09-.47s-1.12-.74-1.48-1.29c-.36-.55-.54-1.18-.54-1.88,0-.64.12-1.2.36-1.7s.59-.91,1.06-1.25,1.05-.6,1.76-.77c.7-.18,1.52-.26,2.45-.26h1.88ZM919.27,720.41v-5.41c0-.39-.06-.72-.19-1-.13-.28-.32-.5-.59-.66s-.61-.24-1.03-.24c-.36,0-.67.06-.93.18-.26.12-.46.3-.61.53s-.21.5-.21.8h-3.23c0-.52.12-1.01.36-1.47.24-.46.59-.88,1.04-1.23s1-.63,1.63-.84c.63-.2,1.34-.3,2.13-.3.94,0,1.78.16,2.52.47.73.31,1.31.79,1.74,1.42s.63,1.42.63,2.36v5.2c0,.67.04,1.21.12,1.63.08.42.2.79.36,1.11v.19h-3.27c-.16-.33-.28-.74-.35-1.24-.08-.5-.12-1-.12-1.5Z"/>
        <path class="st0" d="M930.97,711v2.29h-7.08v-2.29h7.08ZM925.65,708h3.23v11.49c0,.35.05.62.14.81s.23.32.42.39.42.11.71.11c.2,0,.38,0,.54-.03s.3-.04.41-.06v2.38c-.27.09-.57.16-.89.21-.32.05-.68.08-1.07.08-.71,0-1.33-.12-1.86-.35-.53-.24-.93-.62-1.22-1.14-.28-.52-.43-1.21-.43-2.07v-11.81Z"/>
        <path class="st0" d="M938.4,723.37c-.94,0-1.79-.15-2.54-.46-.75-.3-1.38-.72-1.9-1.26s-.92-1.17-1.2-1.88-.42-1.48-.42-2.29v-.45c0-.92.13-1.76.39-2.53s.64-1.43,1.13-1.99,1.09-.99,1.79-1.3c.7-.3,1.5-.46,2.38-.46s1.62.14,2.29.43,1.23.69,1.68,1.21.8,1.15,1.03,1.88c.23.73.35,1.54.35,2.43v1.35h-9.66v-2.16h6.48v-.25c0-.45-.08-.85-.24-1.21s-.4-.64-.72-.85c-.32-.21-.73-.31-1.24-.31-.43,0-.79.09-1.1.28-.31.19-.56.45-.75.79-.19.34-.33.73-.43,1.18s-.14.95-.14,1.49v.45c0,.49.07.94.21,1.35s.34.77.59,1.07c.26.3.57.53.94.7.37.16.79.25,1.26.25.58,0,1.13-.11,1.63-.34.51-.23.94-.58,1.31-1.04l1.57,1.71c-.25.37-.6.72-1.04,1.06-.44.34-.96.61-1.58.83-.61.21-1.31.32-2.1.32Z"/>
        <path class="st0" d="M954.18,713.33v14.49h-3.23v-16.82h3l.24,2.34ZM961.87,716.94v.24c0,.88-.1,1.7-.31,2.46-.21.76-.51,1.41-.9,1.97-.4.56-.89.99-1.48,1.3s-1.26.47-2.03.47-1.39-.15-1.93-.45c-.55-.3-1.01-.72-1.38-1.26-.37-.54-.67-1.17-.89-1.89s-.4-1.49-.52-2.31v-.62c.12-.88.29-1.69.52-2.43s.52-1.38.89-1.92c.37-.54.83-.96,1.37-1.26s1.18-.45,1.91-.45c.77,0,1.45.15,2.04.44.59.29,1.08.71,1.48,1.26.4.55.7,1.2.91,1.95.21.76.31,1.6.31,2.52ZM958.62,717.17v-.24c0-.52-.04-.99-.13-1.43-.09-.44-.22-.82-.4-1.15-.18-.33-.42-.59-.72-.77s-.65-.28-1.07-.28c-.44,0-.82.07-1.13.21-.31.14-.56.35-.76.62-.2.27-.34.59-.44.97s-.16.8-.18,1.27v1.56c.04.55.14,1.05.31,1.49.17.44.44.78.8,1.04.36.25.83.38,1.41.38.43,0,.79-.09,1.08-.29.29-.19.53-.45.71-.79.18-.34.31-.73.39-1.17.08-.44.12-.92.12-1.43Z"/>
        <path class="st0" d="M970.87,715.75l.02,1.83h-1.81c-.43,0-.8.05-1.11.15-.31.1-.57.23-.78.41-.2.18-.35.38-.44.61s-.14.49-.14.76.06.53.19.75.31.39.55.52c.24.12.52.19.84.19.49,0,.91-.1,1.27-.29.36-.19.64-.43.84-.72.2-.28.3-.55.31-.81l.85,1.37c-.12.31-.28.62-.49.95s-.47.64-.78.93-.69.52-1.13.71c-.44.18-.97.28-1.57.28-.77,0-1.47-.16-2.09-.47s-1.12-.74-1.48-1.29c-.36-.55-.54-1.18-.54-1.88,0-.64.12-1.2.36-1.7s.59-.91,1.06-1.25,1.05-.6,1.76-.77c.7-.18,1.52-.26,2.45-.26h1.88ZM970.44,720.41v-5.41c0-.39-.06-.72-.19-1-.13-.28-.32-.5-.59-.66s-.61-.24-1.03-.24c-.36,0-.67.06-.93.18-.26.12-.46.3-.61.53s-.21.5-.21.8h-3.23c0-.52.12-1.01.36-1.47.24-.46.59-.88,1.04-1.23s1-.63,1.63-.84c.63-.2,1.34-.3,2.13-.3.94,0,1.78.16,2.52.47.73.31,1.31.79,1.74,1.42s.63,1.42.63,2.36v5.2c0,.67.04,1.21.12,1.63.08.42.2.79.36,1.11v.19h-3.27c-.16-.33-.28-.74-.35-1.24-.08-.5-.12-1-.12-1.5Z"/>
        <path class="st0" d="M982.76,719.79c0-.23-.07-.44-.2-.63-.13-.19-.38-.36-.75-.52s-.89-.31-1.57-.44c-.61-.13-1.19-.3-1.71-.51-.53-.21-.98-.45-1.37-.75-.39-.29-.69-.64-.9-1.04s-.33-.86-.33-1.38.11-.99.33-1.44.54-.85.95-1.2c.42-.35.92-.62,1.53-.82s1.28-.3,2.04-.3c1.05,0,1.96.17,2.72.5.76.34,1.34.8,1.75,1.39s.61,1.26.61,2h-3.23c0-.31-.07-.6-.2-.85s-.33-.45-.61-.59c-.27-.15-.63-.22-1.06-.22-.36,0-.67.06-.93.18-.26.12-.46.29-.6.49s-.21.43-.21.68c0,.19.04.35.12.5.08.15.21.28.39.4s.41.23.7.33c.29.1.65.19,1.07.28.88.18,1.66.41,2.35.7.69.29,1.23.68,1.64,1.17s.61,1.13.61,1.93c0,.54-.12,1.03-.36,1.48-.24.45-.58.84-1.03,1.17s-.99.59-1.61.77-1.33.28-2.11.28c-1.13,0-2.09-.2-2.87-.61s-1.37-.92-1.77-1.54-.6-1.27-.6-1.93h3.07c.01.44.13.8.34,1.07.21.27.49.46.82.58s.69.18,1.08.18c.42,0,.77-.06,1.04-.17.28-.12.49-.27.63-.47.15-.2.22-.43.22-.69Z"/>
        <path class="st0" d="M994.57,719.79c0-.23-.07-.44-.2-.63-.13-.19-.38-.36-.75-.52s-.89-.31-1.57-.44c-.61-.13-1.19-.3-1.71-.51-.53-.21-.98-.45-1.37-.75-.39-.29-.69-.64-.9-1.04s-.33-.86-.33-1.38.11-.99.33-1.44.54-.85.95-1.2c.42-.35.92-.62,1.53-.82s1.28-.3,2.04-.3c1.05,0,1.96.17,2.72.5.76.34,1.34.8,1.75,1.39s.61,1.26.61,2h-3.23c0-.31-.07-.6-.2-.85s-.33-.45-.61-.59c-.27-.15-.63-.22-1.06-.22-.36,0-.67.06-.93.18-.26.12-.46.29-.6.49s-.21.43-.21.68c0,.19.04.35.12.5.08.15.21.28.39.4s.41.23.7.33c.29.1.65.19,1.07.28.88.18,1.66.41,2.35.7.69.29,1.23.68,1.64,1.17s.61,1.13.61,1.93c0,.54-.12,1.03-.36,1.48-.24.45-.58.84-1.03,1.17s-.99.59-1.61.77-1.33.28-2.11.28c-1.13,0-2.09-.2-2.87-.61s-1.37-.92-1.77-1.54-.6-1.27-.6-1.93h3.07c.01.44.13.8.34,1.07.21.27.49.46.82.58s.69.18,1.08.18c.42,0,.77-.06,1.04-.17.28-.12.49-.27.63-.47.15-.2.22-.43.22-.69Z"/>
        <path class="st0" d="M1002.01,711l1.81,9,.17,3.16h-2.02l-3.08-12.15h3.12ZM1003.29,720l2.53-9.01h2.06l-.66,3.54-2.53,8.61h-1.72l.33-3.14ZM1008.15,711l2.52,8.94.35,3.21h-1.73l-2.53-8.6-.64-3.55h2.03ZM1010.18,719.84l1.76-8.85h3.13l-3.08,12.15h-2.01l.19-3.3Z"/>
        <path class="st0" d="M1016.19,717.19v-.24c0-.89.13-1.71.38-2.47.25-.75.62-1.41,1.11-1.96.49-.55,1.09-.99,1.8-1.3.71-.31,1.53-.47,2.45-.47s1.74.16,2.46.47,1.32.74,1.81,1.3c.49.55.86,1.21,1.12,1.96.25.75.38,1.57.38,2.47v.24c0,.88-.13,1.7-.38,2.45-.25.75-.63,1.41-1.12,1.96s-1.09.99-1.8,1.3c-.71.31-1.53.46-2.45.46s-1.74-.15-2.45-.46c-.71-.31-1.32-.74-1.81-1.3s-.86-1.21-1.12-1.96c-.25-.75-.38-1.57-.38-2.45ZM1019.43,716.96v.24c0,.51.04.98.13,1.43.09.44.23.83.43,1.16s.46.59.78.78.71.28,1.18.28.83-.09,1.16-.28.58-.45.77-.78c.2-.33.34-.72.43-1.16.09-.44.14-.92.14-1.43v-.24c0-.49-.05-.96-.14-1.4-.09-.44-.24-.83-.44-1.17s-.46-.61-.78-.8c-.32-.2-.71-.29-1.17-.29s-.84.1-1.16.29c-.32.19-.58.46-.77.8s-.34.73-.43,1.17c-.09.44-.13.9-.13,1.4Z"/>
        <path class="st0" d="M1032.92,713.65v9.5h-3.23v-12.15h3.04l.19,2.65ZM1036.59,710.92l-.06,3c-.16-.02-.35-.04-.57-.06s-.42-.03-.6-.03c-.46,0-.85.06-1.19.17s-.61.29-.83.51-.39.5-.49.82-.17.69-.18,1.1l-.65-.2c0-.79.08-1.51.24-2.17.16-.66.39-1.24.69-1.74.3-.49.68-.88,1.12-1.15.44-.27.95-.4,1.52-.4.18,0,.36.01.55.04.19.03.34.06.46.11Z"/>
        <path class="st0" d="M1037.39,717.22v-.24c0-.93.11-1.77.31-2.53.21-.76.52-1.41.92-1.96.4-.55.9-.97,1.49-1.27s1.27-.45,2.02-.45c.71,0,1.33.15,1.87.45s.99.72,1.37,1.27c.38.55.68,1.2.92,1.94s.4,1.56.51,2.44v.52c-.11.85-.27,1.63-.51,2.36s-.54,1.36-.92,1.9-.84.96-1.38,1.26-1.17.45-1.89.45c-.76,0-1.43-.15-2.02-.46-.59-.31-1.08-.74-1.48-1.29s-.71-1.21-.92-1.95c-.21-.75-.31-1.56-.31-2.45ZM1040.63,716.98v.24c0,.5.04.97.12,1.4.08.43.21.82.39,1.15s.42.59.72.78.66.28,1.08.28c.55,0,1.01-.13,1.37-.38s.63-.6.83-1.04c.19-.44.3-.95.33-1.53v-1.47c-.02-.47-.09-.9-.2-1.27s-.27-.7-.47-.97-.46-.48-.76-.63c-.3-.15-.66-.22-1.07-.22s-.78.1-1.08.29c-.3.19-.54.45-.72.78-.18.33-.32.72-.4,1.16s-.13.93-.13,1.44ZM1045.08,720.5v-14.6h3.26v17.25h-2.93l-.33-2.65Z"/>
      </g>
      <g>
        <path class="st0" d="M759.16,486.38c-.72,0-1.39-.13-1.99-.4-.6-.27-1.13-.64-1.58-1.13s-.79-1.06-1.04-1.73c-.24-.67-.36-1.4-.36-2.19v-.44c0-.85.13-1.63.38-2.32s.6-1.28,1.05-1.77.95-.87,1.52-1.13c.57-.26,1.17-.39,1.8-.39.7,0,1.33.12,1.88.37.55.25,1.01.6,1.38,1.06s.65.99.85,1.61c.19.62.29,1.3.29,2.05v.75h-8.4v-1.05h7.18v-.14c-.01-.62-.14-1.2-.37-1.75-.24-.54-.59-.99-1.05-1.33s-1.05-.51-1.74-.51c-.52,0-1,.11-1.43.33-.43.22-.81.53-1.12.94-.31.41-.55.89-.72,1.45s-.25,1.17-.25,1.85v.44c0,.62.09,1.19.27,1.72.18.53.44,1,.78,1.4.34.4.74.72,1.21.94s.98.34,1.54.34c.66,0,1.24-.12,1.74-.36.51-.24.96-.63,1.36-1.15l.77.59c-.24.36-.54.68-.9.98-.36.3-.79.54-1.29.72s-1.08.27-1.74.27Z"/>
        <path class="st0" d="M766.95,477.45v8.73h-1.22v-11.09h1.17l.05,2.37ZM766.68,479.94l-.54-.31c.04-.66.17-1.27.4-1.85s.53-1.08.92-1.52.84-.78,1.36-1.03c.52-.25,1.1-.37,1.74-.37.55,0,1.05.08,1.49.23s.81.39,1.12.72.54.75.7,1.26c.16.51.24,1.14.24,1.88v7.22h-1.23v-7.23c0-.77-.11-1.37-.32-1.8s-.51-.74-.9-.93-.85-.28-1.38-.28c-.59,0-1.1.13-1.54.38-.44.26-.81.59-1.11.99-.3.41-.52.84-.68,1.3-.16.46-.24.9-.26,1.32Z"/>
        <path class="st0" d="M781.47,475.08v1h-5.56v-1h5.56ZM777.96,472.23h1.22v11.25c0,.51.07.9.21,1.16s.31.43.53.52.45.13.71.13c.18,0,.36-.01.53-.04.17-.02.32-.05.46-.08l.05,1.04c-.15.05-.35.09-.58.12-.24.03-.48.05-.72.05-.47,0-.89-.09-1.25-.26-.36-.17-.65-.47-.85-.9-.21-.43-.31-1.01-.31-1.75v-11.24Z"/>
        <path class="st0" d="M788.32,486.38c-.72,0-1.39-.13-1.99-.4-.6-.27-1.13-.64-1.58-1.13s-.79-1.06-1.04-1.73c-.24-.67-.36-1.4-.36-2.19v-.44c0-.85.13-1.63.38-2.32s.6-1.28,1.05-1.77.95-.87,1.52-1.13c.57-.26,1.17-.39,1.8-.39.7,0,1.33.12,1.88.37.55.25,1.01.6,1.38,1.06s.65.99.85,1.61c.19.62.29,1.3.29,2.05v.75h-8.4v-1.05h7.18v-.14c-.01-.62-.14-1.2-.37-1.75-.24-.54-.59-.99-1.05-1.33s-1.05-.51-1.74-.51c-.52,0-1,.11-1.43.33-.43.22-.81.53-1.12.94-.31.41-.55.89-.72,1.45s-.25,1.17-.25,1.85v.44c0,.62.09,1.19.27,1.72.18.53.44,1,.78,1.4.34.4.74.72,1.21.94s.98.34,1.54.34c.66,0,1.24-.12,1.74-.36.51-.24.96-.63,1.36-1.15l.77.59c-.24.36-.54.68-.9.98-.36.3-.79.54-1.29.72s-1.08.27-1.74.27Z"/>
        <path class="st0" d="M796.12,476.92v9.26h-1.22v-11.09h1.19l.03,1.84ZM800.04,475l-.03,1.13c-.14-.02-.27-.04-.4-.05s-.27-.02-.42-.02c-.53,0-1,.1-1.4.29-.4.19-.74.46-1.01.81-.27.35-.48.75-.63,1.21-.14.46-.23.96-.25,1.48l-.45.17c0-.72.08-1.4.23-2.02s.38-1.17.69-1.64c.31-.47.7-.83,1.18-1.1.48-.26,1.03-.39,1.68-.39.16,0,.31.01.47.04.15.02.27.05.34.09Z"/>
        <path class="st0" d="M808.3,477.45v8.73h-1.22v-11.09h1.17l.05,2.37ZM808.02,479.94l-.54-.31c.04-.66.17-1.27.4-1.85s.53-1.08.92-1.52.84-.78,1.36-1.03c.52-.25,1.1-.37,1.74-.37.55,0,1.05.08,1.49.23.44.15.81.39,1.12.72.31.33.54.75.7,1.26s.24,1.14.24,1.88v7.22h-1.23v-7.23c0-.77-.11-1.37-.32-1.8-.21-.43-.51-.74-.9-.93-.39-.18-.85-.28-1.38-.28-.59,0-1.1.13-1.54.38-.44.26-.81.59-1.11.99-.3.41-.52.84-.68,1.3-.16.46-.24.9-.26,1.32Z"/>
        <path class="st0" d="M822.91,486.38c-.73,0-1.39-.13-2-.4-.6-.27-1.13-.64-1.58-1.13-.45-.49-.79-1.06-1.04-1.73-.24-.67-.36-1.4-.36-2.19v-.44c0-.85.13-1.63.38-2.32.25-.69.6-1.28,1.04-1.77s.95-.87,1.52-1.13c.57-.26,1.17-.39,1.8-.39.7,0,1.33.12,1.88.37.55.25,1.01.6,1.38,1.06.37.45.65.99.85,1.61.19.62.29,1.3.29,2.05v.75h-8.4v-1.05h7.18v-.14c-.01-.62-.14-1.2-.37-1.75-.24-.54-.59-.99-1.05-1.33-.47-.34-1.05-.51-1.74-.51-.52,0-1,.11-1.43.33-.43.22-.81.53-1.12.94-.31.41-.55.89-.72,1.45-.17.56-.25,1.17-.25,1.85v.44c0,.62.09,1.19.27,1.72.18.53.44,1,.78,1.4.34.4.74.72,1.21.94s.98.34,1.54.34c.66,0,1.24-.12,1.74-.36.51-.24.96-.63,1.36-1.15l.77.59c-.24.36-.54.68-.9.98-.36.3-.79.54-1.29.72s-1.08.27-1.74.27Z"/>
        <path class="st0" d="M829.78,475.08l2.35,8.55.5,2.54h-.89l-3.22-11.09h1.26ZM832.56,483.58l2.68-8.5h.86l-.51,2.29-2.8,8.81h-.86l.63-2.59ZM836.27,475.08l2.63,8.43.67,2.67h-.86l-2.86-8.82-.48-2.28h.9ZM839.43,483.61l2.29-8.52h1.26l-3.22,11.09h-.88l.55-2.57Z"/>
        <path class="st0" d="M851.65,477.22v13.23h-1.23v-15.36h1.15l.08,2.13ZM859.36,480.53v.22c0,.83-.1,1.59-.29,2.28-.19.69-.47,1.29-.83,1.79-.36.5-.8.89-1.33,1.16s-1.12.41-1.79.41-1.25-.1-1.77-.31-.96-.5-1.34-.88c-.37-.38-.67-.82-.89-1.33-.22-.51-.38-1.07-.47-1.68v-2.84c.1-.67.27-1.28.5-1.83.23-.55.53-1.02.9-1.42.37-.4.8-.7,1.31-.91s1.08-.32,1.73-.32,1.28.13,1.81.39c.53.26.98.64,1.34,1.14.37.5.64,1.09.83,1.78.19.69.28,1.47.28,2.33ZM858.13,480.74v-.22c0-.65-.07-1.25-.2-1.8-.13-.55-.33-1.04-.61-1.45-.27-.41-.61-.74-1.03-.97-.41-.23-.9-.35-1.47-.35s-1.09.1-1.5.29c-.41.19-.76.45-1.03.77-.27.32-.49.67-.65,1.04-.16.38-.27.75-.35,1.11v3.27c.13.52.34,1,.63,1.44.29.44.67.79,1.15,1.06.48.26,1.07.4,1.77.4.56,0,1.04-.12,1.46-.35s.75-.56,1.02-.97c.27-.42.47-.9.61-1.46.13-.55.2-1.16.2-1.8Z"/>
        <path class="st0" d="M869.11,479.72l.02.94h-2.41c-.63,0-1.19.06-1.69.17-.5.11-.92.28-1.26.49-.34.22-.6.47-.79.77-.18.3-.27.64-.27,1.03s.1.76.3,1.09c.2.33.49.59.86.78.37.2.81.29,1.33.29.68,0,1.29-.13,1.81-.38.52-.25.96-.58,1.3-.99s.57-.86.69-1.34l.53.71c-.09.34-.25.69-.49,1.05-.24.36-.54.69-.92,1s-.82.56-1.33.76c-.51.19-1.08.29-1.73.29-.72,0-1.36-.14-1.89-.41-.54-.27-.95-.65-1.25-1.12-.3-.47-.45-1.01-.45-1.61,0-.55.12-1.04.35-1.47s.57-.8,1.01-1.11c.44-.3.97-.54,1.6-.7.63-.16,1.33-.24,2.11-.24h2.55ZM868.83,484.19v-5.72c0-.53-.11-.98-.33-1.36-.22-.38-.54-.68-.96-.88s-.95-.31-1.57-.31c-.57,0-1.08.1-1.53.3-.45.2-.8.47-1.06.81-.26.34-.38.71-.38,1.12h-1.23c0-.43.1-.83.31-1.22s.5-.74.87-1.05.83-.55,1.35-.73c.52-.18,1.1-.27,1.73-.27.79,0,1.49.13,2.1.4.6.27,1.08.67,1.42,1.2s.51,1.2.51,2.01v5.36c0,.38.03.78.09,1.19.06.41.14.75.25,1.02v.12h-1.3c-.08-.25-.15-.56-.19-.93-.04-.37-.07-.73-.07-1.06Z"/>
        <path class="st0" d="M879.97,483.35c0-.3-.08-.6-.22-.89-.15-.29-.44-.56-.87-.81-.43-.25-1.05-.45-1.88-.63-.62-.14-1.16-.29-1.65-.46-.48-.17-.89-.38-1.21-.62s-.58-.53-.75-.86c-.17-.33-.26-.73-.26-1.19,0-.41.09-.8.27-1.16.18-.37.44-.69.78-.96.34-.28.75-.49,1.23-.65.48-.16,1.02-.24,1.63-.24.85,0,1.59.15,2.2.44.61.29,1.08.69,1.4,1.18.33.5.49,1.06.49,1.69h-1.22c0-.38-.11-.75-.33-1.09-.22-.34-.55-.62-.97-.84-.43-.22-.95-.33-1.56-.33s-1.15.1-1.55.29-.69.43-.87.73c-.18.29-.27.6-.27.91,0,.25.04.47.12.67.08.2.22.39.43.56.21.17.51.33.9.48s.9.3,1.52.44c.9.2,1.63.44,2.2.72.57.28.99.63,1.27,1.05s.41.91.41,1.5c0,.46-.1.88-.29,1.26-.19.38-.47.71-.83.98-.36.27-.79.49-1.29.64-.5.15-1.07.23-1.69.23-.94,0-1.73-.16-2.37-.47-.65-.31-1.13-.72-1.47-1.23-.33-.51-.5-1.05-.5-1.62h1.22c.04.57.22,1.03.54,1.36.32.33.72.57,1.18.7.47.14.93.21,1.39.21.63,0,1.16-.09,1.58-.28.42-.18.74-.43.96-.73s.33-.63.33-.97Z"/>
        <path class="st0" d="M890.61,483.35c0-.3-.08-.6-.22-.89-.15-.29-.44-.56-.87-.81-.43-.25-1.05-.45-1.88-.63-.62-.14-1.16-.29-1.65-.46-.48-.17-.89-.38-1.21-.62s-.58-.53-.75-.86c-.17-.33-.26-.73-.26-1.19,0-.41.09-.8.27-1.16.18-.37.44-.69.78-.96.34-.28.75-.49,1.23-.65.48-.16,1.02-.24,1.63-.24.85,0,1.59.15,2.2.44.61.29,1.08.69,1.4,1.18.33.5.49,1.06.49,1.69h-1.22c0-.38-.11-.75-.33-1.09-.22-.34-.55-.62-.97-.84-.43-.22-.95-.33-1.56-.33s-1.15.1-1.55.29-.69.43-.87.73c-.18.29-.27.6-.27.91,0,.25.04.47.12.67.08.2.22.39.43.56.21.17.51.33.9.48s.9.3,1.52.44c.9.2,1.63.44,2.2.72.57.28.99.63,1.27,1.05s.41.91.41,1.5c0,.46-.1.88-.29,1.26-.19.38-.47.71-.83.98-.36.27-.79.49-1.29.64-.5.15-1.07.23-1.69.23-.94,0-1.73-.16-2.37-.47-.65-.31-1.13-.72-1.47-1.23-.33-.51-.5-1.05-.5-1.62h1.22c.04.57.22,1.03.54,1.36.32.33.72.57,1.18.7.47.14.93.21,1.39.21.63,0,1.16-.09,1.58-.28.42-.18.74-.43.96-.73s.33-.63.33-.97Z"/>
        <path class="st0" d="M894.91,475.08l2.35,8.55.5,2.54h-.89l-3.22-11.09h1.26ZM897.69,483.58l2.68-8.5h.86l-.51,2.29-2.8,8.81h-.86l.63-2.59ZM901.4,475.08l2.63,8.43.67,2.67h-.86l-2.86-8.82-.48-2.28h.9ZM904.56,483.61l2.29-8.52h1.26l-3.22,11.09h-.88l.55-2.57Z"/>
        <path class="st0" d="M909.78,480.81v-.34c0-.81.12-1.55.35-2.24s.57-1.27,1-1.77c.43-.5.96-.89,1.56-1.16.61-.28,1.28-.42,2.03-.42s1.43.14,2.04.42c.61.28,1.13.67,1.57,1.16s.77,1.09,1.01,1.77c.23.68.35,1.43.35,2.24v.34c0,.81-.12,1.55-.35,2.23-.23.68-.57,1.27-1,1.77-.43.5-.96.89-1.56,1.16-.61.28-1.29.42-2.03.42s-1.43-.14-2.04-.42c-.61-.28-1.13-.67-1.57-1.16-.44-.5-.77-1.09-1.01-1.77s-.35-1.42-.35-2.23ZM911,480.47v.34c0,.61.08,1.18.25,1.73.16.54.4,1.03.72,1.45.31.42.7.75,1.17.99s1,.36,1.61.36,1.13-.12,1.59-.36c.46-.24.85-.57,1.16-.99.31-.42.55-.9.71-1.45.16-.54.24-1.12.24-1.73v-.34c0-.6-.08-1.17-.24-1.71-.16-.54-.4-1.02-.72-1.45-.32-.42-.71-.76-1.17-1s-1-.37-1.6-.37-1.13.12-1.59.37c-.46.25-.85.58-1.17,1-.32.42-.56.91-.72,1.45-.16.54-.24,1.11-.24,1.71Z"/>
        <path class="st0" d="M923.44,476.92v9.26h-1.22v-11.09h1.19l.03,1.84ZM927.37,475l-.03,1.13c-.14-.02-.27-.04-.4-.05s-.27-.02-.42-.02c-.53,0-1,.1-1.4.29-.4.19-.74.46-1.01.81-.27.35-.48.75-.62,1.21-.14.46-.23.96-.25,1.48l-.45.17c0-.72.08-1.4.23-2.02s.38-1.17.69-1.64c.31-.47.7-.83,1.18-1.1.48-.26,1.03-.39,1.68-.39.16,0,.31.01.47.04.15.02.27.05.34.09Z"/>
        <path class="st0" d="M928.6,480.74v-.22c0-.86.1-1.64.3-2.33s.48-1.29.86-1.78c.37-.5.82-.88,1.35-1.14.53-.26,1.12-.39,1.79-.39s1.22.11,1.72.32c.5.21.93.52,1.29.91.36.4.65.87.87,1.42.22.55.38,1.16.49,1.83v2.74c-.08.63-.23,1.2-.45,1.73-.22.52-.51.98-.87,1.36-.36.39-.8.68-1.31.89-.51.21-1.1.31-1.76.31s-1.25-.14-1.77-.41-.97-.66-1.34-1.16c-.37-.5-.65-1.1-.85-1.79s-.3-1.45-.3-2.28ZM929.83,480.53v.22c0,.65.07,1.25.2,1.8s.33,1.04.59,1.45.6.73,1.01.96.9.35,1.46.35c.7,0,1.29-.13,1.77-.4s.86-.63,1.15-1.08c.29-.45.5-.94.62-1.47v-3.19c-.08-.36-.2-.73-.36-1.11s-.37-.72-.64-1.04c-.27-.32-.61-.57-1.03-.77-.41-.2-.92-.29-1.5-.29s-1.06.12-1.47.35-.75.56-1.02.97c-.27.41-.47.9-.6,1.45s-.2,1.16-.2,1.8ZM936.3,484.03v-13.6h1.23v15.75h-1.15l-.08-2.15Z"/>
      </g>
      <path class="st3" d="M1166.02,488.9l-9.53-8.6M1148.3,480.29l-9.53,8.6M1138.05,473.12l11.71,8.2c.95.66,1.42,1,1.94,1.12.46.11.93.11,1.39,0,.52-.13.99-.46,1.94-1.12l11.71-8.2M1144.7,491.51h14.91c2.41,0,3.61,0,4.53-.47.81-.41,1.47-1.07,1.88-1.88.47-.92.47-2.12.47-4.53v-9.18c0-2.41,0-3.61-.47-4.53-.41-.81-1.07-1.47-1.88-1.88-.92-.47-2.12-.47-4.53-.47h-14.91c-2.41,0-3.61,0-4.53.47-.81.41-1.47,1.07-1.88,1.88-.47.92-.47,2.12-.47,4.53v9.18c0,2.41,0,3.61.47,4.53.41.81,1.07,1.47,1.88,1.88.92.47,2.12.47,4.53.47Z"/>
      <rect class="st1" x="715.29" y="542.61" width="489.43" height="70.74" rx="35.37" ry="35.37"/>
      <g>
        <path class="st0" d="M758.97,583.27c.52,0,1.01-.1,1.46-.29.45-.19.83-.49,1.13-.87.3-.39.47-.86.51-1.42h1.17c-.03.7-.25,1.33-.64,1.88-.39.55-.91.98-1.54,1.29-.63.31-1.33.47-2.09.47s-1.45-.14-2.05-.42-1.08-.67-1.48-1.17c-.4-.5-.7-1.09-.9-1.76-.2-.67-.3-1.4-.3-2.18v-.43c0-.78.1-1.51.3-2.18.2-.67.5-1.26.9-1.76.4-.5.89-.89,1.48-1.17s1.27-.42,2.04-.42,1.51.16,2.14.48c.63.32,1.14.78,1.52,1.36.38.59.59,1.29.62,2.09h-1.17c-.03-.59-.19-1.11-.47-1.54s-.65-.76-1.11-1-.97-.35-1.53-.35c-.63,0-1.17.12-1.61.36-.44.24-.8.57-1.08,1-.28.42-.48.9-.61,1.44-.13.54-.19,1.1-.19,1.69v.43c0,.59.06,1.16.19,1.7.13.54.33,1.01.61,1.43.28.42.64.75,1.09.99.45.24.99.36,1.62.36Z"/>
        <path class="st0" d="M765.02,578.75v-.34c0-.81.12-1.55.35-2.24s.57-1.27,1-1.77.96-.89,1.56-1.16c.61-.28,1.29-.42,2.03-.42s1.43.14,2.04.42c.61.28,1.13.67,1.57,1.16s.77,1.09,1,1.77.35,1.43.35,2.24v.34c0,.81-.12,1.55-.35,2.23-.23.68-.57,1.27-1,1.77-.43.5-.96.89-1.56,1.16-.61.28-1.29.42-2.03.42s-1.43-.14-2.04-.42c-.61-.28-1.13-.67-1.57-1.16s-.77-1.09-1-1.77c-.23-.68-.35-1.42-.35-2.23ZM766.24,578.41v.34c0,.61.08,1.18.25,1.73.16.54.4,1.03.72,1.45.31.42.7.75,1.17.99s1,.36,1.61.36,1.13-.12,1.59-.36c.46-.24.85-.57,1.16-.99.31-.42.55-.9.71-1.45.16-.54.24-1.12.24-1.73v-.34c0-.6-.08-1.17-.24-1.71-.16-.54-.4-1.02-.72-1.45-.32-.42-.71-.76-1.17-1s-1-.37-1.6-.37-1.13.12-1.59.37c-.46.25-.85.58-1.17,1-.32.42-.56.91-.72,1.45-.16.54-.24,1.11-.24,1.71Z"/>
        <path class="st0" d="M778.67,575.39v8.73h-1.22v-11.09h1.17l.05,2.37ZM778.4,577.88l-.54-.31c.04-.66.17-1.27.4-1.85s.53-1.08.92-1.52.84-.78,1.36-1.03c.52-.25,1.1-.37,1.74-.37.55,0,1.05.08,1.49.23s.81.39,1.12.72.54.75.7,1.26c.16.51.24,1.14.24,1.88v7.22h-1.23v-7.23c0-.77-.11-1.37-.32-1.8-.21-.43-.51-.74-.9-.93s-.85-.28-1.38-.28c-.59,0-1.1.13-1.54.38-.44.26-.81.59-1.11.99-.3.41-.52.84-.68,1.3-.16.46-.24.9-.26,1.32Z"/>
        <path class="st0" d="M793.75,573.02v1h-5.7v-1h5.7ZM791.1,584.12h-1.22v-12.47c0-.76.13-1.4.4-1.92.26-.52.64-.91,1.13-1.18.49-.27,1.07-.4,1.75-.4.21,0,.43.01.66.04.23.02.44.07.66.14l-.09,1.04c-.17-.05-.34-.08-.52-.1-.17-.02-.38-.03-.61-.03-.44,0-.83.09-1.15.28-.32.19-.57.46-.74.82s-.26.79-.26,1.31v12.47Z"/>
        <path class="st0" d="M795.88,569.81c0-.23.07-.43.22-.59.15-.16.35-.24.61-.24s.47.08.62.24c.15.16.23.36.23.59s-.08.42-.23.58c-.15.16-.36.24-.62.24s-.46-.08-.61-.24c-.15-.16-.22-.35-.22-.58ZM797.31,573.02v11.09h-1.22v-11.09h1.22Z"/>
        <path class="st0" d="M801.89,574.86v9.26h-1.22v-11.09h1.19l.03,1.83ZM805.82,572.94l-.03,1.13c-.14-.02-.27-.04-.4-.05s-.27-.02-.42-.02c-.53,0-1,.1-1.4.29-.4.19-.74.46-1.01.81-.27.35-.48.75-.63,1.21-.14.46-.23.96-.25,1.48l-.45.17c0-.72.08-1.4.23-2.02s.38-1.17.69-1.63c.31-.47.7-.83,1.18-1.1.48-.26,1.03-.39,1.68-.39.16,0,.31.01.47.04.15.02.27.05.34.09Z"/>
        <path class="st0" d="M808.89,575.32v8.8h-1.23v-11.09h1.18l.05,2.3ZM808.67,577.88l-.59-.31c.04-.66.17-1.27.37-1.85s.5-1.08.88-1.52.83-.78,1.35-1.03,1.12-.37,1.79-.37c.54,0,1.03.07,1.47.22.44.15.82.38,1.13.69.31.31.55.72.72,1.21.17.5.26,1.1.26,1.79v7.38h-1.22v-7.34c0-.74-.11-1.32-.34-1.73-.23-.42-.55-.71-.96-.89-.41-.18-.88-.27-1.41-.27-.63,0-1.16.13-1.59.38-.43.26-.79.59-1.06.99-.27.41-.47.84-.6,1.3-.13.46-.2.9-.21,1.32ZM816.04,576.92l-.82.02c.03-.54.16-1.06.38-1.55.21-.49.51-.93.89-1.32.38-.39.82-.69,1.35-.92s1.11-.34,1.77-.34c.57,0,1.09.08,1.54.23.45.15.83.4,1.14.73.31.33.55.75.71,1.27s.25,1.13.25,1.85v7.23h-1.23v-7.24c0-.79-.11-1.4-.34-1.83-.23-.43-.55-.74-.95-.91-.4-.17-.88-.26-1.42-.26-.53,0-1,.1-1.4.29-.4.19-.74.43-1.01.74-.27.3-.47.63-.62.98s-.22.69-.23,1.03Z"/>
        <path class="st0" d="M832.69,575.39v8.73h-1.22v-11.09h1.17l.05,2.37ZM832.41,577.88l-.54-.31c.04-.66.17-1.27.4-1.85.22-.57.53-1.08.92-1.52.39-.44.84-.78,1.36-1.03.52-.25,1.1-.37,1.74-.37.55,0,1.05.08,1.49.23s.81.39,1.12.72c.31.33.54.75.7,1.26.16.51.24,1.14.24,1.88v7.22h-1.23v-7.23c0-.77-.11-1.37-.32-1.8-.21-.43-.51-.74-.9-.93s-.85-.28-1.38-.28c-.59,0-1.1.13-1.54.38-.44.26-.81.59-1.11.99-.3.41-.52.84-.68,1.3-.16.46-.24.9-.26,1.32Z"/>
        <path class="st0" d="M847.3,584.32c-.73,0-1.39-.13-2-.4-.6-.27-1.13-.64-1.58-1.13-.45-.49-.79-1.06-1.04-1.73-.24-.67-.36-1.4-.36-2.19v-.44c0-.85.13-1.63.38-2.32.25-.69.6-1.28,1.04-1.77s.95-.87,1.52-1.13c.57-.26,1.17-.39,1.8-.39.7,0,1.33.12,1.88.37.55.25,1.01.6,1.38,1.06.37.45.65.99.85,1.61.19.62.29,1.3.29,2.05v.75h-8.4v-1.05h7.18v-.14c-.01-.62-.14-1.2-.37-1.75-.24-.54-.59-.99-1.05-1.33-.47-.34-1.05-.51-1.74-.51-.52,0-1,.11-1.43.33-.43.22-.81.53-1.12.94-.31.41-.55.89-.72,1.45-.17.56-.25,1.17-.25,1.85v.44c0,.62.09,1.19.27,1.72.18.53.44,1,.78,1.4.34.4.74.72,1.21.94s.98.34,1.54.34c.66,0,1.24-.12,1.74-.36.51-.24.96-.63,1.36-1.15l.77.59c-.24.36-.54.68-.9.98-.36.3-.79.54-1.29.72s-1.08.27-1.74.27Z"/>
        <path class="st0" d="M854.17,573.02l2.35,8.55.5,2.54h-.89l-3.22-11.09h1.26ZM856.95,581.52l2.68-8.5h.86l-.51,2.29-2.8,8.81h-.86l.63-2.59ZM860.66,573.02l2.63,8.43.67,2.67h-.86l-2.86-8.82-.48-2.28h.9ZM863.82,581.54l2.29-8.52h1.26l-3.22,11.09h-.88l.55-2.57Z"/>
        <path class="st0" d="M876.04,575.16v13.23h-1.23v-15.36h1.15l.08,2.13ZM883.76,578.47v.22c0,.83-.1,1.59-.29,2.28-.19.69-.47,1.29-.83,1.79-.36.5-.8.89-1.33,1.16s-1.12.41-1.79.41-1.25-.1-1.77-.31-.96-.5-1.34-.88c-.37-.38-.67-.82-.89-1.33-.22-.51-.38-1.07-.47-1.68v-2.84c.1-.67.27-1.28.5-1.83.23-.55.53-1.02.9-1.42.37-.4.8-.7,1.31-.91s1.08-.32,1.73-.32,1.28.13,1.81.39c.53.26.98.64,1.34,1.14.37.5.64,1.09.83,1.78.19.69.28,1.47.28,2.33ZM882.52,578.68v-.22c0-.65-.07-1.25-.2-1.8-.13-.55-.33-1.04-.61-1.45-.27-.41-.61-.74-1.03-.97-.41-.23-.9-.35-1.47-.35s-1.09.1-1.5.29c-.41.19-.76.45-1.03.77-.27.32-.49.67-.65,1.04-.16.38-.27.75-.35,1.11v3.27c.13.52.34,1,.63,1.44.29.44.67.79,1.15,1.06.48.26,1.07.39,1.77.39.56,0,1.04-.12,1.46-.35s.75-.56,1.02-.97c.27-.42.47-.9.61-1.46.13-.55.2-1.16.2-1.8Z"/>
        <path class="st0" d="M893.51,577.66l.02.94h-2.41c-.63,0-1.19.06-1.69.17-.5.11-.92.28-1.26.49-.34.22-.6.47-.79.77-.18.3-.27.64-.27,1.03s.1.76.3,1.09c.2.33.49.59.86.78.37.2.81.29,1.33.29.68,0,1.29-.13,1.81-.38.52-.25.96-.58,1.3-1s.57-.86.69-1.34l.53.71c-.09.34-.25.69-.49,1.05-.24.36-.54.69-.92,1-.38.31-.82.56-1.33.76-.51.19-1.08.29-1.73.29-.72,0-1.36-.14-1.89-.41-.54-.27-.95-.65-1.25-1.12-.3-.47-.45-1.01-.45-1.62,0-.55.12-1.04.35-1.47.23-.43.57-.8,1.01-1.11.44-.3.97-.54,1.6-.7.63-.16,1.33-.24,2.11-.24h2.55ZM893.22,582.13v-5.72c0-.53-.11-.98-.33-1.36-.22-.38-.54-.68-.96-.88s-.95-.31-1.57-.31c-.57,0-1.08.1-1.53.3-.45.2-.8.47-1.06.81-.26.34-.38.71-.38,1.12h-1.23c0-.43.1-.83.31-1.22s.5-.74.87-1.05.83-.55,1.35-.73c.52-.18,1.1-.27,1.73-.27.79,0,1.49.13,2.1.4.6.27,1.08.67,1.42,1.2s.51,1.2.51,2.01v5.36c0,.38.03.78.09,1.19.06.41.14.75.25,1.02v.12h-1.3c-.08-.25-.15-.56-.19-.93-.04-.37-.07-.73-.07-1.06Z"/>
        <path class="st0" d="M904.36,581.29c0-.3-.08-.6-.22-.89-.15-.29-.44-.56-.87-.81-.43-.25-1.05-.46-1.88-.63-.62-.14-1.16-.29-1.65-.46-.48-.17-.89-.38-1.21-.62s-.58-.53-.75-.86c-.17-.33-.26-.73-.26-1.19,0-.41.09-.8.27-1.16.18-.37.44-.69.78-.96.34-.28.75-.49,1.23-.65.48-.16,1.02-.24,1.63-.24.85,0,1.59.15,2.2.44.61.29,1.08.69,1.4,1.18.33.5.49,1.06.49,1.69h-1.22c0-.38-.11-.75-.33-1.09-.22-.34-.55-.62-.97-.84-.43-.22-.95-.33-1.56-.33s-1.15.1-1.55.29-.69.43-.87.73c-.18.29-.27.6-.27.91,0,.25.04.47.12.67.08.2.22.39.43.56.21.17.51.33.9.48s.9.3,1.52.44c.9.2,1.63.44,2.2.72.57.28.99.63,1.27,1.05.27.41.41.91.41,1.5,0,.46-.1.88-.29,1.26-.19.38-.47.71-.83.98-.36.27-.79.49-1.29.64-.5.15-1.07.23-1.69.23-.94,0-1.73-.16-2.37-.47-.65-.31-1.13-.72-1.47-1.23-.33-.51-.5-1.05-.5-1.62h1.22c.04.57.22,1.03.54,1.36.32.33.72.57,1.18.7.47.14.93.21,1.39.21.63,0,1.16-.09,1.58-.28.42-.18.74-.43.96-.73s.33-.62.33-.97Z"/>
        <path class="st0" d="M915.01,581.29c0-.3-.08-.6-.22-.89-.15-.29-.44-.56-.87-.81-.43-.25-1.05-.46-1.88-.63-.62-.14-1.16-.29-1.65-.46-.48-.17-.89-.38-1.21-.62s-.58-.53-.75-.86c-.17-.33-.26-.73-.26-1.19,0-.41.09-.8.27-1.16.18-.37.44-.69.78-.96.34-.28.75-.49,1.23-.65.48-.16,1.02-.24,1.63-.24.85,0,1.59.15,2.2.44.61.29,1.08.69,1.4,1.18.33.5.49,1.06.49,1.69h-1.22c0-.38-.11-.75-.33-1.09-.22-.34-.55-.62-.97-.84-.43-.22-.95-.33-1.56-.33s-1.15.1-1.55.29-.69.43-.87.73c-.18.29-.27.6-.27.91,0,.25.04.47.12.67.08.2.22.39.43.56.21.17.51.33.9.48s.9.3,1.52.44c.9.2,1.63.44,2.2.72.57.28.99.63,1.27,1.05.27.41.41.91.41,1.5,0,.46-.1.88-.29,1.26-.19.38-.47.71-.83.98-.36.27-.79.49-1.29.64-.5.15-1.07.23-1.69.23-.94,0-1.73-.16-2.37-.47-.65-.31-1.13-.72-1.47-1.23-.33-.51-.5-1.05-.5-1.62h1.22c.04.57.22,1.03.54,1.36.32.33.72.57,1.18.7.47.14.93.21,1.39.21.63,0,1.16-.09,1.58-.28.42-.18.74-.43.96-.73s.33-.62.33-.97Z"/>
        <path class="st0" d="M919.31,573.02l2.35,8.55.5,2.54h-.89l-3.22-11.09h1.26ZM922.08,581.52l2.68-8.5h.86l-.51,2.29-2.8,8.81h-.86l.63-2.59ZM925.8,573.02l2.63,8.43.67,2.67h-.86l-2.86-8.82-.48-2.28h.9ZM928.95,581.54l2.29-8.52h1.26l-3.22,11.09h-.88l.55-2.57Z"/>
        <path class="st0" d="M934.17,578.75v-.34c0-.81.12-1.55.35-2.24s.57-1.27,1-1.77c.43-.5.96-.89,1.56-1.16.61-.28,1.28-.42,2.03-.42s1.43.14,2.04.42c.61.28,1.13.67,1.57,1.16s.77,1.09,1.01,1.77c.23.68.35,1.43.35,2.24v.34c0,.81-.12,1.55-.35,2.23-.23.68-.57,1.27-1,1.77-.43.5-.96.89-1.56,1.16-.61.28-1.29.42-2.03.42s-1.43-.14-2.04-.42c-.61-.28-1.13-.67-1.57-1.16-.44-.5-.77-1.09-1.01-1.77-.23-.68-.35-1.42-.35-2.23ZM935.39,578.41v.34c0,.61.08,1.18.25,1.73.16.54.4,1.03.72,1.45.31.42.7.75,1.17.99s1,.36,1.61.36,1.13-.12,1.59-.36c.46-.24.85-.57,1.16-.99.31-.42.55-.9.71-1.45.16-.54.24-1.12.24-1.73v-.34c0-.6-.08-1.17-.24-1.71-.16-.54-.4-1.02-.72-1.45-.32-.42-.71-.76-1.17-1s-1-.37-1.6-.37-1.13.12-1.59.37c-.46.25-.85.58-1.17,1-.32.42-.56.91-.72,1.45-.16.54-.24,1.11-.24,1.71Z"/>
        <path class="st0" d="M947.83,574.86v9.26h-1.22v-11.09h1.19l.03,1.83ZM951.76,572.94l-.03,1.13c-.14-.02-.27-.04-.4-.05s-.27-.02-.42-.02c-.53,0-1,.1-1.4.29-.4.19-.74.46-1.01.81-.27.35-.48.75-.62,1.21-.14.46-.23.96-.25,1.48l-.45.17c0-.72.08-1.4.23-2.02s.38-1.17.69-1.63c.31-.47.7-.83,1.18-1.1.48-.26,1.03-.39,1.68-.39.16,0,.31.01.47.04.15.02.27.05.34.09Z"/>
        <path class="st0" d="M952.99,578.68v-.22c0-.86.1-1.64.3-2.33.2-.69.48-1.29.86-1.78.37-.5.82-.88,1.35-1.14.53-.26,1.12-.39,1.79-.39s1.22.11,1.72.32c.5.21.93.52,1.29.91.36.4.65.87.87,1.42.22.55.38,1.16.49,1.83v2.74c-.08.63-.23,1.21-.45,1.73-.22.52-.51.98-.87,1.36-.36.39-.8.68-1.31.89-.51.21-1.1.31-1.76.31s-1.25-.14-1.77-.41-.97-.66-1.34-1.16c-.37-.5-.65-1.1-.85-1.79s-.3-1.45-.3-2.28ZM954.22,578.47v.22c0,.65.07,1.25.2,1.8s.33,1.04.59,1.45.6.73,1.01.96.9.35,1.46.35c.7,0,1.29-.13,1.77-.4.48-.27.86-.63,1.15-1.08.29-.45.5-.94.63-1.47v-3.19c-.08-.36-.2-.73-.36-1.11s-.37-.72-.64-1.04c-.27-.32-.61-.57-1.03-.77-.41-.2-.92-.29-1.5-.29s-1.06.12-1.47.35-.75.56-1.02.97c-.27.41-.47.9-.6,1.45s-.2,1.16-.2,1.8ZM960.69,581.97v-13.6h1.23v15.75h-1.15l-.08-2.15Z"/>
      </g>
      <path class="st3" d="M1166.02,586.84l-9.53-8.6M1148.3,578.23l-9.53,8.6M1138.05,571.06l11.71,8.2c.95.66,1.42,1,1.94,1.12.46.11.93.11,1.39,0,.52-.13.99-.46,1.94-1.12l11.71-8.2M1144.7,589.45h14.91c2.41,0,3.61,0,4.53-.47.81-.41,1.47-1.07,1.88-1.88.47-.92.47-2.12.47-4.53v-9.18c0-2.41,0-3.61-.47-4.53-.41-.81-1.07-1.47-1.88-1.88-.92-.47-2.12-.47-4.53-.47h-14.91c-2.41,0-3.61,0-4.53.47-.81.41-1.47,1.07-1.88,1.88-.47.92-.47,2.12-.47,4.53v9.18c0,2.41,0,3.61.47,4.53.41.81,1.07,1.47,1.88,1.88.92.47,2.12.47,4.53.47Z"/>
    </g>
  </g>
</svg>