<?xml version="1.0" encoding="UTF-8"?>
<svg xmlns="http://www.w3.org/2000/svg" version="1.1" viewBox="0 0 1920 1080">
  <!-- Generator: Adobe Illustrator 29.8.2, SVG Export Plug-In . SVG Version: 2.1.1 Build 3)  -->
  <defs>
    <style>
      .st0 {
        fill: #fff;
      }

      .st1 {
        stroke: #424242;
      }

      .st1, .st2 {
        fill: none;
        stroke-miterlimit: 10;
      }

      .st3 {
        isolation: isolate;
      }

      .st4 {
        fill: #212121;
      }

      .st2 {
        stroke: #e87f0c;
        stroke-linecap: round;
        stroke-width: 4px;
      }

      .st5 {
        fill: #e87f0c;
      }
    </style>
  </defs>
  <g id="Layer_3">
    <rect class="st4" width="1920" height="1080"/>
  </g>
  <g id="Layer_4">
    <g>
      <path class="st0" d="M732.5,438.02l8.44,43.07-.7,8.12h-6.82l-11.36-51.19h10.44ZM737.74,481.08l10.2-43.07h5.7l1.3,7.17-10.86,44.02h-6.12l-.21-8.12ZM756.83,438.02l10.27,43.24-.28,7.95h-6.12l-10.93-44.05,1.41-7.14h5.66ZM763.9,480.91l8.33-42.89h10.44l-11.32,51.19h-6.82l-.63-8.3Z"/>
      <path class="st0" d="M804.19,489.91c-2.95,0-5.6-.47-7.95-1.42s-4.33-2.27-5.96-3.96-2.88-3.65-3.74-5.89-1.3-4.62-1.3-7.15v-1.41c0-2.88.41-5.52,1.23-7.91s2-4.46,3.53-6.22,3.4-3.11,5.61-4.06,4.69-1.42,7.45-1.42,5.09.45,7.17,1.34c2.09.89,3.84,2.16,5.26,3.8,1.42,1.64,2.49,3.6,3.22,5.89s1.09,4.82,1.09,7.61v4.22h-30.23v-6.75h20.29v-.77c0-1.41-.25-2.67-.76-3.78s-1.26-2-2.27-2.65c-1.01-.66-2.3-.98-3.87-.98-1.34,0-2.48.29-3.45.88-.96.59-1.74,1.41-2.34,2.46s-1.04,2.29-1.34,3.71-.44,2.97-.44,4.66v1.41c0,1.52.22,2.93.65,4.22s1.05,2.4,1.86,3.34,1.79,1.66,2.95,2.18,2.48.77,3.96.77c1.83,0,3.53-.36,5.12-1.07s2.95-1.8,4.1-3.25l4.92,5.34c-.8,1.15-1.88,2.25-3.25,3.3s-3.02,1.92-4.94,2.58-4.11,1-6.57,1Z"/>
      <path class="st0" d="M836.25,435.2v54h-10.16v-54h10.16Z"/>
      <path class="st0" d="M860.33,482c1.24,0,2.34-.24,3.3-.72s1.72-1.16,2.27-2.04.84-1.92.86-3.11h9.53c-.02,2.67-.74,5.04-2.14,7.12s-3.29,3.7-5.66,4.89-5.02,1.78-7.95,1.78-5.53-.49-7.72-1.48-4.01-2.35-5.47-4.1-2.54-3.79-3.27-6.12-1.09-4.83-1.09-7.51v-1.02c0-2.7.36-5.21,1.09-7.54s1.82-4.37,3.27-6.12c1.45-1.75,3.27-3.11,5.45-4.1s4.73-1.48,7.66-1.48c3.12,0,5.85.6,8.21,1.79s4.21,2.9,5.55,5.12,2.03,4.83,2.06,7.86h-9.53c-.02-1.27-.29-2.41-.79-3.45s-1.23-1.86-2.18-2.48c-.95-.62-2.12-.93-3.5-.93-1.48,0-2.68.31-3.62.93-.94.62-1.66,1.46-2.18,2.53s-.87,2.27-1.07,3.62-.3,2.76-.3,4.24v1.02c0,1.48.09,2.89.28,4.25s.54,2.57,1.07,3.62,1.26,1.89,2.2,2.5,2.16.91,3.66.91Z"/>
      <path class="st0" d="M880.51,470.57v-.74c0-2.79.4-5.36,1.2-7.72s1.96-4.4,3.48-6.13c1.52-1.73,3.4-3.09,5.62-4.06,2.23-.97,4.78-1.46,7.66-1.46s5.45.49,7.7,1.46c2.25.97,4.14,2.33,5.68,4.06,1.54,1.73,2.7,3.78,3.5,6.13s1.2,4.93,1.2,7.72v.74c0,2.77-.4,5.33-1.2,7.68s-1.96,4.41-3.5,6.15-3.42,3.1-5.64,4.06-4.78,1.44-7.66,1.44-5.44-.48-7.68-1.44-4.12-2.31-5.66-4.06-2.7-3.8-3.5-6.15-1.2-4.92-1.2-7.68ZM890.64,469.83v.74c0,1.59.14,3.08.42,4.46s.73,2.6,1.35,3.64,1.44,1.86,2.44,2.44,2.24.88,3.69.88,2.61-.29,3.62-.88,1.82-1.4,2.43-2.44,1.06-2.26,1.35-3.64.44-2.87.44-4.46v-.74c0-1.55-.15-3.01-.44-4.38s-.75-2.59-1.37-3.66-1.44-1.9-2.44-2.51c-1.01-.61-2.23-.91-3.66-.91s-2.64.3-3.64.91c-1,.61-1.8,1.45-2.43,2.51s-1.07,2.29-1.35,3.66-.42,2.83-.42,4.38Z"/>
      <path class="st0" d="M932.89,459.04v30.16h-10.16v-38.04h9.53l.63,7.88ZM931.49,468.85h-2.81c0-2.65.32-5.09.97-7.33.64-2.24,1.59-4.18,2.85-5.84s2.81-2.94,4.66-3.85,4-1.37,6.43-1.37c1.69,0,3.23.25,4.64.76,1.41.5,2.62,1.29,3.64,2.36,1.02,1.07,1.81,2.45,2.37,4.15.56,1.7.84,3.73.84,6.1v25.38h-10.12v-24.26c0-1.73-.23-3.07-.7-4.01-.47-.94-1.13-1.59-1.99-1.97-.86-.37-1.88-.56-3.08-.56-1.31,0-2.46.27-3.43.81-.97.54-1.78,1.28-2.41,2.23s-1.1,2.06-1.41,3.32-.46,2.62-.46,4.08ZM954.13,467.69l-3.62.46c0-2.48.31-4.79.93-6.93.62-2.13,1.55-4.01,2.78-5.62s2.76-2.88,4.59-3.78c1.83-.9,3.94-1.35,6.33-1.35,1.83,0,3.49.26,4.99.79s2.78,1.36,3.85,2.5c1.07,1.14,1.89,2.62,2.46,4.45s.86,4.07.86,6.71v24.29h-10.16v-24.29c0-1.76-.23-3.1-.69-4.03s-1.11-1.57-1.97-1.93c-.86-.36-1.87-.54-3.04-.54s-2.29.24-3.2.72c-.91.48-1.68,1.14-2.29,1.99s-1.07,1.82-1.37,2.94-.46,2.33-.46,3.64Z"/>
      <path class="st0" d="M1002.64,489.91c-2.95,0-5.6-.47-7.95-1.42s-4.33-2.27-5.96-3.96-2.88-3.65-3.74-5.89-1.3-4.62-1.3-7.15v-1.41c0-2.88.41-5.52,1.23-7.91s2-4.46,3.53-6.22,3.4-3.11,5.61-4.06,4.69-1.42,7.45-1.42,5.09.45,7.17,1.34c2.09.89,3.84,2.16,5.26,3.8,1.42,1.64,2.49,3.6,3.22,5.89s1.09,4.82,1.09,7.61v4.22h-30.23v-6.75h20.29v-.77c0-1.41-.25-2.67-.76-3.78s-1.26-2-2.27-2.65c-1.01-.66-2.3-.98-3.87-.98-1.34,0-2.48.29-3.45.88-.96.59-1.74,1.41-2.34,2.46s-1.04,2.29-1.34,3.71-.44,2.97-.44,4.66v1.41c0,1.52.22,2.93.65,4.22s1.05,2.4,1.86,3.34,1.79,1.66,2.95,2.18,2.48.77,3.96.77c1.83,0,3.53-.36,5.12-1.07s2.95-1.8,4.1-3.25l4.92,5.34c-.8,1.15-1.88,2.25-3.25,3.3s-3.02,1.92-4.94,2.58-4.11,1-6.57,1Z"/>
      <path class="st0" d="M1062.59,466.74h-13.15l-.07-7.24h11.04c1.95,0,3.54-.25,4.78-.76,1.24-.5,2.17-1.24,2.79-2.21.62-.97.93-2.16.93-3.57,0-1.59-.3-2.88-.9-3.87s-1.52-1.7-2.78-2.14c-1.25-.44-2.87-.67-4.83-.67h-7.31v42.93h-10.55v-51.19h17.86c2.98,0,5.64.28,8,.84s4.35,1.42,5.99,2.57c1.64,1.15,2.89,2.6,3.76,4.34.87,1.75,1.3,3.81,1.3,6.21,0,2.11-.47,4.06-1.42,5.84-.95,1.78-2.44,3.23-4.46,4.36s-4.67,1.75-7.93,1.86l-3.06,2.71ZM1062.13,489.2h-15.57l4.11-8.23h11.46c1.85,0,3.36-.3,4.54-.9s2.04-1.41,2.6-2.44.84-2.21.84-3.55c0-1.5-.25-2.8-.76-3.9s-1.31-1.95-2.41-2.55-2.55-.9-4.36-.9h-10.16l.07-7.24h12.66l2.43,2.85c3.12-.05,5.63.5,7.54,1.63s3.3,2.61,4.18,4.41,1.32,3.74,1.32,5.8c0,3.28-.71,6.04-2.14,8.28s-3.52,3.92-6.28,5.04-6.11,1.69-10.07,1.69Z"/>
      <path class="st0" d="M1109.73,466.04l.07,5.73h-5.66c-1.34,0-2.5.15-3.48.46s-1.79.73-2.43,1.28-1.1,1.19-1.39,1.92-.44,1.52-.44,2.39.2,1.65.6,2.34.97,1.23,1.72,1.62,1.63.58,2.64.58c1.52,0,2.85-.3,3.97-.91s2-1.36,2.62-2.25.94-1.73.97-2.53l2.67,4.29c-.38.96-.88,1.96-1.53,2.99s-1.46,2-2.44,2.9-2.17,1.64-3.55,2.21-3.02.86-4.92.86c-2.41,0-4.6-.49-6.56-1.46s-3.5-2.32-4.64-4.04-1.71-3.69-1.71-5.89c0-1.99.38-3.76,1.12-5.31s1.86-2.85,3.32-3.92,3.3-1.88,5.5-2.43,4.76-.83,7.66-.83h5.87ZM1108.39,480.63v-16.95c0-1.22-.2-2.27-.6-3.15s-1.01-1.56-1.85-2.06-1.9-.74-3.22-.74c-1.12,0-2.1.19-2.92.58s-1.45.94-1.9,1.65-.67,1.55-.67,2.51h-10.12c0-1.62.38-3.15,1.12-4.61.75-1.45,1.84-2.74,3.27-3.85,1.43-1.11,3.13-1.99,5.12-2.62s4.2-.95,6.66-.95c2.95,0,5.58.49,7.88,1.48s4.11,2.46,5.43,4.43,1.99,4.43,1.99,7.38v16.28c0,2.09.13,3.79.39,5.12s.63,2.48,1.12,3.46v.6h-10.23c-.49-1.03-.86-2.33-1.11-3.88s-.37-3.12-.37-4.69Z"/>
      <path class="st0" d="M1142.11,482c1.24,0,2.34-.24,3.3-.72s1.72-1.16,2.27-2.04.84-1.92.86-3.11h9.53c-.02,2.67-.74,5.04-2.14,7.12s-3.29,3.7-5.66,4.89-5.02,1.78-7.95,1.78-5.53-.49-7.72-1.48-4.01-2.35-5.47-4.1-2.54-3.79-3.27-6.12-1.09-4.83-1.09-7.51v-1.02c0-2.7.36-5.21,1.09-7.54s1.82-4.37,3.27-6.12c1.45-1.75,3.27-3.11,5.45-4.1s4.73-1.48,7.66-1.48c3.12,0,5.85.6,8.21,1.79s4.21,2.9,5.55,5.12,2.03,4.83,2.06,7.86h-9.53c-.02-1.27-.29-2.41-.79-3.45s-1.23-1.86-2.18-2.48c-.95-.62-2.12-.93-3.5-.93-1.48,0-2.68.31-3.62.93-.94.62-1.66,1.46-2.18,2.53s-.87,2.27-1.07,3.62-.3,2.76-.3,4.24v1.02c0,1.48.09,2.89.28,4.25s.54,2.57,1.07,3.62,1.26,1.89,2.2,2.5,2.16.91,3.66.91Z"/>
      <path class="st0" d="M1174.03,435.17v54.04h-10.12v-54.04h10.12ZM1198.01,451.17l-16.52,18.84-8.86,8.96-3.69-7.31,7.03-8.93,9.88-11.57h12.16ZM1187.5,489.2l-11.25-17.58,7-6.12,15.93,23.7h-11.67Z"/>
    </g>
    <g id="Layer_2">
      <g class="st3">
        <g class="st3">
          <path class="st0" d="M883.83,355.74v-25.97h3.64v25.97h-3.64ZM885.71,345.67v-3.46h8.31c1.19,0,2.15-.41,2.87-1.23.72-.82,1.08-1.9,1.08-3.23s-.36-2.45-1.08-3.27c-.72-.82-1.68-1.23-2.87-1.23h-8.31v-3.46h8.18c1.57,0,2.94.33,4.11.99,1.17.66,2.07,1.59,2.72,2.78.65,1.19.97,2.59.97,4.2s-.32,2.99-.97,4.18c-.65,1.19-1.56,2.11-2.72,2.77-1.17.65-2.54.98-4.11.98h-8.18Z"/>
        </g>
        <g class="st3">
          <path class="st0" d="M906.25,355.74v-25.97h3.64v25.97h-3.64ZM908.51,344.69v-3.46h14.41v3.46h-14.41ZM921,355.74v-25.97h3.64v25.97h-3.64Z"/>
        </g>
        <g class="st3">
          <path class="st0" d="M931.07,355.74v-25.97h3.64v25.97h-3.64ZM932.95,345.67v-3.46h8.31c1.19,0,2.15-.41,2.87-1.23.72-.82,1.08-1.9,1.08-3.23s-.36-2.45-1.08-3.27c-.72-.82-1.68-1.23-2.87-1.23h-8.31v-3.46h8.18c1.57,0,2.94.33,4.11.99,1.17.66,2.07,1.59,2.72,2.78.65,1.19.97,2.59.97,4.2s-.32,2.99-.97,4.18c-.65,1.19-1.56,2.11-2.72,2.77-1.17.65-2.54.98-4.11.98h-8.18Z"/>
        </g>
        <g class="st3">
          <path class="st0" d="M953.49,355.74v-25.97h3.63v25.97h-3.63ZM955.63,355.74v-3.38h7.04c1.93,0,3.29-.37,4.1-1.11s1.21-1.71,1.21-2.91v-.05c0-1.29-.34-2.31-1.03-3.08s-1.81-1.15-3.38-1.15h-7.93v-3.29h7.93c1.35,0,2.36-.32,3.05-.96.68-.64,1.03-1.57,1.03-2.79,0-1.3-.38-2.27-1.14-2.91-.76-.64-1.91-.96-3.43-.96h-7.43v-3.38h8.09c2.56,0,4.46.64,5.71,1.91,1.25,1.27,1.88,2.98,1.88,5.13,0,1.3-.38,2.49-1.14,3.56-.76,1.08-1.96,1.77-3.59,2.06,1.61.24,2.85.95,3.74,2.13.89,1.18,1.33,2.53,1.33,4.05v.05c0,2.12-.68,3.83-2.05,5.13s-3.23,1.95-5.57,1.95h-8.39Z"/>
        </g>
        <g class="st3">
          <path class="st0" d="M974.06,355.74l9.57-25.97h3.11l9.57,25.97h-3.93l-7.2-20.95-7.2,20.95h-3.93ZM978.47,350.05v-3.47h13.66v3.47h-13.66Z"/>
          <path class="st0" d="M1000.24,355.73v-25.95h3.3l12.7,20.08-.43.46v-20.54h3.61v25.95h-3.34l-12.66-19.77.43-.46v20.24h-3.61Z"/>
          <path class="st0" d="M1025.86,355.74v-25.97h3.64v25.97h-3.64ZM1028.18,349.81l.54-5.47,11.47-14.57h4.48l-16.49,20.04ZM1041.29,355.74l-8.25-13.86,2.88-2.66,9.84,16.52h-4.46Z"/>
        </g>
      </g>
    </g>
    <g id="Layer_31" data-name="Layer_3">
      <path class="st2" d="M932.29,271.37c0,7.18,13.91,12.99,31.07,12.99s31.07-5.82,31.07-12.99-13.91-12.99-31.07-12.99-31.07,5.82-31.07,12.99"/>
      <path class="st2" d="M932.29,286.49c0,7.18,13.91,12.99,31.07,12.99s31.07-5.82,31.07-12.99"/>
      <path class="st2" d="M932.29,301.62c0,7.18,13.91,12.99,31.07,12.99s31.07-5.82,31.07-12.99"/>
      <path class="st2" d="M932.3,301.31v-29.23"/>
      <path class="st2" d="M994.39,271.37s.04.18.04.41v29.44c0,.22-.02.41-.04.41"/>
    </g>
    <rect class="st5" x="741.05" y="598.92" width="206.29" height="75.9" rx="37.95" ry="37.95"/>
    <g>
      <path class="st0" d="M816.9,639.79c0-.43-.07-.81-.2-1.15-.13-.33-.36-.64-.69-.91s-.77-.53-1.35-.77-1.29-.5-2.16-.75c-.91-.27-1.74-.57-2.48-.91-.74-.33-1.37-.72-1.89-1.15s-.93-.93-1.21-1.49-.42-1.2-.42-1.92.15-1.38.44-1.99.72-1.14,1.28-1.59c.55-.45,1.22-.81,1.99-1.06s1.63-.38,2.58-.38c1.39,0,2.57.26,3.54.79.97.53,1.71,1.22,2.22,2.07.51.85.76,1.76.76,2.72h-2.44c0-.69-.15-1.31-.44-1.85-.3-.54-.74-.96-1.35-1.27-.6-.31-1.36-.46-2.29-.46-.87,0-1.59.13-2.16.39s-.99.62-1.26,1.07-.41.96-.41,1.54c0,.39.08.74.25,1.06.17.32.42.61.77.88s.8.52,1.35.75,1.2.45,1.96.66c1.05.3,1.96.63,2.72.99s1.39.77,1.89,1.22c.5.45.86.96,1.1,1.54.24.57.36,1.22.36,1.94s-.15,1.43-.46,2.04-.74,1.13-1.31,1.56-1.25.76-2.04,1c-.79.23-1.67.35-2.65.35-.85,0-1.69-.12-2.52-.36s-1.57-.59-2.25-1.07-1.21-1.06-1.61-1.76c-.4-.7-.6-1.51-.6-2.43h2.44c0,.63.12,1.18.37,1.63.25.45.58.83,1.01,1.12s.91.51,1.46.65c.55.14,1.12.21,1.71.21.85,0,1.58-.12,2.17-.36s1.04-.58,1.35-1.02.46-.96.46-1.56Z"/>
      <path class="st0" d="M822.14,627.08c0-.38.12-.7.35-.96s.58-.39,1.03-.39.79.13,1.03.39.36.58.36.96-.12.67-.36.93c-.24.26-.59.39-1.03.39s-.8-.13-1.03-.39c-.23-.26-.35-.57-.35-.93ZM824.68,630.73v13.74h-2.36v-13.74h2.36Z"/>
      <path class="st0" d="M827.89,637.75v-.27c0-1.05.12-2,.37-2.86.25-.86.61-1.6,1.08-2.21s1.04-1.09,1.71-1.43c.67-.33,1.42-.5,2.26-.5s1.62.15,2.27.45c.65.3,1.2.74,1.65,1.31.45.57.81,1.26,1.07,2.06s.44,1.71.55,2.73v1.17c-.09,1.01-.27,1.91-.54,2.72s-.63,1.49-1.08,2.06-1,1-1.66,1.3c-.65.3-1.41.45-2.29.45-.82,0-1.56-.17-2.23-.52s-1.23-.83-1.71-1.46-.84-1.37-1.09-2.21c-.25-.85-.37-1.78-.37-2.77ZM837.35,630.73h2.13v13.44c0,1.21-.25,2.24-.74,3.1s-1.17,1.5-2.05,1.95c-.88.45-1.89.67-3.03.67-.47,0-1.03-.07-1.67-.22-.64-.15-1.27-.4-1.88-.75-.61-.35-1.13-.82-1.54-1.42l1.23-1.4c.58.69,1.18,1.18,1.81,1.45s1.25.41,1.87.41c.74,0,1.39-.14,1.93-.42s.96-.69,1.26-1.24c.3-.54.45-1.22.45-2.01v-10.54l.22-3.02ZM830.24,637.48v.27c0,.69.07,1.33.21,1.93s.36,1.13.65,1.59.67.81,1.12,1.07c.46.26,1,.39,1.64.39.78,0,1.42-.17,1.93-.5s.91-.77,1.21-1.31.54-1.13.7-1.76v-3.06c-.09-.47-.23-.92-.43-1.35-.19-.44-.44-.82-.74-1.17-.3-.34-.67-.62-1.11-.82s-.96-.3-1.55-.3c-.64,0-1.2.13-1.66.4-.46.27-.84.63-1.13,1.09-.29.46-.51.99-.65,1.6-.14.6-.21,1.25-.21,1.94Z"/>
      <path class="st0" d="M845.4,633.66v10.8h-2.35v-13.74h2.22l.13,2.93ZM844.84,637.08l-.98-.04c0-.94.15-1.81.42-2.61.27-.8.65-1.5,1.14-2.09s1.08-1.05,1.76-1.38c.68-.33,1.44-.49,2.27-.49.68,0,1.29.09,1.83.27.54.18,1,.47,1.39.87s.68.91.88,1.54c.2.63.3,1.4.3,2.3v9h-2.36v-9.03c0-.72-.11-1.3-.32-1.73-.21-.44-.52-.75-.93-.95-.41-.2-.91-.3-1.5-.3s-1.12.12-1.59.37-.89.58-1.23,1.02-.61.92-.8,1.48c-.19.55-.29,1.14-.29,1.76Z"/>
      <path class="st0" d="M866.84,625.98v18.48h-2.45v-18.48h2.45Z"/>
      <path class="st0" d="M873.28,633.66v10.8h-2.35v-13.74h2.22l.13,2.93ZM872.72,637.08l-.98-.04c0-.94.15-1.81.42-2.61.27-.8.65-1.5,1.14-2.09s1.08-1.05,1.76-1.38c.68-.33,1.44-.49,2.27-.49.68,0,1.29.09,1.83.27.54.18,1,.47,1.39.87.39.4.68.91.88,1.54.2.63.3,1.4.3,2.3v9h-2.36v-9.03c0-.72-.11-1.3-.32-1.73-.21-.44-.52-.75-.93-.95-.41-.2-.91-.3-1.5-.3s-1.12.12-1.59.37c-.48.25-.89.58-1.23,1.02-.34.43-.61.92-.8,1.48-.19.55-.29,1.14-.29,1.76Z"/>
    </g>
    <rect class="st1" x="979.38" y="598.92" width="206.29" height="75.9" rx="37.95" ry="37.95"/>
    <g>
      <path class="st0" d="M1051.47,625.98v18.48h-2.45v-18.48h2.45ZM1060.23,642.47v1.99h-9.24v-1.99h9.24Z"/>
      <path class="st0" d="M1062.04,637.75v-.29c0-.99.14-1.91.43-2.76.29-.85.7-1.59,1.24-2.22.54-.63,1.2-1.12,1.97-1.47.77-.35,1.63-.53,2.59-.53s1.83.18,2.61.53c.77.35,1.43.84,1.98,1.47.55.63.96,1.37,1.25,2.22.29.85.43,1.77.43,2.76v.29c0,.99-.14,1.91-.43,2.75-.29.85-.7,1.58-1.25,2.21-.55.63-1.2,1.12-1.97,1.47-.77.35-1.63.53-2.6.53s-1.83-.18-2.6-.53c-.77-.35-1.43-.84-1.97-1.47-.55-.63-.96-1.37-1.25-2.21-.29-.85-.43-1.76-.43-2.75ZM1064.39,637.46v.29c0,.69.08,1.33.24,1.94.16.6.4,1.14.73,1.61.33.47.73.83,1.22,1.1.49.27,1.06.4,1.71.4s1.21-.13,1.7-.4c.49-.27.89-.63,1.21-1.1.32-.47.57-1,.73-1.61.17-.61.25-1.25.25-1.94v-.29c0-.68-.08-1.32-.25-1.92-.17-.6-.41-1.14-.74-1.61-.33-.47-.73-.84-1.22-1.11-.49-.27-1.06-.41-1.71-.41s-1.21.14-1.69.41c-.49.27-.89.64-1.22,1.11-.33.47-.57,1.01-.73,1.61-.16.61-.24,1.25-.24,1.92Z"/>
      <path class="st0" d="M1076.93,637.75v-.27c0-1.05.12-2,.38-2.86.25-.86.61-1.6,1.08-2.21s1.04-1.09,1.71-1.43c.67-.33,1.42-.5,2.26-.5s1.62.15,2.27.45c.65.3,1.2.74,1.65,1.31.45.57.81,1.26,1.07,2.06.26.8.44,1.71.55,2.73v1.17c-.09,1.01-.27,1.91-.54,2.72s-.63,1.49-1.08,2.06c-.45.57-1,1-1.66,1.3-.65.3-1.41.45-2.29.45-.82,0-1.56-.17-2.23-.52-.67-.35-1.23-.83-1.71-1.46-.47-.63-.84-1.37-1.08-2.21-.25-.85-.38-1.78-.38-2.77ZM1086.39,630.73h2.13v13.44c0,1.21-.25,2.24-.74,3.1-.49.85-1.17,1.5-2.05,1.95-.88.45-1.89.67-3.03.67-.47,0-1.03-.07-1.67-.22-.64-.15-1.27-.4-1.88-.75-.61-.35-1.13-.82-1.54-1.42l1.23-1.4c.58.69,1.18,1.18,1.81,1.45.63.27,1.25.41,1.87.41.75,0,1.39-.14,1.93-.42.54-.28.96-.69,1.26-1.24.3-.54.45-1.22.45-2.01v-10.54l.22-3.02ZM1079.28,637.48v.27c0,.69.07,1.33.21,1.93s.36,1.13.65,1.59.67.81,1.12,1.07c.46.26,1,.39,1.64.39.78,0,1.42-.17,1.93-.5s.91-.77,1.21-1.31c.3-.54.54-1.13.7-1.76v-3.06c-.09-.47-.23-.92-.42-1.35-.19-.44-.44-.82-.74-1.17-.3-.34-.67-.62-1.11-.82-.44-.2-.96-.3-1.55-.3-.64,0-1.2.13-1.66.4-.46.27-.84.63-1.13,1.09-.29.46-.51.99-.65,1.6-.14.6-.21,1.25-.21,1.94Z"/>
      <path class="st0" d="M1101.53,625.98v18.48h-2.45v-18.48h2.45Z"/>
      <path class="st0" d="M1107.96,633.66v10.8h-2.35v-13.74h2.22l.13,2.93ZM1107.4,637.08l-.98-.04c0-.94.15-1.81.42-2.61.27-.8.65-1.5,1.14-2.09s1.08-1.05,1.76-1.38c.68-.33,1.44-.49,2.27-.49.68,0,1.29.09,1.83.27.54.18,1,.47,1.39.87.39.4.68.91.88,1.54.2.63.3,1.4.3,2.3v9h-2.36v-9.03c0-.72-.11-1.3-.32-1.73-.21-.44-.52-.75-.93-.95-.41-.2-.91-.3-1.5-.3s-1.12.12-1.59.37c-.48.25-.89.58-1.23,1.02-.34.43-.61.92-.8,1.48-.19.55-.29,1.14-.29,1.76Z"/>
    </g>
  </g>
</svg>